<svg width="76" height="76" viewBox="0 0 76 76" fill="none" xmlns="http://www.w3.org/2000/svg">
<path d="M58.5386 3.85059C66.3511 3.85059 72.6011 10.1006 72.6011 17.9131C72.6011 21.5068 71.1948 25.1006 68.6948 27.6006C70.2573 31.5068 71.0386 35.5693 71.0386 39.7881C71.0386 57.9131 56.3511 72.6006 38.2261 72.6006C20.1011 72.6006 5.41357 57.9131 5.41357 39.7881C5.41357 35.5693 6.19482 31.5068 7.75732 27.6006C5.25732 25.1006 3.85107 21.5068 3.85107 17.9131C3.85107 10.1006 10.1011 3.85059 17.9136 3.85059C21.9761 3.85059 25.7261 5.56934 28.3823 8.53809C34.7886 6.50684 41.6636 6.50684 48.0698 8.53809C50.7261 5.56934 54.4761 3.85059 58.5386 3.85059ZM62.1323 28.2256C61.5073 26.8193 61.8198 25.2568 63.0698 24.3193C65.1011 22.7568 66.3511 20.4131 66.3511 17.9131C66.3511 13.5381 62.9136 10.1006 58.5386 10.1006C55.7261 10.1006 53.3823 11.5068 51.8198 13.8506C51.0386 15.1006 49.4761 15.7256 48.0698 15.1006C41.8198 12.6006 34.7886 12.6006 28.3823 15.1006C26.9761 15.7256 25.4136 15.1006 24.6323 13.8506C23.2261 11.5068 20.7261 10.1006 17.9136 10.1006C13.6948 10.1006 10.1011 13.5381 10.1011 17.9131C10.1011 20.4131 11.3511 22.7568 13.3823 24.3193C14.6323 25.2568 15.1011 26.8193 14.3198 28.2256C12.6011 31.8193 11.6636 35.7256 11.6636 39.7881C11.6636 54.4756 23.5386 66.3506 38.2261 66.3506C52.9136 66.3506 64.7886 54.4756 64.7886 39.7881C64.7886 35.7256 63.8511 31.8193 62.1323 28.2256Z" fill="#E3CFBE"/>
<path d="M43.8511 44.4756H32.6011C31.8198 44.4756 31.3511 45.5693 32.1323 46.0381L35.4136 48.3818C36.1948 48.8506 36.6636 49.6318 36.8198 50.4131L37.4448 52.9131C37.6011 53.6943 38.6948 53.6943 38.8511 52.9131L39.4761 50.4131C39.7886 49.6318 40.2573 48.8506 40.8823 48.3818L44.4761 46.0381C45.1011 45.5693 44.7886 44.4756 43.8511 44.4756ZM49.1636 30.4131C46.5073 30.4131 44.4761 32.4443 44.4761 35.1006C44.4761 37.7568 46.5073 39.7881 49.1636 39.7881C51.8198 39.7881 53.8511 37.7568 53.8511 35.1006C53.8511 32.4443 51.8198 30.4131 49.1636 30.4131ZM27.2886 30.4131C24.6323 30.4131 22.6011 32.4443 22.6011 35.1006C22.6011 37.7568 24.6323 39.7881 27.2886 39.7881C29.9448 39.7881 31.9761 37.7568 31.9761 35.1006C31.9761 32.4443 29.9448 30.4131 27.2886 30.4131Z" fill="#E3CFBE"/>
</svg>
