<svg width="45" height="45" viewBox="0 0 45 45" fill="none" xmlns="http://www.w3.org/2000/svg">
<circle cx="22.5" cy="22.5" r="22.5" fill="#F4AA5A"/>
<path d="M19.75 25.9966C19.5345 25.9966 19.3278 26.0822 19.1755 26.2346C19.0231 26.3869 18.9375 26.5936 18.9375 26.8091C18.9375 27.0246 19.0231 27.2312 19.1755 27.3836C19.3278 27.536 19.5345 27.6216 19.75 27.6216C19.9655 27.6216 20.1722 27.536 20.3245 27.3836C20.4769 27.2312 20.5625 27.0246 20.5625 26.8091C20.5625 26.5936 20.4769 26.3869 20.3245 26.2346C20.1722 26.0822 19.9655 25.9966 19.75 25.9966ZM26.25 25.9966C26.0345 25.9966 25.8278 26.0822 25.6755 26.2346C25.5231 26.3869 25.4375 26.5936 25.4375 26.8091C25.4375 27.0246 25.5231 27.2312 25.6755 27.3836C25.8278 27.536 26.0345 27.6216 26.25 27.6216C26.4655 27.6216 26.6722 27.536 26.8245 27.3836C26.9769 27.2312 27.0625 27.0246 27.0625 26.8091C27.0625 26.5936 26.9769 26.3869 26.8245 26.2346C26.6722 26.0822 26.4655 25.9966 26.25 25.9966Z" fill="#F19129"/>
<path d="M23 36.0001C17.176 36.0001 12.4375 32.3748 12.4375 27.9182C12.4375 23.4616 17.176 19.8354 23 19.8354C28.824 19.8354 33.5625 23.4616 33.5625 27.9182C33.5625 32.3748 28.824 36.0001 23 36.0001ZM23 21.4604C18.0722 21.4604 14.0625 24.357 14.0625 27.9182C14.0625 31.4794 18.0722 34.3751 23 34.3751C27.9278 34.3751 31.9375 31.4786 31.9375 27.9182C31.9375 24.3578 27.9278 21.4604 23 21.4604Z" fill="#F19129"/>
<path d="M16.686 22.9839C16.3797 22.9839 16.0855 22.81 15.9474 22.5135C15.3088 21.1387 14.8221 19.6039 14.502 17.9513C14.2886 16.8403 14.1534 15.7158 14.0974 14.5859L14.0909 14.4543C14.0364 13.381 13.9739 12.163 14.8002 11.1084C14.8709 11.019 14.9464 10.9321 15.0269 10.8508C15.8483 10.0067 17.1459 9.75885 18.1087 10.2634C18.8155 10.6331 19.3258 11.3684 19.5086 12.2808C19.6654 13.0592 19.589 13.8587 19.5224 14.5632L19.5135 14.6485C19.286 17.0291 19.286 19.1725 19.5119 21.2013C19.5356 21.4155 19.4732 21.6303 19.3385 21.7985C19.2038 21.9668 19.0078 22.0746 18.7936 22.0983C18.5794 22.122 18.3646 22.0596 18.1964 21.9249C18.0281 21.7902 17.9203 21.5942 17.8966 21.38C17.6585 19.2399 17.6585 16.9877 17.8966 14.4949L17.9047 14.4088C17.964 13.7872 18.025 13.1445 17.9153 12.601C17.8324 12.1833 17.6179 11.8405 17.3547 11.7032C17.024 11.5285 16.5097 11.656 16.1863 11.9875C16.1457 12.0298 16.1107 12.0688 16.0782 12.111C15.6265 12.6879 15.6671 13.4679 15.7126 14.3714L15.7199 14.5038C15.7727 15.5682 15.9003 16.6245 16.0961 17.6425C16.391 19.1652 16.8371 20.5732 17.4205 21.8285C17.4779 21.9522 17.5032 22.0884 17.4942 22.2244C17.4852 22.3605 17.4421 22.4921 17.3688 22.6071C17.2956 22.7221 17.1946 22.8168 17.0751 22.8825C16.9556 22.9482 16.8215 22.9828 16.6852 22.9831L16.686 22.9839ZM29.3114 22.9904C29.1747 22.9908 29.0402 22.9565 28.9203 22.891C28.8003 22.8254 28.6989 22.7305 28.6255 22.6152C28.552 22.5 28.5089 22.368 28.5001 22.2316C28.4914 22.0952 28.5172 21.9588 28.5753 21.835C29.1603 20.5797 29.6064 19.1684 29.9029 17.6425C30.0987 16.6245 30.2263 15.569 30.2791 14.5038L30.2864 14.3714C30.3319 13.4679 30.3725 12.6871 29.9208 12.111C29.8883 12.0688 29.8542 12.0298 29.8168 11.9916C29.4885 11.656 28.9759 11.5301 28.6435 11.7032C28.3811 11.8405 28.1666 12.1833 28.0829 12.6002C27.974 13.1445 28.035 13.7864 28.0951 14.4088L28.1032 14.4949C28.3372 16.9568 28.3397 19.1806 28.1122 21.2931C28.1027 21.4008 28.0719 21.5055 28.0215 21.6011C27.9711 21.6967 27.9021 21.7812 27.8186 21.8499C27.7351 21.9185 27.6387 21.9697 27.5351 22.0006C27.4316 22.0315 27.3229 22.0415 27.2154 22.0299C27.108 22.0182 27.0039 21.9853 26.9093 21.933C26.8148 21.8806 26.7316 21.8099 26.6647 21.7251C26.5978 21.6402 26.5485 21.5428 26.5197 21.4386C26.4909 21.3345 26.4831 21.2256 26.4969 21.1184C26.7122 19.1172 26.709 17.0007 26.4855 14.6485L26.4774 14.5632C26.41 13.8587 26.3336 13.06 26.4904 12.28C26.6732 11.3684 27.1827 10.6331 27.8904 10.2634C28.854 9.75885 30.154 10.0075 30.9779 10.8549C31.0534 10.9321 31.129 11.0182 31.1997 11.1084C32.026 12.163 31.9634 13.381 31.909 14.4543L31.9025 14.5851C31.8465 15.715 31.7113 16.8395 31.4979 17.9505C31.1761 19.608 30.6894 21.1452 30.0484 22.5208C29.983 22.6611 29.879 22.7799 29.7484 22.8631C29.6178 22.9463 29.4662 22.9905 29.3114 22.9904ZM22.9999 31.1252C22.7844 31.1252 22.5778 31.0396 22.4254 30.8872C22.273 30.7348 22.1874 30.5281 22.1874 30.3127V29.5002C22.1874 29.2847 22.273 29.078 22.4254 28.9256C22.5778 28.7733 22.7844 28.6877 22.9999 28.6877C23.2154 28.6877 23.4221 28.7733 23.5744 28.9256C23.7268 29.078 23.8124 29.2847 23.8124 29.5002V30.3127C23.8124 30.5281 23.7268 30.7348 23.5744 30.8872C23.4221 31.0396 23.2154 31.1252 22.9999 31.1252Z" fill="#F19129"/>
<path d="M21.781 31.8505C21.5191 31.8511 21.2598 31.7996 21.0179 31.6992C20.7761 31.5988 20.5566 31.4514 20.3721 31.2655C20.3319 31.2284 20.2995 31.1835 20.277 31.1336C20.2545 31.0836 20.2424 31.0297 20.2413 30.9749C20.2402 30.9202 20.2502 30.8658 20.2707 30.815C20.2911 30.7642 20.3216 30.718 20.3604 30.6793C20.3992 30.6406 20.4453 30.6102 20.4962 30.5898C20.547 30.5694 20.6014 30.5595 20.6562 30.5606C20.7109 30.5618 20.7649 30.574 20.8148 30.5966C20.8647 30.6192 20.9095 30.6516 20.9466 30.6919C21.3918 31.1388 22.1702 31.1388 22.6154 30.6919C22.6529 30.6531 22.6977 30.6221 22.7473 30.6008C22.7969 30.5796 22.8502 30.5684 22.9041 30.5679C22.9581 30.5674 23.0116 30.5777 23.0615 30.5981C23.1114 30.6185 23.1568 30.6487 23.1949 30.6869C23.2331 30.725 23.2632 30.7704 23.2837 30.8203C23.3041 30.8702 23.3144 30.9237 23.3139 30.9776C23.3134 31.0316 23.3022 31.0849 23.2809 31.1345C23.2596 31.184 23.2287 31.2289 23.1899 31.2663C23.0054 31.452 22.7858 31.5993 22.544 31.6996C22.3021 31.7999 22.0428 31.8512 21.781 31.8505Z" fill="#F19129"/>
<path d="M21.781 31.8505C21.5191 31.8511 21.2598 31.7996 21.0179 31.6992C20.7761 31.5988 20.5566 31.4514 20.3721 31.2655C20.3319 31.2284 20.2995 31.1835 20.277 31.1336C20.2545 31.0836 20.2424 31.0297 20.2413 30.9749C20.2402 30.9202 20.2502 30.8658 20.2707 30.815C20.2911 30.7642 20.3216 30.718 20.3604 30.6793C20.3992 30.6406 20.4453 30.6102 20.4962 30.5898C20.547 30.5694 20.6014 30.5595 20.6562 30.5606C20.7109 30.5618 20.7649 30.574 20.8148 30.5966C20.8647 30.6192 20.9095 30.6516 20.9466 30.6919C21.3918 31.1388 22.1702 31.1388 22.6154 30.6919C22.6529 30.6531 22.6977 30.6221 22.7473 30.6008C22.7969 30.5796 22.8502 30.5684 22.9041 30.5679C22.9581 30.5674 23.0116 30.5777 23.0615 30.5981C23.1114 30.6185 23.1568 30.6487 23.1949 30.6869C23.2331 30.725 23.2632 30.7704 23.2837 30.8203C23.3041 30.8702 23.3144 30.9237 23.3139 30.9776C23.3134 31.0316 23.3022 31.0849 23.2809 31.1345C23.2596 31.184 23.2287 31.2289 23.1899 31.2663C23.0054 31.452 22.7858 31.5993 22.544 31.6996C22.3021 31.7999 22.0428 31.8512 21.781 31.8505Z" fill="#F19129"/>
<path d="M24.2185 31.8505C23.9566 31.8511 23.6973 31.7996 23.4554 31.6992C23.2136 31.5988 22.9941 31.4514 22.8096 31.2655C22.7694 31.2284 22.737 31.1835 22.7145 31.1336C22.692 31.0836 22.6799 31.0297 22.6788 30.9749C22.6777 30.9202 22.6877 30.8658 22.7082 30.815C22.7286 30.7642 22.7591 30.718 22.7979 30.6793C22.8367 30.6406 22.8828 30.6102 22.9337 30.5898C22.9845 30.5694 23.0389 30.5595 23.0937 30.5606C23.1484 30.5618 23.2024 30.574 23.2523 30.5966C23.3022 30.6192 23.347 30.6516 23.3841 30.6919C23.8293 31.1388 24.6077 31.1388 25.0529 30.6919C25.0904 30.6531 25.1352 30.6221 25.1848 30.6008C25.2344 30.5796 25.2877 30.5684 25.3416 30.5679C25.3956 30.5674 25.4491 30.5777 25.499 30.5981C25.5489 30.6185 25.5943 30.6487 25.6324 30.6869C25.6706 30.725 25.7007 30.7704 25.7212 30.8203C25.7416 30.8702 25.7519 30.9237 25.7514 30.9776C25.7509 31.0316 25.7397 31.0849 25.7184 31.1345C25.6971 31.184 25.6662 31.2289 25.6274 31.2663C25.4429 31.452 25.2233 31.5993 24.9815 31.6996C24.7396 31.7999 24.4803 31.8512 24.2185 31.8505Z" fill="#F19129"/>
<path d="M24.2185 31.8505C23.9566 31.8511 23.6973 31.7996 23.4554 31.6992C23.2136 31.5988 22.9941 31.4514 22.8096 31.2655C22.7694 31.2284 22.737 31.1835 22.7145 31.1336C22.692 31.0836 22.6799 31.0297 22.6788 30.9749C22.6777 30.9202 22.6877 30.8658 22.7082 30.815C22.7286 30.7642 22.7591 30.718 22.7979 30.6793C22.8367 30.6406 22.8828 30.6102 22.9337 30.5898C22.9845 30.5694 23.0389 30.5595 23.0937 30.5606C23.1484 30.5618 23.2024 30.574 23.2523 30.5966C23.3022 30.6192 23.347 30.6516 23.3841 30.6919C23.8293 31.1388 24.6077 31.1388 25.0529 30.6919C25.0904 30.6531 25.1352 30.6221 25.1848 30.6008C25.2344 30.5796 25.2877 30.5684 25.3416 30.5679C25.3956 30.5674 25.4491 30.5777 25.499 30.5981C25.5489 30.6185 25.5943 30.6487 25.6324 30.6869C25.6706 30.725 25.7007 30.7704 25.7212 30.8203C25.7416 30.8702 25.7519 30.9237 25.7514 30.9776C25.7509 31.0316 25.7397 31.0849 25.7184 31.1345C25.6971 31.184 25.6662 31.2289 25.6274 31.2663C25.4429 31.452 25.2233 31.5993 24.9815 31.6996C24.7396 31.7999 24.4803 31.8512 24.2185 31.8505Z" fill="#F19129"/>
</svg>
