<svg width="45" height="45" viewBox="0 0 45 45" fill="none" xmlns="http://www.w3.org/2000/svg">
<circle cx="22.5" cy="22.5" r="22.5" fill="#F5DED1"/>
<path fill-rule="evenodd" clip-rule="evenodd" d="M23.2023 34C20.1301 34 17.2448 32.8035 15.0709 30.6331C12.9006 28.4593 11.7041 25.5704 11.7041 22.5018C11.7041 21.6322 11.8011 20.7627 11.9952 19.9219L13.4899 20.2632C13.321 20.9926 13.2384 21.7436 13.2384 22.4982C13.2384 25.1607 14.2732 27.6616 16.1561 29.5444C18.0389 31.4272 20.5398 32.462 23.2023 32.462C25.8648 32.462 28.3657 31.4272 30.2486 29.5444C32.1314 27.6616 33.1662 25.1607 33.1662 22.4982C33.1662 21.8011 33.0943 21.1076 32.9506 20.4321L34.4525 20.1159C34.6179 20.8956 34.7005 21.6969 34.7005 22.4982C34.7005 25.5704 33.504 28.4557 31.3337 30.6297C29.1599 32.8035 26.2745 34 23.2023 34ZM29.5587 14.8232C27.7764 13.35 25.5199 12.5343 23.2023 12.5343C20.9781 12.5343 18.8761 13.2493 17.119 14.604L16.1812 13.3895C18.2078 11.8264 20.6368 11 23.2023 11C24.5641 11 25.9008 11.2372 27.1692 11.7007C28.3945 12.1498 29.5263 12.8038 30.536 13.641L29.5587 14.8232Z" fill="#F1CCB8"/>
<path d="M18.6025 18.6682C18.6025 18.8712 18.6832 19.0658 18.8267 19.2094C18.9702 19.3529 19.1649 19.4335 19.3679 19.4335C19.5709 19.4335 19.7655 19.3529 19.9091 19.2094C20.0526 19.0658 20.1333 18.8712 20.1333 18.6682C20.1333 18.4652 20.0526 18.2705 19.9091 18.127C19.7655 17.9835 19.5709 17.9028 19.3679 17.9028C19.1649 17.9028 18.9702 17.9835 18.8267 18.127C18.6832 18.2705 18.6025 18.4652 18.6025 18.6682Z" fill="#F1CCB8"/>
<path d="M19.3689 19.663C18.8191 19.663 18.3735 19.2174 18.3735 18.6677C18.3735 18.1179 18.8191 17.6724 19.3689 17.6724C19.9186 17.6724 20.3642 18.1179 20.3642 18.6677C20.3642 19.2174 19.9186 19.663 19.3689 19.663ZM19.3689 18.1323C19.0742 18.1323 18.8335 18.373 18.8335 18.6677C18.8335 18.9623 19.0742 19.2031 19.3689 19.2031C19.6635 19.2031 19.9042 18.9623 19.9042 18.6677C19.9042 18.373 19.6671 18.1323 19.3689 18.1323Z" fill="#F1CCB8"/>
<path d="M20.9458 26.4148C20.9458 26.6177 21.0264 26.8124 21.17 26.956C21.3135 27.0995 21.5082 27.1801 21.7112 27.1801C21.9141 27.1801 22.1088 27.0995 22.2523 26.956C22.3959 26.8124 22.4765 26.6177 22.4765 26.4148C22.4765 26.2118 22.3959 26.0171 22.2523 25.8736C22.1088 25.73 21.9141 25.6494 21.7112 25.6494C21.5082 25.6494 21.3135 25.73 21.17 25.8736C21.0264 26.0171 20.9458 26.2118 20.9458 26.4148Z" fill="#F1CCB8"/>
<path d="M24.0142 26.4148C24.0142 26.6177 24.0948 26.8124 24.2383 26.956C24.3819 27.0995 24.5765 27.1801 24.7795 27.1801C24.9825 27.1801 25.1772 27.0995 25.3207 26.956C25.4642 26.8124 25.5449 26.6177 25.5449 26.4148C25.5449 26.2118 25.4642 26.0171 25.3207 25.8736C25.1772 25.73 24.9825 25.6494 24.7795 25.6494C24.5765 25.6494 24.3819 25.73 24.2383 25.8736C24.0948 26.0171 24.0142 26.2118 24.0142 26.4148Z" fill="#F1CCB8"/>
<path d="M26.2705 18.6682C26.2705 18.8712 26.3511 19.0658 26.4947 19.2094C26.6382 19.3529 26.8329 19.4335 27.0359 19.4335C27.2388 19.4335 27.4335 19.3529 27.577 19.2094C27.7207 19.0658 27.8012 18.8712 27.8012 18.6682C27.8012 18.4652 27.7207 18.2705 27.577 18.127C27.4335 17.9835 27.2388 17.9028 27.0359 17.9028C26.8329 17.9028 26.6382 17.9835 26.4947 18.127C26.3511 18.2705 26.2705 18.4652 26.2705 18.6682Z" fill="#F1CCB8"/>
<path d="M27.0359 19.6634C26.4861 19.6634 26.0406 19.2178 26.0406 18.6681C26.0406 18.1183 26.4861 17.6727 27.0359 17.6727C27.5856 17.6727 28.0312 18.1183 28.0312 18.6681C28.0312 19.2178 27.5856 19.6634 27.0359 19.6634ZM27.0359 18.1327C26.7412 18.1327 26.5005 18.3734 26.5005 18.6681C26.5005 18.9627 26.7412 19.2034 27.0359 19.2034C27.3305 19.2034 27.5713 18.9627 27.5713 18.6681C27.5713 18.3734 27.3305 18.1327 27.0359 18.1327ZM23.2019 30.9316C21.7934 30.9316 20.4639 30.4681 19.4578 29.6309C18.4122 28.7577 17.8337 27.5863 17.8337 26.3323C17.8337 25.0783 18.4086 23.9069 19.4578 23.0338C20.4639 22.1966 21.7934 21.733 23.2019 21.733C24.6105 21.733 25.94 22.1966 26.946 23.0338C27.9917 23.9069 28.5702 25.0783 28.5702 26.3323C28.5702 27.5863 27.9953 28.7577 26.946 29.6309C25.94 30.4716 24.6105 30.9316 23.2019 30.9316ZM23.2019 23.2673C21.0892 23.2673 19.368 24.6435 19.368 26.3323C19.368 28.0211 21.0892 29.3972 23.2019 29.3972C25.3147 29.3972 27.0359 28.0211 27.0359 26.3323C27.0359 24.6435 25.3147 23.2673 23.2019 23.2673ZM33.9383 20.6048C33.7838 20.6048 33.6258 20.5976 33.4641 20.5796C32.3718 20.4575 31.3009 19.9257 30.4565 19.0777C29.6086 18.2297 29.0767 17.1625 28.9546 16.0702C28.8252 14.9132 29.1667 13.864 29.914 13.1166C30.6614 12.3692 31.7106 12.0278 32.8676 12.1572C33.9599 12.2794 35.0308 12.8112 35.8752 13.6591C36.7231 14.5071 37.255 15.5743 37.3771 16.6666C37.5065 17.8237 37.165 18.8729 36.4177 19.6202C35.7746 20.2634 34.9086 20.6048 33.9383 20.6048ZM32.4005 13.6628C31.84 13.6628 31.3477 13.8496 30.9992 14.1981C30.5895 14.6078 30.4026 15.2114 30.4782 15.8977C30.5608 16.6451 30.9381 17.3889 31.5381 17.9925C32.1382 18.5962 32.882 18.9699 33.6329 19.0525C34.3193 19.128 34.9229 18.9447 35.3325 18.5315C35.7422 18.1219 35.9291 17.5182 35.8535 16.8319C35.7709 16.0845 35.3935 15.3408 34.7936 14.7371C34.1935 14.137 33.4497 13.7598 32.6987 13.6771C32.5981 13.6699 32.4975 13.6628 32.4005 13.6628ZM12.4655 20.6048C11.4989 20.6048 10.6294 20.2634 9.98621 19.6202C9.23883 18.8729 8.89748 17.8237 9.02683 16.6666C9.149 15.5743 9.68079 14.5036 10.5288 13.6591C11.3768 12.8112 12.444 12.2794 13.5363 12.1572C14.6933 12.0278 15.7425 12.3692 16.4899 13.1166C17.2373 13.864 17.5786 14.9132 17.4493 16.0702C17.3271 17.1625 16.7953 18.2333 15.9473 19.0777C15.0993 19.9257 14.0321 20.4575 12.9398 20.5796C12.7781 20.5976 12.62 20.6048 12.4655 20.6048ZM11.6103 14.7407C11.0103 15.3408 10.633 16.0845 10.5503 16.8355C10.4749 17.5218 10.6581 18.1255 11.0713 18.5351C11.4846 18.9447 12.0846 19.1316 12.7709 19.0561C13.5183 18.9735 14.2621 18.5962 14.8657 17.9961C15.4694 17.3961 15.8431 16.6523 15.9258 15.9013C16.0012 15.215 15.8179 14.6113 15.4047 14.2017C14.9915 13.7921 14.3915 13.6053 13.7052 13.6807C12.9542 13.7633 12.2104 14.1406 11.6103 14.7407Z" fill="#F1CCB8"/>
</svg>
