<svg width="45" height="45" viewBox="0 0 45 45" fill="none" xmlns="http://www.w3.org/2000/svg">
<circle cx="22.5" cy="22.5" r="22.5" fill="#F5DFDA"/>
<g clip-path="url(#clip0_235_102)">
<path d="M18.5055 26.5638C18.5055 26.056 18.9148 25.6445 19.4195 25.6445C19.9241 25.6445 20.3334 26.0562 20.3334 26.5638C20.3334 27.0715 19.9241 27.4833 19.4195 27.4833C18.9148 27.4833 18.5055 27.0715 18.5055 26.5638ZM26.0319 26.5638C26.0319 26.056 26.4412 25.6445 26.9459 25.6445C27.4505 25.6445 27.8598 26.0562 27.8598 26.5638C27.8598 27.0715 27.4505 27.4833 26.9459 27.4833C26.4412 27.4833 26.0319 27.0715 26.0319 26.5638ZM22.0515 29.8642C21.9475 29.8035 21.8717 29.7041 21.8407 29.5877C21.8097 29.4713 21.826 29.3474 21.8861 29.243C21.9156 29.1914 21.955 29.1461 22.002 29.1098C22.049 29.0735 22.1028 29.0468 22.1602 29.0314C22.2176 29.0159 22.2775 29.012 22.3364 29.0198C22.3953 29.0276 22.4521 29.047 22.5035 29.0769L23.1439 29.4486L23.7839 29.0769C23.8353 29.0471 23.892 29.0277 23.9509 29.02C24.0098 29.0122 24.0697 29.0161 24.1271 29.0316C24.1845 29.047 24.2382 29.0736 24.2852 29.1099C24.3323 29.1462 24.3717 29.1915 24.4012 29.243C24.4612 29.3474 24.4775 29.4713 24.4466 29.5877C24.4156 29.7041 24.3398 29.8035 24.2358 29.8642L23.5956 30.2362V30.977C23.5956 31.2281 23.3933 31.4316 23.1437 31.4316C23.0841 31.4314 23.0252 31.4196 22.9703 31.3966C22.9154 31.3737 22.8655 31.3402 22.8235 31.2979C22.7816 31.2557 22.7483 31.2057 22.7257 31.1506C22.7031 31.0955 22.6916 31.0366 22.6917 30.977V30.2362L22.0515 29.8642ZM35.9573 22.2061C36.0165 22.3364 36.0179 22.4825 35.9611 22.614C35.5928 23.4653 34.5774 24.1527 33.7909 24.5794C32.8839 25.0713 31.8149 25.4733 30.7427 25.7298V27.6003C30.7427 29.4838 29.9391 31.2546 28.48 32.5866C27.021 33.9182 25.0804 34.6519 23.0163 34.6519C20.9527 34.6519 19.0119 33.9182 17.5526 32.5866C16.0935 31.2546 15.2894 29.4838 15.2894 27.6003V25.7367C14.2076 25.4808 13.1273 25.0761 12.2119 24.5794C11.4253 24.1527 10.4102 23.4653 10.0416 22.614C10.0135 22.5496 9.99936 22.4799 10 22.4096C10.0007 22.3394 10.0162 22.27 10.0455 22.2061C10.378 21.4752 11.4323 20.7558 12.1423 20.3356C11.9473 20.0154 11.8442 19.661 11.8442 19.2924C11.8442 18.4714 12.3715 17.7185 13.2205 17.2827C13.2106 17.1743 13.2055 17.0655 13.2055 16.9567C13.2055 16.1037 13.5048 15.2966 14.0487 14.6846C14.5471 14.1236 15.1967 13.7817 15.9038 13.7022C16.1058 12.3595 17.3706 11.3223 18.8963 11.3223C19.6716 11.3223 20.398 11.5883 20.9491 12.0559C21.4997 11.5883 22.2261 11.3223 23.0014 11.3223C23.7766 11.3223 24.503 11.5883 25.0542 12.0559C25.6053 11.5883 26.3319 11.3223 27.1072 11.3223C28.6324 11.3223 29.8974 12.3597 30.0992 13.702C30.8063 13.7819 31.4561 14.1238 31.9543 14.6846C32.4984 15.2966 32.7975 16.1037 32.7975 16.9567C32.7975 17.0809 32.791 17.2052 32.7782 17.3284C33.0917 17.5018 33.3625 17.7218 33.5739 17.9771C33.8973 18.3673 34.0685 18.8222 34.0685 19.2924C34.0679 19.6453 33.9731 19.9917 33.794 20.2959C34.5334 20.7269 35.6171 21.4578 35.9573 22.2061ZM14.1214 18.1367C13.4863 18.3543 13.0758 18.8164 13.0755 19.3138C13.0755 20.0335 13.897 20.6188 14.9065 20.6188C15.5689 20.6188 16.1831 20.3587 16.5089 19.9405C16.6196 19.7985 16.7987 19.7132 16.9899 19.7118C17.1811 19.7113 17.3617 19.7934 17.4748 19.934C17.8189 20.3626 18.3719 20.6183 18.9536 20.6183C19.4845 20.6183 19.9889 20.4083 20.3375 20.0421C20.4707 19.9025 20.6727 19.8341 20.8737 19.8608C21.075 19.888 21.2469 20.0062 21.3302 20.175C21.6256 20.7733 22.2812 21.16 23.0011 21.16C23.721 21.16 24.3766 20.7733 24.6721 20.175C24.7551 20.0065 24.9273 19.8875 25.1283 19.8608C25.3296 19.8341 25.5318 19.9022 25.665 20.0421C26.0134 20.4086 26.518 20.6183 27.0489 20.6183C27.6304 20.6183 28.1834 20.3623 28.5277 19.9338C28.6399 19.7941 28.8183 19.7115 29.0083 19.7115H29.0128C29.2042 19.713 29.3834 19.7982 29.4939 19.9403C29.8196 20.3587 30.4336 20.6183 31.0962 20.6183C32.1057 20.6183 32.9272 20.0332 32.9272 19.3133C32.9272 18.8308 32.5514 18.3888 31.9466 18.1598C31.6832 18.0601 31.5344 17.8042 31.5924 17.5497C31.6343 17.3662 31.6555 17.1758 31.6555 16.9839C31.6555 16.3803 31.4504 15.8176 31.0777 15.3997C30.7348 15.0147 30.2899 14.8026 29.8247 14.8026C29.7655 14.8026 29.7063 14.8061 29.6475 14.8129C29.5612 14.8235 29.4736 14.8162 29.3902 14.7914C29.3068 14.7666 29.2294 14.7249 29.1628 14.6689C29.0331 14.5572 28.9654 14.3983 28.9784 14.2363C28.9825 14.1876 28.9842 14.1486 28.9842 14.1128C28.9842 13.194 28.1627 12.4466 27.1534 12.4466C26.5209 12.4466 25.9414 12.738 25.6033 13.2262C25.4945 13.3837 25.3043 13.4793 25.0999 13.4793C24.8952 13.4793 24.705 13.3837 24.5962 13.2265C24.2582 12.738 23.6789 12.4464 23.0464 12.4464C22.4139 12.4464 21.8344 12.738 21.4963 13.2265C21.3875 13.3837 21.1973 13.4793 20.9929 13.4793C20.7882 13.4793 20.598 13.3837 20.4892 13.2265C20.1512 12.738 19.5719 12.4464 18.9394 12.4464C17.9299 12.4464 17.1084 13.194 17.1084 14.1128C17.1084 14.1484 17.1103 14.1874 17.1141 14.2363C17.1271 14.3983 17.0597 14.557 16.93 14.6689C16.8634 14.725 16.786 14.7667 16.7026 14.7914C16.6192 14.8162 16.5316 14.8235 16.4453 14.8129C16.3865 14.8061 16.3275 14.8026 16.2683 14.8026C15.8036 14.8026 15.3582 15.0147 15.0154 15.3997C14.6427 15.8176 14.4375 16.3803 14.4375 16.9839C14.4375 17.1666 14.457 17.3484 14.4953 17.5249C14.5517 17.7847 14.3937 18.0433 14.1214 18.1364V18.1367ZM11.3979 22.4064C11.9314 23.1832 13.5657 24.0677 15.3125 24.5329V21.6608C15.1764 21.6755 15.0382 21.6834 14.8984 21.6834C14.2146 21.6834 13.564 21.4988 13.0408 21.1602C12.1977 21.6384 11.6458 22.0932 11.3979 22.4067V22.4064ZM27.6477 31.8043C28.8886 30.6929 29.5724 29.2153 29.5719 27.6439V21.5043C29.3615 21.4122 29.1621 21.2968 28.9774 21.1602C28.4328 21.5751 27.7341 21.8113 27.008 21.8113C26.3984 21.8113 25.8029 21.6468 25.2993 21.3394C24.731 21.9663 23.8679 22.347 22.9409 22.347C22.014 22.347 21.1511 21.9666 20.5826 21.3391C20.0835 21.6439 19.4895 21.8113 18.8739 21.8113C18.148 21.8113 17.4493 21.5753 16.9047 21.1602C16.7588 21.2693 16.6001 21.3651 16.4308 21.4484V27.6436C16.4308 29.2153 17.1141 30.6929 18.3551 31.8043C19.5962 32.9154 21.2462 33.5275 23.0014 33.5275C24.7566 33.5275 26.4065 32.9154 27.6477 31.8041V31.8043ZM30.97 24.5331C32.7192 24.0682 34.3511 23.193 34.8844 22.425C34.5724 22.0318 33.8554 21.5368 33.1805 21.1602C32.6472 21.5134 31.976 21.7068 31.2693 21.7068C31.1687 21.7068 31.069 21.7027 30.97 21.695V24.5331Z" fill="white"/>
</g>
<defs>
<clipPath id="clip0_235_102">
<rect width="26" height="26" fill="white" transform="translate(10 10)"/>
</clipPath>
</defs>
</svg>
