<svg width="45" height="45" viewBox="0 0 45 45" fill="none" xmlns="http://www.w3.org/2000/svg">
<circle cx="22.5" cy="22.5" r="22.5" fill="#DFDECC"/>
<path d="M30.3863 17.0393C32.7768 17.2388 34.6668 19.2257 34.6668 21.6663V25.1663C34.6668 27.096 33.0965 28.6663 31.1668 28.6663C31.1668 31.24 29.0738 33.333 26.5002 33.333C26.429 33.333 26.3625 33.3155 26.2913 33.312C26.0551 33.9976 25.6113 34.5926 25.0215 35.0145C24.4318 35.4364 23.7253 35.6642 23.0002 35.6663C22.275 35.6642 21.5685 35.4364 20.9788 35.0145C20.389 34.5926 19.9452 33.9976 19.709 33.312C19.6378 33.3155 19.5713 33.333 19.5002 33.333C16.9265 33.333 14.8335 31.24 14.8335 28.6663C12.9038 28.6663 11.3335 27.096 11.3335 25.1663V21.6663C11.3335 19.2257 13.2235 17.2388 15.614 17.0393C16.9195 14.2638 19.7358 12.333 23.0002 12.333C26.2645 12.333 29.0808 14.2638 30.3863 17.0393ZM32.3335 25.1663V21.6663C32.3333 21.257 32.2254 20.8548 32.0206 20.5004C31.8158 20.1459 31.5214 19.8515 31.1668 19.6468V26.333C31.8097 26.333 32.3335 25.8092 32.3335 25.1663ZM28.8335 28.6663V20.4997C28.8335 17.2832 26.2167 14.6663 23.0002 14.6663C19.7837 14.6663 17.1668 17.2832 17.1668 20.4997V28.6663C17.1668 29.9532 18.2133 30.9997 19.5002 30.9997C20.787 30.9997 21.8335 29.9532 21.8335 28.6663V27.1765C21.3885 26.9209 21.0405 26.5252 20.8437 26.0513C20.647 25.5773 20.6125 25.0515 20.7456 24.5559C20.8787 24.0602 21.172 23.6225 21.5798 23.3109C21.9876 22.9993 22.487 22.8313 23.0002 22.833C23.3091 22.6555 23.6547 22.5514 24.0102 22.5286C24.3658 22.5058 24.7218 22.565 25.0509 22.7016C25.3799 22.8382 25.6732 23.0486 25.9081 23.3165C26.143 23.5844 26.3132 23.9026 26.4057 24.2467C26.4981 24.5908 26.5102 24.9515 26.4412 25.3011C26.3721 25.6506 26.2237 25.9796 26.0074 26.2627C25.7911 26.5458 25.5126 26.7754 25.1935 26.9338C24.8744 27.0923 24.5231 27.1753 24.1668 27.1765V28.6663C24.1668 29.9532 25.2133 30.9997 26.5002 30.9997C27.787 30.9997 28.8335 29.9532 28.8335 28.6663ZM23.0002 33.333C23.4785 33.333 23.888 33.0425 24.0688 32.6295C23.6689 32.3821 23.3086 32.0757 23.0002 31.7207C22.6898 32.0742 22.3352 32.3822 21.9315 32.6295C22.1123 33.0425 22.5218 33.333 23.0002 33.333ZM13.6668 25.1663C13.6668 25.8092 14.1907 26.333 14.8335 26.333V19.6468C14.479 19.8515 14.1845 20.1459 13.9797 20.5004C13.775 20.8548 13.667 21.257 13.6668 21.6663V25.1663ZM20.6668 19.333C20.9762 19.333 21.273 19.4559 21.4918 19.6747C21.7106 19.8935 21.8335 20.1903 21.8335 20.4997C21.8335 20.8091 21.7106 21.1058 21.4918 21.3246C21.273 21.5434 20.9762 21.6663 20.6668 21.6663C20.3574 21.6663 20.0607 21.5434 19.8419 21.3246C19.6231 21.1058 19.5002 20.8091 19.5002 20.4997C19.5002 20.1903 19.6231 19.8935 19.8419 19.6747C20.0607 19.4559 20.3574 19.333 20.6668 19.333ZM25.3335 19.333C25.6429 19.333 25.9397 19.4559 26.1585 19.6747C26.3772 19.8935 26.5002 20.1903 26.5002 20.4997C26.5002 20.8091 26.3772 21.1058 26.1585 21.3246C25.9397 21.5434 25.6429 21.6663 25.3335 21.6663C25.0241 21.6663 24.7273 21.5434 24.5085 21.3246C24.2897 21.1058 24.1668 20.8091 24.1668 20.4997C24.1668 20.1903 24.2897 19.8935 24.5085 19.6747C24.7273 19.4559 25.0241 19.333 25.3335 19.333Z" fill="#CECCB1"/>
</svg>
