<svg width="45" height="45" viewBox="0 0 45 45" fill="none" xmlns="http://www.w3.org/2000/svg">
<circle cx="22.5" cy="22.5" r="22.5" fill="#312619"/>
<g clip-path="url(#clip0_235_101)">
<path d="M18.501 23C18.501 23.1989 18.58 23.3897 18.7206 23.5303C18.8613 23.671 19.0521 23.75 19.251 23.75C19.4499 23.75 19.6407 23.671 19.7813 23.5303C19.922 23.3897 20.001 23.1989 20.001 23C20.001 22.8011 19.922 22.6103 19.7813 22.4697C19.6407 22.329 19.4499 22.25 19.251 22.25C19.0521 22.25 18.8613 22.329 18.7206 22.4697C18.58 22.6103 18.501 22.8011 18.501 23Z" fill="#645646"/>
<path d="M26.001 23C26.001 23.1989 26.08 23.3897 26.2206 23.5303C26.3613 23.671 26.5521 23.75 26.751 23.75C26.9499 23.75 27.1407 23.671 27.2813 23.5303C27.422 23.3897 27.501 23.1989 27.501 23C27.501 22.8011 27.422 22.6103 27.2813 22.4697C27.1407 22.329 26.9499 22.25 26.751 22.25C26.5521 22.25 26.3613 22.329 26.2206 22.4697C26.08 22.6103 26.001 22.8011 26.001 23Z" fill="#645646"/>
<path d="M33.0171 25.8762C33.3306 24.8442 33.5008 23.7477 33.5008 22.61C33.5008 16.8462 28.9866 12.5 23.0008 12.5C17.0151 12.5 12.5008 16.8462 12.5008 22.61C12.5008 23.7477 12.6711 24.845 12.9846 25.8762L11.1291 30.9935C11.0511 31.208 10.8696 31.7098 11.1546 32.1943C11.3653 32.5543 11.7456 32.7485 12.2031 32.7485C12.3718 32.7485 12.5518 32.7215 12.7378 32.6668C13.9646 32.2989 15.0423 31.5496 15.8143 30.5278C17.6946 32.3653 20.2198 33.5 23.0008 33.5C25.7818 33.5 28.3071 32.3645 30.1873 30.5278C30.9568 31.5448 32.0511 32.312 33.2623 32.6668C33.4491 32.7215 33.6291 32.7485 33.7986 32.7485C34.2561 32.7485 34.6363 32.555 34.8471 32.195C35.1321 31.7098 34.9506 31.208 34.8726 30.9935L33.9448 28.4349L33.0171 25.8762ZM23.0008 14C28.1833 14 31.9483 17.5775 31.9963 22.517C31.9302 22.1841 31.8484 21.8544 31.7511 21.5293C31.4091 20.4523 30.8991 19.5838 30.2368 18.9508C29.2468 17.99 28.0093 17.5933 26.9256 17.8918C26.0526 18.1393 25.3071 18.7025 24.7551 19.1653C24.6119 19.2894 24.4733 19.4187 24.3396 19.553C23.9653 19.919 23.4996 20.375 23.1058 20.375H23.0008C22.6056 20.375 22.1353 19.9175 21.7573 19.5493C21.6103 19.4068 21.4723 19.2725 21.3441 19.1653C20.7553 18.6718 20.0383 18.1355 19.1773 17.891C18.0951 17.5925 16.8546 17.9885 15.8623 18.9508C15.2001 19.5913 14.6781 20.4838 14.3548 21.5323C14.2131 21.9935 14.1021 22.4863 14.0196 22.9933C14.0143 22.8658 14.0008 22.739 14.0008 22.61C14.0008 17.621 17.7861 14 23.0008 14ZM12.6861 31.1L13.8411 27.917C14.1186 28.4292 14.4351 28.9145 14.7861 29.372C14.2795 30.1494 13.5465 30.7525 12.6861 31.1ZM23.0008 32C19.1503 32 15.8668 29.4598 14.5836 25.9048C14.5806 25.2823 14.6061 24.6958 14.6226 24.3905C14.6676 23.4733 14.8236 22.5605 15.0718 21.7527C15.3583 20.8257 15.8121 20.0428 16.3843 19.4893C17.0008 18.89 18.0058 18.3463 18.9763 18.6125C19.6986 18.818 20.3353 19.2973 20.8626 19.739C20.9796 19.8365 21.1026 19.9573 21.2353 20.0855C21.7101 20.5483 22.3011 21.1243 23.0016 21.1243H23.1066C23.8056 21.1243 24.3928 20.5498 24.8646 20.0885C24.9966 19.9588 25.1211 19.8365 25.2373 19.739C25.7638 19.2988 26.3998 18.8203 27.1288 18.6133C27.9523 18.3883 28.9183 18.7145 29.7171 19.4908C30.2901 20.0375 30.7341 20.7995 31.0363 21.752C31.2928 22.6097 31.4434 23.4955 31.4848 24.3898C31.5013 24.7348 31.5171 25.1653 31.5208 25.6138C30.3156 29.321 26.9556 32 23.0008 32ZM31.2163 29.372C31.5666 28.9145 31.8838 28.4292 32.1613 27.917L33.3156 31.1C32.4552 30.7525 31.7222 30.1494 31.2156 29.372H31.2163Z" fill="#645646"/>
<path d="M24.8758 26.75H21.1258C21.0546 26.75 20.9848 26.7704 20.9247 26.8086C20.8646 26.8469 20.8166 26.9014 20.7864 26.966C20.7562 27.0305 20.7449 27.1023 20.7541 27.173C20.7632 27.2436 20.7922 27.3102 20.8378 27.365L22.7128 29.615C22.748 29.6572 22.7921 29.6912 22.8418 29.7145C22.8916 29.7378 22.9459 29.7498 23.0008 29.7498C23.0558 29.7498 23.1101 29.7378 23.1598 29.7145C23.2096 29.6912 23.2536 29.6572 23.2888 29.615L25.1638 27.365C25.2094 27.3102 25.2385 27.2436 25.2476 27.173C25.2567 27.1023 25.2455 27.0305 25.2153 26.966C25.1851 26.9014 25.1371 26.8469 25.077 26.8086C25.0169 26.7704 24.9471 26.75 24.8758 26.75ZM23.0008 28.7892L21.9261 27.5H24.0756L23.0008 28.7892Z" fill="#645646"/>
</g>
<defs>
<clipPath id="clip0_235_101">
<rect width="24" height="24" fill="white" transform="translate(11 11)"/>
</clipPath>
</defs>
</svg>
