<svg width="45" height="45" viewBox="0 0 45 45" fill="none" xmlns="http://www.w3.org/2000/svg">
<circle cx="22.5" cy="22.5" r="22.5" fill="#8185BB"/>
<path d="M32.9289 28.4319C33.0719 28.4523 33.2094 28.5011 33.3333 28.5755C33.4571 28.6498 33.5649 28.7481 33.6502 28.8647C33.7355 28.9813 33.7966 29.1138 33.8299 29.2544C33.8633 29.3949 33.8682 29.5407 33.8443 29.6832C33.8205 29.8257 33.7684 29.9619 33.6911 30.084C33.6138 30.206 33.5129 30.3114 33.3943 30.3939C33.2757 30.4763 33.1418 30.5342 33.0005 30.5642C32.8592 30.5941 32.7133 30.5955 32.5714 30.5683L29.2954 30.0223C28.4881 30.8828 27.513 31.5689 26.4302 32.038C25.3475 32.5072 24.1802 32.7495 23.0002 32.7501C21.8202 32.7495 20.6528 32.5072 19.5701 32.038C18.4873 31.5689 17.5122 30.8828 16.7049 30.0223L13.4289 30.5683C13.1489 30.6082 12.8644 30.5371 12.6362 30.3701C12.408 30.2031 12.2541 29.9535 12.2074 29.6746C12.1607 29.3957 12.225 29.1095 12.3864 28.8774C12.5478 28.6452 12.7937 28.4853 13.0714 28.4319L15.3074 28.0593C14.8733 27.22 14.5808 26.3148 14.4418 25.3802L13.0714 25.1516C12.9284 25.1312 12.7909 25.0824 12.667 25.0081C12.5432 24.9337 12.4354 24.8354 12.3501 24.7188C12.2648 24.6022 12.2037 24.4697 12.1704 24.3292C12.137 24.1886 12.1321 24.0428 12.156 23.9003C12.1798 23.7578 12.2319 23.6216 12.3092 23.4995C12.3865 23.3775 12.4874 23.2721 12.606 23.1897C12.7246 23.1072 12.8585 23.0493 12.9998 23.0193C13.1412 22.9894 13.287 22.988 13.4289 23.0153L14.3335 23.1658V13.2501C14.3346 13.0363 14.3987 12.8276 14.5179 12.6502C14.6371 12.4727 14.8061 12.3344 15.0036 12.2526C15.2011 12.1708 15.4184 12.1492 15.6281 12.1904C15.8379 12.2316 16.0308 12.3338 16.1827 12.4842L20.1987 16.5001H25.8017L29.8176 12.4842C29.9691 12.3327 30.1621 12.2296 30.3722 12.1878C30.5823 12.146 30.8001 12.1675 30.998 12.2494C31.196 12.3314 31.3651 12.4702 31.4842 12.6483C31.6032 12.8265 31.6668 13.0359 31.6668 13.2501V23.1658L32.5714 23.0153C32.7133 22.988 32.8592 22.9894 33.0005 23.0193C33.1418 23.0493 33.2757 23.1072 33.3943 23.1897C33.5129 23.2721 33.6138 23.3775 33.6911 23.4995C33.7684 23.6216 33.8205 23.7578 33.8443 23.9003C33.8682 24.0428 33.8633 24.1886 33.8299 24.3292C33.7966 24.4697 33.7355 24.6022 33.6502 24.7188C33.5649 24.8354 33.4571 24.9337 33.3333 25.0081C33.2094 25.0824 33.0719 25.1312 32.9289 25.1516L31.5585 25.3802C31.4195 26.3148 31.127 27.22 30.6929 28.0593L32.9289 28.4319ZM23.0002 30.5834C24.2393 30.5833 25.4522 30.2264 26.4939 29.5553L26.0714 29.4849C25.9284 29.4645 25.7909 29.4157 25.667 29.3414C25.5432 29.2671 25.4354 29.1687 25.3501 29.0521C25.2648 28.9355 25.2037 28.8031 25.1704 28.6625C25.137 28.5219 25.1321 28.3761 25.156 28.2337C25.1798 28.0912 25.2319 27.9549 25.3092 27.8329C25.3865 27.7108 25.4874 27.6055 25.606 27.523C25.7246 27.4405 25.8585 27.3826 25.9998 27.3527C26.1412 27.3227 26.287 27.3213 26.4289 27.3486L28.4114 27.679C28.8009 27.0909 29.0918 26.4433 29.2727 25.7615L26.4289 26.2349C26.1489 26.2749 25.8644 26.2038 25.6362 26.0368C25.408 25.8698 25.2541 25.6202 25.2074 25.3413C25.1607 25.0623 25.225 24.7762 25.3864 24.544C25.5478 24.3118 25.7937 24.152 26.0714 24.0986L29.5002 23.5266V15.8653L27.0161 18.3493C26.9156 18.4501 26.7962 18.53 26.6648 18.5845C26.5333 18.6389 26.3924 18.6669 26.2502 18.6668H19.7502C19.6079 18.6669 19.467 18.6389 19.3355 18.5845C19.2041 18.53 19.0847 18.4501 18.9842 18.3493L16.5002 15.8653V23.5266L19.9289 24.0986C20.0719 24.119 20.2094 24.1678 20.3333 24.2421C20.4571 24.3165 20.5649 24.4148 20.6502 24.5314C20.7355 24.648 20.7966 24.7805 20.8299 24.921C20.8633 25.0616 20.8682 25.2074 20.8443 25.3499C20.8205 25.4923 20.7684 25.6286 20.6911 25.7507C20.6138 25.8727 20.5129 25.9781 20.3943 26.0605C20.2757 26.143 20.1418 26.2009 20.0005 26.2309C19.8592 26.2608 19.7133 26.2622 19.5714 26.2349L16.7277 25.7615C16.9129 26.4516 17.2022 27.0983 17.5889 27.679L19.5714 27.3486C19.7133 27.3213 19.8592 27.3227 20.0005 27.3527C20.1418 27.3826 20.2757 27.4405 20.3943 27.523C20.5129 27.6055 20.6138 27.7108 20.6911 27.8329C20.7684 27.9549 20.8205 28.0912 20.8443 28.2337C20.8682 28.3761 20.8633 28.5219 20.8299 28.6625C20.7966 28.8031 20.7355 28.9355 20.6502 29.0521C20.5649 29.1687 20.4571 29.2671 20.3333 29.3414C20.2094 29.4157 20.0719 29.4645 19.9289 29.4849L19.5064 29.5553C20.5481 30.2264 21.761 30.5833 23.0002 30.5834ZM20.8335 20.8334C20.6912 20.8334 20.5503 20.8614 20.4189 20.9158C20.2874 20.9703 20.168 21.0501 20.0674 21.1507C19.9667 21.2513 19.8869 21.3707 19.8325 21.5021C19.778 21.6336 19.75 21.7745 19.75 21.9168C19.75 22.059 19.778 22.1999 19.8325 22.3314C19.8869 22.4628 19.9667 22.5823 20.0674 22.6829C20.168 22.7835 20.2874 22.8632 20.4189 22.9177C20.5503 22.9721 20.6912 23.0001 20.8335 23.0001C21.1208 23.0001 21.3963 22.8859 21.5994 22.6827C21.8025 22.4796 21.9167 22.2041 21.9167 21.9168C21.9167 21.6295 21.8025 21.3539 21.5994 21.1508C21.3963 20.9476 21.1208 20.8335 20.8335 20.8334ZM26.2502 21.9168C26.2502 21.7745 26.2222 21.6336 26.1677 21.5021C26.1133 21.3707 26.0335 21.2512 25.9329 21.1506C25.8323 21.05 25.7129 20.9702 25.5814 20.9157C25.45 20.8613 25.3091 20.8333 25.1668 20.8333C25.0245 20.8333 24.8837 20.8613 24.7522 20.9157C24.6208 20.9702 24.5013 21.05 24.4007 21.1506C24.3001 21.2512 24.2203 21.3707 24.1659 21.5021C24.1115 21.6336 24.0835 21.7745 24.0835 21.9168C24.0835 22.2041 24.1977 22.4796 24.4009 22.6827C24.604 22.8858 24.8795 22.9999 25.1668 22.9999C25.4541 22.9999 25.7296 22.8858 25.9328 22.6827C26.136 22.4796 26.2501 22.2041 26.2502 21.9168ZM23.0002 24.0834C22.8579 24.0834 22.717 24.1114 22.5855 24.1658C22.4541 24.2203 22.3346 24.3001 22.234 24.4007C22.1334 24.5013 22.0536 24.6207 21.9991 24.7521C21.9447 24.8836 21.9167 25.0245 21.9167 25.1668C21.9167 25.309 21.9447 25.4499 21.9991 25.5814C22.0536 25.7128 22.1334 25.8323 22.234 25.9329C22.3346 26.0335 22.4541 26.1132 22.5855 26.1677C22.717 26.2221 22.8579 26.2501 23.0002 26.2501C23.2874 26.2501 23.563 26.1359 23.7661 25.9327C23.9692 25.7296 24.0833 25.454 24.0833 25.1668C24.0833 24.8795 23.9692 24.6039 23.7661 24.4008C23.563 24.1976 23.2874 24.0835 23.0002 24.0834Z" fill="#7174A0"/>
</svg>
