<svg width="45" height="45" viewBox="0 0 45 45" fill="none" xmlns="http://www.w3.org/2000/svg">
<circle cx="22.5" cy="22.5" r="22.5" fill="#C6AD97"/>
<path d="M29.5 12C32 12 34 14 34 16.5C34 17.65 33.55 18.8 32.75 19.6C33.25 20.85 33.5 22.15 33.5 23.5C33.5 29.3 28.8 34 23 34C17.2 34 12.5 29.3 12.5 23.5C12.5 22.15 12.75 20.85 13.25 19.6C12.45 18.8 12 17.65 12 16.5C12 14 14 12 16.5 12C17.8 12 19 12.55 19.85 13.5C21.9 12.85 24.1 12.85 26.15 13.5C27 12.55 28.2 12 29.5 12ZM30.65 19.8C30.45 19.35 30.55 18.85 30.95 18.55C31.6 18.05 32 17.3 32 16.5C32 15.1 30.9 14 29.5 14C28.6 14 27.85 14.45 27.35 15.2C27.1 15.6 26.6 15.8 26.15 15.6C24.15 14.8 21.9 14.8 19.85 15.6C19.4 15.8 18.9 15.6 18.65 15.2C18.2 14.45 17.4 14 16.5 14C15.15 14 14 15.1 14 16.5C14 17.3 14.4 18.05 15.05 18.55C15.45 18.85 15.6 19.35 15.35 19.8C14.8 20.95 14.5 22.2 14.5 23.5C14.5 28.2 18.3 32 23 32C27.7 32 31.5 28.2 31.5 23.5C31.5 22.2 31.2 20.95 30.65 19.8Z" fill="#E3CFBE"/>
<path d="M24.8 25H21.2C20.95 25 20.8 25.35 21.05 25.5L22.1 26.25C22.35 26.4 22.5 26.65 22.55 26.9L22.75 27.7C22.8 27.95 23.15 27.95 23.2 27.7L23.4 26.9C23.5 26.65 23.65 26.4 23.85 26.25L25 25.5C25.2 25.35 25.1 25 24.8 25ZM26.5 20.5C25.65 20.5 25 21.15 25 22C25 22.85 25.65 23.5 26.5 23.5C27.35 23.5 28 22.85 28 22C28 21.15 27.35 20.5 26.5 20.5ZM19.5 20.5C18.65 20.5 18 21.15 18 22C18 22.85 18.65 23.5 19.5 23.5C20.35 23.5 21 22.85 21 22C21 21.15 20.35 20.5 19.5 20.5Z" fill="#E3CFBE"/>
</svg>
