<svg width="102" height="102" viewBox="0 0 102 102" fill="none" xmlns="http://www.w3.org/2000/svg">
<path d="M89.8986 72.2754C90.4591 72.3554 90.9979 72.5466 91.4833 72.8379C91.9688 73.1292 92.3911 73.5146 92.7253 73.9715C93.0596 74.4285 93.2991 74.9476 93.4298 75.4985C93.5605 76.0493 93.5797 76.6207 93.4862 77.1791C93.3928 77.7375 93.1886 78.2715 92.8857 78.7498C92.5828 79.2281 92.1873 79.641 91.7225 79.9642C91.2577 80.2874 90.7329 80.5143 90.1791 80.6317C89.6253 80.7491 89.0535 80.7545 88.4976 80.6477L75.659 78.5079C72.495 81.8805 68.6736 84.5691 64.4304 86.4077C60.1872 88.2463 55.6123 89.1961 50.9879 89.1982C46.3635 89.1961 41.7886 88.2463 37.5454 86.4077C33.3023 84.5691 29.4808 81.8805 26.3169 78.5079L13.4783 80.6477C12.3811 80.8042 11.2661 80.5255 10.3717 79.8711C9.47718 79.2167 8.87406 78.2385 8.69114 77.1454C8.50822 76.0523 8.75999 74.931 9.39269 74.021C10.0254 73.111 10.9888 72.4846 12.0772 72.2754L20.8401 70.8149C19.1389 67.5258 17.9927 63.9783 17.4479 60.3156L12.0772 59.4198C11.5168 59.3398 10.978 59.1485 10.4925 58.8572C10.0071 58.566 9.58478 58.1805 9.2505 57.7236C8.91622 57.2667 8.6767 56.7475 8.54603 56.1967C8.41536 55.6458 8.39618 55.0744 8.48962 54.5161C8.58306 53.9577 8.78723 53.4236 9.09012 52.9453C9.39301 52.467 9.7885 52.0542 10.2533 51.731C10.7181 51.4078 11.2429 51.1808 11.7967 51.0634C12.3506 50.9461 12.9223 50.9407 13.4783 51.0475L17.0233 51.6376V12.7779C17.0275 11.9401 17.279 11.1222 17.7462 10.4268C18.2133 9.73142 18.8755 9.18944 19.6495 8.86886C20.4235 8.54828 21.2749 8.46338 22.097 8.6248C22.9191 8.78623 23.6752 9.18679 24.2705 9.77625L40.0089 25.5146L61.967 25.5146L77.7053 9.77625C78.2991 9.18268 79.0555 8.77847 79.8789 8.61473C80.7024 8.45099 81.5559 8.53507 82.3315 8.85633C83.1072 9.17759 83.7702 9.72162 84.2367 10.4196C84.7033 11.1176 84.9523 11.9383 84.9525 12.7779V51.6376L88.4976 51.0475C89.0535 50.9407 89.6253 50.9461 90.1791 51.0634C90.7329 51.1808 91.2577 51.4078 91.7225 51.731C92.1873 52.0542 92.5828 52.467 92.8857 52.9453C93.1886 53.4236 93.3928 53.9577 93.4862 54.5161C93.5797 55.0744 93.5605 55.6458 93.4298 56.1967C93.2991 56.7475 93.0596 57.2667 92.7253 57.7236C92.3911 58.1805 91.9688 58.566 91.4833 58.8572C90.9979 59.1485 90.4591 59.3398 89.8986 59.4198L84.528 60.3156C83.9831 63.9783 82.837 67.5258 81.1358 70.8149L89.8986 72.2754ZM50.9879 80.7071C55.8441 80.7067 60.5975 79.3079 64.6799 76.678L63.0241 76.4021C62.4637 76.3221 61.9249 76.1308 61.4394 75.8396C60.954 75.5483 60.5317 75.1628 60.1974 74.7059C59.8631 74.249 59.6236 73.7298 59.4929 73.179C59.3623 72.6282 59.3431 72.0567 59.4365 71.4984C59.53 70.94 59.7341 70.4059 60.037 69.9277C60.3399 69.4494 60.7354 69.0365 61.2002 68.7133C61.6651 68.3901 62.1898 68.1631 62.7437 68.0458C63.2975 67.9284 63.8692 67.923 64.4252 68.0298L72.1946 69.3247C73.7208 67.02 74.8609 64.4818 75.5698 61.81L64.4252 63.6654C63.328 63.8219 62.2131 63.5432 61.3186 62.8888C60.4241 62.2344 59.821 61.2562 59.6381 60.1631C59.4551 59.07 59.7069 57.9487 60.3396 57.0387C60.9723 56.1287 61.9357 55.5022 63.0241 55.2931L76.4614 53.0514V23.0267L66.7263 32.7618C66.3325 33.1566 65.8647 33.4698 65.3496 33.6833C64.8345 33.8967 64.2822 34.0063 63.7246 34.0058H38.2512C37.6936 34.0063 37.1414 33.8967 36.6263 33.6833C36.1112 33.4698 35.6433 33.1566 35.2496 32.7618L25.5145 23.0267L25.5145 53.0514L38.9517 55.2931C39.5122 55.373 40.051 55.5643 40.5364 55.8556C41.0219 56.1469 41.4441 56.5323 41.7784 56.9892C42.1127 57.4462 42.3522 57.9653 42.4829 58.5162C42.6136 59.067 42.6327 59.6384 42.5393 60.1968C42.4459 60.7552 42.2417 61.2892 41.9388 61.7675C41.6359 62.2458 41.2404 62.6587 40.7756 62.9819C40.3108 63.3051 39.786 63.532 39.2322 63.6494C38.6783 63.7668 38.1066 63.7722 37.5507 63.6654L26.406 61.81C27.132 64.5145 28.2656 67.0491 29.7813 69.3247L37.5507 68.0298C38.1066 67.923 38.6783 67.9284 39.2322 68.0458C39.786 68.1631 40.3108 68.3901 40.7756 68.7133C41.2404 69.0365 41.6359 69.4494 41.9388 69.9277C42.2417 70.4059 42.4459 70.94 42.5393 71.4984C42.6327 72.0567 42.6136 72.6282 42.4829 73.179C42.3522 73.7298 42.1127 74.249 41.7784 74.7059C41.4441 75.1628 41.0219 75.5483 40.5364 75.8396C40.051 76.1308 39.5122 76.3221 38.9517 76.4021L37.2959 76.678C41.3784 79.3079 46.1317 80.7067 50.9879 80.7071ZM42.4968 42.4969C41.9392 42.4968 41.387 42.6066 40.8719 42.8199C40.3567 43.0332 39.8886 43.3459 39.4943 43.7402C39.1 44.1344 38.7872 44.6025 38.5738 45.1176C38.3604 45.6328 38.2505 46.1849 38.2505 46.7425C38.2505 47.3001 38.3604 47.8522 38.5738 48.3673C38.7872 48.8825 39.1 49.3505 39.4943 49.7448C39.8886 50.139 40.3567 50.4517 40.8719 50.6651C41.387 50.8784 41.9392 50.9881 42.4968 50.9881C43.6227 50.9879 44.7024 50.5405 45.4984 49.7443C46.2945 48.9481 46.7417 47.8684 46.7417 46.7425C46.7417 45.6166 46.2945 44.5368 45.4984 43.7406C44.7024 42.9445 43.6227 42.4971 42.4968 42.4969ZM63.7246 46.7425C63.7247 46.1849 63.615 45.6327 63.4017 45.1176C63.1883 44.6024 62.8756 44.1343 62.4814 43.74C62.0871 43.3457 61.6191 43.0329 61.1039 42.8195C60.5888 42.6061 60.0367 42.4963 59.4791 42.4963C58.9215 42.4963 58.3694 42.6061 57.8542 42.8195C57.3391 43.0329 56.871 43.3457 56.4768 43.74C56.0825 44.1343 55.7698 44.6024 55.5565 45.1176C55.3432 45.6327 55.2334 46.1849 55.2335 46.7425C55.2337 47.8684 55.681 48.9481 56.4772 49.7441C57.2734 50.5402 58.3532 50.9874 59.4791 50.9874C60.605 50.9874 61.6847 50.5402 62.4809 49.7441C63.2771 48.9481 63.7245 47.8684 63.7246 46.7425ZM50.9879 55.2336C50.4303 55.2336 49.8782 55.3433 49.363 55.5566C48.8478 55.7699 48.3797 56.0827 47.9854 56.4769C47.5911 56.8712 47.2783 57.3392 47.0649 57.8544C46.8515 58.3695 46.7417 58.9216 46.7417 59.4792C46.7417 60.0368 46.8515 60.5889 47.0649 61.1041C47.2783 61.6192 47.5911 62.0873 47.9854 62.4815C48.3797 62.8758 48.8478 63.1885 49.363 63.4018C49.8782 63.6151 50.4303 63.7249 50.9879 63.7248C52.1138 63.7246 53.1935 63.2772 53.9896 62.4811C54.7856 61.6849 55.2328 60.6051 55.2328 59.4792C55.2328 58.3533 54.7856 57.2735 53.9896 56.4774C53.1935 55.6812 52.1138 55.2338 50.9879 55.2336Z" fill="#7174A0"/>
</svg>
