<svg width="100" height="100" viewBox="0 0 100 100" fill="none" xmlns="http://www.w3.org/2000/svg">
<path d="M75.7401 25.0152C84.1923 25.7206 90.8748 32.7455 90.8748 41.375V53.75C90.8748 60.5727 85.3225 66.125 78.4998 66.125C78.4998 75.2247 71.0995 82.625 61.9998 82.625C61.7481 82.625 61.513 82.5631 61.2614 82.5507C60.4262 84.9748 58.857 87.0786 56.7718 88.5703C54.6865 90.062 52.1886 90.8675 49.6248 90.875C47.0609 90.8675 44.563 90.062 42.4777 88.5703C40.3925 87.0786 38.8233 84.9748 37.9881 82.5507C37.7365 82.5631 37.5014 82.625 37.2498 82.625C28.15 82.625 20.7498 75.2247 20.7498 66.125C13.927 66.125 8.37476 60.5727 8.37476 53.75V41.375C8.37476 32.7455 15.0573 25.7206 23.5094 25.0152C28.1253 15.2019 38.083 8.375 49.6248 8.375C61.1665 8.375 71.1243 15.2019 75.7401 25.0152ZM82.6247 53.75V41.375C82.624 39.9276 82.2424 38.5058 81.5184 37.2525C80.7943 35.9991 79.7533 34.9583 78.4998 34.2346V57.875C80.7726 57.875 82.6247 56.0229 82.6247 53.75ZM70.2498 66.125V37.25C70.2498 25.8774 60.9974 16.625 49.6248 16.625C38.2521 16.625 28.9998 25.8774 28.9998 37.25V66.125C28.9998 70.6749 32.6999 74.375 37.2498 74.375C41.7996 74.375 45.4998 70.6749 45.4998 66.125V60.8574C43.9263 59.9535 42.696 58.5547 42.0002 56.8788C41.3045 55.2029 41.1825 53.344 41.6532 51.5915C42.124 49.8391 43.1609 48.2915 44.6027 47.1897C46.0445 46.0879 47.8102 45.4939 49.6248 45.5C50.7171 44.8725 51.9389 44.5043 53.1961 44.4237C54.4532 44.3432 55.7121 44.5525 56.8755 45.0355C58.039 45.5185 59.076 46.2622 59.9065 47.2094C60.737 48.1566 61.3388 49.2819 61.6656 50.4985C61.9924 51.7151 62.0354 52.9905 61.7912 54.2263C61.5471 55.4622 61.0223 56.6254 60.2574 57.6264C59.4926 58.6273 58.508 59.4392 57.3797 59.9994C56.2514 60.5596 55.0095 60.8531 53.7498 60.8574V66.125C53.7498 70.6749 57.4499 74.375 61.9998 74.375C66.5496 74.375 70.2498 70.6749 70.2498 66.125ZM49.6248 82.625C51.316 82.625 52.7639 81.5979 53.4032 80.1376C51.9891 79.263 50.7152 78.1796 49.6248 76.9242C48.5275 78.1741 47.2735 79.2631 45.8463 80.1376C46.4856 81.5979 47.9335 82.625 49.6248 82.625ZM16.6248 53.75C16.6248 56.0229 18.4769 57.875 20.7498 57.875V34.2346C19.4962 34.9583 18.4552 35.9991 17.7311 37.2525C17.0071 38.5058 16.6255 39.9276 16.6248 41.375V53.75ZM41.3748 33.125C42.4688 33.125 43.518 33.5596 44.2916 34.3332C45.0652 35.1068 45.4998 36.156 45.4998 37.25C45.4998 38.344 45.0652 39.3932 44.2916 40.1668C43.518 40.9404 42.4688 41.375 41.3748 41.375C40.2807 41.375 39.2315 40.9404 38.4579 40.1668C37.6843 39.3932 37.2498 38.344 37.2498 37.25C37.2498 36.156 37.6843 35.1068 38.4579 34.3332C39.2315 33.5596 40.2807 33.125 41.3748 33.125ZM57.8747 33.125C58.9688 33.125 60.018 33.5596 60.7916 34.3332C61.5652 35.1068 61.9998 36.156 61.9998 37.25C61.9998 38.344 61.5652 39.3932 60.7916 40.1668C60.018 40.9404 58.9688 41.375 57.8747 41.375C56.7807 41.375 55.7315 40.9404 54.9579 40.1668C54.1843 39.3932 53.7498 38.344 53.7498 37.25C53.7498 36.156 54.1843 35.1068 54.9579 34.3332C55.7315 33.5596 56.7807 33.125 57.8747 33.125Z" fill="#CECCB1"/>
</svg>
