<svg width="86" height="86" viewBox="0 0 86 86" fill="none" xmlns="http://www.w3.org/2000/svg">
<g clip-path="url(#clip0_232_16)">
<path d="M28.4423 54.6541C28.4423 53.0043 29.7722 51.6673 31.4119 51.6673C33.0516 51.6673 34.3815 53.005 34.3815 54.6541C34.3815 56.304 33.0516 57.6417 31.4119 57.6417C29.7722 57.6417 28.4423 56.304 28.4423 54.6541ZM52.8968 54.6541C52.8968 53.0043 54.2267 51.6673 55.8664 51.6673C57.5061 51.6673 58.836 53.005 58.836 54.6541C58.836 56.304 57.5061 57.6417 55.8664 57.6417C54.2267 57.6417 52.8968 56.304 52.8968 54.6541ZM39.964 65.3778C39.6258 65.1807 39.3795 64.8577 39.2788 64.4795C39.1781 64.1013 39.2312 63.6986 39.4265 63.3595C39.5222 63.1917 39.6502 63.0446 39.803 62.9266C39.9558 62.8086 40.1305 62.722 40.317 62.6718C40.5035 62.6216 40.698 62.6088 40.8894 62.6342C41.0809 62.6596 41.2654 62.7226 41.4323 62.8197L43.5132 64.0275L45.5926 62.8197C45.7596 62.7228 45.944 62.66 46.1354 62.6347C46.3268 62.6094 46.5213 62.6223 46.7077 62.6724C46.8941 62.7226 47.0688 62.8091 47.2216 62.927C47.3745 63.0449 47.5025 63.1919 47.5984 63.3595C47.7934 63.6987 47.8464 64.1013 47.7457 64.4794C47.6451 64.8576 47.3989 65.1805 47.0609 65.3778L44.9808 66.5864V68.9935C44.9808 69.8095 44.3237 70.4705 43.5124 70.4705C43.319 70.47 43.1276 70.4314 42.9491 70.3569C42.7707 70.2824 42.6086 70.1734 42.4722 70.0362C42.3359 69.8991 42.2279 69.7364 42.1544 69.5575C42.0809 69.3786 42.0435 69.1869 42.0441 68.9935V66.5864L39.964 65.3778ZM85.1461 40.4954C85.3385 40.9186 85.3432 41.3935 85.1586 41.8206C83.9617 44.5868 80.6627 46.8202 78.107 48.2065C75.1601 49.8047 71.6867 51.1111 68.2032 51.9442V58.0219C68.2032 64.1418 65.5919 69.8955 60.8512 74.2232C56.1105 78.55 49.8052 80.9337 43.0986 80.9337C36.3936 80.9337 30.0875 78.55 25.346 74.2232C20.6053 69.8955 17.9925 64.1418 17.9925 58.0219V51.9669C14.4776 51.1354 10.9675 49.8203 7.9932 48.2065C5.43745 46.8202 2.1393 44.5868 0.94161 41.8206C0.850362 41.6113 0.804312 41.385 0.806469 41.1567C0.808626 40.9283 0.858941 40.703 0.954127 40.4954C2.03447 38.1203 5.46013 35.7829 7.76712 34.4178C7.13346 33.3773 6.79864 32.2258 6.79864 31.0281C6.79864 28.3605 8.51186 25.9142 11.2702 24.4983C11.2382 24.1462 11.2217 23.7927 11.2217 23.4391C11.2217 20.6674 12.1941 18.0451 13.9613 16.0566C15.5807 14.2338 17.6913 13.123 19.9889 12.8648C20.6452 8.50195 24.7546 5.13184 29.712 5.13184C32.231 5.13184 34.5912 5.99627 36.3818 7.51548C38.1709 5.99627 40.5311 5.13184 43.0501 5.13184C45.5691 5.13184 47.9293 5.99627 49.7199 7.51548C51.5106 5.99627 53.8716 5.13184 56.3905 5.13184C61.3464 5.13184 65.4565 8.50274 66.1121 12.864C68.4097 13.1237 70.5211 14.2346 72.1397 16.0566C73.9076 18.0451 74.8793 20.6674 74.8793 23.4391C74.8793 23.8427 74.8581 24.2464 74.8167 24.6469C75.8352 25.2102 76.7153 25.9252 77.4021 26.7544C78.4528 28.0225 79.009 29.5003 79.009 31.0281C79.007 32.1749 78.6992 33.3005 78.1172 34.2887C80.5196 35.689 84.0407 38.064 85.1461 40.4954ZM14.1976 27.2731C12.1339 27.9803 10.8001 29.4815 10.7993 31.0977C10.7993 33.436 13.4685 35.3377 16.7486 35.3377C18.9007 35.3377 20.8963 34.4929 21.9548 33.134C22.3146 32.6725 22.8967 32.3955 23.5178 32.3908C24.1389 32.3893 24.7257 32.656 25.0933 33.1129C26.2112 34.5054 28.0082 35.3362 29.8982 35.3362C31.6231 35.3362 33.262 34.654 34.3948 33.4641C34.8274 33.0104 35.4838 32.7882 36.137 32.8751C36.791 32.9635 37.3495 33.3476 37.6202 33.896C38.5801 35.84 40.7103 37.0963 43.0493 37.0963C45.3884 37.0963 47.5186 35.84 48.4784 33.896C48.7483 33.3484 49.3077 32.9619 49.9609 32.8751C50.6149 32.7882 51.272 33.0096 51.7046 33.4641C52.8366 34.6548 54.4763 35.3362 56.2012 35.3362C58.0905 35.3362 59.8874 34.5046 61.0061 33.1121C61.3706 32.6584 61.9503 32.3901 62.5675 32.3901H62.5824C63.2043 32.3947 63.7863 32.6717 64.1454 33.1332C65.2039 34.4929 67.1987 35.3362 69.3516 35.3362C72.6317 35.3362 75.3009 33.4352 75.3009 31.0961C75.3009 29.5284 74.0798 28.0921 72.1146 27.3482C71.2588 27.0243 70.7753 26.1927 70.9639 25.3658C71.1 24.7697 71.1688 24.1509 71.1688 23.5275C71.1688 21.5662 70.5023 19.738 69.2913 18.38C68.1774 17.1291 66.7317 16.4399 65.2203 16.4399C65.0279 16.4401 64.8356 16.4513 64.6445 16.4735C64.364 16.5079 64.0794 16.4841 63.8084 16.4036C63.5375 16.3231 63.286 16.1877 63.0698 16.0057C62.6481 15.6427 62.4283 15.1264 62.4705 14.5999C62.4838 14.4419 62.4893 14.3152 62.4893 14.1986C62.4893 11.2134 59.8201 8.78514 56.5407 8.78514C54.4857 8.78514 52.6027 9.73172 51.5043 11.3182C51.1507 11.8298 50.5327 12.1404 49.8686 12.1404C49.2036 12.1404 48.5856 11.8298 48.232 11.319C47.1337 9.73172 45.2515 8.78436 43.1964 8.78436C41.1413 8.78436 39.2583 9.73172 38.16 11.319C37.8064 11.8298 37.1884 12.1404 36.5242 12.1404C35.8593 12.1404 35.2412 11.8298 34.8877 11.319C33.7893 9.73172 31.9071 8.78436 29.852 8.78436C26.5719 8.78436 23.9027 11.2134 23.9027 14.1986C23.9027 14.3144 23.909 14.4411 23.9215 14.5999C23.9637 15.1264 23.7447 15.6419 23.323 16.0057C23.1068 16.1878 22.8554 16.3233 22.5844 16.4038C22.3135 16.4843 22.0288 16.508 21.7483 16.4735C21.5574 16.4513 21.3654 16.4401 21.1733 16.4399C19.6634 16.4399 18.2162 17.1291 17.1022 18.38C15.8912 19.738 15.2247 21.5662 15.2247 23.5275C15.2247 24.1212 15.2881 24.7118 15.4125 25.2853C15.5955 26.1294 15.0823 26.9695 14.1976 27.2723V27.2731ZM5.34827 41.1463C7.08183 43.6699 12.392 46.5441 18.0676 48.0555V38.7235C17.6256 38.7712 17.1765 38.797 16.722 38.797C14.5003 38.797 12.3866 38.197 10.6866 37.0971C7.94704 38.6507 6.15403 40.1285 5.34827 41.147V41.1463ZM58.1468 71.6815C62.1787 68.0704 64.4004 63.2695 64.3989 58.1635V38.215C63.7152 37.9159 63.0673 37.5409 62.4674 37.0971C60.6978 38.445 58.4276 39.2124 56.0682 39.2124C54.0875 39.2124 52.1529 38.6781 50.5163 37.6791C48.6701 39.7162 45.8656 40.953 42.8537 40.953C39.8419 40.953 37.0382 39.717 35.1912 37.6784C33.5695 38.6687 31.6396 39.2124 29.6392 39.2124C27.2806 39.2124 25.0104 38.4458 23.2409 37.0971C22.7668 37.4515 22.2513 37.7628 21.7013 38.0335V58.1627C21.7013 63.2695 23.9215 68.0704 27.9534 71.6815C31.9861 75.2918 37.3472 77.2804 43.0501 77.2804C48.753 77.2804 54.1141 75.2918 58.1468 71.6807V71.6815ZM68.9416 48.0563C74.625 46.5456 79.9274 43.702 81.6602 41.2065C80.6463 39.929 78.3166 38.3206 76.1239 37.0971C74.3911 38.2447 72.2101 38.8729 69.914 38.8729C69.587 38.8729 69.2632 38.8596 68.9416 38.8346V48.0563Z" fill="#EBDDDA"/>
</g>
<defs>
<clipPath id="clip0_232_16">
<rect width="84.4785" height="84.4785" fill="white" transform="translate(0.806396 0.833984)"/>
</clipPath>
</defs>
</svg>
