<svg width="81" height="81" viewBox="0 0 81 81" fill="none" xmlns="http://www.w3.org/2000/svg">
<g clip-path="url(#clip0_232_10)">
<path d="M25.689 40.6855C25.689 41.3486 25.9524 41.9845 26.4212 42.4533C26.89 42.9222 27.5259 43.1855 28.189 43.1855C28.852 43.1855 29.4879 42.9222 29.9567 42.4533C30.4256 41.9845 30.689 41.3486 30.689 40.6855C30.689 40.0225 30.4256 39.3866 29.9567 38.9178C29.4879 38.4489 28.852 38.1855 28.189 38.1855C27.5259 38.1855 26.89 38.4489 26.4212 38.9178C25.9524 39.3866 25.689 40.0225 25.689 40.6855Z" fill="#4D4234"/>
<path d="M50.689 40.6855C50.689 41.3486 50.9524 41.9845 51.4212 42.4533C51.89 42.9222 52.5259 43.1855 53.189 43.1855C53.852 43.1855 54.4879 42.9222 54.9567 42.4533C55.4256 41.9845 55.689 41.3486 55.689 40.6855C55.689 40.0225 55.4256 39.3866 54.9567 38.9178C54.4879 38.4489 53.852 38.1855 53.189 38.1855C52.5259 38.1855 51.89 38.4489 51.4212 38.9178C50.9524 39.3866 50.689 40.0225 50.689 40.6855Z" fill="#4D4234"/>
<path d="M74.0763 50.273C75.1213 46.833 75.6888 43.178 75.6888 39.3855C75.6888 20.173 60.6413 5.68555 40.6888 5.68555C20.7363 5.68555 5.68883 20.173 5.68883 39.3855C5.68883 43.178 6.25633 46.8355 7.30133 50.273L1.11633 67.3306C0.85633 68.0456 0.25133 69.718 1.20133 71.333C1.90383 72.533 3.17133 73.1805 4.69633 73.1805C5.25883 73.1805 5.85883 73.0905 6.47883 72.908C10.5681 71.6818 14.1602 69.1843 16.7338 65.7781C23.0013 71.9031 31.4188 75.6856 40.6888 75.6856C49.9588 75.6856 58.3763 71.9006 64.6438 65.7781C67.2088 69.1681 70.8563 71.7255 74.8938 72.908C75.5163 73.0905 76.1163 73.1805 76.6813 73.1805C78.2063 73.1805 79.4738 72.5356 80.1763 71.3356C81.1263 69.7181 80.5213 68.0456 80.2613 67.3306L77.1688 58.8018L74.0763 50.273ZM40.6888 10.6855C57.9638 10.6855 70.5138 22.6105 70.6738 39.0755C70.4534 37.9658 70.1806 36.867 69.8563 35.783C68.7163 32.193 67.0163 29.298 64.8088 27.188C61.5088 23.9855 57.3838 22.663 53.7713 23.658C50.8613 24.483 48.3763 26.3605 46.5363 27.903C46.0589 28.3167 45.597 28.7478 45.1513 29.1955C43.9038 30.4155 42.3513 31.9355 41.0388 31.9355H40.6888C39.3713 31.9355 37.8038 30.4105 36.5438 29.183C36.0538 28.708 35.5938 28.2605 35.1663 27.903C33.2038 26.258 30.8138 24.4705 27.9438 23.6555C24.3363 22.6605 20.2013 23.9805 16.8938 27.188C14.6863 29.323 12.9463 32.298 11.8688 35.793C11.3963 37.3305 11.0263 38.973 10.7513 40.663C10.7338 40.238 10.6888 39.8155 10.6888 39.3855C10.6888 22.7555 23.3063 10.6855 40.6888 10.6855ZM6.30633 67.6855L10.1563 57.0755C11.0813 58.783 12.1363 60.4005 13.3063 61.9255C11.6176 64.5168 9.17428 66.5274 6.30633 67.6855ZM40.6888 70.6855C27.8538 70.6855 16.9088 62.218 12.6313 50.368C12.6213 48.293 12.7063 46.338 12.7613 45.3205C12.9113 42.263 13.4313 39.2205 14.2588 36.528C15.2138 33.438 16.7263 30.828 18.6338 28.983C20.6888 26.9855 24.0388 25.173 27.2738 26.0605C29.6813 26.7455 31.8038 28.343 33.5613 29.8155C33.9513 30.1405 34.3613 30.543 34.8038 30.9705C36.3863 32.513 38.3563 34.433 40.6913 34.433H41.0413C43.3713 34.433 45.3288 32.518 46.9013 30.9805C47.3413 30.548 47.7563 30.1405 48.1438 29.8155C49.8988 28.348 52.0188 26.753 54.4488 26.063C57.1938 25.313 60.4138 26.4005 63.0763 28.988C64.9863 30.8105 66.4663 33.3505 67.4738 36.5255C68.3287 39.3845 68.8308 42.3372 68.9688 45.3181C69.0238 46.4681 69.0763 47.9031 69.0888 49.3981C65.0713 61.7556 53.8713 70.6855 40.6888 70.6855ZM68.0738 61.9255C69.2413 60.4005 70.2988 58.783 71.2238 57.0755L75.0713 67.6855C72.2035 66.5272 69.7601 64.5167 68.0713 61.9255H68.0738Z" fill="#4D4234"/>
<path d="M46.9387 53.1855H34.4387C34.2012 53.1856 33.9686 53.2534 33.7682 53.3809C33.5678 53.5084 33.4079 53.6903 33.3072 53.9054C33.2065 54.1205 33.1691 54.3599 33.1995 54.5954C33.2299 54.831 33.3267 55.053 33.4787 55.2355L39.7287 62.7355C39.8461 62.8762 39.9929 62.9894 40.1587 63.0671C40.3246 63.1447 40.5056 63.185 40.6887 63.185C40.8719 63.185 41.0528 63.1447 41.2187 63.0671C41.3846 62.9894 41.5314 62.8762 41.6487 62.7355L47.8987 55.2355C48.0508 55.053 48.1476 54.831 48.178 54.5954C48.2084 54.3599 48.171 54.1205 48.0703 53.9054C47.9696 53.6903 47.8096 53.5084 47.6092 53.3809C47.4088 53.2534 47.1763 53.1856 46.9387 53.1855ZM40.6887 59.983L37.1062 55.6855H44.2712L40.6887 59.983Z" fill="#4D4234"/>
</g>
<defs>
<clipPath id="clip0_232_10">
<rect width="80" height="80" fill="white" transform="translate(0.685791 0.685547)"/>
</clipPath>
</defs>
</svg>
