<svg width="84" height="68" viewBox="0 0 84 68" fill="none" xmlns="http://www.w3.org/2000/svg">
<path fill-rule="evenodd" clip-rule="evenodd" d="M41.8795 67.608C32.8509 67.608 24.3713 64.0915 17.9827 57.7134C11.6046 51.3247 8.08813 42.8346 8.08813 33.8165C8.08813 31.2611 8.37328 28.7056 8.94352 26.2346L13.3364 27.2378C12.8401 29.3814 12.5972 31.5885 12.5972 33.806C12.5972 41.6308 15.6384 48.9804 21.1718 54.5137C26.7051 60.0469 34.0547 63.0881 41.8795 63.0881C49.7043 63.0881 57.0538 60.0469 62.5875 54.5137C68.1206 48.9804 71.1618 41.6308 71.1618 33.806C71.1618 31.7574 70.9504 29.7194 70.5282 27.7341L74.9421 26.8049C75.4282 29.0963 75.671 31.4511 75.671 33.806C75.671 42.8346 72.1545 51.3141 65.7763 57.7031C59.3878 64.0915 50.9082 67.608 41.8795 67.608ZM60.56 11.2503C55.3221 6.92078 48.6906 4.52368 41.8795 4.52368C35.343 4.52368 29.1655 6.6251 24.0018 10.6062L21.2457 7.03692C27.2014 2.4434 34.3398 0.0146484 41.8795 0.0146484C45.8817 0.0146484 49.8099 0.711598 53.5375 2.07381C57.1387 3.39378 60.4648 5.31567 63.432 7.77611L60.56 11.2503Z" fill="#F1CCB8"/>
<path d="M28.3628 22.5491C28.3628 23.1456 28.5998 23.7177 29.0216 24.1395C29.4434 24.5614 30.0155 24.7983 30.6121 24.7983C31.2086 24.7983 31.7807 24.5614 32.2025 24.1395C32.6243 23.7177 32.8613 23.1456 32.8613 22.5491C32.8613 21.9526 32.6243 21.3804 32.2025 20.9586C31.7807 20.5368 31.2086 20.2998 30.6121 20.2998C30.0155 20.2998 29.4434 20.5368 29.0216 20.9586C28.5998 21.3804 28.3628 21.9526 28.3628 22.5491Z" fill="#F1CCB8"/>
<path d="M30.6126 25.4742C28.9969 25.4742 27.6875 24.1648 27.6875 22.5491C27.6875 20.9335 28.9969 19.624 30.6126 19.624C32.2282 19.624 33.5377 20.9335 33.5377 22.5491C33.5377 24.1648 32.2282 25.4742 30.6126 25.4742ZM30.6126 20.9757C29.7467 20.9757 29.0392 21.6832 29.0392 22.5491C29.0392 23.415 29.7467 24.1225 30.6126 24.1225C31.4785 24.1225 32.186 23.415 32.186 22.5491C32.186 21.6832 31.4891 20.9757 30.6126 20.9757Z" fill="#F1CCB8"/>
<path d="M35.248 45.3166C35.248 45.9132 35.485 46.4853 35.9068 46.9071C36.3287 47.3289 36.9007 47.5658 37.4973 47.5658C38.0938 47.5658 38.6659 47.3289 39.0878 46.9071C39.5095 46.4853 39.7465 45.9132 39.7465 45.3166C39.7465 44.7201 39.5095 44.148 39.0878 43.7262C38.6659 43.3044 38.0938 43.0674 37.4973 43.0674C36.9007 43.0674 36.3287 43.3044 35.9068 43.7262C35.485 44.148 35.248 44.7201 35.248 45.3166Z" fill="#F1CCB8"/>
<path d="M44.2661 45.3166C44.2661 45.9132 44.5031 46.4853 44.9249 46.9071C45.3467 47.3289 45.9188 47.5658 46.5154 47.5658C47.1119 47.5658 47.684 47.3289 48.1058 46.9071C48.5276 46.4853 48.7646 45.9132 48.7646 45.3166C48.7646 44.7201 48.5276 44.148 48.1058 43.7262C47.684 43.3044 47.1119 43.0674 46.5154 43.0674C45.9188 43.0674 45.3467 43.3044 44.9249 43.7262C44.5031 44.148 44.2661 44.7201 44.2661 45.3166Z" fill="#F1CCB8"/>
<path d="M50.8975 22.5491C50.8975 23.1456 51.1344 23.7177 51.5563 24.1395C51.9781 24.5614 52.5502 24.7983 53.1467 24.7983C53.7432 24.7983 54.3153 24.5614 54.737 24.1395C55.1592 23.7177 55.396 23.1456 55.396 22.5491C55.396 21.9526 55.1592 21.3804 54.737 20.9586C54.3153 20.5368 53.7432 20.2998 53.1467 20.2998C52.5502 20.2998 51.9781 20.5368 51.5563 20.9586C51.1344 21.3804 50.8975 21.9526 50.8975 22.5491Z" fill="#F1CCB8"/>
<path d="M53.1464 25.4742C51.5308 25.4742 50.2213 24.1648 50.2213 22.5491C50.2213 20.9335 51.5308 19.6241 53.1464 19.6241C54.7621 19.6241 56.0716 20.9335 56.0716 22.5491C56.0716 24.1648 54.7621 25.4742 53.1464 25.4742ZM53.1464 20.9757C52.2805 20.9757 51.573 21.6832 51.573 22.5491C51.573 23.4151 52.2805 24.1226 53.1464 24.1226C54.0122 24.1226 54.7199 23.4151 54.7199 22.5491C54.7199 21.6832 54.0122 20.9757 53.1464 20.9757ZM41.8791 58.5897C37.7397 58.5897 33.8325 57.2277 30.8758 54.7672C27.8029 52.201 26.1028 48.7586 26.1028 45.0732C26.1028 41.3878 27.7924 37.9454 30.8758 35.3793C33.8325 32.9189 37.7397 31.5567 41.8791 31.5567C46.0186 31.5567 49.9257 32.9189 52.8824 35.3793C55.9553 37.9454 57.6557 41.3878 57.6557 45.0732C57.6557 48.7586 55.9661 52.201 52.8824 54.7672C49.9257 57.238 46.0186 58.5897 41.8791 58.5897ZM41.8791 36.0657C35.67 36.0657 30.6118 40.1101 30.6118 45.0732C30.6118 50.0363 35.67 54.0805 41.8791 54.0805C48.0883 54.0805 53.1464 50.0363 53.1464 45.0732C53.1464 40.1101 48.0883 36.0657 41.8791 36.0657ZM73.4317 28.2409C72.9775 28.2409 72.5131 28.2198 72.0378 28.1669C68.8279 27.8079 65.6807 26.2451 63.1991 23.753C60.7072 21.2609 59.1441 18.1246 58.7851 14.9144C58.4051 11.5141 59.4085 8.43068 61.6047 6.23424C63.8014 4.03782 66.8848 3.03464 70.285 3.41479C73.4949 3.77382 76.6421 5.33669 79.1238 7.82876C81.6157 10.3209 83.1787 13.4572 83.5377 16.6673C83.9178 20.0676 82.9143 23.1511 80.7182 25.3475C78.828 27.2377 76.2831 28.2409 73.4317 28.2409ZM68.9123 7.83936C67.2649 7.83936 65.8181 8.38846 64.7941 9.41274C63.59 10.6166 63.0407 12.3906 63.2629 14.4075C63.5057 16.604 64.6146 18.7899 66.3777 20.5639C68.1413 22.338 70.3272 23.4362 72.5342 23.679C74.5514 23.9008 76.3253 23.3622 77.5288 22.1479C78.7329 20.944 79.2822 19.17 79.06 17.1531C78.8172 14.9566 77.7083 12.7708 75.9452 10.9967C74.1816 9.23324 71.9957 8.12445 69.7887 7.88159C69.493 7.86045 69.1972 7.83936 68.9123 7.83936ZM10.3264 28.2409C7.48586 28.2409 4.93037 27.2377 3.04016 25.3475C0.843726 23.1511 -0.159455 20.0676 0.220698 16.6673C0.579731 13.4572 2.14258 10.3103 4.63469 7.82876C7.1268 5.33669 10.2631 3.77382 13.4733 3.41479C16.8735 3.03464 19.957 4.03782 22.1534 6.23424C24.3499 8.43068 25.353 11.5141 24.9729 14.9144C24.6138 18.1246 23.051 21.2714 20.5589 23.753C18.0668 26.2451 14.9305 27.8079 11.7203 28.1669C11.2451 28.2198 10.7805 28.2409 10.3264 28.2409ZM7.81317 11.0073C6.0497 12.7708 4.94093 14.9566 4.69805 17.1637C4.4763 19.1806 5.01484 20.9546 6.2292 22.1584C7.44358 23.3622 9.20711 23.9113 11.224 23.6896C13.4204 23.4468 15.6063 22.338 17.3803 20.5745C19.1544 18.811 20.2526 16.6251 20.4955 14.4181C20.7173 12.4012 20.1787 10.6271 18.9643 9.42334C17.7499 8.2195 15.9865 7.6704 13.9696 7.89213C11.7625 8.13499 9.5767 9.24378 7.81317 11.0073Z" fill="#F1CCB8"/>
</svg>
