<svg width="93" height="93" viewBox="0 0 93 93" fill="none" xmlns="http://www.w3.org/2000/svg">
<g clip-path="url(#clip0_230_2)">
<path d="M34.8238 56.9199C34.0615 56.9199 33.3305 57.2227 32.7915 57.7617C32.2525 58.3007 31.9497 59.0317 31.9497 59.794C31.9497 60.5563 32.2525 61.2873 32.7915 61.8263C33.3305 62.3653 34.0615 62.6681 34.8238 62.6681C35.586 62.6681 36.3171 62.3653 36.8561 61.8263C37.3951 61.2873 37.6979 60.5563 37.6979 59.794C37.6979 59.0317 37.3951 58.3007 36.8561 57.7617C36.3171 57.2227 35.586 56.9199 34.8238 56.9199ZM57.8164 56.9199C57.0542 56.9199 56.3231 57.2227 55.7841 57.7617C55.2451 58.3007 54.9423 59.0317 54.9423 59.794C54.9423 60.5563 55.2451 61.2873 55.7841 61.8263C56.3231 62.3653 57.0542 62.6681 57.8164 62.6681C58.5787 62.6681 59.3097 62.3653 59.8487 61.8263C60.3877 61.2873 60.6905 60.5563 60.6905 59.794C60.6905 59.0317 60.3877 58.3007 59.8487 57.7617C59.3097 57.2227 58.5787 56.9199 57.8164 56.9199Z" fill="#F19129"/>
<path d="M46.32 92.3053C25.7187 92.3053 8.95703 79.4811 8.95703 63.7168C8.95703 47.9525 25.7187 35.1255 46.32 35.1255C66.9214 35.1255 83.6831 47.9525 83.6831 63.7168C83.6831 79.4811 66.9214 92.3053 46.32 92.3053ZM46.32 40.8736C28.8888 40.8736 14.7052 51.1197 14.7052 63.7168C14.7052 76.3139 28.8888 86.5571 46.32 86.5571C63.7513 86.5571 77.9349 76.311 77.9349 63.7168C77.9349 51.1226 63.7513 40.8736 46.32 40.8736Z" fill="#F19129"/>
<path d="M23.9857 46.2629C22.9022 46.2629 21.8617 45.6479 21.3731 44.5988C19.1141 39.7359 17.3925 34.3068 16.2602 28.4609C15.5055 24.531 15.0273 20.5532 14.8289 16.5564L14.8059 16.0908C14.6133 12.2942 14.392 7.98595 17.3149 4.25539C17.565 3.93925 17.8323 3.63172 18.1168 3.34431C21.0225 0.358144 25.6124 -0.51845 29.0182 1.26635C31.5186 2.57406 33.3236 5.1751 33.9702 8.40269C34.5249 11.1561 34.2548 13.9841 34.0191 16.476L33.9875 16.7778C33.1827 25.1988 33.1827 32.7806 33.9817 39.9572C34.0656 40.7149 33.845 41.4748 33.3685 42.0699C32.8921 42.6649 32.1987 43.0463 31.441 43.1302C30.6834 43.214 29.9234 42.9935 29.3284 42.517C28.7333 42.0405 28.3519 41.3472 28.2681 40.5895C27.4259 33.0192 27.4259 25.0522 28.2681 16.2346L28.2968 15.9299C28.5066 13.7312 28.7222 11.4578 28.3342 9.53508C28.041 8.0578 27.2822 6.84494 26.351 6.35922C25.1813 5.74129 23.362 6.19252 22.2181 7.36515C22.0744 7.5146 21.9508 7.65255 21.8359 7.80201C20.2379 9.8426 20.3816 12.6017 20.5425 15.7977L20.5684 16.2662C20.7552 20.0312 21.2064 23.7675 21.8991 27.3687C22.9424 32.7548 24.5203 37.7355 26.5838 42.176C26.7869 42.6135 26.8766 43.095 26.8447 43.5763C26.8127 44.0576 26.6602 44.5231 26.4011 44.9299C26.142 45.3367 25.7847 45.6718 25.3621 45.9042C24.9394 46.1367 24.4651 46.2591 23.9828 46.26L23.9857 46.2629ZM68.646 46.2859C68.1625 46.2871 67.6865 46.1661 67.2623 45.9341C66.8381 45.7021 66.4794 45.3666 66.2196 44.9588C65.9598 44.5511 65.8073 44.0842 65.7762 43.6017C65.7452 43.1192 65.8366 42.6367 66.0421 42.199C68.1114 37.7585 69.6893 32.7663 70.7383 27.3687C71.431 23.7675 71.8822 20.0341 72.069 16.2662L72.0949 15.7977C72.2558 12.6017 72.3995 9.83973 70.8015 7.80201C70.6866 7.65255 70.5659 7.5146 70.4337 7.37952C69.2725 6.19252 67.459 5.74704 66.2835 6.35922C65.3552 6.84494 64.5964 8.0578 64.3004 9.5322C63.9153 11.4578 64.1308 13.7284 64.3435 15.9299L64.3722 16.2346C65.2 24.943 65.2086 32.8094 64.4038 40.282C64.3704 40.6628 64.2613 41.0332 64.083 41.3713C63.9047 41.7095 63.6607 42.0087 63.3653 42.2514C63.0699 42.4941 62.729 42.6754 62.3627 42.7848C61.9963 42.8941 61.6118 42.9292 61.2317 42.8881C60.8516 42.847 60.4836 42.7305 60.1491 42.5454C59.8146 42.3602 59.5204 42.1102 59.2837 41.81C59.047 41.5097 58.8726 41.1653 58.7707 40.7968C58.6688 40.4283 58.6414 40.0432 58.6902 39.664C59.4518 32.5852 59.4403 25.0982 58.6499 16.7778L58.6212 16.476C58.3826 13.9841 58.1125 11.1589 58.6672 8.39981C59.3138 5.1751 61.1159 2.57406 63.6192 1.26635C67.0279 -0.51845 71.6264 0.361018 74.5407 3.35868C74.808 3.63172 75.0753 3.93637 75.3253 4.25539C78.2483 7.98595 78.027 12.2942 77.8344 16.0908L77.8114 16.5536C77.6133 20.5503 77.1351 24.5282 76.3801 28.458C75.242 34.3211 73.5204 39.7589 71.2528 44.6247C71.0217 45.1212 70.6535 45.5413 70.1917 45.8356C69.7299 46.1299 69.1936 46.2861 68.646 46.2859ZM46.3201 75.0612C45.5579 75.0612 44.8269 74.7584 44.2879 74.2194C43.7489 73.6804 43.4461 72.9494 43.4461 72.1871V69.313C43.4461 68.5508 43.7489 67.8197 44.2879 67.2807C44.8269 66.7418 45.5579 66.439 46.3201 66.439C47.0824 66.439 47.8134 66.7418 48.3524 67.2807C48.8914 67.8197 49.1942 68.5508 49.1942 69.313V72.1871C49.1942 72.9494 48.8914 73.6804 48.3524 74.2194C47.8134 74.7584 47.0824 75.0612 46.3201 75.0612Z" fill="#F19129"/>
<path d="M42.009 77.6275C41.0827 77.6294 40.1653 77.4475 39.3098 77.0923C38.4543 76.737 37.6779 76.2156 37.0254 75.5582C36.8829 75.4269 36.7685 75.2681 36.6889 75.0915C36.6094 74.9148 36.5664 74.7239 36.5625 74.5302C36.5587 74.3366 36.594 74.1441 36.6664 73.9644C36.7388 73.7847 36.8468 73.6215 36.9839 73.4846C37.121 73.3477 37.2843 73.24 37.4641 73.1678C37.6439 73.0957 37.8364 73.0606 38.0301 73.0648C38.2238 73.0689 38.4146 73.1122 38.5911 73.192C38.7677 73.2718 38.9262 73.3864 39.0573 73.5291C40.6323 75.1098 43.3857 75.1098 44.9607 73.5291C45.0933 73.3918 45.2518 73.2823 45.4271 73.207C45.6025 73.1317 45.791 73.0921 45.9818 73.0904C46.1727 73.0887 46.3619 73.1251 46.5385 73.1974C46.7151 73.2696 46.8756 73.3763 47.0105 73.5112C47.1454 73.6462 47.2521 73.8066 47.3244 73.9832C47.3966 74.1598 47.433 74.3491 47.4313 74.5399C47.4297 74.7307 47.39 74.9192 47.3147 75.0946C47.2394 75.2699 47.1299 75.4285 46.9927 75.561C46.3399 76.218 45.5633 76.7389 44.7079 77.0936C43.8524 77.4483 42.9351 77.6298 42.009 77.6275Z" fill="#F19129"/>
<path d="M42.009 77.6275C41.0827 77.6294 40.1653 77.4475 39.3098 77.0923C38.4543 76.737 37.6779 76.2156 37.0254 75.5582C36.8829 75.4269 36.7685 75.2681 36.6889 75.0915C36.6094 74.9148 36.5664 74.7239 36.5625 74.5302C36.5587 74.3366 36.594 74.1441 36.6664 73.9644C36.7388 73.7847 36.8468 73.6215 36.9839 73.4846C37.121 73.3477 37.2843 73.24 37.4641 73.1678C37.6439 73.0957 37.8364 73.0606 38.0301 73.0648C38.2238 73.0689 38.4146 73.1122 38.5911 73.192C38.7677 73.2718 38.9262 73.3864 39.0573 73.5291C40.6323 75.1098 43.3857 75.1098 44.9607 73.5291C45.0933 73.3918 45.2518 73.2823 45.4271 73.207C45.6025 73.1317 45.791 73.0921 45.9818 73.0904C46.1727 73.0887 46.3619 73.1251 46.5385 73.1974C46.7151 73.2696 46.8756 73.3763 47.0105 73.5112C47.1454 73.6462 47.2521 73.8066 47.3244 73.9832C47.3966 74.1598 47.433 74.3491 47.4313 74.5399C47.4297 74.7307 47.39 74.9192 47.3147 75.0946C47.2394 75.2699 47.1299 75.4285 46.9927 75.561C46.3399 76.218 45.5633 76.7389 44.7079 77.0936C43.8524 77.4483 42.9351 77.6298 42.009 77.6275Z" fill="#F19129"/>
<path d="M50.6313 77.6275C49.705 77.6294 48.7876 77.4475 47.9321 77.0923C47.0767 76.737 46.3002 76.2156 45.6477 75.5582C45.5052 75.4269 45.3908 75.2681 45.3113 75.0915C45.2317 74.9148 45.1887 74.7239 45.1849 74.5302C45.181 74.3366 45.2163 74.1441 45.2887 73.9644C45.3611 73.7847 45.4691 73.6215 45.6062 73.4846C45.7433 73.3477 45.9066 73.24 46.0864 73.1678C46.2662 73.0957 46.4587 73.0606 46.6524 73.0648C46.8461 73.0689 47.0369 73.1122 47.2134 73.192C47.39 73.2718 47.5486 73.3864 47.6796 73.5291C49.2546 75.1098 52.008 75.1098 53.583 73.5291C53.7156 73.3918 53.8741 73.2823 54.0495 73.207C54.2248 73.1317 54.4134 73.0921 54.6042 73.0904C54.795 73.0887 54.9842 73.1251 55.1608 73.1974C55.3374 73.2696 55.4979 73.3763 55.6328 73.5112C55.7677 73.6462 55.8744 73.8066 55.9467 73.9832C56.0189 74.1598 56.0553 74.3491 56.0536 74.5399C56.052 74.7307 56.0123 74.9192 55.937 75.0946C55.8617 75.2699 55.7522 75.4285 55.615 75.561C54.9622 76.218 54.1857 76.7389 53.3302 77.0936C52.4747 77.4483 51.5574 77.6298 50.6313 77.6275Z" fill="#F19129"/>
<path d="M50.6313 77.6275C49.705 77.6294 48.7876 77.4475 47.9321 77.0923C47.0767 76.737 46.3002 76.2156 45.6477 75.5582C45.5052 75.4269 45.3908 75.2681 45.3113 75.0915C45.2317 74.9148 45.1887 74.7239 45.1849 74.5302C45.181 74.3366 45.2163 74.1441 45.2887 73.9644C45.3611 73.7847 45.4691 73.6215 45.6062 73.4846C45.7433 73.3477 45.9066 73.24 46.0864 73.1678C46.2662 73.0957 46.4587 73.0606 46.6524 73.0648C46.8461 73.0689 47.0369 73.1122 47.2134 73.192C47.39 73.2718 47.5486 73.3864 47.6796 73.5291C49.2546 75.1098 52.008 75.1098 53.583 73.5291C53.7156 73.3918 53.8741 73.2823 54.0495 73.207C54.2248 73.1317 54.4134 73.0921 54.6042 73.0904C54.795 73.0887 54.9842 73.1251 55.1608 73.1974C55.3374 73.2696 55.4979 73.3763 55.6328 73.5112C55.7677 73.6462 55.8744 73.8066 55.9467 73.9832C56.0189 74.1598 56.0553 74.3491 56.0536 74.5399C56.052 74.7307 56.0123 74.9192 55.937 75.0946C55.8617 75.2699 55.7522 75.4285 55.615 75.561C54.9622 76.218 54.1857 76.7389 53.3302 77.0936C52.4747 77.4483 51.5574 77.6298 50.6313 77.6275Z" fill="#F19129"/>
</g>
<defs>
<clipPath id="clip0_230_2">
<rect width="91.9705" height="91.9705" fill="white" transform="translate(0.334961 0.334961)"/>
</clipPath>
</defs>
</svg>
