<svg width="156" height="195" viewBox="0 0 156 195" fill="none" xmlns="http://www.w3.org/2000/svg">
<g clip-path="url(#clip0_36_58)">
<rect x="5.93714" y="5.26676" width="145.128" height="184.922" fill="white" stroke="#FBE7CE" stroke-width="10.5335"/>
<path d="M61.6553 33.2699V44.9189H59.6631V33.2699H61.6553ZM65.3116 33.2699V34.87H56.0388V33.2699H65.3116ZM70.4641 43.1828V39.0544C70.4641 38.7451 70.4081 38.4784 70.2961 38.2543C70.1841 38.0303 70.0134 37.857 69.784 37.7343C69.56 37.6116 69.2773 37.5503 68.936 37.5503C68.6213 37.5503 68.3492 37.6036 68.1199 37.7103C67.8905 37.817 67.7119 37.961 67.5838 38.1423C67.4558 38.3237 67.3918 38.529 67.3918 38.7584H65.4717C65.4717 38.417 65.5543 38.0863 65.7197 37.7663C65.885 37.4463 66.125 37.1609 66.4397 36.9102C66.7544 36.6595 67.1305 36.4622 67.5678 36.3182C68.0052 36.1742 68.4959 36.1022 69.04 36.1022C69.6907 36.1022 70.2668 36.2115 70.7681 36.4302C71.2748 36.6489 71.6722 36.9796 71.9602 37.4223C72.2536 37.8596 72.4003 38.409 72.4003 39.0704V42.9188C72.4003 43.3135 72.4269 43.6682 72.4803 43.9829C72.539 44.2922 72.6216 44.5616 72.7283 44.7909V44.9189H70.7521C70.6615 44.7109 70.5894 44.4469 70.5361 44.1269C70.4881 43.8015 70.4641 43.4868 70.4641 43.1828ZM70.7441 39.6545L70.7601 40.8466H69.376C69.0186 40.8466 68.7039 40.8812 68.4319 40.9506C68.1599 41.0146 67.9332 41.1106 67.7519 41.2386C67.5705 41.3666 67.4345 41.5213 67.3438 41.7027C67.2531 41.884 67.2078 42.0894 67.2078 42.3187C67.2078 42.5481 67.2611 42.7588 67.3678 42.9508C67.4745 43.1375 67.6292 43.2841 67.8319 43.3908C68.0399 43.4975 68.2906 43.5508 68.5839 43.5508C68.9786 43.5508 69.3227 43.4708 69.616 43.3108C69.9147 43.1455 70.1494 42.9454 70.3201 42.7107C70.4908 42.4707 70.5814 42.244 70.5921 42.0307L71.2162 42.8868C71.1522 43.1054 71.0428 43.3401 70.8881 43.5908C70.7335 43.8415 70.5308 44.0815 70.2801 44.3109C70.0347 44.5349 69.7387 44.7189 69.392 44.8629C69.0506 45.007 68.6559 45.079 68.2079 45.079C67.6425 45.079 67.1385 44.9669 66.6958 44.7429C66.2531 44.5136 65.9064 44.2069 65.6557 43.8228C65.405 43.4335 65.2796 42.9934 65.2796 42.5027C65.2796 42.044 65.365 41.6386 65.5357 41.2866C65.7117 40.9293 65.9677 40.6306 66.3037 40.3905C66.6451 40.1505 67.0611 39.9692 67.5518 39.8465C68.0426 39.7185 68.6026 39.6545 69.232 39.6545H70.7441ZM76.3286 38.1103V44.9189H74.4005V36.2622H76.2166L76.3286 38.1103ZM75.9846 40.2705L75.3605 40.2625C75.3659 39.6491 75.4512 39.0864 75.6166 38.5744C75.7872 38.0623 76.0219 37.6223 76.3206 37.2543C76.6247 36.8862 76.9874 36.6035 77.4087 36.4062C77.8301 36.2035 78.2995 36.1022 78.8169 36.1022C79.2329 36.1022 79.6089 36.1608 79.945 36.2782C80.2863 36.3902 80.577 36.5742 80.817 36.8302C81.0624 37.0862 81.2491 37.4196 81.3771 37.8303C81.5051 38.2357 81.5691 38.7344 81.5691 39.3264V44.9189H79.6329V39.3184C79.6329 38.9024 79.5716 38.5744 79.4489 38.3344C79.3316 38.089 79.1582 37.9156 78.9289 37.8143C78.7048 37.7076 78.4248 37.6543 78.0888 37.6543C77.7581 37.6543 77.4621 37.7236 77.2007 37.8623C76.9394 38.001 76.718 38.1903 76.5367 38.4304C76.3606 38.6704 76.2246 38.9477 76.1286 39.2624C76.0326 39.5771 75.9846 39.9132 75.9846 40.2705ZM89.0818 36.2622H90.8339V44.6789C90.8339 45.4577 90.6686 46.1191 90.3379 46.6631C90.0072 47.2072 89.5458 47.6205 88.9538 47.9032C88.3617 48.1912 87.6763 48.3353 86.8976 48.3353C86.5669 48.3353 86.1989 48.2872 85.7935 48.1912C85.3934 48.0952 85.0041 47.9406 84.6254 47.7272C84.252 47.5192 83.94 47.2445 83.6893 46.9031L84.5934 45.767C84.9027 46.1351 85.2441 46.4044 85.6175 46.5751C85.9908 46.7458 86.3829 46.8311 86.7936 46.8311C87.2363 46.8311 87.6123 46.7484 87.9217 46.5831C88.2364 46.4231 88.4791 46.1857 88.6497 45.871C88.8204 45.5563 88.9058 45.1723 88.9058 44.7189V38.2223L89.0818 36.2622ZM83.2012 40.6866V40.5185C83.2012 39.8625 83.2813 39.2651 83.4413 38.7264C83.6013 38.1823 83.8306 37.7156 84.1293 37.3263C84.428 36.9316 84.7907 36.6302 85.2174 36.4222C85.6441 36.2088 86.1268 36.1022 86.6656 36.1022C87.2256 36.1022 87.703 36.2035 88.0977 36.4062C88.4977 36.6089 88.8311 36.8996 89.0978 37.2783C89.3645 37.6516 89.5725 38.0997 89.7218 38.6224C89.8765 39.1398 89.9912 39.7158 90.0659 40.3505V40.8866C89.9965 41.5053 89.8792 42.0707 89.7138 42.5827C89.5485 43.0948 89.3298 43.5375 89.0578 43.9109C88.7858 44.2842 88.4497 44.5722 88.0497 44.7749C87.655 44.9776 87.1883 45.079 86.6496 45.079C86.1215 45.079 85.6441 44.9696 85.2174 44.7509C84.7961 44.5322 84.4334 44.2255 84.1293 43.8308C83.8306 43.4361 83.6013 42.9721 83.4413 42.4387C83.2813 41.9 83.2012 41.316 83.2012 40.6866ZM85.1294 40.5185V40.6866C85.1294 41.0813 85.1668 41.4493 85.2414 41.7907C85.3214 42.132 85.4415 42.4334 85.6015 42.6947C85.7668 42.9508 85.9748 43.1535 86.2255 43.3028C86.4815 43.4468 86.7829 43.5188 87.1296 43.5188C87.583 43.5188 87.9537 43.4228 88.2417 43.2308C88.5351 43.0388 88.7591 42.7801 88.9138 42.4547C89.0738 42.124 89.1858 41.756 89.2498 41.3506V39.9025C89.2178 39.5878 89.1511 39.2944 89.0498 39.0224C88.9538 38.7504 88.8231 38.513 88.6577 38.3104C88.4924 38.1023 88.2844 37.9423 88.0337 37.8303C87.783 37.713 87.487 37.6543 87.1456 37.6543C86.7989 37.6543 86.4975 37.729 86.2415 37.8783C85.9855 38.0277 85.7748 38.233 85.6095 38.4944C85.4495 38.7557 85.3294 39.0598 85.2494 39.4064C85.1694 39.7531 85.1294 40.1238 85.1294 40.5185ZM92.4661 40.6866V40.5025C92.4661 39.8785 92.5568 39.2998 92.7381 38.7664C92.9195 38.2277 93.1808 37.761 93.5222 37.3663C93.8689 36.9662 94.2902 36.6569 94.7863 36.4382C95.2877 36.2142 95.8531 36.1022 96.4824 36.1022C97.1172 36.1022 97.6826 36.2142 98.1786 36.4382C98.68 36.6569 99.104 36.9662 99.4507 37.3663C99.7974 37.761 100.061 38.2277 100.243 38.7664C100.424 39.2998 100.515 39.8785 100.515 40.5025V40.6866C100.515 41.3106 100.424 41.8893 100.243 42.4227C100.061 42.9561 99.7974 43.4228 99.4507 43.8228C99.104 44.2175 98.6826 44.5269 98.1866 44.7509C97.6906 44.9696 97.1278 45.079 96.4984 45.079C95.8637 45.079 95.2957 44.9696 94.7943 44.7509C94.2982 44.5269 93.8769 44.2175 93.5302 43.8228C93.1835 43.4228 92.9195 42.9561 92.7381 42.4227C92.5568 41.8893 92.4661 41.3106 92.4661 40.6866ZM94.3943 40.5025V40.6866C94.3943 41.0759 94.4343 41.444 94.5143 41.7907C94.5943 42.1374 94.7196 42.4414 94.8903 42.7027C95.061 42.9641 95.2797 43.1695 95.5464 43.3188C95.813 43.4681 96.1304 43.5428 96.4984 43.5428C96.8558 43.5428 97.1652 43.4681 97.4265 43.3188C97.6932 43.1695 97.9119 42.9641 98.0826 42.7027C98.2533 42.4414 98.3786 42.1374 98.4586 41.7907C98.544 41.444 98.5866 41.0759 98.5866 40.6866V40.5025C98.5866 40.1185 98.544 39.7558 98.4586 39.4144C98.3786 39.0678 98.2506 38.7611 98.0746 38.4944C97.9039 38.2277 97.6852 38.0197 97.4185 37.8703C97.1572 37.7156 96.8451 37.6383 96.4824 37.6383C96.1197 37.6383 95.805 37.7156 95.5384 37.8703C95.277 38.0197 95.061 38.2277 94.8903 38.4944C94.7196 38.7611 94.5943 39.0678 94.5143 39.4144C94.4343 39.7558 94.3943 40.1185 94.3943 40.5025Z" fill="#EDA54A"/>
<path d="M31.1509 66.2768L28.3963 73.8604H27.2705L30.4422 65.5396H31.168L31.1509 66.2768ZM33.4596 73.8604L30.6994 66.2768L30.6822 65.5396H31.408L34.5912 73.8604H33.4596ZM33.3168 70.7801V71.683H28.6421V70.7801H33.3168ZM36.6028 68.9971V73.8604H35.5455V67.6769H36.5456L36.6028 68.9971ZM36.3513 70.5343L35.9113 70.5172C35.9151 70.0943 35.978 69.7038 36.0999 69.3457C36.2218 68.9837 36.3932 68.6694 36.6142 68.4027C36.8352 68.136 37.0981 67.9303 37.4029 67.7855C37.7115 67.6369 38.0524 67.5626 38.4258 67.5626C38.7306 67.5626 39.0049 67.6046 39.2487 67.6884C39.4926 67.7684 39.7002 67.8979 39.8716 68.077C40.0469 68.256 40.1802 68.4884 40.2717 68.7742C40.3631 69.0561 40.4088 69.4009 40.4088 69.8086V73.8604H39.3459V69.7971C39.3459 69.4733 39.2983 69.2142 39.203 69.0199C39.1078 68.8218 38.9687 68.6789 38.7858 68.5913C38.603 68.4999 38.3782 68.4542 38.1115 68.4542C37.8486 68.4542 37.6086 68.5094 37.3914 68.6199C37.1781 68.7304 36.9933 68.8828 36.8371 69.0771C36.6847 69.2714 36.5647 69.4942 36.4771 69.7457C36.3932 69.9933 36.3513 70.2562 36.3513 70.5343ZM47.4838 73.9746C47.0532 73.9746 46.6627 73.9023 46.3122 73.7575C45.9655 73.6089 45.6665 73.4013 45.415 73.1346C45.1674 72.8679 44.9769 72.5517 44.8435 72.1859C44.7102 71.8202 44.6435 71.4201 44.6435 70.9858V70.7458C44.6435 70.2429 44.7178 69.7952 44.8664 69.4028C45.015 69.0066 45.2169 68.6713 45.4722 68.397C45.7274 68.1227 46.017 67.9151 46.3408 67.7741C46.6646 67.6331 46.9999 67.5626 47.3466 67.5626C47.7885 67.5626 48.1695 67.6388 48.4896 67.7912C48.8134 67.9436 49.0782 68.157 49.2839 68.4313C49.4897 68.7018 49.642 69.0218 49.7411 69.3914C49.8402 69.7571 49.8897 70.1572 49.8897 70.5915V71.0658H45.2721V70.2029H48.8325V70.1229C48.8172 69.8486 48.7601 69.5819 48.661 69.3228C48.5658 69.0637 48.4134 68.8504 48.2038 68.6827C47.9943 68.5151 47.7085 68.4313 47.3466 68.4313C47.1066 68.4313 46.8856 68.4827 46.6837 68.5856C46.4818 68.6846 46.3084 68.8332 46.1636 69.0313C46.0189 69.2295 45.9065 69.4714 45.8265 69.7571C45.7465 70.0429 45.7065 70.3724 45.7065 70.7458V70.9858C45.7065 71.2792 45.7465 71.5554 45.8265 71.8145C45.9103 72.0697 46.0303 72.2945 46.1865 72.4888C46.3465 72.6831 46.5389 72.8355 46.7637 72.946C46.9923 73.0565 47.2514 73.1117 47.5409 73.1117C47.9143 73.1117 48.2305 73.0355 48.4896 72.8831C48.7486 72.7307 48.9753 72.5269 49.1696 72.2716L49.8097 72.7803C49.6763 72.9822 49.5068 73.1746 49.3011 73.3574C49.0953 73.5403 48.842 73.6889 48.541 73.8032C48.2438 73.9175 47.8914 73.9746 47.4838 73.9746ZM52.1813 68.9971V73.8604H51.1241V67.6769H52.1242L52.1813 68.9971ZM51.9299 70.5343L51.4898 70.5172C51.4936 70.0943 51.5565 69.7038 51.6784 69.3457C51.8003 68.9837 51.9718 68.6694 52.1928 68.4027C52.4137 68.136 52.6766 67.9303 52.9814 67.7855C53.29 67.6369 53.631 67.5626 54.0043 67.5626C54.3091 67.5626 54.5834 67.6046 54.8273 67.6884C55.0711 67.7684 55.2787 67.8979 55.4502 68.077C55.6254 68.256 55.7588 68.4884 55.8502 68.7742C55.9417 69.0561 55.9874 69.4009 55.9874 69.8086V73.8604H54.9244V69.7971C54.9244 69.4733 54.8768 69.2142 54.7816 69.0199C54.6863 68.8218 54.5473 68.6789 54.3644 68.5913C54.1815 68.4999 53.9567 68.4542 53.69 68.4542C53.4272 68.4542 53.1871 68.5094 52.97 68.6199C52.7566 68.7304 52.5718 68.8828 52.4156 69.0771C52.2632 69.2714 52.1432 69.4942 52.0556 69.7457C51.9718 69.9933 51.9299 70.2562 51.9299 70.5343ZM60.1592 73.9746C59.7287 73.9746 59.3382 73.9023 58.9877 73.7575C58.641 73.6089 58.3419 73.4013 58.0904 73.1346C57.8428 72.8679 57.6523 72.5517 57.5189 72.1859C57.3856 71.8202 57.3189 71.4201 57.3189 70.9858V70.7458C57.3189 70.2429 57.3932 69.7952 57.5418 69.4028C57.6904 69.0066 57.8923 68.6713 58.1476 68.397C58.4028 68.1227 58.6924 67.9151 59.0162 67.7741C59.3401 67.6331 59.6753 67.5626 60.022 67.5626C60.464 67.5626 60.845 67.6388 61.165 67.7912C61.4888 67.9436 61.7536 68.157 61.9593 68.4313C62.1651 68.7018 62.3175 69.0218 62.4165 69.3914C62.5156 69.7571 62.5651 70.1572 62.5651 70.5915V71.0658H57.9476V70.2029H61.5079V70.1229C61.4926 69.8486 61.4355 69.5819 61.3364 69.3228C61.2412 69.0637 61.0888 68.8504 60.8793 68.6827C60.6697 68.5151 60.384 68.4313 60.022 68.4313C59.782 68.4313 59.561 68.4827 59.3591 68.5856C59.1572 68.6846 58.9838 68.8332 58.8391 69.0313C58.6943 69.2295 58.5819 69.4714 58.5019 69.7571C58.4219 70.0429 58.3819 70.3724 58.3819 70.7458V70.9858C58.3819 71.2792 58.4219 71.5554 58.5019 71.8145C58.5857 72.0697 58.7057 72.2945 58.8619 72.4888C59.0219 72.6831 59.2143 72.8355 59.4391 72.946C59.6677 73.0565 59.9268 73.1117 60.2163 73.1117C60.5897 73.1117 60.9059 73.0355 61.165 72.8831C61.4241 72.7307 61.6507 72.5269 61.8451 72.2716L62.4851 72.7803C62.3518 72.9822 62.1822 73.1746 61.9765 73.3574C61.7708 73.5403 61.5174 73.6889 61.2164 73.8032C60.9193 73.9175 60.5668 73.9746 60.1592 73.9746ZM64.8568 68.6485V73.8604H63.7995V67.6769H64.8282L64.8568 68.6485ZM66.7884 67.6426L66.7826 68.6256C66.695 68.6065 66.6112 68.5951 66.5312 68.5913C66.455 68.5837 66.3674 68.5799 66.2683 68.5799C66.0245 68.5799 65.8092 68.618 65.6225 68.6942C65.4359 68.7704 65.2777 68.877 65.1482 69.0142C65.0187 69.1514 64.9158 69.3152 64.8396 69.5057C64.7672 69.6924 64.7196 69.8981 64.6967 70.1229L64.3996 70.2943C64.3996 69.9209 64.4358 69.5704 64.5082 69.2428C64.5843 68.9151 64.7005 68.6256 64.8568 68.3741C65.013 68.1189 65.2111 67.9208 65.4511 67.7798C65.6949 67.635 65.9845 67.5626 66.3197 67.5626C66.3959 67.5626 66.4836 67.5722 66.5826 67.5912C66.6817 67.6065 66.7503 67.6236 66.7884 67.6426ZM71.6574 67.6769H72.6175V73.7289C72.6175 74.2737 72.507 74.7385 72.286 75.1233C72.065 75.5081 71.7564 75.7996 71.3602 75.9977C70.9678 76.1996 70.5144 76.3006 70.0001 76.3006C69.7867 76.3006 69.5353 76.2663 69.2457 76.1977C68.96 76.1329 68.6781 76.0205 68.3999 75.8605C68.1256 75.7043 67.8951 75.4929 67.7084 75.2262L68.2628 74.5976C68.5218 74.91 68.7923 75.1271 69.0743 75.249C69.36 75.371 69.6419 75.4319 69.9201 75.4319C70.2553 75.4319 70.5449 75.3691 70.7887 75.2433C71.0325 75.1176 71.2211 74.9309 71.3545 74.6833C71.4916 74.4395 71.5602 74.1385 71.5602 73.7803V69.0371L71.6574 67.6769ZM67.3998 70.8372V70.7172C67.3998 70.2448 67.4551 69.8162 67.5656 69.4314C67.6799 69.0428 67.8418 68.7094 68.0513 68.4313C68.2647 68.1532 68.5218 67.9398 68.8228 67.7912C69.1238 67.6388 69.4629 67.5626 69.8401 67.5626C70.2287 67.5626 70.5677 67.6312 70.8573 67.7684C71.1507 67.9017 71.3983 68.0979 71.6002 68.357C71.806 68.6123 71.9679 68.9209 72.086 69.2828C72.2041 69.6447 72.286 70.0543 72.3317 70.5115V71.0372C72.2898 71.4906 72.2079 71.8983 72.086 72.2602C71.9679 72.6221 71.806 72.9307 71.6002 73.186C71.3983 73.4413 71.1507 73.6375 70.8573 73.7746C70.5639 73.908 70.221 73.9746 69.8286 73.9746C69.4591 73.9746 69.1238 73.8965 68.8228 73.7403C68.5257 73.5841 68.2704 73.3651 68.057 73.0831C67.8437 72.8012 67.6799 72.4698 67.5656 72.0888C67.4551 71.704 67.3998 71.2868 67.3998 70.8372ZM68.4571 70.7172V70.8372C68.4571 71.1458 68.4876 71.4354 68.5485 71.7059C68.6133 71.9764 68.7104 72.2145 68.84 72.4202C68.9733 72.626 69.1429 72.7879 69.3486 72.906C69.5543 73.0203 69.8001 73.0774 70.0858 73.0774C70.4363 73.0774 70.7259 73.0031 70.9544 72.8545C71.183 72.706 71.364 72.5098 71.4974 72.2659C71.6345 72.0221 71.7412 71.7573 71.8174 71.4716V70.0943C71.7755 69.8848 71.7107 69.6828 71.6231 69.4885C71.5393 69.2904 71.4288 69.1152 71.2916 68.9628C71.1583 68.8066 70.9925 68.6827 70.7944 68.5913C70.5963 68.4999 70.3639 68.4542 70.0972 68.4542C69.8077 68.4542 69.5581 68.5151 69.3486 68.637C69.1429 68.7551 68.9733 68.919 68.84 69.1285C68.7104 69.3342 68.6133 69.5743 68.5485 69.8486C68.4876 70.1191 68.4571 70.4086 68.4571 70.7172ZM76.7893 73.9746C76.3587 73.9746 75.9682 73.9023 75.6177 73.7575C75.271 73.6089 74.9719 73.4013 74.7205 73.1346C74.4729 72.8679 74.2824 72.5517 74.149 72.1859C74.0157 71.8202 73.949 71.4201 73.949 70.9858V70.7458C73.949 70.2429 74.0233 69.7952 74.1719 69.4028C74.3205 69.0066 74.5224 68.6713 74.7776 68.397C75.0329 68.1227 75.3225 67.9151 75.6463 67.7741C75.9701 67.6331 76.3054 67.5626 76.6521 67.5626C77.094 67.5626 77.475 67.6388 77.7951 67.7912C78.1189 67.9436 78.3837 68.157 78.5894 68.4313C78.7951 68.7018 78.9475 69.0218 79.0466 69.3914C79.1457 69.7571 79.1952 70.1572 79.1952 70.5915V71.0658H74.5776V70.2029H78.1379V70.1229C78.1227 69.8486 78.0656 69.5819 77.9665 69.3228C77.8713 69.0637 77.7189 68.8504 77.5093 68.6827C77.2998 68.5151 77.014 68.4313 76.6521 68.4313C76.4121 68.4313 76.1911 68.4827 75.9892 68.5856C75.7873 68.6846 75.6139 68.8332 75.4691 69.0313C75.3244 69.2295 75.212 69.4714 75.132 69.7571C75.052 70.0429 75.012 70.3724 75.012 70.7458V70.9858C75.012 71.2792 75.052 71.5554 75.132 71.8145C75.2158 72.0697 75.3358 72.2945 75.492 72.4888C75.652 72.6831 75.8444 72.8355 76.0692 72.946C76.2978 73.0565 76.5569 73.1117 76.8464 73.1117C77.2198 73.1117 77.536 73.0355 77.7951 72.8831C78.0541 72.7307 78.2808 72.5269 78.4751 72.2716L79.1152 72.7803C78.9818 72.9822 78.8123 73.1746 78.6066 73.3574C78.4008 73.5403 78.1475 73.6889 77.8465 73.8032C77.5493 73.9175 77.1969 73.9746 76.7893 73.9746ZM83.0184 67.6769V68.4884H79.6752V67.6769H83.0184ZM80.8068 66.1739H81.864V72.3288C81.864 72.5383 81.8964 72.6964 81.9611 72.8031C82.0259 72.9098 82.1097 72.9803 82.2126 73.0146C82.3155 73.0488 82.426 73.066 82.5441 73.066C82.6317 73.066 82.7231 73.0584 82.8184 73.0431C82.9174 73.0241 82.9917 73.0088 83.0412 72.9974L83.047 73.8604C82.9631 73.887 82.8527 73.9118 82.7155 73.9346C82.5822 73.9613 82.4202 73.9746 82.2297 73.9746C81.9707 73.9746 81.7326 73.9232 81.5154 73.8203C81.2982 73.7175 81.1249 73.546 80.9953 73.306C80.8696 73.0622 80.8068 72.7345 80.8068 72.3231V66.1739ZM85.4072 67.6769V73.8604H84.3442V67.6769H85.4072ZM84.2642 66.0368C84.2642 65.8653 84.3156 65.7206 84.4185 65.6025C84.5252 65.4844 84.6814 65.4253 84.8871 65.4253C85.0891 65.4253 85.2434 65.4844 85.35 65.6025C85.4605 65.7206 85.5158 65.8653 85.5158 66.0368C85.5158 66.2006 85.4605 66.3416 85.35 66.4597C85.2434 66.574 85.0891 66.6311 84.8871 66.6311C84.6814 66.6311 84.5252 66.574 84.4185 66.4597C84.3156 66.3416 84.2642 66.2006 84.2642 66.0368ZM89.579 73.106C89.8304 73.106 90.0628 73.0546 90.2762 72.9517C90.4895 72.8488 90.6648 72.7079 90.8019 72.5288C90.9391 72.3459 91.0172 72.1383 91.0363 71.9059H92.0421C92.023 72.2716 91.8992 72.6126 91.6706 72.9288C91.4458 73.2412 91.1505 73.4946 90.7848 73.6889C90.4191 73.8794 90.0171 73.9746 89.579 73.9746C89.1142 73.9746 88.7084 73.8927 88.3617 73.7289C88.0188 73.5651 87.7331 73.3403 87.5045 73.0546C87.2797 72.7688 87.1102 72.4412 86.9959 72.0716C86.8854 71.6983 86.8302 71.3039 86.8302 70.8887V70.6486C86.8302 70.2334 86.8854 69.8409 86.9959 69.4714C87.1102 69.098 87.2797 68.7685 87.5045 68.4827C87.7331 68.197 88.0188 67.9722 88.3617 67.8084C88.7084 67.6446 89.1142 67.5626 89.579 67.5626C90.0628 67.5626 90.4857 67.6617 90.8477 67.8598C91.2096 68.0541 91.4934 68.3208 91.6992 68.6599C91.9087 68.9952 92.023 69.3761 92.0421 69.8028H91.0363C91.0172 69.5476 90.9448 69.3171 90.8191 69.1114C90.6972 68.9056 90.5295 68.7418 90.3162 68.6199C90.1066 68.4942 89.8609 68.4313 89.579 68.4313C89.2551 68.4313 88.9827 68.4961 88.7618 68.6256C88.5446 68.7513 88.3713 68.9228 88.2417 69.1399C88.116 69.3533 88.0246 69.5914 87.9674 69.8543C87.9141 70.1133 87.8874 70.3781 87.8874 70.6486V70.8887C87.8874 71.1592 87.9141 71.4258 87.9674 71.6887C88.0207 71.9516 88.1103 72.1897 88.236 72.4031C88.3655 72.6164 88.5389 72.7879 88.756 72.9174C88.977 73.0431 89.2513 73.106 89.579 73.106ZM100.031 72.6602V65.0824H101.094V73.8604H100.123L100.031 72.6602ZM95.871 70.8372V70.7172C95.871 70.2448 95.9281 69.8162 96.0424 69.4314C96.1605 69.0428 96.3262 68.7094 96.5396 68.4313C96.7568 68.1532 97.0139 67.9398 97.3111 67.7912C97.6121 67.6388 97.9473 67.5626 98.3169 67.5626C98.7055 67.5626 99.0446 67.6312 99.3341 67.7684C99.6275 67.9017 99.8751 68.0979 100.077 68.357C100.283 68.6123 100.445 68.9209 100.563 69.2828C100.681 69.6447 100.763 70.0543 100.809 70.5115V71.0372C100.767 71.4906 100.685 71.8983 100.563 72.2602C100.445 72.6221 100.283 72.9307 100.077 73.186C99.8751 73.4413 99.6275 73.6375 99.3341 73.7746C99.0408 73.908 98.6979 73.9746 98.3055 73.9746C97.9435 73.9746 97.6121 73.8965 97.3111 73.7403C97.0139 73.5841 96.7568 73.3651 96.5396 73.0831C96.3262 72.8012 96.1605 72.4698 96.0424 72.0888C95.9281 71.704 95.871 71.2868 95.871 70.8372ZM96.9339 70.7172V70.8372C96.9339 71.1458 96.9644 71.4354 97.0254 71.7059C97.0901 71.9764 97.1892 72.2145 97.3225 72.4202C97.4559 72.626 97.6254 72.7879 97.8311 72.906C98.0369 73.0203 98.2826 73.0774 98.5684 73.0774C98.9189 73.0774 99.2065 73.0031 99.4313 72.8545C99.6599 72.706 99.8428 72.5098 99.9799 72.2659C100.117 72.0221 100.224 71.7573 100.3 71.4716V70.0943C100.254 69.8848 100.188 69.6828 100.1 69.4885C100.016 69.2904 99.9056 69.1152 99.7685 68.9628C99.6351 68.8066 99.4694 68.6827 99.2713 68.5913C99.077 68.4999 98.8465 68.4542 98.5798 68.4542C98.2902 68.4542 98.0407 68.5151 97.8311 68.637C97.6254 68.7551 97.4559 68.919 97.3225 69.1285C97.1892 69.3342 97.0901 69.5743 97.0254 69.8486C96.9644 70.1191 96.9339 70.4086 96.9339 70.7172ZM106.386 72.8031V69.62C106.386 69.3761 106.337 69.1647 106.238 68.9856C106.142 68.8028 105.998 68.6618 105.803 68.5627C105.609 68.4637 105.369 68.4141 105.083 68.4141C104.817 68.4141 104.582 68.4599 104.38 68.5513C104.182 68.6427 104.026 68.7627 103.912 68.9113C103.801 69.0599 103.746 69.2199 103.746 69.3914H102.689C102.689 69.1704 102.746 68.9513 102.86 68.7342C102.974 68.517 103.138 68.3208 103.352 68.1456C103.569 67.9665 103.828 67.8255 104.129 67.7227C104.434 67.616 104.773 67.5626 105.146 67.5626C105.596 67.5626 105.992 67.6388 106.335 67.7912C106.681 67.9436 106.952 68.1741 107.146 68.4827C107.344 68.7875 107.443 69.1704 107.443 69.6314V72.5117C107.443 72.7174 107.461 72.9365 107.495 73.1689C107.533 73.4013 107.588 73.6013 107.661 73.7689V73.8604H106.558C106.504 73.7384 106.462 73.5765 106.432 73.3746C106.401 73.1689 106.386 72.9784 106.386 72.8031ZM106.569 70.1114L106.581 70.8544H105.512C105.211 70.8544 104.942 70.8791 104.706 70.9287C104.47 70.9744 104.272 71.0449 104.112 71.1401C103.952 71.2354 103.83 71.3554 103.746 71.5001C103.662 71.6411 103.62 71.8068 103.62 71.9973C103.62 72.1916 103.664 72.3688 103.752 72.5288C103.839 72.6888 103.971 72.8164 104.146 72.9117C104.325 73.0031 104.544 73.0488 104.803 73.0488C105.127 73.0488 105.413 72.9803 105.66 72.8431C105.908 72.706 106.104 72.5383 106.249 72.3402C106.398 72.1421 106.478 71.9497 106.489 71.763L106.941 72.2716C106.914 72.4317 106.841 72.6088 106.723 72.8031C106.605 72.9974 106.447 73.1841 106.249 73.3632C106.055 73.5384 105.822 73.6851 105.552 73.8032C105.285 73.9175 104.984 73.9746 104.649 73.9746C104.23 73.9746 103.862 73.8927 103.546 73.7289C103.234 73.5651 102.99 73.346 102.814 73.0717C102.643 72.7936 102.557 72.4831 102.557 72.1402C102.557 71.8087 102.622 71.5173 102.752 71.2658C102.881 71.0106 103.068 70.7991 103.312 70.6315C103.555 70.46 103.849 70.3305 104.192 70.2429C104.535 70.1553 104.918 70.1114 105.34 70.1114H106.569ZM110.164 68.9971V73.8604H109.106V67.6769H110.107L110.164 68.9971ZM109.912 70.5343L109.472 70.5172C109.476 70.0943 109.539 69.7038 109.661 69.3457C109.783 68.9837 109.954 68.6694 110.175 68.4027C110.396 68.136 110.659 67.9303 110.964 67.7855C111.272 67.6369 111.613 67.5626 111.987 67.5626C112.292 67.5626 112.566 67.6046 112.81 67.6884C113.053 67.7684 113.261 67.8979 113.433 68.077C113.608 68.256 113.741 68.4884 113.833 68.7742C113.924 69.0561 113.97 69.4009 113.97 69.8086V73.8604H112.907V69.7971C112.907 69.4733 112.859 69.2142 112.764 69.0199C112.669 68.8218 112.53 68.6789 112.347 68.5913C112.164 68.4999 111.939 68.4542 111.672 68.4542C111.41 68.4542 111.169 68.5094 110.952 68.6199C110.739 68.7304 110.554 68.8828 110.398 69.0771C110.246 69.2714 110.126 69.4942 110.038 69.7457C109.954 69.9933 109.912 70.2562 109.912 70.5343ZM118.05 73.106C118.302 73.106 118.534 73.0546 118.747 72.9517C118.961 72.8488 119.136 72.7079 119.273 72.5288C119.41 72.3459 119.488 72.1383 119.507 71.9059H120.513C120.494 72.2716 120.37 72.6126 120.142 72.9288C119.917 73.2412 119.622 73.4946 119.256 73.6889C118.89 73.8794 118.488 73.9746 118.05 73.9746C117.585 73.9746 117.18 73.8927 116.833 73.7289C116.49 73.5651 116.204 73.3403 115.976 73.0546C115.751 72.7688 115.581 72.4412 115.467 72.0716C115.357 71.6983 115.301 71.3039 115.301 70.8887V70.6486C115.301 70.2334 115.357 69.8409 115.467 69.4714C115.581 69.098 115.751 68.7685 115.976 68.4827C116.204 68.197 116.49 67.9722 116.833 67.8084C117.18 67.6446 117.585 67.5626 118.05 67.5626C118.534 67.5626 118.957 67.6617 119.319 67.8598C119.681 68.0541 119.965 68.3208 120.17 68.6599C120.38 68.9952 120.494 69.3761 120.513 69.8028H119.507C119.488 69.5476 119.416 69.3171 119.29 69.1114C119.168 68.9056 119.001 68.7418 118.787 68.6199C118.578 68.4942 118.332 68.4313 118.05 68.4313C117.726 68.4313 117.454 68.4961 117.233 68.6256C117.016 68.7513 116.842 68.9228 116.713 69.1399C116.587 69.3533 116.496 69.5914 116.439 69.8543C116.385 70.1133 116.359 70.3781 116.359 70.6486V70.8887C116.359 71.1592 116.385 71.4258 116.439 71.6887C116.492 71.9516 116.581 72.1897 116.707 72.4031C116.837 72.6164 117.01 72.7879 117.227 72.9174C117.448 73.0431 117.722 73.106 118.05 73.106ZM124.268 73.9746C123.837 73.9746 123.447 73.9023 123.096 73.7575C122.75 73.6089 122.451 73.4013 122.199 73.1346C121.951 72.8679 121.761 72.5517 121.628 72.1859C121.494 71.8202 121.428 71.4201 121.428 70.9858V70.7458C121.428 70.2429 121.502 69.7952 121.65 69.4028C121.799 69.0066 122.001 68.6713 122.256 68.397C122.511 68.1227 122.801 67.9151 123.125 67.7741C123.449 67.6331 123.784 67.5626 124.131 67.5626C124.573 67.5626 124.954 67.6388 125.274 67.7912C125.597 67.9436 125.862 68.157 126.068 68.4313C126.274 68.7018 126.426 69.0218 126.525 69.3914C126.624 69.7571 126.674 70.1572 126.674 70.5915V71.0658H122.056V70.2029H125.617V70.1229C125.601 69.8486 125.544 69.5819 125.445 69.3228C125.35 69.0637 125.197 68.8504 124.988 68.6827C124.778 68.5151 124.493 68.4313 124.131 68.4313C123.891 68.4313 123.67 68.4827 123.468 68.5856C123.266 68.6846 123.092 68.8332 122.948 69.0313C122.803 69.2295 122.691 69.4714 122.611 69.7571C122.531 70.0429 122.491 70.3724 122.491 70.7458V70.9858C122.491 71.2792 122.531 71.5554 122.611 71.8145C122.694 72.0697 122.814 72.2945 122.971 72.4888C123.131 72.6831 123.323 72.8355 123.548 72.946C123.776 73.0565 124.035 73.1117 124.325 73.1117C124.698 73.1117 125.015 73.0355 125.274 72.8831C125.533 72.7307 125.759 72.5269 125.954 72.2716L126.594 72.7803C126.46 72.9822 126.291 73.1746 126.085 73.3574C125.879 73.5403 125.626 73.6889 125.325 73.8032C125.028 73.9175 124.675 73.9746 124.268 73.9746ZM128.965 68.6485V73.8604H127.908V67.6769H128.937L128.965 68.6485ZM130.897 67.6426L130.891 68.6256C130.804 68.6065 130.72 68.5951 130.64 68.5913C130.564 68.5837 130.476 68.5799 130.377 68.5799C130.133 68.5799 129.918 68.618 129.731 68.6942C129.544 68.7704 129.386 68.877 129.257 69.0142C129.127 69.1514 129.024 69.3152 128.948 69.5057C128.876 69.6924 128.828 69.8981 128.805 70.1229L128.508 70.2943C128.508 69.9209 128.544 69.5704 128.617 69.2428C128.693 68.9151 128.809 68.6256 128.965 68.3741C129.122 68.1189 129.32 67.9208 129.56 67.7798C129.804 67.635 130.093 67.5626 130.428 67.5626C130.505 67.5626 130.592 67.5722 130.691 67.5912C130.79 67.6065 130.859 67.6236 130.897 67.6426ZM39.7231 89.7631L41.3118 84.6769H42.009L41.8718 85.6885L40.2545 90.8604H39.5745L39.7231 89.7631ZM38.6544 84.6769L40.0088 89.8203L40.106 90.8604H39.3916L37.5972 84.6769H38.6544ZM43.5291 89.7803L44.8207 84.6769H45.8722L44.0777 90.8604H43.3691L43.5291 89.7803ZM42.1633 84.6769L43.7177 89.6774L43.8949 90.8604H43.2205L41.5575 85.677L41.4204 84.6769H42.1633ZM48.0152 82.0824V90.8604H46.958V82.0824H48.0152ZM47.7638 87.5343L47.3237 87.5172C47.3276 87.0943 47.3904 86.7038 47.5123 86.3457C47.6342 85.9837 47.8057 85.6694 48.0267 85.4027C48.2476 85.136 48.5105 84.9303 48.8153 84.7855C49.1239 84.6369 49.4649 84.5626 49.8383 84.5626C50.143 84.5626 50.4174 84.6046 50.6612 84.6884C50.905 84.7684 51.1127 84.8979 51.2841 85.077C51.4594 85.256 51.5927 85.4884 51.6841 85.7742C51.7756 86.0561 51.8213 86.4009 51.8213 86.8086V90.8604H50.7583V86.7971C50.7583 86.4733 50.7107 86.2142 50.6155 86.0199C50.5202 85.8218 50.3812 85.6789 50.1983 85.5913C50.0154 85.4999 49.7906 85.4542 49.5239 85.4542C49.2611 85.4542 49.021 85.5094 48.8039 85.6199C48.5905 85.7304 48.4057 85.8828 48.2495 86.0771C48.0971 86.2714 47.9771 86.4942 47.8895 86.7457C47.8057 86.9933 47.7638 87.2562 47.7638 87.5343ZM53.1243 87.8372V87.7058C53.1243 87.26 53.189 86.8467 53.3186 86.4657C53.4481 86.0809 53.6348 85.7475 53.8786 85.4656C54.1225 85.1798 54.4177 84.9589 54.7644 84.8027C55.1111 84.6426 55.4997 84.5626 55.9302 84.5626C56.3646 84.5626 56.7551 84.6426 57.1018 84.8027C57.4523 84.9589 57.7494 85.1798 57.9933 85.4656C58.2409 85.7475 58.4295 86.0809 58.559 86.4657C58.6886 86.8467 58.7533 87.26 58.7533 87.7058V87.8372C58.7533 88.283 58.6886 88.6963 58.559 89.0773C58.4295 89.4583 58.2409 89.7917 57.9933 90.0774C57.7494 90.3594 57.4542 90.5803 57.1075 90.7403C56.7646 90.8965 56.376 90.9746 55.9417 90.9746C55.5073 90.9746 55.1168 90.8965 54.7701 90.7403C54.4234 90.5803 54.1263 90.3594 53.8786 90.0774C53.6348 89.7917 53.4481 89.4583 53.3186 89.0773C53.189 88.6963 53.1243 88.283 53.1243 87.8372ZM54.1815 87.7058V87.8372C54.1815 88.1458 54.2177 88.4373 54.2901 88.7116C54.3625 88.9821 54.4711 89.2221 54.6158 89.4317C54.7644 89.6412 54.9492 89.8069 55.1702 89.9288C55.3911 90.0469 55.6483 90.106 55.9417 90.106C56.2312 90.106 56.4846 90.0469 56.7017 89.9288C56.9227 89.8069 57.1056 89.6412 57.2504 89.4317C57.3951 89.2221 57.5037 88.9821 57.5761 88.7116C57.6523 88.4373 57.6904 88.1458 57.6904 87.8372V87.7058C57.6904 87.401 57.6523 87.1133 57.5761 86.8428C57.5037 86.5685 57.3932 86.3266 57.2446 86.1171C57.0999 85.9037 56.917 85.7361 56.696 85.6142C56.4789 85.4922 56.2236 85.4313 55.9302 85.4313C55.6407 85.4313 55.3854 85.4922 55.1645 85.6142C54.9473 85.7361 54.7644 85.9037 54.6158 86.1171C54.4711 86.3266 54.3625 86.5685 54.2901 86.8428C54.2177 87.1133 54.1815 87.401 54.1815 87.7058ZM65.4568 90.106C65.7083 90.106 65.9407 90.0546 66.154 89.9517C66.3674 89.8488 66.5426 89.7079 66.6798 89.5288C66.8169 89.3459 66.895 89.1383 66.9141 88.9059H67.9199C67.9008 89.2716 67.777 89.6126 67.5484 89.9288C67.3236 90.2412 67.0284 90.4946 66.6626 90.6889C66.2969 90.8794 65.8949 90.9746 65.4568 90.9746C64.992 90.9746 64.5863 90.8927 64.2396 90.7289C63.8967 90.5651 63.6109 90.3403 63.3823 90.0546C63.1576 89.7688 62.988 89.4412 62.8737 89.0716C62.7632 88.6983 62.708 88.3039 62.708 87.8887V87.6486C62.708 87.2334 62.7632 86.8409 62.8737 86.4714C62.988 86.098 63.1576 85.7685 63.3823 85.4827C63.6109 85.197 63.8967 84.9722 64.2396 84.8084C64.5863 84.6446 64.992 84.5626 65.4568 84.5626C65.9407 84.5626 66.3636 84.6617 66.7255 84.8598C67.0874 85.0541 67.3713 85.3208 67.577 85.6599C67.7865 85.9952 67.9008 86.3761 67.9199 86.8028H66.9141C66.895 86.5476 66.8226 86.3171 66.6969 86.1114C66.575 85.9056 66.4074 85.7418 66.194 85.6199C65.9845 85.4942 65.7387 85.4313 65.4568 85.4313C65.133 85.4313 64.8606 85.4961 64.6396 85.6256C64.4224 85.7513 64.2491 85.9228 64.1195 86.1399C63.9938 86.3533 63.9024 86.5914 63.8452 86.8543C63.7919 87.1133 63.7652 87.3781 63.7652 87.6486V87.8887C63.7652 88.1592 63.7919 88.4258 63.8452 88.6887C63.8986 88.9516 63.9881 89.1897 64.1138 89.4031C64.2434 89.6164 64.4167 89.7879 64.6339 89.9174C64.8548 90.0431 65.1292 90.106 65.4568 90.106ZM72.7546 89.8031V86.62C72.7546 86.3761 72.7051 86.1647 72.606 85.9856C72.5108 85.8028 72.366 85.6618 72.1717 85.5627C71.9774 85.4637 71.7374 85.4141 71.4516 85.4141C71.1849 85.4141 70.9506 85.4599 70.7487 85.5513C70.5506 85.6427 70.3944 85.7627 70.2801 85.9113C70.1696 86.0599 70.1144 86.2199 70.1144 86.3914H69.0571C69.0571 86.1704 69.1143 85.9513 69.2286 85.7342C69.3429 85.517 69.5067 85.3208 69.72 85.1456C69.9372 84.9665 70.1963 84.8255 70.4973 84.7227C70.802 84.616 71.1411 84.5626 71.5145 84.5626C71.9641 84.5626 72.3603 84.6388 72.7032 84.7912C73.0499 84.9436 73.3204 85.1741 73.5147 85.4827C73.7128 85.7875 73.8118 86.1704 73.8118 86.6314V89.5117C73.8118 89.7174 73.829 89.9365 73.8633 90.1689C73.9014 90.4013 73.9566 90.6013 74.029 90.7689V90.8604H72.926C72.8727 90.7384 72.8308 90.5765 72.8003 90.3746C72.7698 90.1689 72.7546 89.9784 72.7546 89.8031ZM72.9375 87.1114L72.9489 87.8544H71.8802C71.5793 87.8544 71.3107 87.8791 71.0745 87.9287C70.8382 87.9744 70.6401 88.0449 70.4801 88.1401C70.3201 88.2354 70.1982 88.3554 70.1144 88.5001C70.0306 88.6411 69.9886 88.8068 69.9886 88.9973C69.9886 89.1916 70.0325 89.3688 70.1201 89.5288C70.2077 89.6888 70.3392 89.8164 70.5144 89.9117C70.6935 90.0031 70.9125 90.0488 71.1716 90.0488C71.4954 90.0488 71.7812 89.9803 72.0288 89.8431C72.2765 89.706 72.4727 89.5383 72.6175 89.3402C72.766 89.1421 72.846 88.9497 72.8575 88.763L73.3089 89.2716C73.2823 89.4317 73.2099 89.6088 73.0918 89.8031C72.9737 89.9974 72.8156 90.1841 72.6175 90.3632C72.4231 90.5384 72.1907 90.6851 71.9202 90.8032C71.6536 90.9175 71.3526 90.9746 71.0173 90.9746C70.5982 90.9746 70.2306 90.8927 69.9143 90.7289C69.6019 90.5651 69.3581 90.346 69.1829 90.0717C69.0114 89.7936 68.9257 89.4831 68.9257 89.1402C68.9257 88.8087 68.9905 88.5173 69.12 88.2658C69.2495 88.0106 69.4362 87.7991 69.68 87.6315C69.9239 87.46 70.2172 87.3305 70.5601 87.2429C70.903 87.1553 71.2859 87.1114 71.7088 87.1114H72.9375ZM76.5321 85.9971V90.8604H75.4749V84.6769H76.4749L76.5321 85.9971ZM76.2806 87.5343L75.8406 87.5172C75.8444 87.0943 75.9073 86.7038 76.0292 86.3457C76.1511 85.9837 76.3225 85.6694 76.5435 85.4027C76.7645 85.136 77.0274 84.9303 77.3322 84.7855C77.6408 84.6369 77.9817 84.5626 78.3551 84.5626C78.6599 84.5626 78.9342 84.6046 79.178 84.6884C79.4219 84.7684 79.6295 84.8979 79.801 85.077C79.9762 85.256 80.1096 85.4884 80.201 85.7742C80.2924 86.0561 80.3381 86.4009 80.3381 86.8086V90.8604H79.2752V86.7971C79.2752 86.4733 79.2276 86.2142 79.1323 86.0199C79.0371 85.8218 78.898 85.6789 78.7151 85.5913C78.5323 85.4999 78.3075 85.4542 78.0408 85.4542C77.7779 85.4542 77.5379 85.5094 77.3207 85.6199C77.1074 85.7304 76.9226 85.8828 76.7664 86.0771C76.614 86.2714 76.494 86.4942 76.4064 86.7457C76.3225 86.9933 76.2806 87.2562 76.2806 87.5343ZM57.3361 106.763L58.9248 101.677H59.622L59.4848 102.688L57.8676 107.86H57.1875L57.3361 106.763ZM56.2674 101.677L57.6218 106.82L57.719 107.86H57.0046L55.2102 101.677H56.2674ZM61.1421 106.78L62.4337 101.677H63.4852L61.6908 107.86H60.9821L61.1421 106.78ZM59.7763 101.677L61.3307 106.677L61.5079 107.86H60.8335L59.1705 102.677L59.0334 101.677H59.7763ZM65.7197 101.677V107.86H64.6567V101.677H65.7197ZM64.5767 100.037C64.5767 99.8653 64.6282 99.7206 64.731 99.6025C64.8377 99.4844 64.9939 99.4253 65.1996 99.4253C65.4016 99.4253 65.5559 99.4844 65.6625 99.6025C65.773 99.7206 65.8283 99.8653 65.8283 100.037C65.8283 100.201 65.773 100.342 65.6625 100.46C65.5559 100.574 65.4016 100.631 65.1996 100.631C64.9939 100.631 64.8377 100.574 64.731 100.46C64.6282 100.342 64.5767 100.201 64.5767 100.037ZM70.0058 101.677V102.488H66.6626V101.677H70.0058ZM67.7942 100.174H68.8514V106.329C68.8514 106.538 68.8838 106.696 68.9485 106.803C69.0133 106.91 69.0971 106.98 69.2 107.015C69.3029 107.049 69.4134 107.066 69.5315 107.066C69.6191 107.066 69.7105 107.058 69.8058 107.043C69.9048 107.024 69.9791 107.009 70.0286 106.997L70.0344 107.86C69.9505 107.887 69.8401 107.912 69.7029 107.935C69.5696 107.961 69.4076 107.975 69.2171 107.975C68.9581 107.975 68.72 107.923 68.5028 107.82C68.2856 107.717 68.1123 107.546 67.9827 107.306C67.857 107.062 67.7942 106.735 67.7942 106.323V100.174ZM72.3031 99.0824V107.86H71.2459V99.0824H72.3031ZM72.0517 104.534L71.6116 104.517C71.6155 104.094 71.6783 103.704 71.8002 103.346C71.9222 102.984 72.0936 102.669 72.3146 102.403C72.5355 102.136 72.7984 101.93 73.1032 101.786C73.4118 101.637 73.7528 101.563 74.1262 101.563C74.4309 101.563 74.7053 101.605 74.9491 101.688C75.1929 101.768 75.4006 101.898 75.572 102.077C75.7473 102.256 75.8806 102.488 75.972 102.774C76.0635 103.056 76.1092 103.401 76.1092 103.809V107.86H75.0462V103.797C75.0462 103.473 74.9986 103.214 74.9034 103.02C74.8081 102.822 74.6691 102.679 74.4862 102.591C74.3033 102.5 74.0785 102.454 73.8118 102.454C73.549 102.454 73.3089 102.509 73.0918 102.62C72.8784 102.73 72.6936 102.883 72.5374 103.077C72.3851 103.271 72.265 103.494 72.1774 103.746C72.0936 103.993 72.0517 104.256 72.0517 104.534ZM81.6525 99.0824V107.86H80.5953V99.0824H81.6525ZM81.4011 104.534L80.9611 104.517C80.9649 104.094 81.0277 103.704 81.1496 103.346C81.2716 102.984 81.443 102.669 81.664 102.403C81.885 102.136 82.1478 101.93 82.4526 101.786C82.7612 101.637 83.1022 101.563 83.4756 101.563C83.7804 101.563 84.0547 101.605 84.2985 101.688C84.5423 101.768 84.75 101.898 84.9214 102.077C85.0967 102.256 85.23 102.488 85.3215 102.774C85.4129 103.056 85.4586 103.401 85.4586 103.809V107.86H84.3957V103.797C84.3957 103.473 84.348 103.214 84.2528 103.02C84.1575 102.822 84.0185 102.679 83.8356 102.591C83.6527 102.5 83.4279 102.454 83.1613 102.454C82.8984 102.454 82.6584 102.509 82.4412 102.62C82.2278 102.73 82.0431 102.883 81.8869 103.077C81.7345 103.271 81.6145 103.494 81.5268 103.746C81.443 103.993 81.4011 104.256 81.4011 104.534ZM88.1903 101.677V107.86H87.1273V101.677H88.1903ZM87.0473 100.037C87.0473 99.8653 87.0988 99.7206 87.2016 99.6025C87.3083 99.4844 87.4645 99.4253 87.6702 99.4253C87.8722 99.4253 88.0265 99.4844 88.1331 99.6025C88.2436 99.7206 88.2989 99.8653 88.2989 100.037C88.2989 100.201 88.2436 100.342 88.1331 100.46C88.0265 100.574 87.8722 100.631 87.6702 100.631C87.4645 100.631 87.3083 100.574 87.2016 100.46C87.0988 100.342 87.0473 100.201 87.0473 100.037ZM93.4879 106.22C93.4879 106.068 93.4536 105.927 93.385 105.797C93.3203 105.664 93.185 105.544 92.9793 105.437C92.7774 105.327 92.4726 105.232 92.0649 105.152C91.722 105.079 91.4115 104.993 91.1334 104.894C90.8591 104.795 90.6248 104.675 90.4305 104.534C90.24 104.393 90.0933 104.228 89.9904 104.037C89.8876 103.847 89.8361 103.624 89.8361 103.369C89.8361 103.125 89.8895 102.894 89.9962 102.677C90.1066 102.46 90.2609 102.267 90.4591 102.1C90.661 101.932 90.9029 101.801 91.1848 101.706C91.4668 101.61 91.7811 101.563 92.1278 101.563C92.6231 101.563 93.046 101.65 93.3965 101.826C93.747 102.001 94.0156 102.235 94.2023 102.528C94.3889 102.818 94.4823 103.14 94.4823 103.494H93.425C93.425 103.323 93.3736 103.157 93.2707 102.997C93.1717 102.833 93.025 102.698 92.8307 102.591C92.6402 102.485 92.4059 102.431 92.1278 102.431C91.8344 102.431 91.5963 102.477 91.4134 102.568C91.2344 102.656 91.1029 102.768 91.0191 102.906C90.9391 103.043 90.8991 103.188 90.8991 103.34C90.8991 103.454 90.9181 103.557 90.9562 103.649C90.9982 103.736 91.0705 103.818 91.1734 103.894C91.2763 103.967 91.421 104.035 91.6077 104.1C91.7944 104.165 92.0325 104.23 92.3221 104.294C92.8288 104.409 93.246 104.546 93.5736 104.706C93.9013 104.866 94.1451 105.062 94.3051 105.294C94.4651 105.527 94.5451 105.809 94.5451 106.14C94.5451 106.411 94.488 106.658 94.3737 106.883C94.2632 107.108 94.1013 107.302 93.8879 107.466C93.6784 107.626 93.4269 107.752 93.1336 107.843C92.844 107.931 92.5183 107.975 92.1564 107.975C91.6115 107.975 91.1505 107.877 90.7734 107.683C90.3962 107.489 90.1105 107.237 89.9162 106.929C89.7218 106.62 89.6247 106.294 89.6247 105.952H90.6876C90.7029 106.241 90.7867 106.472 90.9391 106.643C91.0915 106.811 91.2782 106.931 91.4992 107.003C91.7201 107.072 91.9392 107.106 92.1564 107.106C92.4459 107.106 92.6878 107.068 92.8821 106.992C93.0802 106.916 93.2307 106.811 93.3336 106.677C93.4365 106.544 93.4879 106.392 93.4879 106.22ZM99.8942 99.0824V107.86H98.837V99.0824H99.8942ZM99.6427 104.534L99.2027 104.517C99.2065 104.094 99.2694 103.704 99.3913 103.346C99.5132 102.984 99.6846 102.669 99.9056 102.403C100.127 102.136 100.389 101.93 100.694 101.786C101.003 101.637 101.344 101.563 101.717 101.563C102.022 101.563 102.296 101.605 102.54 101.688C102.784 101.768 102.992 101.898 103.163 102.077C103.338 102.256 103.472 102.488 103.563 102.774C103.655 103.056 103.7 103.401 103.7 103.809V107.86H102.637V103.797C102.637 103.473 102.59 103.214 102.494 103.02C102.399 102.822 102.26 102.679 102.077 102.591C101.894 102.5 101.67 102.454 101.403 102.454C101.14 102.454 100.9 102.509 100.683 102.62C100.469 102.73 100.285 102.883 100.128 103.077C99.9761 103.271 99.8561 103.494 99.7685 103.746C99.6846 103.993 99.6427 104.256 99.6427 104.534ZM108.929 106.803V103.62C108.929 103.376 108.88 103.165 108.781 102.986C108.685 102.803 108.541 102.662 108.346 102.563C108.152 102.464 107.912 102.414 107.626 102.414C107.36 102.414 107.125 102.46 106.923 102.551C106.725 102.643 106.569 102.763 106.455 102.911C106.344 103.06 106.289 103.22 106.289 103.391H105.232C105.232 103.17 105.289 102.951 105.403 102.734C105.518 102.517 105.681 102.321 105.895 102.146C106.112 101.966 106.371 101.826 106.672 101.723C106.977 101.616 107.316 101.563 107.689 101.563C108.139 101.563 108.535 101.639 108.878 101.791C109.225 101.944 109.495 102.174 109.689 102.483C109.887 102.788 109.987 103.17 109.987 103.631V106.512C109.987 106.717 110.004 106.936 110.038 107.169C110.076 107.401 110.131 107.601 110.204 107.769V107.86H109.101C109.047 107.738 109.005 107.577 108.975 107.375C108.945 107.169 108.929 106.978 108.929 106.803ZM109.112 104.111L109.124 104.854H108.055C107.754 104.854 107.485 104.879 107.249 104.929C107.013 104.974 106.815 105.045 106.655 105.14C106.495 105.235 106.373 105.355 106.289 105.5C106.205 105.641 106.163 105.807 106.163 105.997C106.163 106.192 106.207 106.369 106.295 106.529C106.382 106.689 106.514 106.816 106.689 106.912C106.868 107.003 107.087 107.049 107.346 107.049C107.67 107.049 107.956 106.98 108.204 106.843C108.451 106.706 108.647 106.538 108.792 106.34C108.941 106.142 109.021 105.95 109.032 105.763L109.484 106.272C109.457 106.432 109.385 106.609 109.266 106.803C109.148 106.997 108.99 107.184 108.792 107.363C108.598 107.538 108.365 107.685 108.095 107.803C107.828 107.917 107.527 107.975 107.192 107.975C106.773 107.975 106.405 107.893 106.089 107.729C105.777 107.565 105.533 107.346 105.358 107.072C105.186 106.794 105.1 106.483 105.1 106.14C105.1 105.809 105.165 105.517 105.295 105.266C105.424 105.011 105.611 104.799 105.855 104.631C106.099 104.46 106.392 104.331 106.735 104.243C107.078 104.155 107.461 104.111 107.883 104.111H109.112ZM112.707 102.866V110.238H111.644V101.677H112.615L112.707 102.866ZM116.873 104.717V104.837C116.873 105.287 116.82 105.704 116.713 106.089C116.606 106.47 116.45 106.801 116.244 107.083C116.042 107.365 115.793 107.584 115.496 107.74C115.198 107.897 114.857 107.975 114.473 107.975C114.08 107.975 113.734 107.91 113.433 107.78C113.132 107.651 112.876 107.462 112.667 107.215C112.457 106.967 112.29 106.67 112.164 106.323C112.042 105.976 111.958 105.586 111.912 105.152V104.511C111.958 104.054 112.044 103.645 112.17 103.283C112.295 102.921 112.461 102.612 112.667 102.357C112.876 102.098 113.13 101.902 113.427 101.768C113.724 101.631 114.067 101.563 114.456 101.563C114.844 101.563 115.189 101.639 115.49 101.791C115.791 101.94 116.044 102.153 116.25 102.431C116.456 102.709 116.61 103.043 116.713 103.431C116.82 103.816 116.873 104.245 116.873 104.717ZM115.81 104.837V104.717C115.81 104.409 115.778 104.119 115.713 103.849C115.648 103.574 115.547 103.334 115.41 103.128C115.277 102.919 115.105 102.755 114.896 102.637C114.686 102.515 114.436 102.454 114.147 102.454C113.88 102.454 113.648 102.5 113.45 102.591C113.255 102.683 113.09 102.807 112.953 102.963C112.815 103.115 112.703 103.29 112.615 103.489C112.532 103.683 112.469 103.885 112.427 104.094V105.574C112.503 105.841 112.61 106.093 112.747 106.329C112.884 106.561 113.067 106.75 113.295 106.895C113.524 107.036 113.812 107.106 114.158 107.106C114.444 107.106 114.69 107.047 114.896 106.929C115.105 106.807 115.277 106.641 115.41 106.432C115.547 106.222 115.648 105.982 115.713 105.712C115.778 105.437 115.81 105.146 115.81 104.837ZM119.279 102.866V110.238H118.216V101.677H119.187L119.279 102.866ZM123.445 104.717V104.837C123.445 105.287 123.392 105.704 123.285 106.089C123.178 106.47 123.022 106.801 122.816 107.083C122.614 107.365 122.365 107.584 122.068 107.74C121.77 107.897 121.429 107.975 121.045 107.975C120.652 107.975 120.306 107.91 120.005 107.78C119.704 107.651 119.448 107.462 119.239 107.215C119.029 106.967 118.862 106.67 118.736 106.323C118.614 105.976 118.53 105.586 118.484 105.152V104.511C118.53 104.054 118.616 103.645 118.742 103.283C118.867 102.921 119.033 102.612 119.239 102.357C119.448 102.098 119.702 101.902 119.999 101.768C120.296 101.631 120.639 101.563 121.028 101.563C121.416 101.563 121.761 101.639 122.062 101.791C122.363 101.94 122.616 102.153 122.822 102.431C123.028 102.709 123.182 103.043 123.285 103.431C123.392 103.816 123.445 104.245 123.445 104.717ZM122.382 104.837V104.717C122.382 104.409 122.35 104.119 122.285 103.849C122.22 103.574 122.119 103.334 121.982 103.128C121.849 102.919 121.677 102.755 121.468 102.637C121.258 102.515 121.008 102.454 120.719 102.454C120.452 102.454 120.22 102.5 120.022 102.591C119.827 102.683 119.662 102.807 119.525 102.963C119.387 103.115 119.275 103.29 119.187 103.489C119.104 103.683 119.041 103.885 118.999 104.094V105.574C119.075 105.841 119.182 106.093 119.319 106.329C119.456 106.561 119.639 106.75 119.867 106.895C120.096 107.036 120.384 107.106 120.73 107.106C121.016 107.106 121.262 107.047 121.468 106.929C121.677 106.807 121.849 106.641 121.982 106.432C122.119 106.222 122.22 105.982 122.285 105.712C122.35 105.437 122.382 105.146 122.382 104.837ZM126.462 107.22L128.182 101.677H129.314L126.834 108.815C126.777 108.967 126.7 109.131 126.605 109.306C126.514 109.485 126.396 109.655 126.251 109.815C126.106 109.975 125.931 110.104 125.725 110.203C125.523 110.306 125.281 110.358 124.999 110.358C124.915 110.358 124.809 110.346 124.679 110.323C124.55 110.301 124.458 110.282 124.405 110.266L124.399 109.409C124.43 109.413 124.477 109.417 124.542 109.42C124.611 109.428 124.658 109.432 124.685 109.432C124.925 109.432 125.129 109.4 125.296 109.335C125.464 109.274 125.605 109.169 125.719 109.02C125.837 108.876 125.938 108.676 126.022 108.42L126.462 107.22ZM125.199 101.677L126.805 106.477L127.079 107.592L126.319 107.98L124.045 101.677H125.199ZM67.9599 123.22C67.9599 123.068 67.9256 122.927 67.857 122.797C67.7923 122.664 67.657 122.544 67.4513 122.437C67.2494 122.327 66.9446 122.232 66.5369 122.152C66.194 122.079 65.8835 121.993 65.6054 121.894C65.3311 121.795 65.0968 121.675 64.9025 121.534C64.712 121.393 64.5653 121.228 64.4624 121.037C64.3596 120.847 64.3081 120.624 64.3081 120.369C64.3081 120.125 64.3615 119.894 64.4681 119.677C64.5786 119.46 64.7329 119.267 64.931 119.1C65.133 118.932 65.3749 118.801 65.6568 118.706C65.9388 118.61 66.2531 118.563 66.5998 118.563C67.0951 118.563 67.5179 118.65 67.8685 118.826C68.219 119.001 68.4876 119.235 68.6742 119.528C68.8609 119.818 68.9543 120.14 68.9543 120.494H67.897C67.897 120.323 67.8456 120.157 67.7427 119.997C67.6437 119.833 67.497 119.698 67.3027 119.591C67.1122 119.485 66.8779 119.431 66.5998 119.431C66.3064 119.431 66.0683 119.477 65.8854 119.568C65.7064 119.656 65.5749 119.768 65.4911 119.906C65.4111 120.043 65.3711 120.188 65.3711 120.34C65.3711 120.454 65.3901 120.557 65.4282 120.649C65.4701 120.736 65.5425 120.818 65.6454 120.894C65.7483 120.967 65.893 121.035 66.0797 121.1C66.2664 121.165 66.5045 121.23 66.7941 121.294C67.3008 121.409 67.718 121.546 68.0456 121.706C68.3733 121.866 68.6171 122.062 68.7771 122.294C68.9371 122.527 69.0171 122.809 69.0171 123.14C69.0171 123.411 68.96 123.658 68.8457 123.883C68.7352 124.108 68.5733 124.302 68.3599 124.466C68.1504 124.626 67.8989 124.752 67.6056 124.843C67.316 124.931 66.9903 124.975 66.6283 124.975C66.0835 124.975 65.6225 124.877 65.2454 124.683C64.8682 124.489 64.5824 124.237 64.3881 123.929C64.1938 123.62 64.0967 123.294 64.0967 122.952H65.1596C65.1749 123.241 65.2587 123.472 65.4111 123.643C65.5635 123.811 65.7502 123.931 65.9711 124.003C66.1921 124.072 66.4112 124.106 66.6283 124.106C66.9179 124.106 67.1598 124.068 67.3541 123.992C67.5522 123.916 67.7027 123.811 67.8056 123.677C67.9085 123.544 67.9599 123.392 67.9599 123.22ZM71.4631 119.866V127.238H70.4001V118.677H71.3716L71.4631 119.866ZM75.6292 121.717V121.837C75.6292 122.287 75.5758 122.704 75.4691 123.089C75.3625 123.47 75.2063 123.801 75.0005 124.083C74.7986 124.365 74.5491 124.584 74.2519 124.74C73.9547 124.897 73.6137 124.975 73.2289 124.975C72.8365 124.975 72.4898 124.91 72.1888 124.78C71.8879 124.651 71.6326 124.462 71.4231 124.215C71.2135 123.967 71.0459 123.67 70.9202 123.323C70.7982 122.976 70.7144 122.586 70.6687 122.152V121.511C70.7144 121.054 70.8001 120.645 70.9259 120.283C71.0516 119.921 71.2173 119.612 71.4231 119.357C71.6326 119.098 71.886 118.902 72.1831 118.768C72.4803 118.631 72.8232 118.563 73.2118 118.563C73.6004 118.563 73.9452 118.639 74.2462 118.791C74.5471 118.94 74.8005 119.153 75.0062 119.431C75.212 119.709 75.3663 120.043 75.4691 120.431C75.5758 120.816 75.6292 121.245 75.6292 121.717ZM74.5662 121.837V121.717C74.5662 121.409 74.5338 121.119 74.469 120.849C74.4043 120.574 74.3033 120.334 74.1662 120.128C74.0328 119.919 73.8614 119.755 73.6518 119.637C73.4423 119.515 73.1927 119.454 72.9032 119.454C72.6365 119.454 72.4041 119.5 72.206 119.591C72.0117 119.683 71.846 119.807 71.7088 119.963C71.5716 120.115 71.4593 120.29 71.3716 120.489C71.2878 120.683 71.2249 120.885 71.183 121.094V122.574C71.2592 122.841 71.3659 123.093 71.5031 123.329C71.6402 123.561 71.8231 123.75 72.0517 123.895C72.2803 124.036 72.5679 124.106 72.9146 124.106C73.2004 124.106 73.4461 124.047 73.6518 123.929C73.8614 123.807 74.0328 123.641 74.1662 123.432C74.3033 123.222 74.4043 122.982 74.469 122.712C74.5338 122.437 74.5662 122.146 74.5662 121.837ZM78.1265 118.677V124.86H77.0636V118.677H78.1265ZM76.9836 117.037C76.9836 116.865 77.035 116.721 77.1379 116.602C77.2445 116.484 77.4007 116.425 77.6065 116.425C77.8084 116.425 77.9627 116.484 78.0694 116.602C78.1799 116.721 78.2351 116.865 78.2351 117.037C78.2351 117.201 78.1799 117.342 78.0694 117.46C77.9627 117.574 77.8084 117.631 77.6065 117.631C77.4007 117.631 77.2445 117.574 77.1379 117.46C77.035 117.342 76.9836 117.201 76.9836 117.037ZM80.8811 119.997V124.86H79.8238V118.677H80.8239L80.8811 119.997ZM80.6296 121.534L80.1896 121.517C80.1934 121.094 80.2562 120.704 80.3782 120.346C80.5001 119.984 80.6715 119.669 80.8925 119.403C81.1135 119.136 81.3763 118.93 81.6811 118.786C81.9897 118.637 82.3307 118.563 82.7041 118.563C83.0089 118.563 83.2832 118.605 83.527 118.688C83.7708 118.768 83.9785 118.898 84.1499 119.077C84.3252 119.256 84.4585 119.488 84.55 119.774C84.6414 120.056 84.6871 120.401 84.6871 120.809V124.86H83.6242V120.797C83.6242 120.473 83.5765 120.214 83.4813 120.02C83.386 119.822 83.247 119.679 83.0641 119.591C82.8812 119.5 82.6565 119.454 82.3898 119.454C82.1269 119.454 81.8869 119.509 81.6697 119.62C81.4563 119.73 81.2716 119.883 81.1154 120.077C80.963 120.271 80.843 120.494 80.7553 120.746C80.6715 120.993 80.6296 121.256 80.6296 121.534ZM89.8933 123.22C89.8933 123.068 89.859 122.927 89.7904 122.797C89.7257 122.664 89.5904 122.544 89.3847 122.437C89.1828 122.327 88.878 122.232 88.4703 122.152C88.1274 122.079 87.8169 121.993 87.5388 121.894C87.2645 121.795 87.0302 121.675 86.8359 121.534C86.6454 121.393 86.4987 121.228 86.3958 121.037C86.293 120.847 86.2415 120.624 86.2415 120.369C86.2415 120.125 86.2949 119.894 86.4016 119.677C86.512 119.46 86.6663 119.267 86.8644 119.1C87.0664 118.932 87.3083 118.801 87.5902 118.706C87.8722 118.61 88.1865 118.563 88.5332 118.563C89.0285 118.563 89.4513 118.65 89.8019 118.826C90.1524 119.001 90.421 119.235 90.6076 119.528C90.7943 119.818 90.8877 120.14 90.8877 120.494H89.8304C89.8304 120.323 89.779 120.157 89.6761 119.997C89.5771 119.833 89.4304 119.698 89.2361 119.591C89.0456 119.485 88.8113 119.431 88.5332 119.431C88.2398 119.431 88.0017 119.477 87.8188 119.568C87.6398 119.656 87.5083 119.768 87.4245 119.906C87.3445 120.043 87.3045 120.188 87.3045 120.34C87.3045 120.454 87.3235 120.557 87.3616 120.649C87.4035 120.736 87.4759 120.818 87.5788 120.894C87.6817 120.967 87.8264 121.035 88.0131 121.1C88.1998 121.165 88.4379 121.23 88.7275 121.294C89.2342 121.409 89.6514 121.546 89.979 121.706C90.3067 121.866 90.5505 122.062 90.7105 122.294C90.8705 122.527 90.9505 122.809 90.9505 123.14C90.9505 123.411 90.8934 123.658 90.7791 123.883C90.6686 124.108 90.5067 124.302 90.2933 124.466C90.0838 124.626 89.8323 124.752 89.539 124.843C89.2494 124.931 88.9237 124.975 88.5617 124.975C88.0169 124.975 87.5559 124.877 87.1788 124.683C86.8016 124.489 86.5158 124.237 86.3215 123.929C86.1272 123.62 86.0301 123.294 86.0301 122.952H87.093C87.1083 123.241 87.1921 123.472 87.3445 123.643C87.4969 123.811 87.6836 123.931 87.9045 124.003C88.1255 124.072 88.3446 124.106 88.5617 124.106C88.8513 124.106 89.0932 124.068 89.2875 123.992C89.4856 123.916 89.6361 123.811 89.739 123.677C89.8419 123.544 89.8933 123.392 89.8933 123.22ZM92.3564 124.3C92.3564 124.121 92.4116 123.971 92.5221 123.849C92.6364 123.723 92.8002 123.66 93.0136 123.66C93.2269 123.66 93.3888 123.723 93.4993 123.849C93.6136 123.971 93.6708 124.121 93.6708 124.3C93.6708 124.476 93.6136 124.624 93.4993 124.746C93.3888 124.868 93.2269 124.929 93.0136 124.929C92.8002 124.929 92.6364 124.868 92.5221 124.746C92.4116 124.624 92.3564 124.476 92.3564 124.3Z" fill="#716F70"/>
<path d="M87.2759 89.8774C87.5007 89.8774 87.7026 89.8336 87.8817 89.746C88.0646 89.6545 88.2112 89.5288 88.3217 89.3688C88.436 89.2088 88.4989 89.024 88.5103 88.8145H89.8076C89.7999 89.2145 89.6818 89.5783 89.4533 89.906C89.2247 90.2336 88.9218 90.4946 88.5446 90.6889C88.1674 90.8794 87.7502 90.9746 87.2931 90.9746C86.8206 90.9746 86.4092 90.8946 86.0587 90.7346C85.7082 90.5708 85.4167 90.346 85.1843 90.0603C84.9519 89.7745 84.7766 89.445 84.6585 89.0716C84.5442 88.6983 84.4871 88.2982 84.4871 87.8715V87.6715C84.4871 87.2448 84.5442 86.8448 84.6585 86.4714C84.7766 86.0942 84.9519 85.7627 85.1843 85.477C85.4167 85.1913 85.7082 84.9684 86.0587 84.8084C86.4092 84.6446 86.8187 84.5626 87.2873 84.5626C87.7826 84.5626 88.217 84.6617 88.5903 84.8598C88.9637 85.0541 89.257 85.3265 89.4704 85.677C89.6876 86.0237 89.7999 86.4276 89.8076 86.8886H88.5103C88.4989 86.66 88.4417 86.4542 88.3389 86.2714C88.2398 86.0847 88.0988 85.9361 87.916 85.8256C87.7369 85.7151 87.5216 85.6599 87.2702 85.6599C86.9921 85.6599 86.7616 85.717 86.5787 85.8313C86.3958 85.9418 86.253 86.0942 86.1501 86.2885C86.0472 86.479 85.9729 86.6943 85.9272 86.9343C85.8853 87.1705 85.8644 87.4162 85.8644 87.6715V87.8715C85.8644 88.1268 85.8853 88.3744 85.9272 88.6144C85.9691 88.8545 86.0415 89.0697 86.1444 89.2602C86.2511 89.4469 86.3958 89.5974 86.5787 89.7117C86.7616 89.8222 86.994 89.8774 87.2759 89.8774ZM90.6019 87.8372V87.7058C90.6019 87.26 90.6667 86.8467 90.7962 86.4657C90.9258 86.0809 91.1125 85.7475 91.3563 85.4656C91.6039 85.1798 91.9049 84.9589 92.2592 84.8027C92.6173 84.6426 93.0212 84.5626 93.4708 84.5626C93.9241 84.5626 94.328 84.6426 94.6823 84.8027C95.0404 84.9589 95.3433 85.1798 95.5909 85.4656C95.8386 85.7475 96.0272 86.0809 96.1567 86.4657C96.2862 86.8467 96.351 87.26 96.351 87.7058V87.8372C96.351 88.283 96.2862 88.6963 96.1567 89.0773C96.0272 89.4583 95.8386 89.7917 95.5909 90.0774C95.3433 90.3594 95.0423 90.5803 94.688 90.7403C94.3337 90.8965 93.9318 90.9746 93.4822 90.9746C93.0288 90.9746 92.6231 90.8965 92.2649 90.7403C91.9106 90.5803 91.6096 90.3594 91.362 90.0774C91.1144 89.7917 90.9258 89.4583 90.7962 89.0773C90.6667 88.6963 90.6019 88.283 90.6019 87.8372ZM91.9792 87.7058V87.8372C91.9792 88.1153 92.0078 88.3782 92.0649 88.6259C92.1221 88.8735 92.2116 89.0907 92.3335 89.2774C92.4554 89.464 92.6116 89.6107 92.8021 89.7174C92.9926 89.8241 93.2193 89.8774 93.4822 89.8774C93.7374 89.8774 93.9584 89.8241 94.1451 89.7174C94.3356 89.6107 94.4918 89.464 94.6137 89.2774C94.7356 89.0907 94.8252 88.8735 94.8823 88.6259C94.9433 88.3782 94.9738 88.1153 94.9738 87.8372V87.7058C94.9738 87.4315 94.9433 87.1724 94.8823 86.9286C94.8252 86.6809 94.7337 86.4619 94.608 86.2714C94.4861 86.0809 94.3299 85.9323 94.1394 85.8256C93.9527 85.7151 93.7298 85.6599 93.4708 85.6599C93.2117 85.6599 92.9869 85.7151 92.7964 85.8256C92.6097 85.9323 92.4554 86.0809 92.3335 86.2714C92.2116 86.4619 92.1221 86.6809 92.0649 86.9286C92.0078 87.1724 91.9792 87.4315 91.9792 87.7058ZM98.8712 85.9971V90.8604H97.494V84.6769H98.7912L98.8712 85.9971ZM98.6255 87.5401L98.1797 87.5343C98.1836 87.0962 98.2445 86.6943 98.3626 86.3285C98.4845 85.9628 98.6522 85.6485 98.8655 85.3856C99.0827 85.1227 99.3418 84.9208 99.6427 84.7798C99.9437 84.635 100.279 84.5626 100.649 84.5626C100.946 84.5626 101.214 84.6046 101.454 84.6884C101.698 84.7684 101.906 84.8998 102.077 85.0827C102.252 85.2656 102.386 85.5037 102.477 85.797C102.569 86.0866 102.614 86.4428 102.614 86.8657V90.8604H101.231V86.86C101.231 86.5628 101.188 86.3285 101.1 86.1571C101.016 85.9818 100.892 85.858 100.729 85.7856C100.569 85.7094 100.369 85.6713 100.128 85.6713C99.8923 85.6713 99.6808 85.7208 99.4942 85.8199C99.3075 85.919 99.1494 86.0542 99.0198 86.2256C98.8941 86.3971 98.7969 86.5952 98.7284 86.82C98.6598 87.0448 98.6255 87.2848 98.6255 87.5401ZM106.855 84.6769V85.6827H103.369V84.6769H106.855ZM104.375 83.1625H105.752V89.1516C105.752 89.3421 105.779 89.4888 105.832 89.5917C105.889 89.6907 105.967 89.7574 106.066 89.7917C106.165 89.826 106.281 89.8431 106.415 89.8431C106.51 89.8431 106.601 89.8374 106.689 89.826C106.777 89.8145 106.847 89.8031 106.901 89.7917L106.906 90.8432C106.792 90.8775 106.659 90.908 106.506 90.9346C106.358 90.9613 106.186 90.9746 105.992 90.9746C105.676 90.9746 105.396 90.9194 105.152 90.8089C104.908 90.6946 104.717 90.5098 104.58 90.2546C104.443 89.9993 104.375 89.6602 104.375 89.2373V83.1625ZM109.301 85.8542V90.8604H107.923V84.6769H109.238L109.301 85.8542ZM111.192 84.6369L111.181 85.917C111.097 85.9018 111.006 85.8904 110.907 85.8828C110.811 85.8751 110.716 85.8713 110.621 85.8713C110.385 85.8713 110.177 85.9056 109.998 85.9742C109.819 86.039 109.668 86.1342 109.546 86.2599C109.428 86.3819 109.337 86.5304 109.272 86.7057C109.207 86.8809 109.169 87.0772 109.158 87.2943L108.844 87.3172C108.844 86.9286 108.882 86.5685 108.958 86.2371C109.034 85.9056 109.148 85.6142 109.301 85.3627C109.457 85.1113 109.651 84.9151 109.884 84.7741C110.12 84.6331 110.392 84.5626 110.701 84.5626C110.785 84.5626 110.874 84.5703 110.969 84.5855C111.069 84.6007 111.143 84.6179 111.192 84.6369ZM111.644 87.8372V87.7058C111.644 87.26 111.709 86.8467 111.838 86.4657C111.968 86.0809 112.154 85.7475 112.398 85.4656C112.646 85.1798 112.947 84.9589 113.301 84.8027C113.659 84.6426 114.063 84.5626 114.513 84.5626C114.966 84.5626 115.37 84.6426 115.724 84.8027C116.082 84.9589 116.385 85.1798 116.633 85.4656C116.88 85.7475 117.069 86.0809 117.199 86.4657C117.328 86.8467 117.393 87.26 117.393 87.7058V87.8372C117.393 88.283 117.328 88.6963 117.199 89.0773C117.069 89.4583 116.88 89.7917 116.633 90.0774C116.385 90.3594 116.084 90.5803 115.73 90.7403C115.376 90.8965 114.974 90.9746 114.524 90.9746C114.071 90.9746 113.665 90.8965 113.307 90.7403C112.953 90.5803 112.652 90.3594 112.404 90.0774C112.156 89.7917 111.968 89.4583 111.838 89.0773C111.709 88.6963 111.644 88.283 111.644 87.8372ZM113.021 87.7058V87.8372C113.021 88.1153 113.05 88.3782 113.107 88.6259C113.164 88.8735 113.253 89.0907 113.375 89.2774C113.497 89.464 113.654 89.6107 113.844 89.7174C114.035 89.8241 114.261 89.8774 114.524 89.8774C114.779 89.8774 115 89.8241 115.187 89.7174C115.377 89.6107 115.534 89.464 115.656 89.2774C115.778 89.0907 115.867 88.8735 115.924 88.6259C115.985 88.3782 116.016 88.1153 116.016 87.8372V87.7058C116.016 87.4315 115.985 87.1724 115.924 86.9286C115.867 86.6809 115.776 86.4619 115.65 86.2714C115.528 86.0809 115.372 85.9323 115.181 85.8256C114.995 85.7151 114.772 85.6599 114.513 85.6599C114.254 85.6599 114.029 85.7151 113.838 85.8256C113.652 85.9323 113.497 86.0809 113.375 86.2714C113.253 86.4619 113.164 86.6809 113.107 86.9286C113.05 87.1724 113.021 87.4315 113.021 87.7058ZM120.022 82.0824V90.8604H118.639V82.0824H120.022ZM32.2538 101.677V102.683H28.7678V101.677H32.2538ZM29.7736 100.163H31.1509V106.152C31.1509 106.342 31.1775 106.489 31.2309 106.592C31.288 106.691 31.3661 106.757 31.4652 106.792C31.5642 106.826 31.6804 106.843 31.8138 106.843C31.909 106.843 32.0005 106.837 32.0881 106.826C32.1757 106.815 32.2462 106.803 32.2995 106.792L32.3052 107.843C32.191 107.877 32.0576 107.908 31.9052 107.935C31.7566 107.961 31.5852 107.975 31.3909 107.975C31.0747 107.975 30.7946 107.919 30.5508 107.809C30.307 107.695 30.1165 107.51 29.9793 107.255C29.8422 106.999 29.7736 106.66 29.7736 106.237V100.163ZM34.7912 101.677V107.86H33.4082V101.677H34.7912ZM33.3168 100.054C33.3168 99.8444 33.3853 99.671 33.5225 99.5339C33.6635 99.3929 33.8578 99.3224 34.1054 99.3224C34.3492 99.3224 34.5416 99.3929 34.6826 99.5339C34.8236 99.671 34.8941 99.8444 34.8941 100.054C34.8941 100.26 34.8236 100.431 34.6826 100.568C34.5416 100.705 34.3492 100.774 34.1054 100.774C33.8578 100.774 33.6635 100.705 33.5225 100.568C33.3853 100.431 33.3168 100.26 33.3168 100.054ZM37.6772 102.934V107.86H36.2999V101.677H37.5972L37.6772 102.934ZM37.4543 104.54L36.9857 104.534C36.9857 104.108 37.039 103.713 37.1457 103.351C37.2524 102.989 37.4086 102.675 37.6143 102.408C37.82 102.138 38.0753 101.93 38.3801 101.786C38.6887 101.637 39.0449 101.563 39.4487 101.563C39.7307 101.563 39.9878 101.605 40.2202 101.688C40.4565 101.768 40.6603 101.896 40.8317 102.071C41.007 102.247 41.1403 102.471 41.2318 102.746C41.327 103.02 41.3746 103.351 41.3746 103.74V107.86H39.9974V103.86C39.9974 103.559 39.9517 103.323 39.8602 103.151C39.7726 102.98 39.645 102.858 39.4773 102.786C39.3135 102.709 39.1173 102.671 38.8887 102.671C38.6296 102.671 38.4087 102.721 38.2258 102.82C38.0467 102.919 37.9 103.054 37.7857 103.226C37.6714 103.397 37.5876 103.595 37.5343 103.82C37.481 104.045 37.4543 104.285 37.4543 104.54ZM41.2889 104.174L40.6431 104.317C40.6431 103.944 40.6946 103.591 40.7974 103.26C40.9041 102.925 41.0584 102.631 41.2603 102.38C41.4661 102.125 41.7194 101.925 42.0204 101.78C42.3214 101.635 42.6662 101.563 43.0548 101.563C43.371 101.563 43.6529 101.606 43.9006 101.694C44.152 101.778 44.3654 101.911 44.5406 102.094C44.7159 102.277 44.8492 102.515 44.9407 102.808C45.0321 103.098 45.0778 103.449 45.0778 103.86V107.86H43.6948V103.854C43.6948 103.542 43.6491 103.3 43.5577 103.128C43.4701 102.957 43.3443 102.839 43.1805 102.774C43.0167 102.706 42.8205 102.671 42.5919 102.671C42.3785 102.671 42.1899 102.711 42.0261 102.791C41.8661 102.868 41.7309 102.976 41.6204 103.117C41.5099 103.254 41.4261 103.412 41.3689 103.591C41.3156 103.77 41.2889 103.965 41.2889 104.174ZM49.2211 107.975C48.7639 107.975 48.3505 107.9 47.9809 107.752C47.6152 107.599 47.3028 107.388 47.0437 107.117C46.7885 106.847 46.5922 106.529 46.4551 106.163C46.3179 105.797 46.2494 105.403 46.2494 104.98V104.752C46.2494 104.268 46.3198 103.83 46.4608 103.437C46.6018 103.045 46.798 102.709 47.0494 102.431C47.3009 102.149 47.5981 101.934 47.9409 101.786C48.2838 101.637 48.6553 101.563 49.0553 101.563C49.4973 101.563 49.884 101.637 50.2154 101.786C50.5469 101.934 50.8212 102.144 51.0384 102.414C51.2593 102.681 51.4232 102.999 51.5298 103.369C51.6403 103.738 51.6956 104.146 51.6956 104.591V105.18H46.918V104.191H50.3354V104.083C50.3278 103.835 50.2783 103.603 50.1869 103.386C50.0992 103.169 49.964 102.993 49.7811 102.86C49.5982 102.727 49.3544 102.66 49.0496 102.66C48.821 102.66 48.6172 102.709 48.4381 102.808C48.2629 102.904 48.1162 103.043 47.9981 103.226C47.88 103.409 47.7885 103.629 47.7238 103.889C47.6628 104.144 47.6323 104.431 47.6323 104.752V104.98C47.6323 105.251 47.6685 105.502 47.7409 105.734C47.8171 105.963 47.9276 106.163 48.0724 106.334C48.2172 106.506 48.3924 106.641 48.5981 106.74C48.8039 106.835 49.0382 106.883 49.3011 106.883C49.6325 106.883 49.9278 106.816 50.1869 106.683C50.4459 106.55 50.6707 106.361 50.8612 106.117L51.587 106.82C51.4536 107.015 51.2803 107.201 51.0669 107.38C50.8536 107.556 50.5926 107.698 50.284 107.809C49.9792 107.919 49.6249 107.975 49.2211 107.975Z" fill="#EDA44A"/>
<g clip-path="url(#clip1_36_58)">
<path d="M37.7609 174.977C38.5553 173.325 38.1757 171.705 37.8102 170.141C37.4924 168.779 37.1927 167.493 37.5597 166.089C38.5831 162.207 39.278 159.942 36.9364 157.601C34.5948 155.259 32.3267 155.952 28.4422 156.971C27.0357 157.339 25.7448 157.037 24.3813 156.719C22.8164 156.354 21.2004 155.975 19.5494 156.765C18.9417 157.038 18.3899 157.421 17.9222 157.895C15.9368 159.881 15.9027 163.078 17.6546 164.83C19.4066 166.582 22.5981 168.006 24.5694 169.977C26.5406 171.949 27.9329 175.108 29.7068 176.882C31.4807 178.656 34.6503 178.594 36.6357 176.609C37.1083 176.139 37.4899 175.586 37.7609 174.977Z" fill="#FBE7CE"/>
<path d="M24.0679 147.071C23.6071 147.532 23.2214 148.059 22.9329 148.622C22.6443 149.185 22.4585 149.772 22.3861 150.352C22.3137 150.931 22.3561 151.49 22.5109 151.998C22.6656 152.505 22.9298 152.951 23.2881 153.309C23.6465 153.668 24.0922 153.932 24.5996 154.086C25.107 154.241 25.6663 154.284 26.2456 154.211C26.8248 154.139 27.4126 153.953 27.9755 153.664C28.5383 153.376 29.0652 152.99 29.526 152.529C29.9868 152.069 30.3724 151.542 30.661 150.979C30.9496 150.416 31.1353 149.828 31.2078 149.249C31.2802 148.67 31.2378 148.11 31.083 147.603C30.9282 147.096 30.6641 146.65 30.3057 146.292C29.9473 145.933 29.5017 145.669 28.9943 145.514C28.4868 145.36 27.9275 145.317 27.3483 145.39C26.769 145.462 26.1812 145.648 25.6184 145.936C25.0555 146.225 24.5287 146.611 24.0679 147.071Z" fill="#FBE7CE"/>
<path d="M34.2044 147.851C33.2738 148.781 32.6689 149.961 32.5226 151.131C32.3764 152.301 32.7009 153.365 33.4247 154.088C34.1485 154.812 35.2123 155.137 36.3821 154.99C37.5519 154.844 38.7319 154.239 39.6625 153.309C40.1233 152.848 40.509 152.321 40.7975 151.758C41.0861 151.195 41.2719 150.608 41.3443 150.028C41.4905 148.858 41.166 147.795 40.4423 147.071C39.7185 146.347 38.6546 146.023 37.4848 146.169C36.315 146.315 35.135 146.92 34.2044 147.851Z" fill="#FBE7CE"/>
<path d="M41.222 154.869C40.2914 155.799 39.6864 156.979 39.5402 158.149C39.394 159.319 39.7184 160.383 40.4422 161.106C41.166 161.83 42.2298 162.155 43.3997 162.009C44.5695 161.862 45.7495 161.257 46.6801 160.327C47.6107 159.396 48.2156 158.216 48.3618 157.046C48.5081 155.877 48.1836 154.813 47.4598 154.089C46.736 153.365 45.6722 153.041 44.5024 153.187C43.3325 153.333 42.1525 153.938 41.222 154.869Z" fill="#FBE7CE"/>
<path d="M42.0017 165.005C41.5409 165.466 41.1552 165.993 40.8667 166.555C40.5781 167.118 40.3923 167.706 40.3199 168.285C40.2475 168.865 40.2899 169.424 40.4447 169.931C40.5994 170.439 40.8636 170.884 41.2219 171.243C41.5803 171.601 42.026 171.865 42.5334 172.02C43.0408 172.175 43.6001 172.217 44.1794 172.145C44.7586 172.072 45.3464 171.887 45.9093 171.598C46.4722 171.309 46.999 170.924 47.4598 170.463C47.9206 170.002 48.3063 169.475 48.5948 168.913C48.8834 168.35 49.0692 167.762 49.1416 167.183C49.214 166.603 49.1716 166.044 49.0168 165.537C48.862 165.029 48.5979 164.584 48.2395 164.225C47.8811 163.867 47.4355 163.603 46.9281 163.448C46.4206 163.293 45.8613 163.251 45.2821 163.323C44.7029 163.396 44.115 163.581 43.5522 163.87C42.9893 164.158 42.4625 164.544 42.0017 165.005Z" fill="#FBE7CE"/>
</g>
</g>
<defs>
<clipPath id="clip0_36_58">
<rect width="155" height="195" fill="white" transform="translate(0.67038)"/>
</clipPath>
<clipPath id="clip1_36_58">
<rect width="35.2866" height="35.2866" fill="white" transform="translate(33.8145 135.765) rotate(45)"/>
</clipPath>
</defs>
</svg>
