<svg width="155" height="195" viewBox="0 0 155 195" fill="none" xmlns="http://www.w3.org/2000/svg">
<g clip-path="url(#clip0_36_57)">
<rect x="5.26676" y="5.26676" width="145.128" height="184.922" fill="white" stroke="#FBE7CE" stroke-width="10.5335"/>
<path d="M60.5609 39.6545H57.5926L57.5766 38.1903H60.1689C60.6062 38.1903 60.9769 38.1263 61.281 37.9983C61.5903 37.865 61.825 37.6756 61.985 37.4303C62.145 37.1796 62.225 36.8782 62.225 36.5262C62.225 36.1368 62.1504 35.8195 62.001 35.5741C61.8517 35.3287 61.6223 35.1501 61.313 35.0381C61.0089 34.926 60.6196 34.87 60.1449 34.87H58.2007V44.9189H56.1925V33.2699H60.1449C60.7849 33.2699 61.3556 33.3312 61.857 33.4539C62.3637 33.5766 62.7931 33.7686 63.1451 34.03C63.5025 34.286 63.7718 34.6114 63.9532 35.0061C64.1399 35.4008 64.2332 35.8701 64.2332 36.4142C64.2332 36.8942 64.1185 37.3343 63.8892 37.7343C63.6598 38.129 63.3211 38.4517 62.8731 38.7024C62.4251 38.9531 61.8677 39.1024 61.2009 39.1504L60.5609 39.6545ZM60.4729 44.9189H56.9606L57.8646 43.3268H60.4729C60.9263 43.3268 61.305 43.2521 61.609 43.1028C61.913 42.9481 62.1397 42.7374 62.289 42.4707C62.4437 42.1987 62.5211 41.8813 62.5211 41.5186C62.5211 41.1399 62.4544 40.8119 62.3211 40.5346C62.1877 40.2519 61.977 40.0358 61.689 39.8865C61.401 39.7318 61.0249 39.6545 60.5609 39.6545H58.3047L58.3207 38.1903H61.257L61.713 38.7424C62.3531 38.7637 62.8784 38.9051 63.2891 39.1664C63.7052 39.4278 64.0145 39.7665 64.2172 40.1825C64.4199 40.5986 64.5212 41.0466 64.5212 41.5266C64.5212 42.268 64.3586 42.8894 64.0332 43.3908C63.7132 43.8922 63.2518 44.2736 62.6491 44.5349C62.0464 44.7909 61.321 44.9189 60.4729 44.9189ZM71.5619 42.8788V36.2622H73.4981V44.9189H71.6739L71.5619 42.8788ZM71.8339 41.0786L72.482 41.0626C72.482 41.644 72.418 42.18 72.2899 42.6707C72.1619 43.1561 71.9646 43.5802 71.6979 43.9429C71.4312 44.3002 71.0898 44.5802 70.6738 44.7829C70.2578 44.9803 69.7591 45.079 69.1777 45.079C68.7563 45.079 68.3696 45.0176 68.0176 44.8949C67.6655 44.7723 67.3615 44.5829 67.1055 44.3269C66.8548 44.0709 66.6601 43.7375 66.5214 43.3268C66.3827 42.9161 66.3134 42.4254 66.3134 41.8547V36.2622H68.2416V41.8707C68.2416 42.1854 68.2789 42.4494 68.3536 42.6627C68.4283 42.8708 68.5296 43.0388 68.6576 43.1668C68.7856 43.2948 68.935 43.3855 69.1057 43.4388C69.2763 43.4922 69.4577 43.5188 69.6497 43.5188C70.1991 43.5188 70.6311 43.4121 70.9458 43.1988C71.2659 42.9801 71.4925 42.6867 71.6259 42.3187C71.7646 41.9507 71.8339 41.5373 71.8339 41.0786ZM80.7547 43.1268V32.6298H82.6909V44.9189H80.9387L80.7547 43.1268ZM75.1222 40.6866V40.5185C75.1222 39.8625 75.1995 39.2651 75.3542 38.7264C75.5089 38.1823 75.7329 37.7156 76.0263 37.3263C76.3196 36.9316 76.677 36.6302 77.0984 36.4222C77.5198 36.2088 77.9945 36.1022 78.5225 36.1022C79.0452 36.1022 79.5039 36.2035 79.8986 36.4062C80.2933 36.6089 80.6294 36.8996 80.9067 37.2783C81.1841 37.6516 81.4054 38.0997 81.5708 38.6224C81.7361 39.1398 81.8535 39.7158 81.9228 40.3505V40.8866C81.8535 41.5053 81.7361 42.0707 81.5708 42.5827C81.4054 43.0948 81.1841 43.5375 80.9067 43.9109C80.6294 44.2842 80.2907 44.5722 79.8906 44.7749C79.4959 44.9776 79.0346 45.079 78.5065 45.079C77.9838 45.079 77.5118 44.9696 77.0904 44.7509C76.6743 44.5322 76.3196 44.2255 76.0263 43.8308C75.7329 43.4361 75.5089 42.9721 75.3542 42.4387C75.1995 41.9 75.1222 41.316 75.1222 40.6866ZM77.0504 40.5185V40.6866C77.0504 41.0813 77.085 41.4493 77.1544 41.7907C77.2291 42.132 77.3437 42.4334 77.4984 42.6947C77.6531 42.9508 77.8531 43.1535 78.0985 43.3028C78.3492 43.4468 78.6479 43.5188 78.9946 43.5188C79.4319 43.5188 79.792 43.4228 80.0746 43.2308C80.3573 43.0388 80.5787 42.7801 80.7387 42.4547C80.9041 42.124 81.0161 41.756 81.0747 41.3506V39.9025C81.0427 39.5878 80.9761 39.2944 80.8747 39.0224C80.7787 38.7504 80.648 38.513 80.4827 38.3104C80.3173 38.1023 80.112 37.9423 79.8666 37.8303C79.6266 37.713 79.3412 37.6543 79.0106 37.6543C78.6585 37.6543 78.3598 37.729 78.1145 37.8783C77.8691 38.0277 77.6664 38.233 77.5064 38.4944C77.3517 38.7557 77.2371 39.0598 77.1624 39.4064C77.0877 39.7531 77.0504 40.1238 77.0504 40.5185ZM89.9875 43.1268V32.6298H91.9237V44.9189H90.1716L89.9875 43.1268ZM84.355 40.6866V40.5185C84.355 39.8625 84.4324 39.2651 84.5871 38.7264C84.7417 38.1823 84.9658 37.7156 85.2591 37.3263C85.5525 36.9316 85.9098 36.6302 86.3312 36.4222C86.7526 36.2088 87.2273 36.1022 87.7553 36.1022C88.2781 36.1022 88.7368 36.2035 89.1315 36.4062C89.5262 36.6089 89.8622 36.8996 90.1396 37.2783C90.4169 37.6516 90.6383 38.0997 90.8036 38.6224C90.969 39.1398 91.0863 39.7158 91.1556 40.3505V40.8866C91.0863 41.5053 90.969 42.0707 90.8036 42.5827C90.6383 43.0948 90.4169 43.5375 90.1396 43.9109C89.8622 44.2842 89.5235 44.5722 89.1235 44.7749C88.7288 44.9776 88.2674 45.079 87.7393 45.079C87.2166 45.079 86.7446 44.9696 86.3232 44.7509C85.9072 44.5322 85.5525 44.2255 85.2591 43.8308C84.9658 43.4361 84.7417 42.9721 84.5871 42.4387C84.4324 41.9 84.355 41.316 84.355 40.6866ZM86.2832 40.5185V40.6866C86.2832 41.0813 86.3179 41.4493 86.3872 41.7907C86.4619 42.132 86.5766 42.4334 86.7312 42.6947C86.8859 42.9508 87.0859 43.1535 87.3313 43.3028C87.582 43.4468 87.8807 43.5188 88.2274 43.5188C88.6648 43.5188 89.0248 43.4228 89.3075 43.2308C89.5902 43.0388 89.8115 42.7801 89.9715 42.4547C90.1369 42.124 90.2489 41.756 90.3076 41.3506V39.9025C90.2756 39.5878 90.2089 39.2944 90.1076 39.0224C90.0115 38.7504 89.8809 38.513 89.7155 38.3104C89.5502 38.1023 89.3448 37.9423 89.0995 37.8303C88.8594 37.713 88.5741 37.6543 88.2434 37.6543C87.8914 37.6543 87.5927 37.729 87.3473 37.8783C87.1019 38.0277 86.8993 38.233 86.7392 38.4944C86.5846 38.7557 86.4699 39.0598 86.3952 39.4064C86.3205 39.7531 86.2832 40.1238 86.2832 40.5185ZM96.4521 43.9749L98.8043 36.2622H100.869L97.3962 46.2391C97.3162 46.4524 97.2122 46.6844 97.0842 46.9351C96.9562 47.1858 96.7882 47.4232 96.5801 47.6472C96.3774 47.8765 96.1241 48.0606 95.8201 48.1992C95.516 48.3433 95.148 48.4153 94.716 48.4153C94.5453 48.4153 94.3799 48.3993 94.2199 48.3673C94.0652 48.3406 93.9186 48.3113 93.7799 48.2792L93.7719 46.8071C93.8252 46.8124 93.8892 46.8178 93.9639 46.8231C94.0439 46.8285 94.1079 46.8311 94.1559 46.8311C94.4759 46.8311 94.7426 46.7911 94.956 46.7111C95.1693 46.6364 95.3427 46.5138 95.476 46.3431C95.6147 46.1724 95.7321 45.943 95.8281 45.655L96.4521 43.9749ZM95.124 36.2622L97.1802 42.7427L97.5242 44.7749L96.1881 45.119L93.0438 36.2622H95.124Z" fill="#EDA54A"/>
<path d="M34.4637 66.2768L31.7091 73.8604H30.5833L33.755 65.5396H34.4808L34.4637 66.2768ZM36.7724 73.8604L34.0122 66.2768L33.9951 65.5396H34.7208L37.904 73.8604H36.7724ZM36.6296 70.7801V71.683H31.9549V70.7801H36.6296ZM42.9101 65.0824V73.8604H41.8472V65.0824H42.9101ZM44.3274 70.8372V70.7058C44.3274 70.26 44.3922 69.8467 44.5217 69.4657C44.6512 69.0809 44.8379 68.7475 45.0818 68.4656C45.3256 68.1798 45.6209 67.9589 45.9676 67.8027C46.3143 67.6426 46.7029 67.5626 47.1334 67.5626C47.5677 67.5626 47.9582 67.6426 48.3049 67.8027C48.6554 67.9589 48.9526 68.1798 49.1964 68.4656C49.4441 68.7475 49.6327 69.0809 49.7622 69.4657C49.8917 69.8467 49.9565 70.26 49.9565 70.7058V70.8372C49.9565 71.283 49.8917 71.6963 49.7622 72.0773C49.6327 72.4583 49.4441 72.7917 49.1964 73.0774C48.9526 73.3594 48.6573 73.5803 48.3106 73.7403C47.9677 73.8965 47.5791 73.9746 47.1448 73.9746C46.7105 73.9746 46.32 73.8965 45.9733 73.7403C45.6266 73.5803 45.3294 73.3594 45.0818 73.0774C44.8379 72.7917 44.6512 72.4583 44.5217 72.0773C44.3922 71.6963 44.3274 71.283 44.3274 70.8372ZM45.3846 70.7058V70.8372C45.3846 71.1458 45.4208 71.4373 45.4932 71.7116C45.5656 71.9821 45.6742 72.2221 45.819 72.4317C45.9676 72.6412 46.1523 72.8069 46.3733 72.9288C46.5943 73.0469 46.8514 73.106 47.1448 73.106C47.4344 73.106 47.6877 73.0469 47.9049 72.9288C48.1258 72.8069 48.3087 72.6412 48.4535 72.4317C48.5983 72.2221 48.7069 71.9821 48.7792 71.7116C48.8554 71.4373 48.8935 71.1458 48.8935 70.8372V70.7058C48.8935 70.401 48.8554 70.1133 48.7792 69.8428C48.7069 69.5685 48.5964 69.3266 48.4478 69.1171C48.303 68.9037 48.1201 68.7361 47.8992 68.6142C47.682 68.4922 47.4267 68.4313 47.1334 68.4313C46.8438 68.4313 46.5886 68.4922 46.3676 68.6142C46.1504 68.7361 45.9676 68.9037 45.819 69.1171C45.6742 69.3266 45.5656 69.5685 45.4932 69.8428C45.4208 70.1133 45.3846 70.401 45.3846 70.7058ZM52.9282 73.2203L54.6483 67.6769H55.7799L53.2996 74.8147C53.2425 74.9671 53.1663 75.1309 53.0711 75.3062C52.9796 75.4853 52.8615 75.6548 52.7167 75.8148C52.572 75.9748 52.3967 76.1044 52.191 76.2034C51.9891 76.3063 51.7471 76.3577 51.4652 76.3577C51.3814 76.3577 51.2747 76.3463 51.1452 76.3234C51.0156 76.3006 50.9242 76.2815 50.8709 76.2663L50.8651 75.4091C50.8956 75.4129 50.9432 75.4167 51.008 75.4205C51.0766 75.4281 51.1242 75.4319 51.1509 75.4319C51.3909 75.4319 51.5947 75.3995 51.7624 75.3348C51.93 75.2738 52.071 75.169 52.1853 75.0205C52.3034 74.8757 52.4043 74.6757 52.4881 74.4204L52.9282 73.2203ZM51.6652 67.6769L53.2711 72.4774L53.5454 73.5918L52.7853 73.9804L50.5108 67.6769H51.6652ZM60.2888 72.8031V69.62C60.2888 69.3761 60.2393 69.1647 60.1403 68.9856C60.045 68.8028 59.9002 68.6618 59.7059 68.5627C59.5116 68.4637 59.2716 68.4141 58.9859 68.4141C58.7192 68.4141 58.4849 68.4599 58.283 68.5513C58.0848 68.6427 57.9286 68.7627 57.8143 68.9113C57.7039 69.0599 57.6486 69.2199 57.6486 69.3914H56.5914C56.5914 69.1704 56.6485 68.9513 56.7628 68.7342C56.8771 68.517 57.0409 68.3208 57.2543 68.1456C57.4715 67.9665 57.7305 67.8255 58.0315 67.7227C58.3363 67.616 58.6754 67.5626 59.0487 67.5626C59.4983 67.5626 59.8945 67.6388 60.2374 67.7912C60.5841 67.9436 60.8546 68.1741 61.0489 68.4827C61.247 68.7875 61.3461 69.1704 61.3461 69.6314V72.5117C61.3461 72.7174 61.3632 72.9365 61.3975 73.1689C61.4356 73.4013 61.4909 73.6013 61.5632 73.7689V73.8604H60.4603C60.407 73.7384 60.365 73.5765 60.3346 73.3746C60.3041 73.1689 60.2888 72.9784 60.2888 72.8031ZM60.4717 70.1114L60.4832 70.8544H59.4145C59.1135 70.8544 58.8449 70.8791 58.6087 70.9287C58.3725 70.9744 58.1744 71.0449 58.0144 71.1401C57.8543 71.2354 57.7324 71.3554 57.6486 71.5001C57.5648 71.6411 57.5229 71.8068 57.5229 71.9973C57.5229 72.1916 57.5667 72.3688 57.6543 72.5288C57.742 72.6888 57.8734 72.8164 58.0486 72.9117C58.2277 73.0031 58.4468 73.0488 58.7058 73.0488C59.0297 73.0488 59.3154 72.9803 59.5631 72.8431C59.8107 72.706 60.0069 72.5383 60.1517 72.3402C60.3003 72.1421 60.3803 71.9497 60.3917 71.763L60.8432 72.2716C60.8165 72.4317 60.7441 72.6088 60.626 72.8031C60.5079 72.9974 60.3498 73.1841 60.1517 73.3632C59.9574 73.5384 59.725 73.6851 59.4545 73.8032C59.1878 73.9175 58.8868 73.9746 58.5515 73.9746C58.1325 73.9746 57.7648 73.8927 57.4486 73.7289C57.1362 73.5651 56.8924 73.346 56.7171 73.0717C56.5457 72.7936 56.4599 72.4831 56.4599 72.1402C56.4599 71.8087 56.5247 71.5173 56.6542 71.2658C56.7838 71.0106 56.9705 70.7991 57.2143 70.6315C57.4581 70.46 57.7515 70.3305 58.0944 70.2429C58.4373 70.1553 58.8201 70.1114 59.243 70.1114H60.4717ZM64.1578 65.0824V73.8604H63.0948V65.0824H64.1578ZM71.2327 73.106C71.4841 73.106 71.7165 73.0546 71.9299 72.9517C72.1432 72.8488 72.3185 72.7079 72.4557 72.5288C72.5928 72.3459 72.6709 72.1383 72.69 71.9059H73.6958C73.6767 72.2716 73.5529 72.6126 73.3243 72.9288C73.0995 73.2412 72.8043 73.4946 72.4385 73.6889C72.0728 73.8794 71.6708 73.9746 71.2327 73.9746C70.7679 73.9746 70.3621 73.8927 70.0154 73.7289C69.6726 73.5651 69.3868 73.3403 69.1582 73.0546C68.9334 72.7688 68.7639 72.4412 68.6496 72.0716C68.5391 71.6983 68.4839 71.3039 68.4839 70.8887V70.6486C68.4839 70.2334 68.5391 69.8409 68.6496 69.4714C68.7639 69.098 68.9334 68.7685 69.1582 68.4827C69.3868 68.197 69.6726 67.9722 70.0154 67.8084C70.3621 67.6446 70.7679 67.5626 71.2327 67.5626C71.7165 67.5626 72.1394 67.6617 72.5014 67.8598C72.8633 68.0541 73.1471 68.3208 73.3529 68.6599C73.5624 68.9952 73.6767 69.3761 73.6958 69.8028H72.69C72.6709 69.5476 72.5985 69.3171 72.4728 69.1114C72.3509 68.9056 72.1833 68.7418 71.9699 68.6199C71.7604 68.4942 71.5146 68.4313 71.2327 68.4313C70.9089 68.4313 70.6364 68.4961 70.4155 68.6256C70.1983 68.7513 70.025 68.9228 69.8954 69.1399C69.7697 69.3533 69.6783 69.5914 69.6211 69.8543C69.5678 70.1133 69.5411 70.3781 69.5411 70.6486V70.8887C69.5411 71.1592 69.5678 71.4258 69.6211 71.6887C69.6745 71.9516 69.764 72.1897 69.8897 72.4031C70.0192 72.6164 70.1926 72.7879 70.4098 72.9174C70.6307 73.0431 70.905 73.106 71.2327 73.106ZM74.6044 70.8372V70.7058C74.6044 70.26 74.6692 69.8467 74.7987 69.4657C74.9283 69.0809 75.1149 68.7475 75.3588 68.4656C75.6026 68.1798 75.8979 67.9589 76.2446 67.8027C76.5913 67.6426 76.9799 67.5626 77.4104 67.5626C77.8447 67.5626 78.2352 67.6426 78.5819 67.8027C78.9324 67.9589 79.2296 68.1798 79.4734 68.4656C79.7211 68.7475 79.9097 69.0809 80.0392 69.4657C80.1687 69.8467 80.2335 70.26 80.2335 70.7058V70.8372C80.2335 71.283 80.1687 71.6963 80.0392 72.0773C79.9097 72.4583 79.7211 72.7917 79.4734 73.0774C79.2296 73.3594 78.9343 73.5803 78.5876 73.7403C78.2447 73.8965 77.8561 73.9746 77.4218 73.9746C76.9875 73.9746 76.597 73.8965 76.2503 73.7403C75.9036 73.5803 75.6064 73.3594 75.3588 73.0774C75.1149 72.7917 74.9283 72.4583 74.7987 72.0773C74.6692 71.6963 74.6044 71.283 74.6044 70.8372ZM75.6617 70.7058V70.8372C75.6617 71.1458 75.6979 71.4373 75.7702 71.7116C75.8426 71.9821 75.9512 72.2221 76.096 72.4317C76.2446 72.6412 76.4293 72.8069 76.6503 72.9288C76.8713 73.0469 77.1285 73.106 77.4218 73.106C77.7114 73.106 77.9647 73.0469 78.1819 72.9288C78.4029 72.8069 78.5857 72.6412 78.7305 72.4317C78.8753 72.2221 78.9839 71.9821 79.0563 71.7116C79.1324 71.4373 79.1705 71.1458 79.1705 70.8372V70.7058C79.1705 70.401 79.1324 70.1133 79.0563 69.8428C78.9839 69.5685 78.8734 69.3266 78.7248 69.1171C78.58 68.9037 78.3971 68.7361 78.1762 68.6142C77.959 68.4922 77.7037 68.4313 77.4104 68.4313C77.1208 68.4313 76.8656 68.4922 76.6446 68.6142C76.4274 68.7361 76.2446 68.9037 76.096 69.1171C75.9512 69.3266 75.8426 69.5685 75.7702 69.8428C75.6979 70.1133 75.6617 70.401 75.6617 70.7058ZM82.6109 68.9056V73.8604H81.5479V67.6769H82.5537L82.6109 68.9056ZM82.3937 70.5343L81.9022 70.5172C81.906 70.0943 81.9613 69.7038 82.068 69.3457C82.1746 68.9837 82.3327 68.6694 82.5423 68.4027C82.7518 68.136 83.0128 67.9303 83.3252 67.7855C83.6376 67.6369 83.9996 67.5626 84.411 67.5626C84.7006 67.5626 84.9673 67.6046 85.2111 67.6884C85.4549 67.7684 85.6664 67.896 85.8454 68.0713C86.0245 68.2465 86.1636 68.4713 86.2626 68.7456C86.3617 69.0199 86.4112 69.3514 86.4112 69.74V73.8604H85.354V69.7914C85.354 69.4676 85.2987 69.2085 85.1882 69.0142C85.0816 68.8199 84.9292 68.6789 84.731 68.5913C84.5329 68.4999 84.3005 68.4542 84.0338 68.4542C83.7214 68.4542 83.4605 68.5094 83.2509 68.6199C83.0414 68.7304 82.8737 68.8828 82.748 69.0771C82.6223 69.2714 82.5309 69.4942 82.4737 69.7457C82.4204 69.9933 82.3937 70.2562 82.3937 70.5343ZM86.3998 69.9514L85.6911 70.1686C85.6949 69.8295 85.7502 69.5038 85.8569 69.1914C85.9674 68.879 86.1255 68.6008 86.3312 68.357C86.5407 68.1132 86.7979 67.9208 87.1027 67.7798C87.4075 67.635 87.7561 67.5626 88.1485 67.5626C88.48 67.5626 88.7733 67.6065 89.0286 67.6941C89.2876 67.7817 89.5048 67.917 89.6801 68.0998C89.8591 68.2789 89.9944 68.5094 90.0858 68.7913C90.1773 69.0733 90.223 69.4085 90.223 69.7971V73.8604H89.16V69.7857C89.16 69.439 89.1048 69.1704 88.9943 68.9799C88.8876 68.7856 88.7352 68.6504 88.5371 68.5742C88.3428 68.4942 88.1104 68.4542 87.8399 68.4542C87.6075 68.4542 87.4018 68.4942 87.2227 68.5742C87.0436 68.6542 86.8931 68.7647 86.7712 68.9056C86.6493 69.0428 86.556 69.2009 86.4912 69.3799C86.4302 69.559 86.3998 69.7495 86.3998 69.9514ZM92.8804 68.8656V76.2377H91.8174V67.6769H92.7889L92.8804 68.8656ZM97.0464 70.7172V70.8372C97.0464 71.2868 96.9931 71.704 96.8864 72.0888C96.7798 72.4698 96.6236 72.8012 96.4178 73.0831C96.2159 73.3651 95.9664 73.5841 95.6692 73.7403C95.372 73.8965 95.031 73.9746 94.6462 73.9746C94.2538 73.9746 93.9071 73.9099 93.6061 73.7803C93.3052 73.6508 93.0499 73.4622 92.8404 73.2146C92.6308 72.9669 92.4632 72.6698 92.3375 72.3231C92.2155 71.9764 92.1317 71.5859 92.086 71.1515V70.5115C92.1317 70.0543 92.2174 69.6447 92.3432 69.2828C92.4689 68.9209 92.6346 68.6123 92.8404 68.357C93.0499 68.0979 93.3033 67.9017 93.6004 67.7684C93.8976 67.6312 94.2405 67.5626 94.6291 67.5626C95.0177 67.5626 95.3625 67.6388 95.6635 67.7912C95.9644 67.9398 96.2178 68.1532 96.4235 68.4313C96.6293 68.7094 96.7836 69.0428 96.8864 69.4314C96.9931 69.8162 97.0464 70.2448 97.0464 70.7172ZM95.9835 70.8372V70.7172C95.9835 70.4086 95.9511 70.1191 95.8863 69.8486C95.8216 69.5743 95.7206 69.3342 95.5835 69.1285C95.4501 68.919 95.2787 68.7551 95.0691 68.637C94.8596 68.5151 94.61 68.4542 94.3205 68.4542C94.0538 68.4542 93.8214 68.4999 93.6233 68.5913C93.429 68.6827 93.2633 68.8066 93.1261 68.9628C92.9889 69.1152 92.8765 69.2904 92.7889 69.4885C92.7051 69.6828 92.6422 69.8848 92.6003 70.0943V71.5744C92.6765 71.8411 92.7832 72.0926 92.9204 72.3288C93.0575 72.5612 93.2404 72.7498 93.469 72.8946C93.6976 73.0355 93.9852 73.106 94.3319 73.106C94.6177 73.106 94.8634 73.0469 95.0691 72.9288C95.2787 72.8069 95.4501 72.6412 95.5835 72.4317C95.7206 72.2221 95.8216 71.9821 95.8863 71.7116C95.9511 71.4373 95.9835 71.1458 95.9835 70.8372ZM102.041 72.8031V69.62C102.041 69.3761 101.992 69.1647 101.893 68.9856C101.797 68.8028 101.653 68.6618 101.458 68.5627C101.264 68.4637 101.024 68.4141 100.738 68.4141C100.472 68.4141 100.237 68.4599 100.035 68.5513C99.8372 68.6427 99.681 68.7627 99.5667 68.9113C99.4562 69.0599 99.4009 69.2199 99.4009 69.3914H98.3437C98.3437 69.1704 98.4008 68.9513 98.5151 68.7342C98.6294 68.517 98.7933 68.3208 99.0066 68.1456C99.2238 67.9665 99.4829 67.8255 99.7838 67.7227C100.089 67.616 100.428 67.5626 100.801 67.5626C101.251 67.5626 101.647 67.6388 101.99 67.7912C102.336 67.9436 102.607 68.1741 102.801 68.4827C102.999 68.7875 103.098 69.1704 103.098 69.6314V72.5117C103.098 72.7174 103.116 72.9365 103.15 73.1689C103.188 73.4013 103.243 73.6013 103.316 73.7689V73.8604H102.213C102.159 73.7384 102.117 73.5765 102.087 73.3746C102.056 73.1689 102.041 72.9784 102.041 72.8031ZM102.224 70.1114L102.235 70.8544H101.167C100.866 70.8544 100.597 70.8791 100.361 70.9287C100.125 70.9744 99.9267 71.0449 99.7667 71.1401C99.6067 71.2354 99.4848 71.3554 99.4009 71.5001C99.3171 71.6411 99.2752 71.8068 99.2752 71.9973C99.2752 72.1916 99.319 72.3688 99.4067 72.5288C99.4943 72.6888 99.6257 72.8164 99.801 72.9117C99.98 73.0031 100.199 73.0488 100.458 73.0488C100.782 73.0488 101.068 72.9803 101.315 72.8431C101.563 72.706 101.759 72.5383 101.904 72.3402C102.053 72.1421 102.133 71.9497 102.144 71.763L102.596 72.2716C102.569 72.4317 102.496 72.6088 102.378 72.8031C102.26 72.9974 102.102 73.1841 101.904 73.3632C101.71 73.5384 101.477 73.6851 101.207 73.8032C100.94 73.9175 100.639 73.9746 100.304 73.9746C99.8848 73.9746 99.5171 73.8927 99.2009 73.7289C98.8885 73.5651 98.6447 73.346 98.4694 73.0717C98.298 72.7936 98.2123 72.4831 98.2123 72.1402C98.2123 71.8087 98.277 71.5173 98.4066 71.2658C98.5361 71.0106 98.7228 70.7991 98.9666 70.6315C99.2104 70.46 99.5038 70.3305 99.8467 70.2429C100.19 70.1553 100.572 70.1114 100.995 70.1114H102.224ZM105.819 68.9971V73.8604H104.761V67.6769H105.762L105.819 68.9971ZM105.567 70.5343L105.127 70.5172C105.131 70.0943 105.194 69.7038 105.316 69.3457C105.438 68.9837 105.609 68.6694 105.83 68.4027C106.051 68.136 106.314 67.9303 106.619 67.7855C106.927 67.6369 107.268 67.5626 107.642 67.5626C107.946 67.5626 108.221 67.6046 108.465 67.6884C108.708 67.7684 108.916 67.8979 109.088 68.077C109.263 68.256 109.396 68.4884 109.488 68.7742C109.579 69.0561 109.625 69.4009 109.625 69.8086V73.8604H108.562V69.7971C108.562 69.4733 108.514 69.2142 108.419 69.0199C108.324 68.8218 108.185 68.6789 108.002 68.5913C107.819 68.4999 107.594 68.4542 107.327 68.4542C107.064 68.4542 106.824 68.5094 106.607 68.6199C106.394 68.7304 106.209 68.8828 106.053 69.0771C105.901 69.2714 105.781 69.4942 105.693 69.7457C105.609 69.9933 105.567 70.2562 105.567 70.5343ZM112.379 67.6769V73.8604H111.316V67.6769H112.379ZM111.236 66.0368C111.236 65.8653 111.288 65.7206 111.391 65.6025C111.497 65.4844 111.653 65.4253 111.859 65.4253C112.061 65.4253 112.215 65.4844 112.322 65.6025C112.433 65.7206 112.488 65.8653 112.488 66.0368C112.488 66.2006 112.433 66.3416 112.322 66.4597C112.215 66.574 112.061 66.6311 111.859 66.6311C111.653 66.6311 111.497 66.574 111.391 66.4597C111.288 66.3416 111.236 66.2006 111.236 66.0368ZM113.797 70.8372V70.7058C113.797 70.26 113.861 69.8467 113.991 69.4657C114.12 69.0809 114.307 68.7475 114.551 68.4656C114.795 68.1798 115.09 67.9589 115.437 67.8027C115.783 67.6426 116.172 67.5626 116.602 67.5626C117.037 67.5626 117.427 67.6426 117.774 67.8027C118.125 67.9589 118.422 68.1798 118.666 68.4656C118.913 68.7475 119.102 69.0809 119.231 69.4657C119.361 69.8467 119.426 70.26 119.426 70.7058V70.8372C119.426 71.283 119.361 71.6963 119.231 72.0773C119.102 72.4583 118.913 72.7917 118.666 73.0774C118.422 73.3594 118.126 73.5803 117.78 73.7403C117.437 73.8965 117.048 73.9746 116.614 73.9746C116.18 73.9746 115.789 73.8965 115.442 73.7403C115.096 73.5803 114.799 73.3594 114.551 73.0774C114.307 72.7917 114.12 72.4583 113.991 72.0773C113.861 71.6963 113.797 71.283 113.797 70.8372ZM114.854 70.7058V70.8372C114.854 71.1458 114.89 71.4373 114.962 71.7116C115.035 71.9821 115.143 72.2221 115.288 72.4317C115.437 72.6412 115.621 72.8069 115.842 72.9288C116.063 73.0469 116.321 73.106 116.614 73.106C116.903 73.106 117.157 73.0469 117.374 72.9288C117.595 72.8069 117.778 72.6412 117.923 72.4317C118.067 72.2221 118.176 71.9821 118.248 71.7116C118.325 71.4373 118.363 71.1458 118.363 70.8372V70.7058C118.363 70.401 118.325 70.1133 118.248 69.8428C118.176 69.5685 118.065 69.3266 117.917 69.1171C117.772 68.9037 117.589 68.7361 117.368 68.6142C117.151 68.4922 116.896 68.4313 116.602 68.4313C116.313 68.4313 116.058 68.4922 115.837 68.6142C115.62 68.7361 115.437 68.9037 115.288 69.1171C115.143 69.3266 115.035 69.5685 114.962 69.8428C114.89 70.1133 114.854 70.401 114.854 70.7058ZM121.809 68.9971V73.8604H120.751V67.6769H121.752L121.809 68.9971ZM121.557 70.5343L121.117 70.5172C121.121 70.0943 121.184 69.7038 121.306 69.3457C121.428 68.9837 121.599 68.6694 121.82 68.4027C122.041 68.136 122.304 67.9303 122.609 67.7855C122.917 67.6369 123.258 67.5626 123.632 67.5626C123.936 67.5626 124.211 67.6046 124.455 67.6884C124.698 67.7684 124.906 67.8979 125.078 68.077C125.253 68.256 125.386 68.4884 125.478 68.7742C125.569 69.0561 125.615 69.4009 125.615 69.8086V73.8604H124.552V69.7971C124.552 69.4733 124.504 69.2142 124.409 69.0199C124.314 68.8218 124.175 68.6789 123.992 68.5913C123.809 68.4999 123.584 68.4542 123.317 68.4542C123.054 68.4542 122.814 68.5094 122.597 68.6199C122.384 68.7304 122.199 68.8828 122.043 69.0771C121.891 69.2714 121.771 69.4942 121.683 69.7457C121.599 69.9933 121.557 70.2562 121.557 70.5343ZM29.7147 89.7631L31.3034 84.6769H32.0006L31.8634 85.6885L30.2461 90.8604H29.5661L29.7147 89.7631ZM28.646 84.6769L30.0004 89.8203L30.0976 90.8604H29.3832L27.5888 84.6769H28.646ZM33.5207 89.7803L34.8123 84.6769H35.8638L34.0693 90.8604H33.3607L33.5207 89.7803ZM32.1549 84.6769L33.7093 89.6774L33.8865 90.8604H33.2121L31.5491 85.677L31.412 84.6769H32.1549ZM38.0068 82.0824V90.8604H36.9496V82.0824H38.0068ZM37.7554 87.5343L37.3154 87.5172C37.3192 87.0943 37.382 86.7038 37.5039 86.3457C37.6259 85.9837 37.7973 85.6694 38.0183 85.4027C38.2392 85.136 38.5021 84.9303 38.8069 84.7855C39.1155 84.6369 39.4565 84.5626 39.8299 84.5626C40.1347 84.5626 40.409 84.6046 40.6528 84.6884C40.8966 84.7684 41.1043 84.8979 41.2757 85.077C41.451 85.256 41.5843 85.4884 41.6757 85.7742C41.7672 86.0561 41.8129 86.4009 41.8129 86.8086V90.8604H40.7499V86.7971C40.7499 86.4733 40.7023 86.2142 40.6071 86.0199C40.5118 85.8218 40.3728 85.6789 40.1899 85.5913C40.007 85.4999 39.7822 85.4542 39.5156 85.4542C39.2527 85.4542 39.0126 85.5094 38.7955 85.6199C38.5821 85.7304 38.3974 85.8828 38.2411 86.0771C38.0888 86.2714 37.9687 86.4942 37.8811 86.7457C37.7973 86.9933 37.7554 87.2562 37.7554 87.5343ZM43.1159 87.8372V87.7058C43.1159 87.26 43.1806 86.8467 43.3102 86.4657C43.4397 86.0809 43.6264 85.7475 43.8702 85.4656C44.1141 85.1798 44.4093 84.9589 44.756 84.8027C45.1027 84.6426 45.4913 84.5626 45.9218 84.5626C46.3562 84.5626 46.7467 84.6426 47.0934 84.8027C47.4439 84.9589 47.7411 85.1798 47.9849 85.4656C48.2325 85.7475 48.4211 86.0809 48.5506 86.4657C48.6802 86.8467 48.745 87.26 48.745 87.7058V87.8372C48.745 88.283 48.6802 88.6963 48.5506 89.0773C48.4211 89.4583 48.2325 89.7917 47.9849 90.0774C47.7411 90.3594 47.4458 90.5803 47.0991 90.7403C46.7562 90.8965 46.3676 90.9746 45.9333 90.9746C45.4989 90.9746 45.1084 90.8965 44.7617 90.7403C44.415 90.5803 44.1179 90.3594 43.8702 90.0774C43.6264 89.7917 43.4397 89.4583 43.3102 89.0773C43.1806 88.6963 43.1159 88.283 43.1159 87.8372ZM44.1731 87.7058V87.8372C44.1731 88.1458 44.2093 88.4373 44.2817 88.7116C44.3541 88.9821 44.4627 89.2221 44.6074 89.4317C44.756 89.6412 44.9408 89.8069 45.1618 89.9288C45.3827 90.0469 45.6399 90.106 45.9333 90.106C46.2228 90.106 46.4762 90.0469 46.6933 89.9288C46.9143 89.8069 47.0972 89.6412 47.242 89.4317C47.3867 89.2221 47.4953 88.9821 47.5677 88.7116C47.6439 88.4373 47.682 88.1458 47.682 87.8372V87.7058C47.682 87.401 47.6439 87.1133 47.5677 86.8428C47.4953 86.5685 47.3848 86.3266 47.2362 86.1171C47.0915 85.9037 46.9086 85.7361 46.6876 85.6142C46.4705 85.4922 46.2152 85.4313 45.9218 85.4313C45.6323 85.4313 45.377 85.4922 45.1561 85.6142C44.9389 85.7361 44.756 85.9037 44.6074 86.1171C44.4627 86.3266 44.3541 86.5685 44.2817 86.8428C44.2093 87.1133 44.1731 87.401 44.1731 87.7058ZM55.4484 90.106C55.6999 90.106 55.9323 90.0546 56.1456 89.9517C56.359 89.8488 56.5342 89.7079 56.6714 89.5288C56.8085 89.3459 56.8866 89.1383 56.9057 88.9059H57.9115C57.8924 89.2716 57.7686 89.6126 57.54 89.9288C57.3152 90.2412 57.02 90.4946 56.6542 90.6889C56.2885 90.8794 55.8865 90.9746 55.4484 90.9746C54.9836 90.9746 54.5779 90.8927 54.2312 90.7289C53.8883 90.5651 53.6025 90.3403 53.3739 90.0546C53.1492 89.7688 52.9796 89.4412 52.8653 89.0716C52.7548 88.6983 52.6996 88.3039 52.6996 87.8887V87.6486C52.6996 87.2334 52.7548 86.8409 52.8653 86.4714C52.9796 86.098 53.1492 85.7685 53.3739 85.4827C53.6025 85.197 53.8883 84.9722 54.2312 84.8084C54.5779 84.6446 54.9836 84.5626 55.4484 84.5626C55.9323 84.5626 56.3552 84.6617 56.7171 84.8598C57.079 85.0541 57.3629 85.3208 57.5686 85.6599C57.7781 85.9952 57.8924 86.3761 57.9115 86.8028H56.9057C56.8866 86.5476 56.8143 86.3171 56.6885 86.1114C56.5666 85.9056 56.399 85.7418 56.1856 85.6199C55.9761 85.4942 55.7303 85.4313 55.4484 85.4313C55.1246 85.4313 54.8522 85.4961 54.6312 85.6256C54.414 85.7513 54.2407 85.9228 54.1111 86.1399C53.9854 86.3533 53.894 86.5914 53.8368 86.8543C53.7835 87.1133 53.7568 87.3781 53.7568 87.6486V87.8887C53.7568 88.1592 53.7835 88.4258 53.8368 88.6887C53.8902 88.9516 53.9797 89.1897 54.1054 89.4031C54.235 89.6164 54.4083 89.7879 54.6255 89.9174C54.8465 90.0431 55.1208 90.106 55.4484 90.106ZM62.7462 89.8031V86.62C62.7462 86.3761 62.6967 86.1647 62.5976 85.9856C62.5024 85.8028 62.3576 85.6618 62.1633 85.5627C61.969 85.4637 61.729 85.4141 61.4432 85.4141C61.1765 85.4141 60.9422 85.4599 60.7403 85.5513C60.5422 85.6427 60.386 85.7627 60.2717 85.9113C60.1612 86.0599 60.106 86.2199 60.106 86.3914H59.0487C59.0487 86.1704 59.1059 85.9513 59.2202 85.7342C59.3345 85.517 59.4983 85.3208 59.7117 85.1456C59.9288 84.9665 60.1879 84.8255 60.4889 84.7227C60.7937 84.616 61.1327 84.5626 61.5061 84.5626C61.9557 84.5626 62.3519 84.6388 62.6948 84.7912C63.0415 84.9436 63.312 85.1741 63.5063 85.4827C63.7044 85.7875 63.8035 86.1704 63.8035 86.6314V89.5117C63.8035 89.7174 63.8206 89.9365 63.8549 90.1689C63.893 90.4013 63.9482 90.6013 64.0206 90.7689V90.8604H62.9177C62.8643 90.7384 62.8224 90.5765 62.7919 90.3746C62.7615 90.1689 62.7462 89.9784 62.7462 89.8031ZM62.9291 87.1114L62.9405 87.8544H61.8718C61.5709 87.8544 61.3023 87.8791 61.0661 87.9287C60.8299 87.9744 60.6317 88.0449 60.4717 88.1401C60.3117 88.2354 60.1898 88.3554 60.106 88.5001C60.0222 88.6411 59.9803 88.8068 59.9803 88.9973C59.9803 89.1916 60.0241 89.3688 60.1117 89.5288C60.1993 89.6888 60.3308 89.8164 60.506 89.9117C60.6851 90.0031 60.9041 90.0488 61.1632 90.0488C61.4871 90.0488 61.7728 89.9803 62.0204 89.8431C62.2681 89.706 62.4643 89.5383 62.6091 89.3402C62.7576 89.1421 62.8377 88.9497 62.8491 88.763L63.3005 89.2716C63.2739 89.4317 63.2015 89.6088 63.0834 89.8031C62.9653 89.9974 62.8072 90.1841 62.6091 90.3632C62.4148 90.5384 62.1824 90.6851 61.9119 90.8032C61.6452 90.9175 61.3442 90.9746 61.0089 90.9746C60.5898 90.9746 60.2222 90.8927 59.906 90.7289C59.5935 90.5651 59.3497 90.346 59.1745 90.0717C59.003 89.7936 58.9173 89.4831 58.9173 89.1402C58.9173 88.8087 58.9821 88.5173 59.1116 88.2658C59.2411 88.0106 59.4278 87.7991 59.6717 87.6315C59.9155 87.46 60.2088 87.3305 60.5517 87.2429C60.8946 87.1553 61.2775 87.1114 61.7004 87.1114H62.9291ZM66.5237 85.9971V90.8604H65.4665V84.6769H66.4665L66.5237 85.9971ZM66.2722 87.5343L65.8322 87.5172C65.836 87.0943 65.8989 86.7038 66.0208 86.3457C66.1427 85.9837 66.3142 85.6694 66.5351 85.4027C66.7561 85.136 67.019 84.9303 67.3238 84.7855C67.6324 84.6369 67.9734 84.5626 68.3467 84.5626C68.6515 84.5626 68.9258 84.6046 69.1696 84.6884C69.4135 84.7684 69.6211 84.8979 69.7926 85.077C69.9678 85.256 70.1012 85.4884 70.1926 85.7742C70.284 86.0561 70.3298 86.4009 70.3298 86.8086V90.8604H69.2668V86.7971C69.2668 86.4733 69.2192 86.2142 69.1239 86.0199C69.0287 85.8218 68.8896 85.6789 68.7067 85.5913C68.5239 85.4999 68.2991 85.4542 68.0324 85.4542C67.7695 85.4542 67.5295 85.5094 67.3123 85.6199C67.099 85.7304 66.9142 85.8828 66.758 86.0771C66.6056 86.2714 66.4856 86.4942 66.398 86.7457C66.3142 86.9933 66.2722 87.2562 66.2722 87.5343ZM82.6451 106.763L84.2339 101.677H84.9311L84.7939 102.688L83.1766 107.86H82.4966L82.6451 106.763ZM81.5765 101.677L82.9309 106.82L83.028 107.86H82.3137L80.5192 101.677H81.5765ZM86.4512 106.78L87.7427 101.677H88.7943L86.9998 107.86H86.2912L86.4512 106.78ZM85.0854 101.677L86.6398 106.677L86.8169 107.86H86.1426L84.4796 102.677L84.3424 101.677H85.0854ZM91.0288 101.677V107.86H89.9658V101.677H91.0288ZM89.8858 100.037C89.8858 99.8653 89.9372 99.7206 90.0401 99.6025C90.1468 99.4844 90.303 99.4253 90.5087 99.4253C90.7106 99.4253 90.8649 99.4844 90.9716 99.6025C91.0821 99.7206 91.1373 99.8653 91.1373 100.037C91.1373 100.201 91.0821 100.342 90.9716 100.46C90.8649 100.574 90.7106 100.631 90.5087 100.631C90.303 100.631 90.1468 100.574 90.0401 100.46C89.9372 100.342 89.8858 100.201 89.8858 100.037ZM95.3149 101.677V102.488H91.9717V101.677H95.3149ZM93.1032 100.174H94.1605V106.329C94.1605 106.538 94.1929 106.696 94.2576 106.803C94.3224 106.91 94.4062 106.98 94.5091 107.015C94.6119 107.049 94.7224 107.066 94.8405 107.066C94.9282 107.066 95.0196 107.058 95.1148 107.043C95.2139 107.024 95.2882 107.009 95.3377 106.997L95.3434 107.86C95.2596 107.887 95.1491 107.912 95.012 107.935C94.8786 107.961 94.7167 107.975 94.5262 107.975C94.2671 107.975 94.029 107.923 93.8119 107.82C93.5947 107.717 93.4214 107.546 93.2918 107.306C93.1661 107.062 93.1032 106.735 93.1032 106.323V100.174ZM97.6122 99.0824V107.86H96.555V99.0824H97.6122ZM97.3608 104.534L96.9207 104.517C96.9245 104.094 96.9874 103.704 97.1093 103.346C97.2312 102.984 97.4027 102.669 97.6236 102.403C97.8446 102.136 98.1075 101.93 98.4123 101.786C98.7209 101.637 99.0619 101.563 99.4352 101.563C99.74 101.563 100.014 101.605 100.258 101.688C100.502 101.768 100.71 101.898 100.881 102.077C101.056 102.256 101.19 102.488 101.281 102.774C101.373 103.056 101.418 103.401 101.418 103.809V107.86H100.355V103.797C100.355 103.473 100.308 103.214 100.212 103.02C100.117 102.822 99.9781 102.679 99.7953 102.591C99.6124 102.5 99.3876 102.454 99.1209 102.454C98.858 102.454 98.618 102.509 98.4009 102.62C98.1875 102.73 98.0027 102.883 97.8465 103.077C97.6941 103.271 97.5741 103.494 97.4865 103.746C97.4027 103.993 97.3608 104.256 97.3608 104.534ZM106.962 99.0824V107.86H105.904V99.0824H106.962ZM106.71 104.534L106.27 104.517C106.274 104.094 106.337 103.704 106.459 103.346C106.581 102.984 106.752 102.669 106.973 102.403C107.194 102.136 107.457 101.93 107.762 101.786C108.07 101.637 108.411 101.563 108.785 101.563C109.089 101.563 109.364 101.605 109.608 101.688C109.851 101.768 110.059 101.898 110.23 102.077C110.406 102.256 110.539 102.488 110.631 102.774C110.722 103.056 110.768 103.401 110.768 103.809V107.86H109.705V103.797C109.705 103.473 109.657 103.214 109.562 103.02C109.467 102.822 109.328 102.679 109.145 102.591C108.962 102.5 108.737 102.454 108.47 102.454C108.207 102.454 107.967 102.509 107.75 102.62C107.537 102.73 107.352 102.883 107.196 103.077C107.044 103.271 106.924 103.494 106.836 103.746C106.752 103.993 106.71 104.256 106.71 104.534ZM113.499 101.677V107.86H112.436V101.677H113.499ZM112.356 100.037C112.356 99.8653 112.408 99.7206 112.511 99.6025C112.617 99.4844 112.774 99.4253 112.979 99.4253C113.181 99.4253 113.336 99.4844 113.442 99.6025C113.553 99.7206 113.608 99.8653 113.608 100.037C113.608 100.201 113.553 100.342 113.442 100.46C113.336 100.574 113.181 100.631 112.979 100.631C112.774 100.631 112.617 100.574 112.511 100.46C112.408 100.342 112.356 100.201 112.356 100.037ZM118.797 106.22C118.797 106.068 118.763 105.927 118.694 105.797C118.629 105.664 118.494 105.544 118.288 105.437C118.086 105.327 117.782 105.232 117.374 105.152C117.031 105.079 116.721 104.993 116.442 104.894C116.168 104.795 115.934 104.675 115.74 104.534C115.549 104.393 115.402 104.228 115.3 104.037C115.197 103.847 115.145 103.624 115.145 103.369C115.145 103.125 115.199 102.894 115.305 102.677C115.416 102.46 115.57 102.267 115.768 102.1C115.97 101.932 116.212 101.801 116.494 101.706C116.776 101.61 117.09 101.563 117.437 101.563C117.932 101.563 118.355 101.65 118.706 101.826C119.056 102.001 119.325 102.235 119.511 102.528C119.698 102.818 119.791 103.14 119.791 103.494H118.734C118.734 103.323 118.683 103.157 118.58 102.997C118.481 102.833 118.334 102.698 118.14 102.591C117.949 102.485 117.715 102.431 117.437 102.431C117.143 102.431 116.905 102.477 116.722 102.568C116.543 102.656 116.412 102.768 116.328 102.906C116.248 103.043 116.208 103.188 116.208 103.34C116.208 103.454 116.227 103.557 116.265 103.649C116.307 103.736 116.38 103.818 116.482 103.894C116.585 103.967 116.73 104.035 116.917 104.1C117.103 104.165 117.342 104.23 117.631 104.294C118.138 104.409 118.555 104.546 118.883 104.706C119.21 104.866 119.454 105.062 119.614 105.294C119.774 105.527 119.854 105.809 119.854 106.14C119.854 106.411 119.797 106.658 119.683 106.883C119.572 107.108 119.41 107.302 119.197 107.466C118.987 107.626 118.736 107.752 118.443 107.843C118.153 107.931 117.827 107.975 117.465 107.975C116.921 107.975 116.46 107.877 116.082 107.683C115.705 107.489 115.42 107.237 115.225 106.929C115.031 106.62 114.934 106.294 114.934 105.952H115.997C116.012 106.241 116.096 106.472 116.248 106.643C116.401 106.811 116.587 106.931 116.808 107.003C117.029 107.072 117.248 107.106 117.465 107.106C117.755 107.106 117.997 107.068 118.191 106.992C118.389 106.916 118.54 106.811 118.643 106.677C118.746 106.544 118.797 106.392 118.797 106.22ZM42.6473 123.763L44.236 118.677H44.9332L44.796 119.688L43.1787 124.86H42.4987L42.6473 123.763ZM41.5786 118.677L42.933 123.82L43.0302 124.86H42.3158L40.5214 118.677H41.5786ZM46.4533 123.78L47.7449 118.677H48.7964L47.0019 124.86H46.2933L46.4533 123.78ZM45.0875 118.677L46.6419 123.677L46.8191 124.86H46.1447L44.4817 119.677L44.3446 118.677H45.0875ZM53.5282 123.803V120.62C53.5282 120.376 53.4787 120.165 53.3797 119.986C53.2844 119.803 53.1396 119.662 52.9453 119.563C52.751 119.464 52.511 119.414 52.2253 119.414C51.9586 119.414 51.7243 119.46 51.5223 119.551C51.3242 119.643 51.168 119.763 51.0537 119.911C50.9432 120.06 50.888 120.22 50.888 120.391H49.8308C49.8308 120.17 49.8879 119.951 50.0022 119.734C50.1165 119.517 50.2803 119.321 50.4937 119.146C50.7108 118.966 50.9699 118.826 51.2709 118.723C51.5757 118.616 51.9148 118.563 52.2881 118.563C52.7377 118.563 53.1339 118.639 53.4768 118.791C53.8235 118.944 54.094 119.174 54.2883 119.483C54.4864 119.788 54.5855 120.17 54.5855 120.631V123.512C54.5855 123.717 54.6026 123.936 54.6369 124.169C54.675 124.401 54.7303 124.601 54.8026 124.769V124.86H53.6997C53.6463 124.738 53.6044 124.577 53.574 124.375C53.5435 124.169 53.5282 123.978 53.5282 123.803ZM53.7111 121.111L53.7225 121.854H52.6539C52.3529 121.854 52.0843 121.879 51.8481 121.929C51.6119 121.974 51.4138 122.045 51.2538 122.14C51.0937 122.235 50.9718 122.355 50.888 122.5C50.8042 122.641 50.7623 122.807 50.7623 122.997C50.7623 123.192 50.8061 123.369 50.8937 123.529C50.9813 123.689 51.1128 123.816 51.288 123.912C51.4671 124.003 51.6862 124.049 51.9452 124.049C52.2691 124.049 52.5548 123.98 52.8025 123.843C53.0501 123.706 53.2463 123.538 53.3911 123.34C53.5397 123.142 53.6197 122.95 53.6311 122.763L54.0826 123.272C54.0559 123.432 53.9835 123.609 53.8654 123.803C53.7473 123.997 53.5892 124.184 53.3911 124.363C53.1968 124.538 52.9644 124.685 52.6939 124.803C52.4272 124.917 52.1262 124.975 51.7909 124.975C51.3719 124.975 51.0042 124.893 50.688 124.729C50.3756 124.565 50.1317 124.346 49.9565 124.072C49.785 123.794 49.6993 123.483 49.6993 123.14C49.6993 122.809 49.7641 122.517 49.8936 122.266C50.0232 122.011 50.2098 121.799 50.4537 121.631C50.6975 121.46 50.9909 121.331 51.3338 121.243C51.6766 121.155 52.0595 121.111 52.4824 121.111H53.7111ZM57.3057 119.648V124.86H56.2485V118.677H57.2772L57.3057 119.648ZM59.2373 118.643L59.2316 119.626C59.144 119.607 59.0602 119.595 58.9802 119.591C58.904 119.584 58.8163 119.58 58.7173 119.58C58.4734 119.58 58.2582 119.618 58.0715 119.694C57.8848 119.77 57.7267 119.877 57.5972 120.014C57.4676 120.151 57.3648 120.315 57.2886 120.506C57.2162 120.692 57.1686 120.898 57.1457 121.123L56.8485 121.294C56.8485 120.921 56.8847 120.57 56.9571 120.243C57.0333 119.915 57.1495 119.626 57.3057 119.374C57.4619 119.119 57.66 118.921 57.9001 118.78C58.1439 118.635 58.4334 118.563 58.7687 118.563C58.8449 118.563 58.9325 118.572 59.0316 118.591C59.1307 118.606 59.1992 118.624 59.2373 118.643ZM61.2661 119.906V124.86H60.2031V118.677H61.2089L61.2661 119.906ZM61.0489 121.534L60.5574 121.517C60.5613 121.094 60.6165 120.704 60.7232 120.346C60.8299 119.984 60.988 119.669 61.1975 119.403C61.407 119.136 61.668 118.93 61.9804 118.786C62.2928 118.637 62.6548 118.563 63.0662 118.563C63.3558 118.563 63.6225 118.605 63.8663 118.688C64.1101 118.768 64.3216 118.896 64.5007 119.071C64.6797 119.247 64.8188 119.471 64.9178 119.746C65.0169 120.02 65.0664 120.351 65.0664 120.74V124.86H64.0092V120.791C64.0092 120.468 63.9539 120.209 63.8435 120.014C63.7368 119.82 63.5844 119.679 63.3863 119.591C63.1882 119.5 62.9558 119.454 62.6891 119.454C62.3767 119.454 62.1157 119.509 61.9061 119.62C61.6966 119.73 61.529 119.883 61.4032 120.077C61.2775 120.271 61.1861 120.494 61.1289 120.746C61.0756 120.993 61.0489 121.256 61.0489 121.534ZM65.055 120.951L64.3464 121.169C64.3502 120.83 64.4054 120.504 64.5121 120.191C64.6226 119.879 64.7807 119.601 64.9864 119.357C65.196 119.113 65.4531 118.921 65.7579 118.78C66.0627 118.635 66.4113 118.563 66.8037 118.563C67.1352 118.563 67.4285 118.606 67.6838 118.694C67.9429 118.782 68.16 118.917 68.3353 119.1C68.5144 119.279 68.6496 119.509 68.741 119.791C68.8325 120.073 68.8782 120.409 68.8782 120.797V124.86H67.8152V120.786C67.8152 120.439 67.76 120.17 67.6495 119.98C67.5428 119.786 67.3904 119.65 67.1923 119.574C66.998 119.494 66.7656 119.454 66.4951 119.454C66.2627 119.454 66.057 119.494 65.8779 119.574C65.6989 119.654 65.5484 119.765 65.4265 119.906C65.3045 120.043 65.2112 120.201 65.1464 120.38C65.0855 120.559 65.055 120.75 65.055 120.951ZM75.856 124.106C76.1074 124.106 76.3398 124.055 76.5532 123.952C76.7665 123.849 76.9418 123.708 77.0789 123.529C77.2161 123.346 77.2942 123.138 77.3132 122.906H78.319C78.3 123.272 78.1762 123.613 77.9476 123.929C77.7228 124.241 77.4275 124.495 77.0618 124.689C76.696 124.879 76.2941 124.975 75.856 124.975C75.3912 124.975 74.9854 124.893 74.6387 124.729C74.2958 124.565 74.0101 124.34 73.7815 124.055C73.5567 123.769 73.3872 123.441 73.2729 123.072C73.1624 122.698 73.1071 122.304 73.1071 121.889V121.649C73.1071 121.233 73.1624 120.841 73.2729 120.471C73.3872 120.098 73.5567 119.768 73.7815 119.483C74.0101 119.197 74.2958 118.972 74.6387 118.808C74.9854 118.645 75.3912 118.563 75.856 118.563C76.3398 118.563 76.7627 118.662 77.1247 118.86C77.4866 119.054 77.7704 119.321 77.9762 119.66C78.1857 119.995 78.3 120.376 78.319 120.803H77.3132C77.2942 120.548 77.2218 120.317 77.0961 120.111C76.9742 119.906 76.8065 119.742 76.5932 119.62C76.3836 119.494 76.1379 119.431 75.856 119.431C75.5321 119.431 75.2597 119.496 75.0388 119.626C74.8216 119.751 74.6482 119.923 74.5187 120.14C74.393 120.353 74.3015 120.591 74.2444 120.854C74.1911 121.113 74.1644 121.378 74.1644 121.649V121.889C74.1644 122.159 74.1911 122.426 74.2444 122.689C74.2977 122.952 74.3873 123.19 74.513 123.403C74.6425 123.616 74.8159 123.788 75.033 123.917C75.254 124.043 75.5283 124.106 75.856 124.106ZM83.2909 123.432V118.677H84.3539V124.86H83.3424L83.2909 123.432ZM83.4909 122.129L83.931 122.117C83.931 122.529 83.8872 122.91 83.7995 123.26C83.7157 123.607 83.5786 123.908 83.3881 124.163C83.1976 124.418 82.948 124.618 82.6394 124.763C82.3308 124.904 81.9556 124.975 81.5136 124.975C81.2126 124.975 80.9364 124.931 80.685 124.843C80.4373 124.756 80.224 124.62 80.0449 124.437C79.8659 124.255 79.7268 124.016 79.6277 123.723C79.5325 123.43 79.4849 123.077 79.4849 122.666V118.677H80.5421V122.677C80.5421 122.955 80.5726 123.186 80.6335 123.369C80.6983 123.548 80.784 123.691 80.8907 123.797C81.0012 123.9 81.1231 123.973 81.2565 124.015C81.3936 124.056 81.5346 124.077 81.6793 124.077C82.1289 124.077 82.4851 123.992 82.748 123.82C83.0109 123.645 83.1995 123.411 83.3138 123.117C83.4319 122.82 83.4909 122.491 83.4909 122.129ZM89.8629 123.66V116.082H90.9259V124.86H89.9544L89.8629 123.66ZM85.7026 121.837V121.717C85.7026 121.245 85.7597 120.816 85.874 120.431C85.9921 120.043 86.1578 119.709 86.3712 119.431C86.5884 119.153 86.8455 118.94 87.1427 118.791C87.4437 118.639 87.7789 118.563 88.1485 118.563C88.5371 118.563 88.8762 118.631 89.1657 118.768C89.4591 118.902 89.7067 119.098 89.9087 119.357C90.1144 119.612 90.2763 119.921 90.3944 120.283C90.5125 120.645 90.5944 121.054 90.6402 121.511V122.037C90.5982 122.491 90.5163 122.898 90.3944 123.26C90.2763 123.622 90.1144 123.931 89.9087 124.186C89.7067 124.441 89.4591 124.637 89.1657 124.775C88.8724 124.908 88.5295 124.975 88.1371 124.975C87.7751 124.975 87.4437 124.897 87.1427 124.74C86.8455 124.584 86.5884 124.365 86.3712 124.083C86.1578 123.801 85.9921 123.47 85.874 123.089C85.7597 122.704 85.7026 122.287 85.7026 121.837ZM86.7655 121.717V121.837C86.7655 122.146 86.796 122.435 86.857 122.706C86.9217 122.976 87.0208 123.214 87.1541 123.42C87.2875 123.626 87.457 123.788 87.6627 123.906C87.8685 124.02 88.1142 124.077 88.4 124.077C88.7505 124.077 89.0381 124.003 89.2629 123.855C89.4915 123.706 89.6744 123.51 89.8115 123.266C89.9487 123.022 90.0553 122.757 90.1315 122.472V121.094C90.0858 120.885 90.0191 120.683 89.9315 120.489C89.8477 120.29 89.7372 120.115 89.6001 119.963C89.4667 119.807 89.301 119.683 89.1029 119.591C88.9086 119.5 88.6781 119.454 88.4114 119.454C88.1218 119.454 87.8723 119.515 87.6627 119.637C87.457 119.755 87.2875 119.919 87.1541 120.128C87.0208 120.334 86.9217 120.574 86.857 120.849C86.796 121.119 86.7655 121.409 86.7655 121.717ZM96.4692 123.66V116.082H97.5322V124.86H96.5607L96.4692 123.66ZM92.3089 121.837V121.717C92.3089 121.245 92.366 120.816 92.4803 120.431C92.5984 120.043 92.7642 119.709 92.9775 119.431C93.1947 119.153 93.4518 118.94 93.749 118.791C94.05 118.639 94.3853 118.563 94.7548 118.563C95.1434 118.563 95.4825 118.631 95.772 118.768C96.0654 118.902 96.313 119.098 96.515 119.357C96.7207 119.612 96.8826 119.921 97.0007 120.283C97.1188 120.645 97.2007 121.054 97.2465 121.511V122.037C97.2046 122.491 97.1226 122.898 97.0007 123.26C96.8826 123.622 96.7207 123.931 96.515 124.186C96.313 124.441 96.0654 124.637 95.772 124.775C95.4787 124.908 95.1358 124.975 94.7434 124.975C94.3814 124.975 94.05 124.897 93.749 124.74C93.4518 124.584 93.1947 124.365 92.9775 124.083C92.7642 123.801 92.5984 123.47 92.4803 123.089C92.366 122.704 92.3089 122.287 92.3089 121.837ZM93.3718 121.717V121.837C93.3718 122.146 93.4023 122.435 93.4633 122.706C93.528 122.976 93.6271 123.214 93.7604 123.42C93.8938 123.626 94.0633 123.788 94.2691 123.906C94.4748 124.02 94.7205 124.077 95.0063 124.077C95.3568 124.077 95.6444 124.003 95.8692 123.855C96.0978 123.706 96.2807 123.51 96.4178 123.266C96.555 123.022 96.6616 122.757 96.7378 122.472V121.094C96.6921 120.885 96.6255 120.683 96.5378 120.489C96.454 120.29 96.3435 120.115 96.2064 119.963C96.073 119.807 95.9073 119.683 95.7092 119.591C95.5149 119.5 95.2844 119.454 95.0177 119.454C94.7281 119.454 94.4786 119.515 94.2691 119.637C94.0633 119.755 93.8938 119.919 93.7604 120.128C93.6271 120.334 93.528 120.574 93.4633 120.849C93.4023 121.119 93.3718 121.409 93.3718 121.717ZM100.327 116.082V124.86H99.2638V116.082H100.327ZM104.59 124.975C104.159 124.975 103.769 124.902 103.418 124.757C103.072 124.609 102.773 124.401 102.521 124.135C102.274 123.868 102.083 123.552 101.95 123.186C101.816 122.82 101.75 122.42 101.75 121.986V121.746C101.75 121.243 101.824 120.795 101.973 120.403C102.121 120.007 102.323 119.671 102.578 119.397C102.834 119.123 103.123 118.915 103.447 118.774C103.771 118.633 104.106 118.563 104.453 118.563C104.895 118.563 105.276 118.639 105.596 118.791C105.92 118.944 106.184 119.157 106.39 119.431C106.596 119.702 106.748 120.022 106.847 120.391C106.946 120.757 106.996 121.157 106.996 121.591V122.066H102.378V121.203H105.939V121.123C105.923 120.849 105.866 120.582 105.767 120.323C105.672 120.064 105.52 119.85 105.31 119.683C105.101 119.515 104.815 119.431 104.453 119.431C104.213 119.431 103.992 119.483 103.79 119.586C103.588 119.685 103.415 119.833 103.27 120.031C103.125 120.229 103.013 120.471 102.933 120.757C102.853 121.043 102.813 121.372 102.813 121.746V121.986C102.813 122.279 102.853 122.555 102.933 122.814C103.017 123.07 103.137 123.294 103.293 123.489C103.453 123.683 103.645 123.835 103.87 123.946C104.099 124.056 104.358 124.112 104.647 124.112C105.02 124.112 105.337 124.036 105.596 123.883C105.855 123.731 106.082 123.527 106.276 123.272L106.916 123.78C106.783 123.982 106.613 124.175 106.407 124.357C106.202 124.54 105.948 124.689 105.647 124.803C105.35 124.917 104.998 124.975 104.59 124.975ZM111.831 123.22C111.831 123.068 111.796 122.927 111.728 122.797C111.663 122.664 111.528 122.544 111.322 122.437C111.12 122.327 110.815 122.232 110.408 122.152C110.065 122.079 109.754 121.993 109.476 121.894C109.202 121.795 108.968 121.675 108.773 121.534C108.583 121.393 108.436 121.228 108.333 121.037C108.23 120.847 108.179 120.624 108.179 120.369C108.179 120.125 108.232 119.894 108.339 119.677C108.449 119.46 108.604 119.267 108.802 119.1C109.004 118.932 109.246 118.801 109.528 118.706C109.809 118.61 110.124 118.563 110.471 118.563C110.966 118.563 111.389 118.65 111.739 118.826C112.09 119.001 112.358 119.235 112.545 119.528C112.732 119.818 112.825 120.14 112.825 120.494H111.768C111.768 120.323 111.716 120.157 111.613 119.997C111.514 119.833 111.368 119.698 111.173 119.591C110.983 119.485 110.749 119.431 110.471 119.431C110.177 119.431 109.939 119.477 109.756 119.568C109.577 119.656 109.446 119.768 109.362 119.906C109.282 120.043 109.242 120.188 109.242 120.34C109.242 120.454 109.261 120.557 109.299 120.649C109.341 120.736 109.413 120.818 109.516 120.894C109.619 120.967 109.764 121.035 109.95 121.1C110.137 121.165 110.375 121.23 110.665 121.294C111.172 121.409 111.589 121.546 111.916 121.706C112.244 121.866 112.488 122.062 112.648 122.294C112.808 122.527 112.888 122.809 112.888 123.14C112.888 123.411 112.831 123.658 112.716 123.883C112.606 124.108 112.444 124.302 112.231 124.466C112.021 124.626 111.77 124.752 111.476 124.843C111.187 124.931 110.861 124.975 110.499 124.975C109.954 124.975 109.493 124.877 109.116 124.683C108.739 124.489 108.453 124.237 108.259 123.929C108.065 123.62 107.967 123.294 107.967 122.952H109.03C109.046 123.241 109.129 123.472 109.282 123.643C109.434 123.811 109.621 123.931 109.842 124.003C110.063 124.072 110.282 124.106 110.499 124.106C110.789 124.106 111.031 124.068 111.225 123.992C111.423 123.916 111.573 123.811 111.676 123.677C111.779 123.544 111.831 123.392 111.831 123.22ZM114.294 124.3C114.294 124.121 114.349 123.971 114.459 123.849C114.574 123.723 114.738 123.66 114.951 123.66C115.164 123.66 115.326 123.723 115.437 123.849C115.551 123.971 115.608 124.121 115.608 124.3C115.608 124.476 115.551 124.624 115.437 124.746C115.326 124.868 115.164 124.929 114.951 124.929C114.738 124.929 114.574 124.868 114.459 124.746C114.349 124.624 114.294 124.476 114.294 124.3Z" fill="#716F70"/>
<path d="M76.1017 82.0824V90.8604H74.7301V82.0824H76.1017ZM75.8617 87.5401L75.4159 87.5343C75.4197 87.1076 75.4788 86.7133 75.5931 86.3514C75.7112 85.9894 75.875 85.6751 76.0846 85.4084C76.2979 85.1379 76.5532 84.9303 76.8503 84.7855C77.1475 84.6369 77.4771 84.5626 77.839 84.5626C78.1438 84.5626 78.4181 84.6046 78.6619 84.6884C78.9096 84.7722 79.1229 84.9074 79.302 85.0941C79.4811 85.277 79.6163 85.517 79.7077 85.8142C79.803 86.1075 79.8506 86.4657 79.8506 86.8886V90.8604H78.4676V86.8771C78.4676 86.58 78.4238 86.3438 78.3362 86.1685C78.2524 85.9932 78.1286 85.8675 77.9647 85.7913C77.8009 85.7113 77.6009 85.6713 77.3647 85.6713C77.117 85.6713 76.898 85.7208 76.7075 85.8199C76.5208 85.919 76.3646 86.0542 76.2389 86.2256C76.1131 86.3971 76.0179 86.5952 75.9531 86.82C75.8922 87.0448 75.8617 87.2848 75.8617 87.5401ZM83.971 90.9746C83.5138 90.9746 83.1004 90.9004 82.7309 90.7518C82.3651 90.5994 82.0527 90.3879 81.7936 90.1174C81.5384 89.8469 81.3422 89.5288 81.205 89.1631C81.0679 88.7973 80.9993 88.403 80.9993 87.9801V87.7515C80.9993 87.2676 81.0698 86.8295 81.2107 86.4371C81.3517 86.0447 81.5479 85.7094 81.7994 85.4313C82.0508 85.1494 82.348 84.9341 82.6909 84.7855C83.0338 84.6369 83.4052 84.5626 83.8053 84.5626C84.2472 84.5626 84.6339 84.6369 84.9654 84.7855C85.2968 84.9341 85.5711 85.1436 85.7883 85.4141C86.0093 85.6808 86.1731 85.999 86.2798 86.3685C86.3902 86.7381 86.4455 87.1457 86.4455 87.5915V88.1801H81.6679V87.1914H85.0854V87.0829C85.0777 86.8352 85.0282 86.6028 84.9368 86.3857C84.8492 86.1685 84.7139 85.9932 84.531 85.8599C84.3482 85.7266 84.1043 85.6599 83.7995 85.6599C83.5709 85.6599 83.3671 85.7094 83.1881 85.8085C83.0128 85.9037 82.8661 86.0428 82.748 86.2256C82.6299 86.4085 82.5385 86.6295 82.4737 86.8886C82.4127 87.1438 82.3823 87.4315 82.3823 87.7515V87.9801C82.3823 88.2506 82.4185 88.502 82.4908 88.7344C82.567 88.963 82.6775 89.1631 82.8223 89.3345C82.9671 89.5059 83.1423 89.6412 83.3481 89.7403C83.5538 89.8355 83.7881 89.8831 84.051 89.8831C84.3824 89.8831 84.6777 89.8164 84.9368 89.6831C85.1959 89.5498 85.4206 89.3612 85.6111 89.1173L86.3369 89.8203C86.2036 90.0146 86.0302 90.2012 85.8169 90.3803C85.6035 90.5556 85.3425 90.6984 85.0339 90.8089C84.7291 90.9194 84.3748 90.9746 83.971 90.9746ZM91.0059 89.6202V86.6714C91.0059 86.4504 90.9659 86.2599 90.8859 86.0999C90.8059 85.9399 90.684 85.8161 90.5201 85.7285C90.3601 85.6408 90.1582 85.597 89.9144 85.597C89.6896 85.597 89.4953 85.6351 89.3315 85.7113C89.1676 85.7875 89.04 85.8904 88.9486 86.0199C88.8571 86.1495 88.8114 86.2961 88.8114 86.46H87.4399C87.4399 86.2161 87.4989 85.9799 87.617 85.7513C87.7351 85.5227 87.9066 85.3189 88.1314 85.1398C88.3561 84.9608 88.6247 84.8198 88.9371 84.7169C89.2496 84.6141 89.6001 84.5626 89.9887 84.5626C90.4535 84.5626 90.8649 84.6407 91.2231 84.7969C91.585 84.9532 91.8688 85.1894 92.0746 85.5056C92.2841 85.818 92.3889 86.2104 92.3889 86.6828V89.4317C92.3889 89.7136 92.4079 89.9669 92.446 90.1917C92.4879 90.4127 92.547 90.6051 92.6232 90.7689V90.8604H91.2116C91.1469 90.7118 91.0954 90.5232 91.0573 90.2946C91.023 90.0622 91.0059 89.8374 91.0059 89.6202ZM91.2059 87.1L91.2173 87.9515H90.2287C89.9734 87.9515 89.7486 87.9763 89.5543 88.0258C89.36 88.0715 89.1981 88.1401 89.0686 88.2315C88.939 88.323 88.8419 88.4335 88.7771 88.563C88.7124 88.6925 88.68 88.8392 88.68 89.003C88.68 89.1669 88.7181 89.3174 88.7943 89.4545C88.8705 89.5879 88.981 89.6926 89.1257 89.7688C89.2743 89.845 89.4534 89.8831 89.6629 89.8831C89.9449 89.8831 90.1906 89.826 90.4001 89.7117C90.6135 89.5936 90.7811 89.4507 90.903 89.2831C91.025 89.1116 91.0897 88.9497 91.0973 88.7973L91.5431 89.4088C91.4974 89.565 91.4193 89.7326 91.3088 89.9117C91.1983 90.0908 91.0535 90.2622 90.8745 90.426C90.6992 90.586 90.4878 90.7175 90.2401 90.8203C89.9963 90.9232 89.7144 90.9746 89.3943 90.9746C88.9905 90.9746 88.6304 90.8946 88.3142 90.7346C87.998 90.5708 87.7504 90.3517 87.5713 90.0774C87.3922 89.7993 87.3027 89.485 87.3027 89.1345C87.3027 88.8068 87.3637 88.5173 87.4856 88.2658C87.6113 88.0106 87.7942 87.7972 88.0342 87.6258C88.278 87.4543 88.5752 87.3248 88.9257 87.2372C89.2762 87.1457 89.6763 87.1 90.1258 87.1H91.2059ZM95.3034 82.0824V90.8604H93.9204V82.0824H95.3034ZM101.104 85.9342V90.8604H99.7267V84.6769H101.024L101.104 85.9342ZM100.881 87.5401L100.412 87.5343C100.412 87.1076 100.466 86.7133 100.572 86.3514C100.679 85.9894 100.835 85.6751 101.041 85.4084C101.247 85.1379 101.502 84.9303 101.807 84.7855C102.115 84.6369 102.472 84.5626 102.876 84.5626C103.157 84.5626 103.415 84.6046 103.647 84.6884C103.883 84.7684 104.087 84.896 104.259 85.0713C104.434 85.2465 104.567 85.4713 104.659 85.7456C104.754 86.0199 104.801 86.3514 104.801 86.74V90.8604H103.424V86.86C103.424 86.559 103.378 86.3228 103.287 86.1514C103.199 85.9799 103.072 85.858 102.904 85.7856C102.74 85.7094 102.544 85.6713 102.315 85.6713C102.056 85.6713 101.835 85.7208 101.653 85.8199C101.474 85.919 101.327 86.0542 101.213 86.2256C101.098 86.3971 101.014 86.5952 100.961 86.82C100.908 87.0448 100.881 87.2848 100.881 87.5401ZM104.716 87.1743L104.07 87.3172C104.07 86.9438 104.121 86.5914 104.224 86.2599C104.331 85.9247 104.485 85.6313 104.687 85.3799C104.893 85.1246 105.146 84.9246 105.447 84.7798C105.748 84.635 106.093 84.5626 106.482 84.5626C106.798 84.5626 107.08 84.6065 107.327 84.6941C107.579 84.7779 107.792 84.9112 107.967 85.0941C108.143 85.277 108.276 85.5151 108.367 85.8085C108.459 86.098 108.505 86.4485 108.505 86.86V90.8604H107.122V86.8543C107.122 86.5419 107.076 86.2999 106.984 86.1285C106.897 85.9571 106.771 85.8389 106.607 85.7742C106.443 85.7056 106.247 85.6713 106.019 85.6713C105.805 85.6713 105.617 85.7113 105.453 85.7913C105.293 85.8675 105.158 85.9761 105.047 86.1171C104.937 86.2542 104.853 86.4123 104.796 86.5914C104.742 86.7705 104.716 86.9648 104.716 87.1743ZM111.396 84.6769V90.8604H110.013V84.6769H111.396ZM109.922 83.0539C109.922 82.8444 109.99 82.671 110.128 82.5339C110.269 82.3929 110.463 82.3224 110.711 82.3224C110.954 82.3224 111.147 82.3929 111.288 82.5339C111.429 82.671 111.499 82.8444 111.499 83.0539C111.499 83.2597 111.429 83.4311 111.288 83.5683C111.147 83.7054 110.954 83.774 110.711 83.774C110.463 83.774 110.269 83.7054 110.128 83.5683C109.99 83.4311 109.922 83.2597 109.922 83.0539ZM114.271 85.9971V90.8604H112.894V84.6769H114.191L114.271 85.9971ZM114.025 87.5401L113.579 87.5343C113.583 87.0962 113.644 86.6943 113.762 86.3285C113.884 85.9628 114.052 85.6485 114.265 85.3856C114.482 85.1227 114.741 84.9208 115.042 84.7798C115.343 84.635 115.679 84.5626 116.048 84.5626C116.345 84.5626 116.614 84.6046 116.854 84.6884C117.098 84.7684 117.305 84.8998 117.477 85.0827C117.652 85.2656 117.785 85.5037 117.877 85.797C117.968 86.0866 118.014 86.4428 118.014 86.8657V90.8604H116.631V86.86C116.631 86.5628 116.587 86.3285 116.5 86.1571C116.416 85.9818 116.292 85.858 116.128 85.7856C115.968 85.7094 115.768 85.6713 115.528 85.6713C115.292 85.6713 115.08 85.7208 114.894 85.8199C114.707 85.919 114.549 86.0542 114.419 86.2256C114.294 86.3971 114.197 86.5952 114.128 86.82C114.059 87.0448 114.025 87.2848 114.025 87.5401ZM119.157 87.8372V87.7058C119.157 87.26 119.222 86.8467 119.351 86.4657C119.481 86.0809 119.668 85.7475 119.911 85.4656C120.159 85.1798 120.46 84.9589 120.814 84.8027C121.172 84.6426 121.576 84.5626 122.026 84.5626C122.479 84.5626 122.883 84.6426 123.237 84.8027C123.595 84.9589 123.898 85.1798 124.146 85.4656C124.394 85.7475 124.582 86.0809 124.712 86.4657C124.841 86.8467 124.906 87.26 124.906 87.7058V87.8372C124.906 88.283 124.841 88.6963 124.712 89.0773C124.582 89.4583 124.394 89.7917 124.146 90.0774C123.898 90.3594 123.597 90.5803 123.243 90.7403C122.889 90.8965 122.487 90.9746 122.037 90.9746C121.584 90.9746 121.178 90.8965 120.82 90.7403C120.466 90.5803 120.165 90.3594 119.917 90.0774C119.669 89.7917 119.481 89.4583 119.351 89.0773C119.222 88.6963 119.157 88.283 119.157 87.8372ZM120.534 87.7058V87.8372C120.534 88.1153 120.563 88.3782 120.62 88.6259C120.677 88.8735 120.767 89.0907 120.889 89.2774C121.011 89.464 121.167 89.6107 121.357 89.7174C121.548 89.8241 121.774 89.8774 122.037 89.8774C122.293 89.8774 122.513 89.8241 122.7 89.7174C122.891 89.6107 123.047 89.464 123.169 89.2774C123.291 89.0907 123.38 88.8735 123.437 88.6259C123.498 88.3782 123.529 88.1153 123.529 87.8372V87.7058C123.529 87.4315 123.498 87.1724 123.437 86.9286C123.38 86.6809 123.289 86.4619 123.163 86.2714C123.041 86.0809 122.885 85.9323 122.694 85.8256C122.508 85.7151 122.285 85.6599 122.026 85.6599C121.767 85.6599 121.542 85.7151 121.351 85.8256C121.165 85.9323 121.011 86.0809 120.889 86.2714C120.767 86.4619 120.677 86.6809 120.62 86.9286C120.563 87.1724 120.534 87.4315 120.534 87.7058ZM127.443 85.8542V90.8604H126.066V84.6769H127.381L127.443 85.8542ZM129.335 84.6369L129.324 85.917C129.24 85.9018 129.148 85.8904 129.049 85.8828C128.954 85.8751 128.859 85.8713 128.764 85.8713C128.527 85.8713 128.32 85.9056 128.141 85.9742C127.962 86.039 127.811 86.1342 127.689 86.2599C127.571 86.3819 127.48 86.5304 127.415 86.7057C127.35 86.8809 127.312 87.0772 127.301 87.2943L126.986 87.3172C126.986 86.9286 127.024 86.5685 127.101 86.2371C127.177 85.9056 127.291 85.6142 127.443 85.3627C127.6 85.1113 127.794 84.9151 128.026 84.7741C128.263 84.6331 128.535 84.5626 128.844 84.5626C128.927 84.5626 129.017 84.5703 129.112 84.5855C129.211 84.6007 129.286 84.6179 129.335 84.6369ZM38.7841 106.489L40.2128 101.677H41.0928L40.8528 103.117L39.4127 107.86H38.624L38.7841 106.489ZM37.944 101.677L39.0584 106.512L39.1498 107.86H38.2697L36.5953 101.677H37.944ZM42.4301 106.455L43.5102 101.677H44.8532L43.1845 107.86H42.3044L42.4301 106.455ZM41.2414 101.677L42.653 106.432L42.8301 107.86H42.0415L40.5842 103.111L40.3442 101.677H41.2414ZM45.5275 104.837V104.706C45.5275 104.26 45.5923 103.847 45.7218 103.466C45.8514 103.081 46.038 102.748 46.2819 102.466C46.5295 102.18 46.8305 101.959 47.1848 101.803C47.5429 101.643 47.9468 101.563 48.3963 101.563C48.8497 101.563 49.2536 101.643 49.6079 101.803C49.966 101.959 50.2689 102.18 50.5165 102.466C50.7642 102.748 50.9528 103.081 51.0823 103.466C51.2118 103.847 51.2766 104.26 51.2766 104.706V104.837C51.2766 105.283 51.2118 105.696 51.0823 106.077C50.9528 106.458 50.7642 106.792 50.5165 107.077C50.2689 107.359 49.9679 107.58 49.6136 107.74C49.2593 107.897 48.8573 107.975 48.4078 107.975C47.9544 107.975 47.5487 107.897 47.1905 107.74C46.8362 107.58 46.5352 107.359 46.2876 107.077C46.0399 106.792 45.8514 106.458 45.7218 106.077C45.5923 105.696 45.5275 105.283 45.5275 104.837ZM46.9048 104.706V104.837C46.9048 105.115 46.9334 105.378 46.9905 105.626C47.0477 105.874 47.1372 106.091 47.2591 106.277C47.381 106.464 47.5372 106.611 47.7277 106.717C47.9182 106.824 48.1449 106.877 48.4078 106.877C48.663 106.877 48.884 106.824 49.0707 106.717C49.2612 106.611 49.4174 106.464 49.5393 106.277C49.6612 106.091 49.7508 105.874 49.8079 105.626C49.8689 105.378 49.8993 105.115 49.8993 104.837V104.706C49.8993 104.431 49.8689 104.172 49.8079 103.929C49.7508 103.681 49.6593 103.462 49.5336 103.271C49.4117 103.081 49.2555 102.932 49.065 102.826C48.8783 102.715 48.6554 102.66 48.3963 102.66C48.1373 102.66 47.9125 102.715 47.722 102.826C47.5353 102.932 47.381 103.081 47.2591 103.271C47.1372 103.462 47.0477 103.681 46.9905 103.929C46.9334 104.172 46.9048 104.431 46.9048 104.706ZM56.1513 106.403V101.677H57.5343V107.86H56.2313L56.1513 106.403ZM56.3456 105.117L56.8085 105.106C56.8085 105.521 56.7628 105.904 56.6714 106.254C56.5799 106.601 56.439 106.904 56.2485 107.163C56.058 107.418 55.8142 107.618 55.517 107.763C55.2198 107.904 54.8636 107.975 54.4483 107.975C54.1473 107.975 53.8711 107.931 53.6197 107.843C53.3682 107.756 53.1511 107.62 52.9682 107.437C52.7891 107.255 52.6501 107.016 52.551 106.723C52.452 106.43 52.4024 106.079 52.4024 105.672V101.677H53.7797V105.683C53.7797 105.908 53.8064 106.096 53.8597 106.249C53.913 106.397 53.9854 106.517 54.0769 106.609C54.1683 106.7 54.275 106.765 54.3969 106.803C54.5188 106.841 54.6483 106.86 54.7855 106.86C55.1779 106.86 55.4865 106.784 55.7113 106.632C55.9399 106.475 56.1018 106.266 56.1971 106.003C56.2961 105.74 56.3456 105.445 56.3456 105.117ZM60.3117 102.997V107.86H58.9344V101.677H60.2317L60.3117 102.997ZM60.066 104.54L59.6202 104.534C59.624 104.096 59.685 103.694 59.8031 103.329C59.925 102.963 60.0926 102.648 60.306 102.386C60.5232 102.123 60.7822 101.921 61.0832 101.78C61.3842 101.635 61.7195 101.563 62.089 101.563C62.3862 101.563 62.6548 101.605 62.8948 101.688C63.1386 101.768 63.3463 101.9 63.5177 102.083C63.693 102.266 63.8263 102.504 63.9177 102.797C64.0092 103.087 64.0549 103.443 64.0549 103.866V107.86H62.6719V103.86C62.6719 103.563 62.6281 103.329 62.5405 103.157C62.4567 102.982 62.3328 102.858 62.169 102.786C62.009 102.709 61.809 102.671 61.569 102.671C61.3328 102.671 61.1213 102.721 60.9346 102.82C60.7479 102.919 60.5898 103.054 60.4603 103.226C60.3346 103.397 60.2374 103.595 60.1688 103.82C60.1003 104.045 60.066 104.285 60.066 104.54ZM69.2325 106.58V99.0824H70.6155V107.86H69.3639L69.2325 106.58ZM65.2093 104.837V104.717C65.2093 104.249 65.2645 103.822 65.375 103.437C65.4855 103.048 65.6455 102.715 65.8551 102.437C66.0646 102.155 66.3199 101.94 66.6208 101.791C66.9218 101.639 67.2609 101.563 67.6381 101.563C68.0114 101.563 68.3391 101.635 68.621 101.78C68.903 101.925 69.143 102.132 69.3411 102.403C69.5392 102.669 69.6973 102.989 69.8154 103.363C69.9335 103.732 70.0173 104.144 70.0669 104.597V104.98C70.0173 105.422 69.9335 105.826 69.8154 106.192C69.6973 106.557 69.5392 106.874 69.3411 107.14C69.143 107.407 68.9011 107.613 68.6153 107.757C68.3334 107.902 68.0038 107.975 67.6267 107.975C67.2533 107.975 66.9161 107.897 66.6151 107.74C66.318 107.584 66.0646 107.365 65.8551 107.083C65.6455 106.801 65.4855 106.47 65.375 106.089C65.2645 105.704 65.2093 105.287 65.2093 104.837ZM66.5866 104.717V104.837C66.5866 105.119 66.6113 105.382 66.6608 105.626C66.7142 105.87 66.7961 106.085 66.9066 106.272C67.0171 106.455 67.1599 106.599 67.3352 106.706C67.5143 106.809 67.7276 106.86 67.9753 106.86C68.2877 106.86 68.5448 106.792 68.7468 106.655C68.9487 106.517 69.1068 106.333 69.2211 106.1C69.3392 105.864 69.4192 105.601 69.4611 105.312V104.277C69.4382 104.052 69.3906 103.843 69.3182 103.649C69.2497 103.454 69.1563 103.285 69.0382 103.14C68.9201 102.991 68.7734 102.877 68.5982 102.797C68.4267 102.713 68.2229 102.671 67.9867 102.671C67.7352 102.671 67.5219 102.725 67.3466 102.831C67.1714 102.938 67.0266 103.085 66.9123 103.271C66.8018 103.458 66.7199 103.675 66.6666 103.923C66.6132 104.17 66.5866 104.435 66.5866 104.717ZM75.5245 106.186C75.5245 106.049 75.4902 105.925 75.4216 105.814C75.3531 105.7 75.2216 105.597 75.0273 105.506C74.8368 105.414 74.5549 105.331 74.1815 105.254C73.8539 105.182 73.5529 105.096 73.2786 104.997C73.0081 104.894 72.7757 104.771 72.5814 104.626C72.3871 104.481 72.2366 104.31 72.1299 104.111C72.0232 103.913 71.9699 103.685 71.9699 103.426C71.9699 103.174 72.0251 102.936 72.1356 102.711C72.2461 102.487 72.4042 102.288 72.61 102.117C72.8157 101.946 73.0652 101.81 73.3586 101.711C73.6558 101.612 73.9872 101.563 74.353 101.563C74.8711 101.563 75.315 101.65 75.6845 101.826C76.0579 101.997 76.3436 102.231 76.5417 102.528C76.7399 102.822 76.8389 103.153 76.8389 103.523H75.4616C75.4616 103.359 75.4197 103.207 75.3359 103.066C75.2559 102.921 75.134 102.805 74.9702 102.717C74.8063 102.626 74.6006 102.58 74.353 102.58C74.1168 102.58 73.9205 102.618 73.7643 102.694C73.612 102.767 73.4977 102.862 73.4215 102.98C73.3491 103.098 73.3129 103.228 73.3129 103.369C73.3129 103.471 73.3319 103.565 73.37 103.649C73.4119 103.729 73.4805 103.803 73.5758 103.871C73.671 103.936 73.8005 103.997 73.9644 104.054C74.132 104.111 74.3415 104.167 74.593 104.22C75.0654 104.319 75.4712 104.447 75.8102 104.603C76.1531 104.755 76.416 104.953 76.5989 105.197C76.7818 105.437 76.8732 105.742 76.8732 106.112C76.8732 106.386 76.8141 106.637 76.696 106.866C76.5817 107.091 76.4141 107.287 76.1931 107.455C75.9722 107.618 75.7074 107.746 75.3988 107.837C75.094 107.929 74.7511 107.975 74.3701 107.975C73.8101 107.975 73.3357 107.876 72.9471 107.677C72.5585 107.476 72.2633 107.218 72.0613 106.906C71.8632 106.59 71.7642 106.262 71.7642 105.923H73.0957C73.111 106.178 73.1814 106.382 73.3072 106.535C73.4367 106.683 73.5967 106.792 73.7872 106.86C73.9815 106.925 74.1815 106.957 74.3873 106.957C74.6349 106.957 74.8425 106.925 75.0102 106.86C75.1778 106.792 75.3054 106.7 75.3931 106.586C75.4807 106.468 75.5245 106.334 75.5245 106.186Z" fill="#EDA44A"/>
<path d="M37.0905 174.977C37.8849 173.325 37.5053 171.705 37.1398 170.141C36.822 168.779 36.5223 167.493 36.8893 166.089C37.9127 162.207 38.6076 159.942 36.266 157.6C33.9243 155.259 31.6563 155.952 27.7718 156.971C26.3653 157.339 25.0744 157.037 23.7108 156.719C22.146 156.354 20.53 155.975 18.879 156.765C18.2713 157.038 17.7195 157.421 17.2518 157.895C15.2664 159.881 15.2322 163.077 16.9842 164.829C18.7362 166.581 21.9277 168.006 23.899 169.977C25.8702 171.948 27.2625 175.108 29.0364 176.882C30.8103 178.656 33.9799 178.594 35.9653 176.609C36.4379 176.139 36.8195 175.586 37.0905 174.977Z" fill="#FBE7CE"/>
<path d="M23.3975 147.071C22.9367 147.532 22.551 148.059 22.2625 148.622C21.9739 149.184 21.7881 149.772 21.7157 150.351C21.6433 150.931 21.6857 151.49 21.8405 151.997C21.9953 152.505 22.2594 152.951 22.6178 153.309C22.9761 153.667 23.4218 153.931 23.9292 154.086C24.4367 154.241 24.996 154.283 25.5752 154.211C26.1544 154.139 26.7423 153.953 27.3051 153.664C27.868 153.376 28.3948 152.99 28.8556 152.529C29.3164 152.068 29.7021 151.542 29.9906 150.979C30.2792 150.416 30.465 149.828 30.5374 149.249C30.6098 148.67 30.5674 148.11 30.4126 147.603C30.2578 147.095 29.9937 146.65 29.6353 146.291C29.277 145.933 28.8313 145.669 28.3239 145.514C27.8164 145.359 27.2571 145.317 26.6779 145.389C26.0987 145.462 25.5108 145.647 24.948 145.936C24.3851 146.225 23.8583 146.61 23.3975 147.071Z" fill="#FBE7CE"/>
<path d="M33.534 147.851C32.6034 148.781 31.9985 149.961 31.8522 151.131C31.706 152.301 32.0305 153.365 32.7543 154.089C33.4781 154.812 34.5419 155.137 35.7117 154.991C36.8815 154.844 38.0615 154.24 38.9921 153.309C39.4529 152.848 39.8386 152.321 40.1271 151.758C40.4157 151.196 40.6015 150.608 40.6739 150.029C40.8201 148.859 40.4956 147.795 39.7718 147.071C39.048 146.347 37.9842 146.023 36.8144 146.169C35.6446 146.315 34.4646 146.92 33.534 147.851Z" fill="#FBE7CE"/>
<path d="M40.5516 154.868C39.621 155.799 39.016 156.979 38.8698 158.149C38.7236 159.319 39.048 160.382 39.7718 161.106C40.4956 161.83 41.5595 162.154 42.7293 162.008C43.8991 161.862 45.0791 161.257 46.0097 160.326C46.9403 159.396 47.5452 158.216 47.6915 157.046C47.8377 155.876 47.5132 154.812 46.7894 154.089C46.0656 153.365 45.0018 153.04 43.832 153.187C42.6622 153.333 41.4822 153.938 40.5516 154.868Z" fill="#FBE7CE"/>
<path d="M41.3313 165.005C40.8705 165.466 40.4848 165.993 40.1963 166.555C39.9077 167.118 39.7219 167.706 39.6495 168.285C39.5771 168.865 39.6195 169.424 39.7743 169.931C39.9291 170.439 40.1932 170.884 40.5516 171.243C40.91 171.601 41.3556 171.865 41.863 172.02C42.3705 172.175 42.9298 172.217 43.509 172.145C44.0882 172.072 44.6761 171.887 45.2389 171.598C45.8018 171.309 46.3286 170.924 46.7894 170.463C47.2502 170.002 47.6359 169.475 47.9244 168.913C48.213 168.35 48.3988 167.762 48.4712 167.183C48.5436 166.603 48.5012 166.044 48.3464 165.537C48.1917 165.029 47.9275 164.584 47.5691 164.225C47.2108 163.867 46.7651 163.603 46.2577 163.448C45.7503 163.293 45.1909 163.251 44.6117 163.323C44.0325 163.396 43.4446 163.581 42.8818 163.87C42.3189 164.158 41.7921 164.544 41.3313 165.005Z" fill="#FBE7CE"/>
</g>
<defs>
<clipPath id="clip0_36_57">
<rect width="155" height="195" fill="white"/>
</clipPath>
</defs>
</svg>
