<svg width="156" height="195" viewBox="0 0 156 195" fill="none" xmlns="http://www.w3.org/2000/svg">
<g clip-path="url(#clip0_39_78)">
<rect x="6.10752" y="5.26676" width="145.128" height="184.922" fill="white" stroke="#FBE7CE" stroke-width="10.5335"/>
<path d="M69.0115 43.3268V44.9189H63.1629V43.3268H69.0115ZM63.723 33.2699V44.9189H61.7148V33.2699H63.723ZM75.324 42.8788V36.2622H77.2602V44.9189H75.436L75.324 42.8788ZM75.5961 41.0786L76.2441 41.0626C76.2441 41.644 76.1801 42.18 76.0521 42.6707C75.9241 43.1561 75.7267 43.5802 75.46 43.9429C75.1934 44.3002 74.852 44.5802 74.436 44.7829C74.0199 44.9803 73.5212 45.079 72.9398 45.079C72.5184 45.079 72.1317 45.0176 71.7797 44.8949C71.4277 44.7723 71.1237 44.5829 70.8676 44.3269C70.6169 44.0709 70.4223 43.7375 70.2836 43.3268C70.1449 42.9161 70.0756 42.4254 70.0756 41.8547V36.2622H72.0037V41.8707C72.0037 42.1854 72.0411 42.4494 72.1157 42.6627C72.1904 42.8708 72.2918 43.0388 72.4198 43.1668C72.5478 43.2948 72.6971 43.3855 72.8678 43.4388C73.0385 43.4922 73.2198 43.5188 73.4119 43.5188C73.9612 43.5188 74.3933 43.4121 74.708 43.1988C75.028 42.9801 75.2547 42.6867 75.388 42.3187C75.5267 41.9507 75.5961 41.5373 75.5961 41.0786ZM81.1486 38.1103V44.9189H79.2204V36.2622H81.0365L81.1486 38.1103ZM80.8045 40.2705L80.1805 40.2625C80.1858 39.6491 80.2711 39.0864 80.4365 38.5744C80.6072 38.0623 80.8419 37.6223 81.1406 37.2543C81.4446 36.8862 81.8073 36.6035 82.2287 36.4062C82.65 36.2035 83.1194 36.1022 83.6368 36.1022C84.0528 36.1022 84.4289 36.1608 84.7649 36.2782C85.1062 36.3902 85.3969 36.5742 85.637 36.8302C85.8823 37.0862 86.069 37.4196 86.197 37.8303C86.325 38.2357 86.389 38.7344 86.389 39.3264V44.9189H84.4529V39.3184C84.4529 38.9024 84.3915 38.5744 84.2688 38.3344C84.1515 38.089 83.9781 37.9156 83.7488 37.8143C83.5248 37.7076 83.2447 37.6543 82.9087 37.6543C82.578 37.6543 82.282 37.7236 82.0206 37.8623C81.7593 38.001 81.5379 38.1903 81.3566 38.4304C81.1806 38.6704 81.0445 38.9477 80.9485 39.2624C80.8525 39.5771 80.8045 39.9132 80.8045 40.2705ZM93.2376 43.1828V39.0544C93.2376 38.7451 93.1816 38.4784 93.0696 38.2543C92.9576 38.0303 92.7869 37.857 92.5576 37.7343C92.3336 37.6116 92.0509 37.5503 91.7095 37.5503C91.3948 37.5503 91.1228 37.6036 90.8934 37.7103C90.6641 37.817 90.4854 37.961 90.3574 38.1423C90.2294 38.3237 90.1654 38.529 90.1654 38.7584H88.2452C88.2452 38.417 88.3279 38.0863 88.4932 37.7663C88.6586 37.4463 88.8986 37.1609 89.2133 36.9102C89.528 36.6595 89.904 36.4622 90.3414 36.3182C90.7788 36.1742 91.2695 36.1022 91.8135 36.1022C92.4642 36.1022 93.0403 36.2115 93.5417 36.4302C94.0484 36.6489 94.4458 36.9796 94.7338 37.4223C95.0271 37.8596 95.1738 38.409 95.1738 39.0704V42.9188C95.1738 43.3135 95.2005 43.6682 95.2538 43.9829C95.3125 44.2922 95.3952 44.5616 95.5018 44.7909V44.9189H93.5257C93.435 44.7109 93.363 44.4469 93.3097 44.1269C93.2616 43.8015 93.2376 43.4868 93.2376 43.1828ZM93.5177 39.6545L93.5337 40.8466H92.1495C91.7922 40.8466 91.4775 40.8812 91.2055 40.9506C90.9334 41.0146 90.7068 41.1106 90.5254 41.2386C90.3441 41.3666 90.208 41.5213 90.1174 41.7027C90.0267 41.884 89.9814 42.0894 89.9814 42.3187C89.9814 42.5481 90.0347 42.7588 90.1414 42.9508C90.248 43.1375 90.4027 43.2841 90.6054 43.3908C90.8134 43.4975 91.0641 43.5508 91.3575 43.5508C91.7522 43.5508 92.0962 43.4708 92.3896 43.3108C92.6883 43.1455 92.9229 42.9454 93.0936 42.7107C93.2643 42.4707 93.355 42.244 93.3657 42.0307L93.9897 42.8868C93.9257 43.1054 93.8164 43.3401 93.6617 43.5908C93.507 43.8415 93.3043 44.0815 93.0536 44.3109C92.8083 44.5349 92.5122 44.7189 92.1655 44.8629C91.8242 45.007 91.4295 45.079 90.9814 45.079C90.4161 45.079 89.912 44.9669 89.4693 44.7429C89.0266 44.5136 88.6799 44.2069 88.4292 43.8228C88.1785 43.4335 88.0532 42.9934 88.0532 42.5027C88.0532 42.044 88.1385 41.6386 88.3092 41.2866C88.4852 40.9293 88.7412 40.6306 89.0773 40.3905C89.4186 40.1505 89.8347 39.9692 90.3254 39.8465C90.8161 39.7185 91.3761 39.6545 92.0055 39.6545H93.5177Z" fill="#EDA54A"/>
<path d="M40.2363 66.2768L37.4818 73.8604H36.3559L39.5277 65.5396H40.2534L40.2363 66.2768ZM42.5451 73.8604L39.7848 66.2768L39.7677 65.5396H40.4935L43.6766 73.8604H42.5451ZM42.4022 70.7801V71.683H37.7275V70.7801H42.4022ZM51.5402 67.6769H52.5003V73.7289C52.5003 74.2737 52.3898 74.7385 52.1688 75.1233C51.9478 75.5081 51.6392 75.7996 51.243 75.9977C50.8506 76.1996 50.3972 76.3006 49.8829 76.3006C49.6695 76.3006 49.4181 76.2663 49.1285 76.1977C48.8428 76.1329 48.5609 76.0205 48.2827 75.8605C48.0084 75.7043 47.7779 75.4929 47.5912 75.2262L48.1456 74.5976C48.4047 74.91 48.6752 75.1271 48.9571 75.249C49.2428 75.371 49.5248 75.4319 49.8029 75.4319C50.1381 75.4319 50.4277 75.3691 50.6715 75.2433C50.9154 75.1176 51.1039 74.9309 51.2373 74.6833C51.3744 74.4395 51.443 74.1385 51.443 73.7803V69.0371L51.5402 67.6769ZM47.2826 70.8372V70.7172C47.2826 70.2448 47.3379 69.8162 47.4484 69.4314C47.5627 69.0428 47.7246 68.7094 47.9341 68.4313C48.1475 68.1532 48.4047 67.9398 48.7056 67.7912C49.0066 67.6388 49.3457 67.5626 49.7229 67.5626C50.1115 67.5626 50.4506 67.6312 50.7401 67.7684C51.0335 67.9017 51.2811 68.0979 51.483 68.357C51.6888 68.6123 51.8507 68.9209 51.9688 69.2828C52.0869 69.6447 52.1688 70.0543 52.2145 70.5115V71.0372C52.1726 71.4906 52.0907 71.8983 51.9688 72.2602C51.8507 72.6221 51.6888 72.9307 51.483 73.186C51.2811 73.4413 51.0335 73.6375 50.7401 73.7746C50.4467 73.908 50.1039 73.9746 49.7114 73.9746C49.3419 73.9746 49.0066 73.8965 48.7056 73.7403C48.4085 73.5841 48.1532 73.3651 47.9398 73.0831C47.7265 72.8012 47.5627 72.4698 47.4484 72.0888C47.3379 71.704 47.2826 71.2868 47.2826 70.8372ZM48.3399 70.7172V70.8372C48.3399 71.1458 48.3704 71.4354 48.4313 71.7059C48.4961 71.9764 48.5932 72.2145 48.7228 72.4202C48.8561 72.626 49.0257 72.7879 49.2314 72.906C49.4371 73.0203 49.6829 73.0774 49.9686 73.0774C50.3191 73.0774 50.6087 73.0031 50.8373 72.8545C51.0658 72.706 51.2468 72.5098 51.3802 72.2659C51.5173 72.0221 51.624 71.7573 51.7002 71.4716V70.0943C51.6583 69.8848 51.5935 69.6828 51.5059 69.4885C51.4221 69.2904 51.3116 69.1152 51.1744 68.9628C51.0411 68.8066 50.8754 68.6827 50.6772 68.5913C50.4791 68.4999 50.2467 68.4542 49.98 68.4542C49.6905 68.4542 49.4409 68.5151 49.2314 68.637C49.0257 68.7551 48.8561 68.919 48.7228 69.1285C48.5932 69.3342 48.4961 69.5743 48.4313 69.8486C48.3704 70.1191 48.3399 70.4086 48.3399 70.7172ZM56.6721 73.9746C56.2415 73.9746 55.851 73.9023 55.5005 73.7575C55.1538 73.6089 54.8548 73.4013 54.6033 73.1346C54.3557 72.8679 54.1652 72.5517 54.0318 72.1859C53.8985 71.8202 53.8318 71.4201 53.8318 70.9858V70.7458C53.8318 70.2429 53.9061 69.7952 54.0547 69.4028C54.2033 69.0066 54.4052 68.6713 54.6605 68.397C54.9157 68.1227 55.2053 67.9151 55.5291 67.7741C55.8529 67.6331 56.1882 67.5626 56.5349 67.5626C56.9769 67.5626 57.3578 67.6388 57.6779 67.7912C58.0017 67.9436 58.2665 68.157 58.4722 68.4313C58.678 68.7018 58.8304 69.0218 58.9294 69.3914C59.0285 69.7571 59.078 70.1572 59.078 70.5915V71.0658H54.4604V70.2029H58.0208V70.1229C58.0055 69.8486 57.9484 69.5819 57.8493 69.3228C57.7541 69.0637 57.6017 68.8504 57.3921 68.6827C57.1826 68.5151 56.8968 68.4313 56.5349 68.4313C56.2949 68.4313 56.0739 68.4827 55.872 68.5856C55.6701 68.6846 55.4967 68.8332 55.3519 69.0313C55.2072 69.2295 55.0948 69.4714 55.0148 69.7571C54.9348 70.0429 54.8948 70.3724 54.8948 70.7458V70.9858C54.8948 71.2792 54.9348 71.5554 55.0148 71.8145C55.0986 72.0697 55.2186 72.2945 55.3748 72.4888C55.5348 72.6831 55.7272 72.8355 55.952 72.946C56.1806 73.0565 56.4397 73.1117 56.7292 73.1117C57.1026 73.1117 57.4188 73.0355 57.6779 72.8831C57.9369 72.7307 58.1636 72.5269 58.3579 72.2716L58.998 72.7803C58.8646 72.9822 58.6951 73.1746 58.4894 73.3574C58.2836 73.5403 58.0303 73.6889 57.7293 73.8032C57.4321 73.9175 57.0797 73.9746 56.6721 73.9746ZM61.3696 68.9971V73.8604H60.3124V67.6769H61.3125L61.3696 68.9971ZM61.1182 70.5343L60.6781 70.5172C60.682 70.0943 60.7448 69.7038 60.8667 69.3457C60.9886 68.9837 61.1601 68.6694 61.3811 68.4027C61.602 68.136 61.8649 67.9303 62.1697 67.7855C62.4783 67.6369 62.8193 67.5626 63.1927 67.5626C63.4974 67.5626 63.7718 67.6046 64.0156 67.6884C64.2594 67.7684 64.4671 67.8979 64.6385 68.077C64.8138 68.256 64.9471 68.4884 65.0385 68.7742C65.13 69.0561 65.1757 69.4009 65.1757 69.8086V73.8604H64.1127V69.7971C64.1127 69.4733 64.0651 69.2142 63.9699 69.0199C63.8746 68.8218 63.7356 68.6789 63.5527 68.5913C63.3698 68.4999 63.145 68.4542 62.8783 68.4542C62.6155 68.4542 62.3754 68.5094 62.1583 68.6199C61.9449 68.7304 61.7601 68.8828 61.6039 69.0771C61.4515 69.2714 61.3315 69.4942 61.2439 69.7457C61.1601 69.9933 61.1182 70.2562 61.1182 70.5343ZM69.3703 67.6769V68.4884H66.0272V67.6769H69.3703ZM67.1587 66.1739H68.216V72.3288C68.216 72.5383 68.2483 72.6964 68.3131 72.8031C68.3779 72.9098 68.4617 72.9803 68.5646 73.0146C68.6674 73.0488 68.7779 73.066 68.896 73.066C68.9836 73.066 69.0751 73.0584 69.1703 73.0431C69.2694 73.0241 69.3437 73.0088 69.3932 72.9974L69.3989 73.8604C69.3151 73.887 69.2046 73.9118 69.0675 73.9346C68.9341 73.9613 68.7722 73.9746 68.5817 73.9746C68.3226 73.9746 68.0845 73.9232 67.8674 73.8203C67.6502 73.7175 67.4768 73.546 67.3473 73.306C67.2216 73.0622 67.1587 72.7345 67.1587 72.3231V66.1739ZM71.7591 65.0824V73.8604H70.6962V65.0824H71.7591ZM76.0224 73.9746C75.5919 73.9746 75.2014 73.9023 74.8508 73.7575C74.5041 73.6089 74.2051 73.4013 73.9536 73.1346C73.706 72.8679 73.5155 72.5517 73.3821 72.1859C73.2488 71.8202 73.1821 71.4201 73.1821 70.9858V70.7458C73.1821 70.2429 73.2564 69.7952 73.405 69.4028C73.5536 69.0066 73.7555 68.6713 74.0108 68.397C74.266 68.1227 74.5556 67.9151 74.8794 67.7741C75.2033 67.6331 75.5385 67.5626 75.8852 67.5626C76.3272 67.5626 76.7082 67.6388 77.0282 67.7912C77.352 67.9436 77.6168 68.157 77.8225 68.4313C78.0283 68.7018 78.1807 69.0218 78.2797 69.3914C78.3788 69.7571 78.4283 70.1572 78.4283 70.5915V71.0658H73.8108V70.2029H77.3711V70.1229C77.3558 69.8486 77.2987 69.5819 77.1996 69.3228C77.1044 69.0637 76.952 68.8504 76.7424 68.6827C76.5329 68.5151 76.2472 68.4313 75.8852 68.4313C75.6452 68.4313 75.4242 68.4827 75.2223 68.5856C75.0204 68.6846 74.847 68.8332 74.7023 69.0313C74.5575 69.2295 74.4451 69.4714 74.3651 69.7571C74.2851 70.0429 74.2451 70.3724 74.2451 70.7458V70.9858C74.2451 71.2792 74.2851 71.5554 74.3651 71.8145C74.4489 72.0697 74.5689 72.2945 74.7251 72.4888C74.8851 72.6831 75.0775 72.8355 75.3023 72.946C75.5309 73.0565 75.79 73.1117 76.0795 73.1117C76.4529 73.1117 76.7691 73.0355 77.0282 72.8831C77.2873 72.7307 77.5139 72.5269 77.7082 72.2716L78.3483 72.7803C78.215 72.9822 78.0454 73.1746 77.8397 73.3574C77.634 73.5403 77.3806 73.6889 77.0796 73.8032C76.7824 73.9175 76.43 73.9746 76.0224 73.9746ZM86.4633 72.6602V65.0824H87.5263V73.8604H86.5548L86.4633 72.6602ZM82.3029 70.8372V70.7172C82.3029 70.2448 82.3601 69.8162 82.4744 69.4314C82.5925 69.0428 82.7582 68.7094 82.9716 68.4313C83.1887 68.1532 83.4459 67.9398 83.7431 67.7912C84.0441 67.6388 84.3793 67.5626 84.7489 67.5626C85.1375 67.5626 85.4766 67.6312 85.7661 67.7684C86.0595 67.9017 86.3071 68.0979 86.509 68.357C86.7148 68.6123 86.8767 68.9209 86.9948 69.2828C87.1129 69.6447 87.1948 70.0543 87.2405 70.5115V71.0372C87.1986 71.4906 87.1167 71.8983 86.9948 72.2602C86.8767 72.6221 86.7148 72.9307 86.509 73.186C86.3071 73.4413 86.0595 73.6375 85.7661 73.7746C85.4728 73.908 85.1299 73.9746 84.7374 73.9746C84.3755 73.9746 84.0441 73.8965 83.7431 73.7403C83.4459 73.5841 83.1887 73.3651 82.9716 73.0831C82.7582 72.8012 82.5925 72.4698 82.4744 72.0888C82.3601 71.704 82.3029 71.2868 82.3029 70.8372ZM83.3659 70.7172V70.8372C83.3659 71.1458 83.3964 71.4354 83.4573 71.7059C83.5221 71.9764 83.6212 72.2145 83.7545 72.4202C83.8878 72.626 84.0574 72.7879 84.2631 72.906C84.4689 73.0203 84.7146 73.0774 85.0003 73.0774C85.3508 73.0774 85.6385 73.0031 85.8633 72.8545C86.0919 72.706 86.2747 72.5098 86.4119 72.2659C86.549 72.0221 86.6557 71.7573 86.7319 71.4716V70.0943C86.6862 69.8848 86.6195 69.6828 86.5319 69.4885C86.4481 69.2904 86.3376 69.1152 86.2004 68.9628C86.0671 68.8066 85.9014 68.6827 85.7032 68.5913C85.5089 68.4999 85.2784 68.4542 85.0118 68.4542C84.7222 68.4542 84.4727 68.5151 84.2631 68.637C84.0574 68.7551 83.8878 68.919 83.7545 69.1285C83.6212 69.3342 83.5221 69.5743 83.4573 69.8486C83.3964 70.1191 83.3659 70.4086 83.3659 70.7172ZM90.2294 68.6485V73.8604H89.1721V67.6769H90.2008L90.2294 68.6485ZM92.161 67.6426L92.1553 68.6256C92.0676 68.6065 91.9838 68.5951 91.9038 68.5913C91.8276 68.5837 91.74 68.5799 91.6409 68.5799C91.3971 68.5799 91.1818 68.618 90.9952 68.6942C90.8085 68.7704 90.6504 68.877 90.5208 69.0142C90.3913 69.1514 90.2884 69.3152 90.2122 69.5057C90.1398 69.6924 90.0922 69.8981 90.0694 70.1229L89.7722 70.2943C89.7722 69.9209 89.8084 69.5704 89.8808 69.2428C89.957 68.9151 90.0732 68.6256 90.2294 68.3741C90.3856 68.1189 90.5837 67.9208 90.8237 67.7798C91.0675 67.635 91.3571 67.5626 91.6924 67.5626C91.7686 67.5626 91.8562 67.5722 91.9552 67.5912C92.0543 67.6065 92.1229 67.6236 92.161 67.6426ZM95.5899 73.9746C95.1593 73.9746 94.7688 73.9023 94.4183 73.7575C94.0716 73.6089 93.7726 73.4013 93.5211 73.1346C93.2735 72.8679 93.083 72.5517 92.9496 72.1859C92.8163 71.8202 92.7496 71.4201 92.7496 70.9858V70.7458C92.7496 70.2429 92.8239 69.7952 92.9725 69.4028C93.1211 69.0066 93.323 68.6713 93.5782 68.397C93.8335 68.1227 94.1231 67.9151 94.4469 67.7741C94.7707 67.6331 95.106 67.5626 95.4527 67.5626C95.8946 67.5626 96.2756 67.6388 96.5957 67.7912C96.9195 67.9436 97.1843 68.157 97.39 68.4313C97.5958 68.7018 97.7481 69.0218 97.8472 69.3914C97.9463 69.7571 97.9958 70.1572 97.9958 70.5915V71.0658H93.3782V70.2029H96.9385V70.1229C96.9233 69.8486 96.8662 69.5819 96.7671 69.3228C96.6719 69.0637 96.5195 68.8504 96.3099 68.6827C96.1004 68.5151 95.8146 68.4313 95.4527 68.4313C95.2127 68.4313 94.9917 68.4827 94.7898 68.5856C94.5879 68.6846 94.4145 68.8332 94.2697 69.0313C94.125 69.2295 94.0126 69.4714 93.9326 69.7571C93.8526 70.0429 93.8126 70.3724 93.8126 70.7458V70.9858C93.8126 71.2792 93.8526 71.5554 93.9326 71.8145C94.0164 72.0697 94.1364 72.2945 94.2926 72.4888C94.4526 72.6831 94.645 72.8355 94.8698 72.946C95.0984 73.0565 95.3575 73.1117 95.647 73.1117C96.0204 73.1117 96.3366 73.0355 96.5957 72.8831C96.8547 72.7307 97.0814 72.5269 97.2757 72.2716L97.9158 72.7803C97.7824 72.9822 97.6129 73.1746 97.4072 73.3574C97.2014 73.5403 96.9481 73.6889 96.6471 73.8032C96.3499 73.9175 95.9975 73.9746 95.5899 73.9746ZM102.876 72.8031V69.62C102.876 69.3761 102.827 69.1647 102.728 68.9856C102.632 68.8028 102.488 68.6618 102.293 68.5627C102.099 68.4637 101.859 68.4141 101.573 68.4141C101.307 68.4141 101.072 68.4599 100.87 68.5513C100.672 68.6427 100.516 68.7627 100.402 68.9113C100.291 69.0599 100.236 69.2199 100.236 69.3914H99.1787C99.1787 69.1704 99.2359 68.9513 99.3502 68.7342C99.4645 68.517 99.6283 68.3208 99.8417 68.1456C100.059 67.9665 100.318 67.8255 100.619 67.7227C100.924 67.616 101.263 67.5626 101.636 67.5626C102.086 67.5626 102.482 67.6388 102.825 67.7912C103.171 67.9436 103.442 68.1741 103.636 68.4827C103.834 68.7875 103.933 69.1704 103.933 69.6314V72.5117C103.933 72.7174 103.951 72.9365 103.985 73.1689C104.023 73.4013 104.078 73.6013 104.151 73.7689V73.8604H103.048C102.994 73.7384 102.952 73.5765 102.922 73.3746C102.891 73.1689 102.876 72.9784 102.876 72.8031ZM103.059 70.1114L103.071 70.8544H102.002C101.701 70.8544 101.432 70.8791 101.196 70.9287C100.96 70.9744 100.762 71.0449 100.602 71.1401C100.442 71.2354 100.32 71.3554 100.236 71.5001C100.152 71.6411 100.11 71.8068 100.11 71.9973C100.11 72.1916 100.154 72.3688 100.242 72.5288C100.329 72.6888 100.461 72.8164 100.636 72.9117C100.815 73.0031 101.034 73.0488 101.293 73.0488C101.617 73.0488 101.903 72.9803 102.15 72.8431C102.398 72.706 102.594 72.5383 102.739 72.3402C102.888 72.1421 102.968 71.9497 102.979 71.763L103.431 72.2716C103.404 72.4317 103.332 72.6088 103.213 72.8031C103.095 72.9974 102.937 73.1841 102.739 73.3632C102.545 73.5384 102.312 73.6851 102.042 73.8032C101.775 73.9175 101.474 73.9746 101.139 73.9746C100.72 73.9746 100.352 73.8927 100.036 73.7289C99.7236 73.5651 99.4797 73.346 99.3045 73.0717C99.133 72.7936 99.0473 72.4831 99.0473 72.1402C99.0473 71.8087 99.1121 71.5173 99.2416 71.2658C99.3711 71.0106 99.5578 70.7991 99.8017 70.6315C100.045 70.46 100.339 70.3305 100.682 70.2429C101.025 70.1553 101.408 70.1114 101.83 70.1114H103.059ZM106.648 68.9056V73.8604H105.585V67.6769H106.591L106.648 68.9056ZM106.431 70.5343L105.939 70.5172C105.943 70.0943 105.998 69.7038 106.105 69.3457C106.212 68.9837 106.37 68.6694 106.579 68.4027C106.789 68.136 107.05 67.9303 107.362 67.7855C107.675 67.6369 108.037 67.5626 108.448 67.5626C108.738 67.5626 109.004 67.6046 109.248 67.6884C109.492 67.7684 109.704 67.896 109.883 68.0713C110.062 68.2465 110.201 68.4713 110.3 68.7456C110.399 69.0199 110.448 69.3514 110.448 69.74V73.8604H109.391V69.7914C109.391 69.4676 109.336 69.2085 109.225 69.0142C109.119 68.8199 108.966 68.6789 108.768 68.5913C108.57 68.4999 108.338 68.4542 108.071 68.4542C107.759 68.4542 107.498 68.5094 107.288 68.6199C107.079 68.7304 106.911 68.8828 106.785 69.0771C106.659 69.2714 106.568 69.4942 106.511 69.7457C106.457 69.9933 106.431 70.2562 106.431 70.5343ZM110.437 69.9514L109.728 70.1686C109.732 69.8295 109.787 69.5038 109.894 69.1914C110.004 68.879 110.163 68.6008 110.368 68.357C110.578 68.1132 110.835 67.9208 111.14 67.7798C111.445 67.635 111.793 67.5626 112.186 67.5626C112.517 67.5626 112.81 67.6065 113.066 67.6941C113.325 67.7817 113.542 67.917 113.717 68.0998C113.896 68.2789 114.032 68.5094 114.123 68.7913C114.214 69.0733 114.26 69.4085 114.26 69.7971V73.8604H113.197V69.7857C113.197 69.439 113.142 69.1704 113.031 68.9799C112.925 68.7856 112.772 68.6504 112.574 68.5742C112.38 68.4942 112.148 68.4542 111.877 68.4542C111.645 68.4542 111.439 68.4942 111.26 68.5742C111.081 68.6542 110.93 68.7647 110.808 68.9056C110.686 69.0428 110.593 69.2009 110.528 69.3799C110.467 69.559 110.437 69.7495 110.437 69.9514ZM118.426 73.9746C117.996 73.9746 117.605 73.9023 117.255 73.7575C116.908 73.6089 116.609 73.4013 116.357 73.1346C116.11 72.8679 115.919 72.5517 115.786 72.1859C115.653 71.8202 115.586 71.4201 115.586 70.9858V70.7458C115.586 70.2429 115.66 69.7952 115.809 69.4028C115.957 69.0066 116.159 68.6713 116.415 68.397C116.67 68.1227 116.959 67.9151 117.283 67.7741C117.607 67.6331 117.942 67.5626 118.289 67.5626C118.731 67.5626 119.112 67.6388 119.432 67.7912C119.756 67.9436 120.021 68.157 120.226 68.4313C120.432 68.7018 120.584 69.0218 120.684 69.3914C120.783 69.7571 120.832 70.1572 120.832 70.5915V71.0658H116.215V70.2029H119.775V70.1229C119.76 69.8486 119.703 69.5819 119.603 69.3228C119.508 69.0637 119.356 68.8504 119.146 68.6827C118.937 68.5151 118.651 68.4313 118.289 68.4313C118.049 68.4313 117.828 68.4827 117.626 68.5856C117.424 68.6846 117.251 68.8332 117.106 69.0313C116.961 69.2295 116.849 69.4714 116.769 69.7571C116.689 70.0429 116.649 70.3724 116.649 70.7458V70.9858C116.649 71.2792 116.689 71.5554 116.769 71.8145C116.853 72.0697 116.973 72.2945 117.129 72.4888C117.289 72.6831 117.481 72.8355 117.706 72.946C117.935 73.0565 118.194 73.1117 118.483 73.1117C118.857 73.1117 119.173 73.0355 119.432 72.8831C119.691 72.7307 119.918 72.5269 120.112 72.2716L120.752 72.7803C120.619 72.9822 120.449 73.1746 120.244 73.3574C120.038 73.5403 119.784 73.6889 119.483 73.8032C119.186 73.9175 118.834 73.9746 118.426 73.9746ZM123.124 68.6485V73.8604H122.067V67.6769H123.095L123.124 68.6485ZM125.055 67.6426L125.05 68.6256C124.962 68.6065 124.878 68.5951 124.798 68.5913C124.722 68.5837 124.634 68.5799 124.535 68.5799C124.291 68.5799 124.076 68.618 123.89 68.6942C123.703 68.7704 123.545 68.877 123.415 69.0142C123.286 69.1514 123.183 69.3152 123.107 69.5057C123.034 69.6924 122.987 69.8981 122.964 70.1229L122.667 70.2943C122.667 69.9209 122.703 69.5704 122.775 69.2428C122.851 68.9151 122.968 68.6256 123.124 68.3741C123.28 68.1189 123.478 67.9208 123.718 67.7798C123.962 67.635 124.251 67.5626 124.587 67.5626C124.663 67.5626 124.751 67.5722 124.85 67.5912C124.949 67.6065 125.017 67.6236 125.055 67.6426ZM31.0126 89.7631L32.6013 84.6769H33.2985L33.1614 85.6885L31.5441 90.8604H30.864L31.0126 89.7631ZM29.9439 84.6769L31.2984 89.8203L31.3955 90.8604H30.6812L28.8867 84.6769H29.9439ZM34.8187 89.7803L36.1102 84.6769H37.1617L35.3673 90.8604H34.6587L34.8187 89.7803ZM33.4528 84.6769L35.0073 89.6774L35.1844 90.8604H34.5101L32.8471 85.677L32.7099 84.6769H33.4528ZM39.3048 82.0824V90.8604H38.2475V82.0824H39.3048ZM39.0533 87.5343L38.6133 87.5172C38.6171 87.0943 38.68 86.7038 38.8019 86.3457C38.9238 85.9837 39.0952 85.6694 39.3162 85.4027C39.5372 85.136 39.8001 84.9303 40.1049 84.7855C40.4135 84.6369 40.7544 84.5626 41.1278 84.5626C41.4326 84.5626 41.7069 84.6046 41.9507 84.6884C42.1946 84.7684 42.4022 84.8979 42.5737 85.077C42.7489 85.256 42.8823 85.4884 42.9737 85.7742C43.0651 86.0561 43.1108 86.4009 43.1108 86.8086V90.8604H42.0479V86.7971C42.0479 86.4733 42.0003 86.2142 41.905 86.0199C41.8098 85.8218 41.6707 85.6789 41.4878 85.5913C41.305 85.4999 41.0802 85.4542 40.8135 85.4542C40.5506 85.4542 40.3106 85.5094 40.0934 85.6199C39.8801 85.7304 39.6953 85.8828 39.5391 86.0771C39.3867 86.2714 39.2667 86.4942 39.1791 86.7457C39.0952 86.9933 39.0533 87.2562 39.0533 87.5343ZM44.4138 87.8372V87.7058C44.4138 87.26 44.4786 86.8467 44.6081 86.4657C44.7377 86.0809 44.9243 85.7475 45.1682 85.4656C45.412 85.1798 45.7073 84.9589 46.054 84.8027C46.4007 84.6426 46.7893 84.5626 47.2198 84.5626C47.6541 84.5626 48.0446 84.6426 48.3913 84.8027C48.7418 84.9589 49.039 85.1798 49.2828 85.4656C49.5305 85.7475 49.7191 86.0809 49.8486 86.4657C49.9781 86.8467 50.0429 87.26 50.0429 87.7058V87.8372C50.0429 88.283 49.9781 88.6963 49.8486 89.0773C49.7191 89.4583 49.5305 89.7917 49.2828 90.0774C49.039 90.3594 48.7437 90.5803 48.397 90.7403C48.0541 90.8965 47.6655 90.9746 47.2312 90.9746C46.7969 90.9746 46.4064 90.8965 46.0597 90.7403C45.713 90.5803 45.4158 90.3594 45.1682 90.0774C44.9243 89.7917 44.7377 89.4583 44.6081 89.0773C44.4786 88.6963 44.4138 88.283 44.4138 87.8372ZM45.4711 87.7058V87.8372C45.4711 88.1458 45.5072 88.4373 45.5796 88.7116C45.652 88.9821 45.7606 89.2221 45.9054 89.4317C46.054 89.6412 46.2387 89.8069 46.4597 89.9288C46.6807 90.0469 46.9379 90.106 47.2312 90.106C47.5208 90.106 47.7741 90.0469 47.9913 89.9288C48.2123 89.8069 48.3951 89.6412 48.5399 89.4317C48.6847 89.2221 48.7933 88.9821 48.8656 88.7116C48.9418 88.4373 48.9799 88.1458 48.9799 87.8372V87.7058C48.9799 87.401 48.9418 87.1133 48.8656 86.8428C48.7933 86.5685 48.6828 86.3266 48.5342 86.1171C48.3894 85.9037 48.2065 85.7361 47.9856 85.6142C47.7684 85.4922 47.5131 85.4313 47.2198 85.4313C46.9302 85.4313 46.675 85.4922 46.454 85.6142C46.2368 85.7361 46.054 85.9037 45.9054 86.1171C45.7606 86.3266 45.652 86.5685 45.5796 86.8428C45.5072 87.1133 45.4711 87.401 45.4711 87.7058ZM65.2043 106.763L66.793 101.677H67.4902L67.353 102.688L65.7357 107.86H65.0557L65.2043 106.763ZM64.1356 101.677L65.49 106.82L65.5872 107.86H64.8728L63.0784 101.677H64.1356ZM69.0103 106.78L70.3019 101.677H71.3534L69.5589 107.86H68.8503L69.0103 106.78ZM67.6445 101.677L69.1989 106.677L69.3761 107.86H68.7017L67.0387 102.677L66.9016 101.677H67.6445ZM73.4964 99.0824V107.86H72.4392V99.0824H73.4964ZM73.245 104.534L72.8049 104.517C72.8088 104.094 72.8716 103.704 72.9935 103.346C73.1154 102.984 73.2869 102.669 73.5079 102.403C73.7288 102.136 73.9917 101.93 74.2965 101.786C74.6051 101.637 74.9461 101.563 75.3195 101.563C75.6242 101.563 75.8986 101.605 76.1424 101.688C76.3862 101.768 76.5939 101.898 76.7653 102.077C76.9406 102.256 77.0739 102.488 77.1653 102.774C77.2568 103.056 77.3025 103.401 77.3025 103.809V107.86H76.2395V103.797C76.2395 103.473 76.1919 103.214 76.0967 103.02C76.0014 102.822 75.8624 102.679 75.6795 102.591C75.4966 102.5 75.2718 102.454 75.0051 102.454C74.7423 102.454 74.5022 102.509 74.2851 102.62C74.0717 102.73 73.8869 102.883 73.7307 103.077C73.5783 103.271 73.4583 103.494 73.3707 103.746C73.2869 103.993 73.245 104.256 73.245 104.534ZM81.4514 107.975C81.0209 107.975 80.6304 107.902 80.2799 107.757C79.9332 107.609 79.6341 107.401 79.3827 107.135C79.135 106.868 78.9445 106.552 78.8112 106.186C78.6779 105.82 78.6112 105.42 78.6112 104.986V104.746C78.6112 104.243 78.6855 103.795 78.8341 103.403C78.9826 103.007 79.1846 102.671 79.4398 102.397C79.6951 102.123 79.9846 101.915 80.3085 101.774C80.6323 101.633 80.9676 101.563 81.3143 101.563C81.7562 101.563 82.1372 101.639 82.4572 101.791C82.7811 101.944 83.0459 102.157 83.2516 102.431C83.4573 102.702 83.6097 103.022 83.7088 103.391C83.8078 103.757 83.8574 104.157 83.8574 104.591V105.066H79.2398V104.203H82.8001V104.123C82.7849 103.849 82.7277 103.582 82.6287 103.323C82.5334 103.064 82.381 102.85 82.1715 102.683C81.962 102.515 81.6762 102.431 81.3143 102.431C81.0743 102.431 80.8533 102.483 80.6514 102.586C80.4494 102.685 80.2761 102.833 80.1313 103.031C79.9865 103.229 79.8742 103.471 79.7941 103.757C79.7141 104.043 79.6741 104.372 79.6741 104.746V104.986C79.6741 105.279 79.7141 105.555 79.7941 105.814C79.878 106.07 79.998 106.294 80.1542 106.489C80.3142 106.683 80.5066 106.835 80.7314 106.946C80.96 107.056 81.219 107.112 81.5086 107.112C81.882 107.112 82.1982 107.036 82.4572 106.883C82.7163 106.731 82.943 106.527 83.1373 106.272L83.7774 106.78C83.644 106.982 83.4745 107.175 83.2687 107.357C83.063 107.54 82.8097 107.689 82.5087 107.803C82.2115 107.917 81.8591 107.975 81.4514 107.975ZM86.149 102.648V107.86H85.0918V101.677H86.1204L86.149 102.648ZM88.0806 101.643L88.0749 102.626C87.9873 102.607 87.9034 102.595 87.8234 102.591C87.7472 102.584 87.6596 102.58 87.5606 102.58C87.3167 102.58 87.1015 102.618 86.9148 102.694C86.7281 102.77 86.57 102.877 86.4405 103.014C86.3109 103.151 86.2081 103.315 86.1319 103.506C86.0595 103.692 86.0118 103.898 85.989 104.123L85.6918 104.294C85.6918 103.921 85.728 103.57 85.8004 103.243C85.8766 102.915 85.9928 102.626 86.149 102.374C86.3052 102.119 86.5033 101.921 86.7433 101.78C86.9872 101.635 87.2767 101.563 87.612 101.563C87.6882 101.563 87.7758 101.572 87.8749 101.591C87.9739 101.606 88.0425 101.624 88.0806 101.643ZM91.5095 107.975C91.079 107.975 90.6885 107.902 90.338 107.757C89.9913 107.609 89.6922 107.401 89.4407 107.135C89.1931 106.868 89.0026 106.552 88.8692 106.186C88.7359 105.82 88.6692 105.42 88.6692 104.986V104.746C88.6692 104.243 88.7435 103.795 88.8921 103.403C89.0407 103.007 89.2426 102.671 89.4979 102.397C89.7531 102.123 90.0427 101.915 90.3665 101.774C90.6904 101.633 91.0256 101.563 91.3723 101.563C91.8143 101.563 92.1953 101.639 92.5153 101.791C92.8391 101.944 93.1039 102.157 93.3096 102.431C93.5154 102.702 93.6678 103.022 93.7668 103.391C93.8659 103.757 93.9154 104.157 93.9154 104.591V105.066H89.2979V104.203H92.8582V104.123C92.8429 103.849 92.7858 103.582 92.6867 103.323C92.5915 103.064 92.4391 102.85 92.2295 102.683C92.02 102.515 91.7343 102.431 91.3723 102.431C91.1323 102.431 90.9113 102.483 90.7094 102.586C90.5075 102.685 90.3341 102.833 90.1894 103.031C90.0446 103.229 89.9322 103.471 89.8522 103.757C89.7722 104.043 89.7322 104.372 89.7322 104.746V104.986C89.7322 105.279 89.7722 105.555 89.8522 105.814C89.936 106.07 90.056 106.294 90.2122 106.489C90.3722 106.683 90.5646 106.835 90.7894 106.946C91.018 107.056 91.2771 107.112 91.5666 107.112C91.94 107.112 92.2562 107.036 92.5153 106.883C92.7744 106.731 93.001 106.527 93.1954 106.272L93.8354 106.78C93.7021 106.982 93.5325 107.175 93.3268 107.357C93.1211 107.54 92.8677 107.689 92.5667 107.803C92.2696 107.917 91.9171 107.975 91.5095 107.975ZM96.95 106.906L98.6416 101.677H99.7217L97.4986 107.86H96.79L96.95 106.906ZM95.5384 101.677L97.2814 106.935L97.4014 107.86H96.6928L94.4526 101.677H95.5384ZM103.225 107.975C102.794 107.975 102.404 107.902 102.053 107.757C101.707 107.609 101.408 107.401 101.156 107.135C100.908 106.868 100.718 106.552 100.585 106.186C100.451 105.82 100.385 105.42 100.385 104.986V104.746C100.385 104.243 100.459 103.795 100.607 103.403C100.756 103.007 100.958 102.671 101.213 102.397C101.468 102.123 101.758 101.915 102.082 101.774C102.406 101.633 102.741 101.563 103.088 101.563C103.53 101.563 103.911 101.639 104.231 101.791C104.554 101.944 104.819 102.157 105.025 102.431C105.231 102.702 105.383 103.022 105.482 103.391C105.581 103.757 105.631 104.157 105.631 104.591V105.066H101.013V104.203H104.574V104.123C104.558 103.849 104.501 103.582 104.402 103.323C104.307 103.064 104.154 102.85 103.945 102.683C103.735 102.515 103.45 102.431 103.088 102.431C102.848 102.431 102.627 102.483 102.425 102.586C102.223 102.685 102.049 102.833 101.905 103.031C101.76 103.229 101.648 103.471 101.568 103.757C101.488 104.043 101.448 104.372 101.448 104.746V104.986C101.448 105.279 101.488 105.555 101.568 105.814C101.651 106.07 101.771 106.294 101.928 106.489C102.088 106.683 102.28 106.835 102.505 106.946C102.733 107.056 102.992 107.112 103.282 107.112C103.655 107.112 103.972 107.036 104.231 106.883C104.49 106.731 104.716 106.527 104.911 106.272L105.551 106.78C105.417 106.982 105.248 107.175 105.042 107.357C104.836 107.54 104.583 107.689 104.282 107.803C103.985 107.917 103.632 107.975 103.225 107.975ZM107.922 102.648V107.86H106.865V101.677H107.894L107.922 102.648ZM109.854 101.643L109.848 102.626C109.761 102.607 109.677 102.595 109.597 102.591C109.521 102.584 109.433 102.58 109.334 102.58C109.09 102.58 108.875 102.618 108.688 102.694C108.501 102.77 108.343 102.877 108.214 103.014C108.084 103.151 107.981 103.315 107.905 103.506C107.833 103.692 107.785 103.898 107.762 104.123L107.465 104.294C107.465 103.921 107.501 103.57 107.574 103.243C107.65 102.915 107.766 102.626 107.922 102.374C108.079 102.119 108.277 101.921 108.517 101.78C108.761 101.635 109.05 101.563 109.385 101.563C109.462 101.563 109.549 101.572 109.648 101.591C109.747 101.606 109.816 101.624 109.854 101.643ZM117.335 106.22C117.335 106.068 117.3 105.927 117.232 105.797C117.167 105.664 117.032 105.544 116.826 105.437C116.624 105.327 116.319 105.232 115.912 105.152C115.569 105.079 115.258 104.993 114.98 104.894C114.706 104.795 114.472 104.675 114.277 104.534C114.087 104.393 113.94 104.228 113.837 104.037C113.734 103.847 113.683 103.624 113.683 103.369C113.683 103.125 113.736 102.894 113.843 102.677C113.953 102.46 114.108 102.267 114.306 102.1C114.508 101.932 114.75 101.801 115.032 101.706C115.314 101.61 115.628 101.563 115.975 101.563C116.47 101.563 116.893 101.65 117.243 101.826C117.594 102.001 117.862 102.235 118.049 102.528C118.236 102.818 118.329 103.14 118.329 103.494H117.272C117.272 103.323 117.22 103.157 117.118 102.997C117.018 102.833 116.872 102.698 116.677 102.591C116.487 102.485 116.253 102.431 115.975 102.431C115.681 102.431 115.443 102.477 115.26 102.568C115.081 102.656 114.95 102.768 114.866 102.906C114.786 103.043 114.746 103.188 114.746 103.34C114.746 103.454 114.765 103.557 114.803 103.649C114.845 103.736 114.917 103.818 115.02 103.894C115.123 103.967 115.268 104.035 115.455 104.1C115.641 104.165 115.879 104.23 116.169 104.294C116.676 104.409 117.093 104.546 117.42 104.706C117.748 104.866 117.992 105.062 118.152 105.294C118.312 105.527 118.392 105.809 118.392 106.14C118.392 106.411 118.335 106.658 118.22 106.883C118.11 107.108 117.948 107.302 117.735 107.466C117.525 107.626 117.274 107.752 116.98 107.843C116.691 107.931 116.365 107.975 116.003 107.975C115.458 107.975 114.997 107.877 114.62 107.683C114.243 107.489 113.957 107.237 113.763 106.929C113.569 106.62 113.471 106.294 113.471 105.952H114.534C114.55 106.241 114.633 106.472 114.786 106.643C114.938 106.811 115.125 106.931 115.346 107.003C115.567 107.072 115.786 107.106 116.003 107.106C116.293 107.106 116.535 107.068 116.729 106.992C116.927 106.916 117.078 106.811 117.18 106.677C117.283 106.544 117.335 106.392 117.335 106.22ZM120.838 99.0824V107.86H119.781V99.0824H120.838ZM120.586 104.534L120.146 104.517C120.15 104.094 120.213 103.704 120.335 103.346C120.457 102.984 120.628 102.669 120.849 102.403C121.07 102.136 121.333 101.93 121.638 101.786C121.947 101.637 122.288 101.563 122.661 101.563C122.966 101.563 123.24 101.605 123.484 101.688C123.728 101.768 123.935 101.898 124.107 102.077C124.282 102.256 124.415 102.488 124.507 102.774C124.598 103.056 124.644 103.401 124.644 103.809V107.86H123.581V103.797C123.581 103.473 123.533 103.214 123.438 103.02C123.343 102.822 123.204 102.679 123.021 102.591C122.838 102.5 122.613 102.454 122.347 102.454C122.084 102.454 121.844 102.509 121.626 102.62C121.413 102.73 121.228 102.883 121.072 103.077C120.92 103.271 120.8 103.494 120.712 103.746C120.628 103.993 120.586 104.256 120.586 104.534ZM128.793 107.975C128.362 107.975 127.972 107.902 127.621 107.757C127.275 107.609 126.976 107.401 126.724 107.135C126.476 106.868 126.286 106.552 126.153 106.186C126.019 105.82 125.953 105.42 125.953 104.986V104.746C125.953 104.243 126.027 103.795 126.175 103.403C126.324 103.007 126.526 102.671 126.781 102.397C127.036 102.123 127.326 101.915 127.65 101.774C127.974 101.633 128.309 101.563 128.656 101.563C129.098 101.563 129.479 101.639 129.799 101.791C130.122 101.944 130.387 102.157 130.593 102.431C130.799 102.702 130.951 103.022 131.05 103.391C131.149 103.757 131.199 104.157 131.199 104.591V105.066H126.581V104.203H130.142V104.123C130.126 103.849 130.069 103.582 129.97 103.323C129.875 103.064 129.722 102.85 129.513 102.683C129.303 102.515 129.018 102.431 128.656 102.431C128.416 102.431 128.195 102.483 127.993 102.586C127.791 102.685 127.618 102.833 127.473 103.031C127.328 103.229 127.216 103.471 127.136 103.757C127.056 104.043 127.016 104.372 127.016 104.746V104.986C127.016 105.279 127.056 105.555 127.136 105.814C127.219 106.07 127.339 106.294 127.496 106.489C127.656 106.683 127.848 106.835 128.073 106.946C128.301 107.056 128.56 107.112 128.85 107.112C129.223 107.112 129.54 107.036 129.799 106.883C130.058 106.731 130.284 106.527 130.479 106.272L131.119 106.78C130.985 106.982 130.816 107.175 130.61 107.357C130.404 107.54 130.151 107.689 129.85 107.803C129.553 107.917 129.2 107.975 128.793 107.975ZM65.09 123.763L66.6787 118.677H67.3759L67.2387 119.688L65.6214 124.86H64.9414L65.09 123.763ZM64.0213 118.677L65.3757 123.82L65.4729 124.86H64.7585L62.9641 118.677H64.0213ZM68.896 123.78L70.1876 118.677H71.2391L69.4446 124.86H68.736L68.896 123.78ZM67.5302 118.677L69.0846 123.677L69.2618 124.86H68.5874L66.9244 119.677L66.7873 118.677H67.5302ZM75.9709 123.803V120.62C75.9709 120.376 75.9214 120.165 75.8224 119.986C75.7271 119.803 75.5823 119.662 75.388 119.563C75.1937 119.464 74.9537 119.414 74.668 119.414C74.4013 119.414 74.167 119.46 73.965 119.551C73.7669 119.643 73.6107 119.763 73.4964 119.911C73.386 120.06 73.3307 120.22 73.3307 120.391H72.2735C72.2735 120.17 72.3306 119.951 72.4449 119.734C72.5592 119.517 72.723 119.321 72.9364 119.146C73.1535 118.966 73.4126 118.826 73.7136 118.723C74.0184 118.616 74.3575 118.563 74.7308 118.563C75.1804 118.563 75.5766 118.639 75.9195 118.791C76.2662 118.944 76.5367 119.174 76.731 119.483C76.9291 119.788 77.0282 120.17 77.0282 120.631V123.512C77.0282 123.717 77.0453 123.936 77.0796 124.169C77.1177 124.401 77.173 124.601 77.2453 124.769V124.86H76.1424C76.0891 124.738 76.0471 124.577 76.0167 124.375C75.9862 124.169 75.9709 123.978 75.9709 123.803ZM76.1538 121.111L76.1652 121.854H75.0966C74.7956 121.854 74.527 121.879 74.2908 121.929C74.0546 121.974 73.8565 122.045 73.6965 122.14C73.5364 122.235 73.4145 122.355 73.3307 122.5C73.2469 122.641 73.205 122.807 73.205 122.997C73.205 123.192 73.2488 123.369 73.3364 123.529C73.424 123.689 73.5555 123.816 73.7307 123.912C73.9098 124.003 74.1289 124.049 74.3879 124.049C74.7118 124.049 74.9975 123.98 75.2452 123.843C75.4928 123.706 75.689 123.538 75.8338 123.34C75.9824 123.142 76.0624 122.95 76.0738 122.763L76.5253 123.272C76.4986 123.432 76.4262 123.609 76.3081 123.803C76.19 123.997 76.0319 124.184 75.8338 124.363C75.6395 124.538 75.4071 124.685 75.1366 124.803C74.8699 124.917 74.5689 124.975 74.2336 124.975C73.8146 124.975 73.4469 124.893 73.1307 124.729C72.8183 124.565 72.5744 124.346 72.3992 124.072C72.2278 123.794 72.142 123.483 72.142 123.14C72.142 122.809 72.2068 122.517 72.3363 122.266C72.4659 122.011 72.6526 121.799 72.8964 121.631C73.1402 121.46 73.4336 121.331 73.7765 121.243C74.1193 121.155 74.5022 121.111 74.9251 121.111H76.1538ZM79.8399 116.082V124.86H78.7769V116.082H79.8399ZM82.6001 116.082V124.86H81.5372V116.082H82.6001ZM86.3776 118.677L83.6802 121.563L82.1715 123.129L82.0858 122.003L83.1659 120.711L85.0861 118.677H86.3776ZM85.4118 124.86L83.2059 121.912L83.7545 120.969L86.6576 124.86H85.4118ZM91.0694 123.22C91.0694 123.068 91.0352 122.927 90.9666 122.797C90.9018 122.664 90.7666 122.544 90.5608 122.437C90.3589 122.327 90.0541 122.232 89.6465 122.152C89.3036 122.079 88.9931 121.993 88.715 121.894C88.4406 121.795 88.2063 121.675 88.012 121.534C87.8215 121.393 87.6749 121.228 87.572 121.037C87.4691 120.847 87.4177 120.624 87.4177 120.369C87.4177 120.125 87.471 119.894 87.5777 119.677C87.6882 119.46 87.8425 119.267 88.0406 119.1C88.2425 118.932 88.4845 118.801 88.7664 118.706C89.0483 118.61 89.3626 118.563 89.7093 118.563C90.2046 118.563 90.6275 118.65 90.978 118.826C91.3285 119.001 91.5971 119.235 91.7838 119.528C91.9705 119.818 92.0638 120.14 92.0638 120.494H91.0066C91.0066 120.323 90.9552 120.157 90.8523 119.997C90.7532 119.833 90.6065 119.698 90.4122 119.591C90.2218 119.485 89.9874 119.431 89.7093 119.431C89.416 119.431 89.1778 119.477 88.995 119.568C88.8159 119.656 88.6845 119.768 88.6007 119.906C88.5206 120.043 88.4806 120.188 88.4806 120.34C88.4806 120.454 88.4997 120.557 88.5378 120.649C88.5797 120.736 88.6521 120.818 88.755 120.894C88.8578 120.967 89.0026 121.035 89.1893 121.1C89.376 121.165 89.6141 121.23 89.9036 121.294C90.4103 121.409 90.8275 121.546 91.1552 121.706C91.4828 121.866 91.7267 122.062 91.8867 122.294C92.0467 122.527 92.1267 122.809 92.1267 123.14C92.1267 123.411 92.0695 123.658 91.9552 123.883C91.8448 124.108 91.6828 124.302 91.4695 124.466C91.2599 124.626 91.0085 124.752 90.7151 124.843C90.4256 124.931 90.0998 124.975 89.7379 124.975C89.1931 124.975 88.7321 124.877 88.3549 124.683C87.9777 124.489 87.692 124.237 87.4977 123.929C87.3034 123.62 87.2062 123.294 87.2062 122.952H88.2692C88.2844 123.241 88.3683 123.472 88.5206 123.643C88.673 123.811 88.8597 123.931 89.0807 124.003C89.3017 124.072 89.5207 124.106 89.7379 124.106C90.0275 124.106 90.2694 124.068 90.4637 123.992C90.6618 123.916 90.8123 123.811 90.9151 123.677C91.018 123.544 91.0694 123.392 91.0694 123.22ZM93.5325 124.3C93.5325 124.121 93.5878 123.971 93.6983 123.849C93.8126 123.723 93.9764 123.66 94.1897 123.66C94.4031 123.66 94.565 123.723 94.6755 123.849C94.7898 123.971 94.8469 124.121 94.8469 124.3C94.8469 124.476 94.7898 124.624 94.6755 124.746C94.565 124.868 94.4031 124.929 94.1897 124.929C93.9764 124.929 93.8126 124.868 93.6983 124.746C93.5878 124.624 93.5325 124.476 93.5325 124.3Z" fill="#716F70"/>
<path d="M55.552 85.9342V90.8604H54.1747V84.6769H55.472L55.552 85.9342ZM55.3291 87.5401L54.8605 87.5343C54.8605 87.1076 54.9138 86.7133 55.0205 86.3514C55.1272 85.9894 55.2834 85.6751 55.4891 85.4084C55.6948 85.1379 55.9501 84.9303 56.2549 84.7855C56.5635 84.6369 56.9197 84.5626 57.3236 84.5626C57.6055 84.5626 57.8626 84.6046 58.095 84.6884C58.3313 84.7684 58.5351 84.896 58.7065 85.0713C58.8818 85.2465 59.0151 85.4713 59.1066 85.7456C59.2018 86.0199 59.2494 86.3514 59.2494 86.74V90.8604H57.8722V86.86C57.8722 86.559 57.8265 86.3228 57.735 86.1514C57.6474 85.9799 57.5198 85.858 57.3521 85.7856C57.1883 85.7094 56.9921 85.6713 56.7635 85.6713C56.5044 85.6713 56.2835 85.7208 56.1006 85.8199C55.9215 85.919 55.7748 86.0542 55.6605 86.2256C55.5462 86.3971 55.4624 86.5952 55.4091 86.82C55.3558 87.0448 55.3291 87.2848 55.3291 87.5401ZM59.1637 87.1743L58.5179 87.3172C58.5179 86.9438 58.5694 86.5914 58.6722 86.2599C58.7789 85.9247 58.9332 85.6313 59.1351 85.3799C59.3409 85.1246 59.5942 84.9246 59.8952 84.7798C60.1962 84.635 60.541 84.5626 60.9296 84.5626C61.2458 84.5626 61.5277 84.6065 61.7754 84.6941C62.0268 84.7779 62.2402 84.9112 62.4154 85.0941C62.5907 85.277 62.724 85.5151 62.8155 85.8085C62.9069 86.098 62.9526 86.4485 62.9526 86.86V90.8604H61.5696V86.8543C61.5696 86.5419 61.5239 86.2999 61.4325 86.1285C61.3449 85.9571 61.2191 85.8389 61.0553 85.7742C60.8915 85.7056 60.6953 85.6713 60.4667 85.6713C60.2533 85.6713 60.0647 85.7113 59.9009 85.7913C59.7409 85.8675 59.6057 85.9761 59.4952 86.1171C59.3847 86.2542 59.3009 86.4123 59.2437 86.5914C59.1904 86.7705 59.1637 86.9648 59.1637 87.1743ZM67.8559 89.6202V86.6714C67.8559 86.4504 67.8159 86.2599 67.7359 86.0999C67.6559 85.9399 67.534 85.8161 67.3702 85.7285C67.2102 85.6408 67.0082 85.597 66.7644 85.597C66.5396 85.597 66.3453 85.6351 66.1815 85.7113C66.0177 85.7875 65.89 85.8904 65.7986 86.0199C65.7072 86.1495 65.6614 86.2961 65.6614 86.46H64.2899C64.2899 86.2161 64.3489 85.9799 64.4671 85.7513C64.5852 85.5227 64.7566 85.3189 64.9814 85.1398C65.2062 84.9608 65.4748 84.8198 65.7872 84.7169C66.0996 84.6141 66.4501 84.5626 66.8387 84.5626C67.3035 84.5626 67.715 84.6407 68.0731 84.7969C68.435 84.9532 68.7189 85.1894 68.9246 85.5056C69.1341 85.818 69.2389 86.2104 69.2389 86.6828V89.4317C69.2389 89.7136 69.258 89.9669 69.2961 90.1917C69.338 90.4127 69.397 90.6051 69.4732 90.7689V90.8604H68.0617C67.9969 90.7118 67.9455 90.5232 67.9074 90.2946C67.8731 90.0622 67.8559 89.8374 67.8559 89.6202ZM68.0559 87.1L68.0674 87.9515H67.0787C66.8235 87.9515 66.5987 87.9763 66.4044 88.0258C66.2101 88.0715 66.0481 88.1401 65.9186 88.2315C65.7891 88.323 65.6919 88.4335 65.6272 88.563C65.5624 88.6925 65.53 88.8392 65.53 89.003C65.53 89.1669 65.5681 89.3174 65.6443 89.4545C65.7205 89.5879 65.831 89.6926 65.9758 89.7688C66.1243 89.845 66.3034 89.8831 66.513 89.8831C66.7949 89.8831 67.0406 89.826 67.2502 89.7117C67.4635 89.5936 67.6311 89.4507 67.7531 89.2831C67.875 89.1116 67.9397 88.9497 67.9474 88.7973L68.3931 89.4088C68.3474 89.565 68.2693 89.7326 68.1588 89.9117C68.0483 90.0908 67.9036 90.2622 67.7245 90.426C67.5492 90.586 67.3378 90.7175 67.0901 90.8203C66.8463 90.9232 66.5644 90.9746 66.2444 90.9746C65.8405 90.9746 65.4805 90.8946 65.1643 90.7346C64.848 90.5708 64.6004 90.3517 64.4213 90.0774C64.2423 89.7993 64.1527 89.485 64.1527 89.1345C64.1527 88.8068 64.2137 88.5173 64.3356 88.2658C64.4613 88.0106 64.6442 87.7972 64.8842 87.6258C65.1281 87.4543 65.4252 87.3248 65.7757 87.2372C66.1263 87.1457 66.5263 87.1 66.9759 87.1H68.0559ZM72.0677 82.0824V90.8604H70.6848V82.0824H72.0677ZM75.9081 84.6769L73.2164 87.6601L71.742 89.1688L71.382 88.003L72.4963 86.6257L74.2451 84.6769H75.9081ZM74.5422 90.8604L72.5364 87.9572L73.405 86.9914L76.1367 90.8604H74.5422ZM79.3941 90.9746C78.9369 90.9746 78.5236 90.9004 78.154 90.7518C77.7883 90.5994 77.4758 90.3879 77.2168 90.1174C76.9615 89.8469 76.7653 89.5288 76.6281 89.1631C76.491 88.7973 76.4224 88.403 76.4224 87.9801V87.7515C76.4224 87.2676 76.4929 86.8295 76.6339 86.4371C76.7748 86.0447 76.971 85.7094 77.2225 85.4313C77.4739 85.1494 77.7711 84.9341 78.114 84.7855C78.4569 84.6369 78.8283 84.5626 79.2284 84.5626C79.6703 84.5626 80.057 84.6369 80.3885 84.7855C80.7199 84.9341 80.9943 85.1436 81.2114 85.4141C81.4324 85.6808 81.5962 85.999 81.7029 86.3685C81.8134 86.7381 81.8686 87.1457 81.8686 87.5915V88.1801H77.091V87.1914H80.5085V87.0829C80.5009 86.8352 80.4513 86.6028 80.3599 86.3857C80.2723 86.1685 80.137 85.9932 79.9542 85.8599C79.7713 85.7266 79.5275 85.6599 79.2227 85.6599C78.9941 85.6599 78.7902 85.7094 78.6112 85.8085C78.4359 85.9037 78.2892 86.0428 78.1711 86.2256C78.053 86.4085 77.9616 86.6295 77.8968 86.8886C77.8359 87.1438 77.8054 87.4315 77.8054 87.7515V87.9801C77.8054 88.2506 77.8416 88.502 77.914 88.7344C77.9902 88.963 78.1007 89.1631 78.2454 89.3345C78.3902 89.5059 78.5655 89.6412 78.7712 89.7403C78.9769 89.8355 79.2112 89.8831 79.4741 89.8831C79.8056 89.8831 80.1008 89.8164 80.3599 89.6831C80.619 89.5498 80.8438 89.3612 81.0343 89.1173L81.76 89.8203C81.6267 90.0146 81.4533 90.2012 81.24 90.3803C81.0266 90.5556 80.7657 90.6984 80.4571 90.8089C80.1523 90.9194 79.798 90.9746 79.3941 90.9746ZM86.4119 89.1859C86.4119 89.0488 86.3776 88.9249 86.309 88.8145C86.2404 88.7002 86.109 88.5973 85.9147 88.5059C85.7242 88.4144 85.4423 88.3306 85.0689 88.2544C84.7413 88.182 84.4403 88.0963 84.166 87.9972C83.8955 87.8944 83.6631 87.7705 83.4688 87.6258C83.2745 87.481 83.124 87.3096 83.0173 87.1114C82.9106 86.9133 82.8573 86.6847 82.8573 86.4257C82.8573 86.1742 82.9125 85.9361 83.023 85.7113C83.1335 85.4865 83.2916 85.2884 83.4973 85.117C83.7031 84.9455 83.9526 84.8103 84.246 84.7112C84.5431 84.6122 84.8746 84.5626 85.2404 84.5626C85.7585 84.5626 86.2023 84.6503 86.5719 84.8255C86.9453 84.997 87.231 85.2313 87.4291 85.5284C87.6272 85.8218 87.7263 86.1533 87.7263 86.5228H86.349C86.349 86.359 86.3071 86.2066 86.2233 86.0656C86.1433 85.9209 86.0214 85.8047 85.8576 85.717C85.6937 85.6256 85.488 85.5799 85.2404 85.5799C85.0041 85.5799 84.8079 85.618 84.6517 85.6942C84.4993 85.7666 84.385 85.8618 84.3088 85.9799C84.2365 86.098 84.2003 86.2276 84.2003 86.3685C84.2003 86.4714 84.2193 86.5647 84.2574 86.6485C84.2993 86.7286 84.3679 86.8028 84.4631 86.8714C84.5584 86.9362 84.6879 86.9971 84.8517 87.0543C85.0194 87.1114 85.2289 87.1667 85.4804 87.22C85.9528 87.3191 86.3585 87.4467 86.6976 87.6029C87.0405 87.7553 87.3034 87.9534 87.4863 88.1973C87.6691 88.4373 87.7606 88.7421 87.7606 89.1116C87.7606 89.3859 87.7015 89.6374 87.5834 89.866C87.4691 90.0908 87.3015 90.287 87.0805 90.4546C86.8595 90.6184 86.5948 90.7461 86.2862 90.8375C85.9814 90.9289 85.6385 90.9746 85.2575 90.9746C84.6974 90.9746 84.2231 90.8756 83.8345 90.6775C83.4459 90.4756 83.1506 90.2184 82.9487 89.906C82.7506 89.5898 82.6515 89.2621 82.6515 88.923H83.9831C83.9983 89.1783 84.0688 89.3821 84.1945 89.5345C84.3241 89.6831 84.4841 89.7917 84.6746 89.8603C84.8689 89.925 85.0689 89.9574 85.2746 89.9574C85.5223 89.9574 85.7299 89.925 85.8976 89.8603C86.0652 89.7917 86.1928 89.7002 86.2804 89.586C86.3681 89.4678 86.4119 89.3345 86.4119 89.1859ZM93.744 90.8604H92.3667V84.1226C92.3667 83.654 92.4581 83.2597 92.641 82.9396C92.8277 82.6196 93.0963 82.3777 93.4468 82.2139C93.7973 82.0462 94.2202 81.9624 94.7155 81.9624C94.9136 81.9624 95.1612 81.9757 95.4584 82.0024C95.7594 82.0291 96.0718 82.0634 96.3956 82.1053C96.7195 82.1434 97.0167 82.1834 97.2872 82.2253L96.6928 83.2825C96.3385 83.2178 96.0089 83.1682 95.7042 83.1339C95.3994 83.0958 95.1231 83.0768 94.8755 83.0768C94.6317 83.0768 94.4259 83.1187 94.2583 83.2025C94.0907 83.2825 93.963 83.4006 93.8754 83.5568C93.7878 83.7092 93.744 83.8978 93.744 84.1226V90.8604ZM95.9099 90.8604V82.2253H97.2872V90.8604H95.9099ZM95.0184 84.6769V85.6827H91.4181V84.6769H95.0184ZM98.5558 87.8372V87.7058C98.5558 87.26 98.6206 86.8467 98.7501 86.4657C98.8797 86.0809 99.0664 85.7475 99.3102 85.4656C99.5578 85.1798 99.8588 84.9589 100.213 84.8027C100.571 84.6426 100.975 84.5626 101.425 84.5626C101.878 84.5626 102.282 84.6426 102.636 84.8027C102.994 84.9589 103.297 85.1798 103.545 85.4656C103.792 85.7475 103.981 86.0809 104.111 86.4657C104.24 86.8467 104.305 87.26 104.305 87.7058V87.8372C104.305 88.283 104.24 88.6963 104.111 89.0773C103.981 89.4583 103.792 89.7917 103.545 90.0774C103.297 90.3594 102.996 90.5803 102.642 90.7403C102.288 90.8965 101.886 90.9746 101.436 90.9746C100.983 90.9746 100.577 90.8965 100.219 90.7403C99.8645 90.5803 99.5635 90.3594 99.3159 90.0774C99.0683 89.7917 98.8797 89.4583 98.7501 89.0773C98.6206 88.6963 98.5558 88.283 98.5558 87.8372ZM99.9331 87.7058V87.8372C99.9331 88.1153 99.9617 88.3782 100.019 88.6259C100.076 88.8735 100.166 89.0907 100.287 89.2774C100.409 89.464 100.566 89.6107 100.756 89.7174C100.947 89.8241 101.173 89.8774 101.436 89.8774C101.691 89.8774 101.912 89.8241 102.099 89.7174C102.29 89.6107 102.446 89.464 102.568 89.2774C102.69 89.0907 102.779 88.8735 102.836 88.6259C102.897 88.3782 102.928 88.1153 102.928 87.8372V87.7058C102.928 87.4315 102.897 87.1724 102.836 86.9286C102.779 86.6809 102.688 86.4619 102.562 86.2714C102.44 86.0809 102.284 85.9323 102.093 85.8256C101.907 85.7151 101.684 85.6599 101.425 85.6599C101.166 85.6599 100.941 85.7151 100.75 85.8256C100.564 85.9323 100.409 86.0809 100.287 86.2714C100.166 86.4619 100.076 86.6809 100.019 86.9286C99.9617 87.1724 99.9331 87.4315 99.9331 87.7058ZM107.139 89.4888L108.568 84.6769H109.448L109.208 86.1171L107.768 90.8604H106.979L107.139 89.4888ZM106.299 84.6769L107.414 89.5117L107.505 90.8604H106.625L104.951 84.6769H106.299ZM110.786 89.4545L111.866 84.6769H113.209L111.54 90.8604H110.66L110.786 89.4545ZM109.597 84.6769L111.008 89.4317L111.186 90.8604H110.397L108.94 86.1114L108.7 84.6769H109.597ZM116.872 90.9746C116.415 90.9746 116.001 90.9004 115.632 90.7518C115.266 90.5994 114.953 90.3879 114.694 90.1174C114.439 89.8469 114.243 89.5288 114.106 89.1631C113.969 88.7973 113.9 88.403 113.9 87.9801V87.7515C113.9 87.2676 113.971 86.8295 114.112 86.4371C114.252 86.0447 114.449 85.7094 114.7 85.4313C114.952 85.1494 115.249 84.9341 115.592 84.7855C115.935 84.6369 116.306 84.5626 116.706 84.5626C117.148 84.5626 117.535 84.6369 117.866 84.7855C118.198 84.9341 118.472 85.1436 118.689 85.4141C118.91 85.6808 119.074 85.999 119.181 86.3685C119.291 86.7381 119.346 87.1457 119.346 87.5915V88.1801H114.569V87.1914H117.986V87.0829C117.979 86.8352 117.929 86.6028 117.838 86.3857C117.75 86.1685 117.615 85.9932 117.432 85.8599C117.249 85.7266 117.005 85.6599 116.7 85.6599C116.472 85.6599 116.268 85.7094 116.089 85.8085C115.914 85.9037 115.767 86.0428 115.649 86.2256C115.531 86.4085 115.439 86.6295 115.374 86.8886C115.314 87.1438 115.283 87.4315 115.283 87.7515V87.9801C115.283 88.2506 115.319 88.502 115.392 88.7344C115.468 88.963 115.578 89.1631 115.723 89.3345C115.868 89.5059 116.043 89.6412 116.249 89.7403C116.455 89.8355 116.689 89.8831 116.952 89.8831C117.283 89.8831 117.578 89.8164 117.838 89.6831C118.097 89.5498 118.321 89.3612 118.512 89.1173L119.238 89.8203C119.104 90.0146 118.931 90.2012 118.718 90.3803C118.504 90.5556 118.243 90.6984 117.935 90.8089C117.63 90.9194 117.276 90.9746 116.872 90.9746ZM121.804 85.8542V90.8604H120.426V84.6769H121.741L121.804 85.8542ZM123.695 84.6369L123.684 85.917C123.6 85.9018 123.509 85.8904 123.41 85.8828C123.314 85.8751 123.219 85.8713 123.124 85.8713C122.888 85.8713 122.68 85.9056 122.501 85.9742C122.322 86.039 122.171 86.1342 122.049 86.2599C121.931 86.3819 121.84 86.5304 121.775 86.7057C121.71 86.8809 121.672 87.0772 121.661 87.2943L121.346 87.3172C121.346 86.9286 121.385 86.5685 121.461 86.2371C121.537 85.9056 121.651 85.6142 121.804 85.3627C121.96 85.1113 122.154 84.9151 122.387 84.7741C122.623 84.6331 122.895 84.5626 123.204 84.5626C123.288 84.5626 123.377 84.5703 123.472 84.5855C123.571 84.6007 123.646 84.6179 123.695 84.6369ZM128.027 89.1859C128.027 89.0488 127.993 88.9249 127.924 88.8145C127.856 88.7002 127.724 88.5973 127.53 88.5059C127.339 88.4144 127.057 88.3306 126.684 88.2544C126.356 88.182 126.055 88.0963 125.781 87.9972C125.511 87.8944 125.278 87.7705 125.084 87.6258C124.89 87.481 124.739 87.3096 124.632 87.1114C124.526 86.9133 124.472 86.6847 124.472 86.4257C124.472 86.1742 124.528 85.9361 124.638 85.7113C124.749 85.4865 124.907 85.2884 125.113 85.117C125.318 84.9455 125.568 84.8103 125.861 84.7112C126.158 84.6122 126.49 84.5626 126.856 84.5626C127.374 84.5626 127.818 84.6503 128.187 84.8255C128.56 84.997 128.846 85.2313 129.044 85.5284C129.242 85.8218 129.341 86.1533 129.341 86.5228H127.964C127.964 86.359 127.922 86.2066 127.838 86.0656C127.758 85.9209 127.637 85.8047 127.473 85.717C127.309 85.6256 127.103 85.5799 126.856 85.5799C126.619 85.5799 126.423 85.618 126.267 85.6942C126.115 85.7666 126 85.8618 125.924 85.9799C125.852 86.098 125.815 86.2276 125.815 86.3685C125.815 86.4714 125.834 86.5647 125.873 86.6485C125.914 86.7286 125.983 86.8028 126.078 86.8714C126.174 86.9362 126.303 86.9971 126.467 87.0543C126.635 87.1114 126.844 87.1667 127.096 87.22C127.568 87.3191 127.974 87.4467 128.313 87.6029C128.656 87.7553 128.919 87.9534 129.101 88.1973C129.284 88.4373 129.376 88.7421 129.376 89.1116C129.376 89.3859 129.317 89.6374 129.199 89.866C129.084 90.0908 128.917 90.287 128.696 90.4546C128.475 90.6184 128.21 90.7461 127.901 90.8375C127.597 90.9289 127.254 90.9746 126.873 90.9746C126.313 90.9746 125.838 90.8756 125.45 90.6775C125.061 90.4756 124.766 90.2184 124.564 89.906C124.366 89.5898 124.267 89.2621 124.267 88.923H125.598C125.614 89.1783 125.684 89.3821 125.81 89.5345C125.939 89.6831 126.099 89.7917 126.29 89.8603C126.484 89.925 126.684 89.9574 126.89 89.9574C127.137 89.9574 127.345 89.925 127.513 89.8603C127.68 89.7917 127.808 89.7002 127.896 89.586C127.983 89.4678 128.027 89.3345 128.027 89.1859ZM27.6009 99.0824H28.9781V106.54L28.8467 107.86H27.6009V99.0824ZM33.0128 104.711V104.832C33.0128 105.289 32.9614 105.71 32.8585 106.094C32.7594 106.475 32.607 106.807 32.4013 107.089C32.1994 107.371 31.9479 107.59 31.647 107.746C31.3498 107.898 31.005 107.975 30.6126 107.975C30.2278 107.975 29.8925 107.902 29.6068 107.757C29.321 107.613 29.081 107.407 28.8867 107.14C28.6962 106.874 28.5419 106.555 28.4238 106.186C28.3057 105.816 28.2219 105.409 28.1724 104.963V104.58C28.2219 104.13 28.3057 103.723 28.4238 103.357C28.5419 102.988 28.6962 102.669 28.8867 102.403C29.081 102.132 29.3191 101.925 29.6011 101.78C29.8868 101.635 30.2202 101.563 30.6011 101.563C30.9974 101.563 31.346 101.639 31.647 101.791C31.9517 101.944 32.2051 102.161 32.407 102.443C32.6089 102.721 32.7594 103.052 32.8585 103.437C32.9614 103.822 33.0128 104.247 33.0128 104.711ZM31.6355 104.832V104.711C31.6355 104.433 31.6127 104.172 31.5669 103.929C31.5212 103.681 31.445 103.464 31.3384 103.277C31.2355 103.09 31.0945 102.944 30.9155 102.837C30.7402 102.727 30.5211 102.671 30.2583 102.671C30.0144 102.671 29.8049 102.713 29.6296 102.797C29.4544 102.881 29.3077 102.995 29.1896 103.14C29.0715 103.285 28.9781 103.452 28.9096 103.643C28.8448 103.833 28.801 104.039 28.7781 104.26V105.294C28.8124 105.58 28.8848 105.843 28.9953 106.083C29.1096 106.319 29.2696 106.51 29.4753 106.655C29.6811 106.795 29.9458 106.866 30.2697 106.866C30.5249 106.866 30.7402 106.815 30.9155 106.712C31.0907 106.609 31.2298 106.466 31.3326 106.283C31.4393 106.096 31.5155 105.879 31.5612 105.632C31.6108 105.384 31.6355 105.117 31.6355 104.832ZM35.653 99.0824V107.86H34.27V99.0824H35.653ZM36.8989 104.837V104.706C36.8989 104.26 36.9636 103.847 37.0932 103.466C37.2227 103.081 37.4094 102.748 37.6532 102.466C37.9008 102.18 38.2018 101.959 38.5561 101.803C38.9143 101.643 39.3181 101.563 39.7677 101.563C40.2211 101.563 40.6249 101.643 40.9792 101.803C41.3373 101.959 41.6402 102.18 41.8879 102.466C42.1355 102.748 42.3241 103.081 42.4536 103.466C42.5832 103.847 42.6479 104.26 42.6479 104.706V104.837C42.6479 105.283 42.5832 105.696 42.4536 106.077C42.3241 106.458 42.1355 106.792 41.8879 107.077C41.6402 107.359 41.3393 107.58 40.9849 107.74C40.6306 107.897 40.2287 107.975 39.7791 107.975C39.3257 107.975 38.92 107.897 38.5619 107.74C38.2075 107.58 37.9066 107.359 37.6589 107.077C37.4113 106.792 37.2227 106.458 37.0932 106.077C36.9636 105.696 36.8989 105.283 36.8989 104.837ZM38.2761 104.706V104.837C38.2761 105.115 38.3047 105.378 38.3618 105.626C38.419 105.874 38.5085 106.091 38.6304 106.277C38.7524 106.464 38.9086 106.611 39.0991 106.717C39.2895 106.824 39.5162 106.877 39.7791 106.877C40.0344 106.877 40.2553 106.824 40.442 106.717C40.6325 106.611 40.7887 106.464 40.9106 106.277C41.0326 106.091 41.1221 105.874 41.1792 105.626C41.2402 105.378 41.2707 105.115 41.2707 104.837V104.706C41.2707 104.431 41.2402 104.172 41.1792 103.929C41.1221 103.681 41.0307 103.462 40.9049 103.271C40.783 103.081 40.6268 102.932 40.4363 102.826C40.2496 102.715 40.0268 102.66 39.7677 102.66C39.5086 102.66 39.2838 102.715 39.0933 102.826C38.9067 102.932 38.7524 103.081 38.6304 103.271C38.5085 103.462 38.419 103.681 38.3618 103.929C38.3047 104.172 38.2761 104.431 38.2761 104.706ZM43.5395 104.837V104.706C43.5395 104.26 43.6042 103.847 43.7338 103.466C43.8633 103.081 44.05 102.748 44.2938 102.466C44.5414 102.18 44.8424 101.959 45.1967 101.803C45.5549 101.643 45.9587 101.563 46.4083 101.563C46.8617 101.563 47.2655 101.643 47.6198 101.803C47.9779 101.959 48.2808 102.18 48.5285 102.466C48.7761 102.748 48.9647 103.081 49.0942 103.466C49.2238 103.847 49.2885 104.26 49.2885 104.706V104.837C49.2885 105.283 49.2238 105.696 49.0942 106.077C48.9647 106.458 48.7761 106.792 48.5285 107.077C48.2808 107.359 47.9799 107.58 47.6255 107.74C47.2712 107.897 46.8693 107.975 46.4197 107.975C45.9663 107.975 45.5606 107.897 45.2025 107.74C44.8481 107.58 44.5472 107.359 44.2995 107.077C44.0519 106.792 43.8633 106.458 43.7338 106.077C43.6042 105.696 43.5395 105.283 43.5395 104.837ZM44.9167 104.706V104.837C44.9167 105.115 44.9453 105.378 45.0024 105.626C45.0596 105.874 45.1491 106.091 45.271 106.277C45.393 106.464 45.5492 106.611 45.7396 106.717C45.9301 106.824 46.1568 106.877 46.4197 106.877C46.675 106.877 46.8959 106.824 47.0826 106.717C47.2731 106.611 47.4293 106.464 47.5512 106.277C47.6732 106.091 47.7627 105.874 47.8198 105.626C47.8808 105.378 47.9113 105.115 47.9113 104.837V104.706C47.9113 104.431 47.8808 104.172 47.8198 103.929C47.7627 103.681 47.6713 103.462 47.5455 103.271C47.4236 103.081 47.2674 102.932 47.0769 102.826C46.8902 102.715 46.6674 102.66 46.4083 102.66C46.1492 102.66 45.9244 102.715 45.7339 102.826C45.5473 102.932 45.393 103.081 45.271 103.271C45.1491 103.462 45.0596 103.681 45.0024 103.929C44.9453 104.172 44.9167 104.431 44.9167 104.706ZM51.8202 102.934V107.86H50.4429V101.677H51.7402L51.8202 102.934ZM51.5973 104.54L51.1287 104.534C51.1287 104.108 51.182 103.713 51.2887 103.351C51.3954 102.989 51.5516 102.675 51.7573 102.408C51.9631 102.138 52.2183 101.93 52.5231 101.786C52.8317 101.637 53.1879 101.563 53.5918 101.563C53.8737 101.563 54.1309 101.605 54.3633 101.688C54.5995 101.768 54.8033 101.896 54.9748 102.071C55.15 102.247 55.2834 102.471 55.3748 102.746C55.47 103.02 55.5177 103.351 55.5177 103.74V107.86H54.1404V103.86C54.1404 103.559 54.0947 103.323 54.0033 103.151C53.9156 102.98 53.788 102.858 53.6204 102.786C53.4565 102.709 53.2603 102.671 53.0317 102.671C52.7727 102.671 52.5517 102.721 52.3688 102.82C52.1898 102.919 52.0431 103.054 51.9288 103.226C51.8145 103.397 51.7307 103.595 51.6773 103.82C51.624 104.045 51.5973 104.285 51.5973 104.54ZM55.432 104.174L54.7862 104.317C54.7862 103.944 54.8376 103.591 54.9405 103.26C55.0472 102.925 55.2015 102.631 55.4034 102.38C55.6091 102.125 55.8625 101.925 56.1634 101.78C56.4644 101.635 56.8092 101.563 57.1978 101.563C57.514 101.563 57.796 101.606 58.0436 101.694C58.2951 101.778 58.5084 101.911 58.6837 102.094C58.8589 102.277 58.9923 102.515 59.0837 102.808C59.1751 103.098 59.2209 103.449 59.2209 103.86V107.86H57.8379V103.854C57.8379 103.542 57.7922 103.3 57.7007 103.128C57.6131 102.957 57.4874 102.839 57.3235 102.774C57.1597 102.706 56.9635 102.671 56.7349 102.671C56.5216 102.671 56.333 102.711 56.1692 102.791C56.0091 102.868 55.8739 102.976 55.7634 103.117C55.6529 103.254 55.5691 103.412 55.512 103.591C55.4586 103.77 55.432 103.965 55.432 104.174Z" fill="#EDA44A"/>
<g clip-path="url(#clip1_39_78)">
<path d="M37.9314 174.977C38.7257 173.325 38.3461 171.705 37.9806 170.141C37.6628 168.779 37.3631 167.493 37.7301 166.089C38.7535 162.207 39.4484 159.942 37.1068 157.601C34.7652 155.259 32.4971 155.952 28.6126 156.971C27.2062 157.339 25.9152 157.037 24.5517 156.719C22.9868 156.354 21.3708 155.975 19.7198 156.765C19.1121 157.038 18.5603 157.421 18.0926 157.895C16.1072 159.881 16.0731 163.078 17.825 164.83C19.577 166.582 22.7685 168.006 24.7398 169.977C26.711 171.949 28.1033 175.108 29.8772 176.882C31.6511 178.656 34.8207 178.594 36.8061 176.609C37.2788 176.139 37.6603 175.586 37.9314 174.977Z" fill="#FBE7CE"/>
<path d="M24.2383 147.071C23.7775 147.532 23.3918 148.059 23.1033 148.622C22.8147 149.185 22.6289 149.772 22.5565 150.352C22.4841 150.931 22.5265 151.49 22.6813 151.998C22.836 152.505 23.1002 152.951 23.4586 153.309C23.8169 153.668 24.2626 153.932 24.77 154.086C25.2774 154.241 25.8367 154.284 26.416 154.211C26.9952 154.139 27.5831 153.953 28.1459 153.664C28.7088 153.376 29.2356 152.99 29.6964 152.529C30.1572 152.069 30.5429 151.542 30.8314 150.979C31.12 150.416 31.3058 149.828 31.3782 149.249C31.4506 148.67 31.4082 148.11 31.2534 147.603C31.0986 147.096 30.8345 146.65 30.4761 146.292C30.1177 145.933 29.6721 145.669 29.1647 145.514C28.6572 145.36 28.0979 145.317 27.5187 145.39C26.9395 145.462 26.3516 145.648 25.7888 145.936C25.2259 146.225 24.6991 146.611 24.2383 147.071Z" fill="#FBE7CE"/>
<path d="M34.3748 147.851C33.4442 148.781 32.8392 149.961 32.693 151.131C32.5468 152.301 32.8712 153.365 33.595 154.088C34.3188 154.812 35.3826 155.137 36.5525 154.99C37.7223 154.844 38.9023 154.239 39.8329 153.309C40.2937 152.848 40.6793 152.321 40.9679 151.758C41.2564 151.195 41.4422 150.608 41.5146 150.028C41.6609 148.858 41.3364 147.795 40.6126 147.071C39.8888 146.347 38.825 146.023 37.6552 146.169C36.4853 146.315 35.3053 146.92 34.3748 147.851Z" fill="#FBE7CE"/>
<path d="M41.3924 154.869C40.4618 155.799 39.8569 156.979 39.7106 158.149C39.5644 159.319 39.8889 160.383 40.6127 161.106C41.3365 161.83 42.4003 162.155 43.5701 162.009C44.7399 161.862 45.9199 161.257 46.8505 160.327C47.7811 159.396 48.3861 158.216 48.5323 157.046C48.6785 155.877 48.354 154.813 47.6302 154.089C46.9065 153.365 45.8426 153.041 44.6728 153.187C43.503 153.333 42.323 153.938 41.3924 154.869Z" fill="#FBE7CE"/>
<path d="M42.1721 165.005C41.7113 165.466 41.3257 165.993 41.0371 166.555C40.7485 167.118 40.5628 167.706 40.4904 168.285C40.4179 168.865 40.4603 169.424 40.6151 169.931C40.7699 170.439 41.034 170.884 41.3924 171.243C41.7508 171.601 42.1964 171.865 42.7038 172.02C43.2113 172.175 43.7706 172.217 44.3498 172.145C44.9291 172.072 45.5169 171.887 46.0797 171.598C46.6426 171.309 47.1695 170.924 47.6302 170.463C48.091 170.002 48.4767 169.475 48.7653 168.913C49.0538 168.35 49.2396 167.762 49.312 167.183C49.3844 166.603 49.342 166.044 49.1872 165.537C49.0325 165.029 48.7684 164.584 48.41 164.225C48.0516 163.867 47.6059 163.603 47.0985 163.448C46.5911 163.293 46.0318 163.251 45.4525 163.323C44.8733 163.396 44.2855 163.581 43.7226 163.87C43.1598 164.158 42.6329 164.544 42.1721 165.005Z" fill="#FBE7CE"/>
</g>
</g>
<defs>
<clipPath id="clip0_39_78">
<rect width="155" height="195" fill="white" transform="translate(0.840759)"/>
</clipPath>
<clipPath id="clip1_39_78">
<rect width="35.2866" height="35.2866" fill="white" transform="translate(33.9849 135.765) rotate(45)"/>
</clipPath>
</defs>
</svg>
