<svg width="155" height="195" viewBox="0 0 155 195" fill="none" xmlns="http://www.w3.org/2000/svg">
<g clip-path="url(#clip0_39_68)">
<rect x="5.26676" y="5.26676" width="145.128" height="184.922" fill="white" stroke="#FBE7CE" stroke-width="10.5335"/>
<path d="M68.9251 41.1266H70.9253C70.8613 41.8893 70.6479 42.5694 70.2852 43.1668C69.9225 43.7588 69.4131 44.2255 68.7571 44.5669C68.101 44.9083 67.3036 45.079 66.3648 45.079C65.6448 45.079 64.9967 44.9509 64.4207 44.6949C63.8446 44.4336 63.3512 44.0655 62.9405 43.5908C62.5298 43.1108 62.2151 42.5321 61.9965 41.8547C61.7831 41.1773 61.6764 40.4199 61.6764 39.5825V38.6144C61.6764 37.777 61.7858 37.0196 62.0045 36.3422C62.2285 35.6648 62.5485 35.0861 62.9645 34.606C63.3806 34.1206 63.8793 33.7499 64.4607 33.4939C65.0474 33.2379 65.7061 33.1099 66.4369 33.1099C67.3649 33.1099 68.149 33.2806 68.7891 33.6219C69.4291 33.9633 69.9252 34.4353 70.2772 35.0381C70.6346 35.6408 70.8533 36.3315 70.9333 37.1102H68.9331C68.8797 36.6089 68.7624 36.1795 68.581 35.8221C68.405 35.4648 68.1437 35.1927 67.797 35.0061C67.4503 34.814 66.9969 34.718 66.4369 34.718C65.9781 34.718 65.5781 34.8034 65.2367 34.974C64.8954 35.1447 64.61 35.3954 64.3807 35.7261C64.1513 36.0568 63.978 36.4649 63.8606 36.9502C63.7486 37.4303 63.6926 37.9797 63.6926 38.5984V39.5825C63.6926 40.1692 63.7433 40.7026 63.8446 41.1826C63.9513 41.6573 64.1113 42.0654 64.3247 42.4067C64.5433 42.7481 64.8207 43.0121 65.1567 43.1988C65.4928 43.3855 65.8955 43.4788 66.3648 43.4788C66.9356 43.4788 67.3969 43.3881 67.749 43.2068C68.1063 43.0254 68.3757 42.7614 68.557 42.4147C68.7437 42.0627 68.8664 41.6333 68.9251 41.1266ZM74.4616 32.6298V44.9189H72.5414V32.6298H74.4616ZM74.1255 40.2705L73.5015 40.2625C73.5068 39.6651 73.5895 39.1131 73.7495 38.6064C73.9149 38.0997 74.1442 37.6596 74.4376 37.2863C74.7363 36.9076 75.0936 36.6169 75.5097 36.4142C75.9257 36.2062 76.3871 36.1022 76.8938 36.1022C77.3205 36.1022 77.7045 36.1608 78.0459 36.2782C78.3926 36.3955 78.6913 36.5849 78.942 36.8462C79.1927 37.1022 79.382 37.4383 79.51 37.8543C79.6434 38.265 79.71 38.7664 79.71 39.3584V44.9189H77.7739V39.3424C77.7739 38.9264 77.7125 38.5957 77.5899 38.3504C77.4725 38.105 77.2992 37.929 77.0698 37.8223C76.8405 37.7103 76.5604 37.6543 76.2297 37.6543C75.883 37.6543 75.5763 37.7236 75.3097 37.8623C75.0483 38.001 74.8296 38.1903 74.6536 38.4304C74.4776 38.6704 74.3442 38.9477 74.2536 39.2624C74.1682 39.5771 74.1255 39.9132 74.1255 40.2705ZM83.7264 36.2622V44.9189H81.7902V36.2622H83.7264ZM81.6622 33.99C81.6622 33.6966 81.7582 33.4539 81.9503 33.2619C82.1476 33.0645 82.4196 32.9659 82.7663 32.9659C83.1077 32.9659 83.377 33.0645 83.5744 33.2619C83.7717 33.4539 83.8704 33.6966 83.8704 33.99C83.8704 34.278 83.7717 34.518 83.5744 34.71C83.377 34.902 83.1077 34.9981 82.7663 34.9981C82.4196 34.9981 82.1476 34.902 81.9503 34.71C81.7582 34.518 81.6622 34.278 81.6622 33.99ZM87.7748 37.9263V48.2472H85.8466V36.2622H87.6228L87.7748 37.9263ZM93.4153 40.5105V40.6786C93.4153 41.308 93.3406 41.892 93.1913 42.4307C93.0472 42.9641 92.8312 43.4308 92.5432 43.8308C92.2605 44.2255 91.9111 44.5322 91.4951 44.7509C91.0791 44.9696 90.599 45.079 90.055 45.079C89.5163 45.079 89.0442 44.9803 88.6389 44.7829C88.2388 44.5802 87.9001 44.2949 87.6228 43.9269C87.3454 43.5588 87.1214 43.1268 86.9507 42.6307C86.7854 42.1294 86.668 41.58 86.5987 40.9826V40.3345C86.668 39.6998 86.7854 39.1238 86.9507 38.6064C87.1214 38.089 87.3454 37.6436 87.6228 37.2703C87.9001 36.8969 88.2388 36.6089 88.6389 36.4062C89.0389 36.2035 89.5056 36.1022 90.039 36.1022C90.583 36.1022 91.0657 36.2088 91.4871 36.4222C91.9085 36.6302 92.2632 36.9289 92.5512 37.3183C92.8392 37.7023 93.0552 38.1663 93.1993 38.7104C93.3433 39.2491 93.4153 39.8492 93.4153 40.5105ZM91.4871 40.6786V40.5105C91.4871 40.1105 91.4498 39.7398 91.3751 39.3984C91.3004 39.0518 91.1831 38.7477 91.0231 38.4864C90.8631 38.225 90.6577 38.0223 90.407 37.8783C90.1617 37.729 89.8656 37.6543 89.5189 37.6543C89.1776 37.6543 88.8842 37.713 88.6389 37.8303C88.3935 37.9423 88.1881 38.0997 88.0228 38.3023C87.8574 38.505 87.7294 38.7424 87.6388 39.0144C87.5481 39.2811 87.4841 39.5718 87.4467 39.8865V41.4386C87.5107 41.8227 87.6201 42.1747 87.7748 42.4947C87.9295 42.8148 88.1481 43.0708 88.4308 43.2628C88.7189 43.4495 89.0869 43.5428 89.5349 43.5428C89.8816 43.5428 90.1777 43.4681 90.423 43.3188C90.6684 43.1695 90.8684 42.9641 91.0231 42.7027C91.1831 42.4361 91.3004 42.1294 91.3751 41.7827C91.4498 41.436 91.4871 41.0679 91.4871 40.6786Z" fill="#EDA54A"/>
<path d="M36.5667 66.2768L33.8122 73.8604H32.6864L35.8581 65.5396H36.5839L36.5667 66.2768ZM38.8755 73.8604L36.1152 66.2768L36.0981 65.5396H36.8239L40.007 73.8604H38.8755ZM38.7326 70.7801V71.683H34.0579V70.7801H38.7326ZM43.8588 65.0824H44.9218V72.6602L44.8303 73.8604H43.8588V65.0824ZM49.0993 70.7172V70.8372C49.0993 71.2868 49.0459 71.704 48.9393 72.0888C48.8326 72.4698 48.6764 72.8012 48.4706 73.0831C48.2649 73.3651 48.0135 73.5841 47.7163 73.7403C47.4191 73.8965 47.0781 73.9746 46.6933 73.9746C46.3009 73.9746 45.9561 73.908 45.659 73.7746C45.3656 73.6375 45.118 73.4413 44.916 73.186C44.7141 72.9307 44.5522 72.6221 44.4303 72.2602C44.3122 71.8983 44.2303 71.4906 44.1845 71.0372V70.5115C44.2303 70.0543 44.3122 69.6447 44.4303 69.2828C44.5522 68.9209 44.7141 68.6123 44.916 68.357C45.118 68.0979 45.3656 67.9017 45.659 67.7684C45.9523 67.6312 46.2933 67.5626 46.6819 67.5626C47.0705 67.5626 47.4153 67.6388 47.7163 67.7912C48.0173 67.9398 48.2687 68.1532 48.4706 68.4313C48.6764 68.7094 48.8326 69.0428 48.9393 69.4314C49.0459 69.8162 49.0993 70.2448 49.0993 70.7172ZM48.0363 70.8372V70.7172C48.0363 70.4086 48.0077 70.1191 47.9506 69.8486C47.8934 69.5743 47.802 69.3342 47.6763 69.1285C47.5506 68.919 47.3848 68.7551 47.1791 68.637C46.9734 68.5151 46.72 68.4542 46.419 68.4542C46.1523 68.4542 45.9199 68.4999 45.7218 68.5913C45.5275 68.6827 45.3618 68.8066 45.2246 68.9628C45.0875 69.1152 44.9751 69.2904 44.8875 69.4885C44.8036 69.6828 44.7408 69.8848 44.6989 70.0943V71.4716C44.7598 71.7383 44.8589 71.9954 44.996 72.2431C45.137 72.4869 45.3237 72.6869 45.5561 72.8431C45.7923 72.9993 46.0838 73.0774 46.4305 73.0774C46.7162 73.0774 46.96 73.0203 47.162 72.906C47.3677 72.7879 47.5334 72.626 47.6591 72.4202C47.7887 72.2145 47.8839 71.9764 47.9449 71.7059C48.0058 71.4354 48.0363 71.1458 48.0363 70.8372ZM54.2197 72.4317V67.6769H55.2827V73.8604H54.2712L54.2197 72.4317ZM54.4197 71.1287L54.8598 71.1172C54.8598 71.5287 54.816 71.9097 54.7283 72.2602C54.6445 72.6069 54.5074 72.9079 54.3169 73.1631C54.1264 73.4184 53.8768 73.6184 53.5682 73.7632C53.2596 73.9042 52.8844 73.9746 52.4424 73.9746C52.1414 73.9746 51.8652 73.9308 51.6138 73.8432C51.3661 73.7556 51.1528 73.6203 50.9737 73.4375C50.7947 73.2546 50.6556 73.0165 50.5565 72.7231C50.4613 72.4297 50.4137 72.0773 50.4137 71.6659V67.6769H51.4709V71.6773C51.4709 71.9554 51.5014 72.1859 51.5623 72.3688C51.6271 72.5479 51.7128 72.6907 51.8195 72.7974C51.93 72.9003 52.0519 72.9727 52.1853 73.0146C52.3224 73.0565 52.4634 73.0774 52.6082 73.0774C53.0577 73.0774 53.4139 72.9917 53.6768 72.8203C53.9397 72.645 54.1283 72.4107 54.2426 72.1173C54.3607 71.8202 54.4197 71.4906 54.4197 71.1287ZM56.8885 65.0824H57.9515V72.6602L57.8601 73.8604H56.8885V65.0824ZM62.129 70.7172V70.8372C62.129 71.2868 62.0757 71.704 61.969 72.0888C61.8623 72.4698 61.7061 72.8012 61.5004 73.0831C61.2947 73.3651 61.0432 73.5841 60.746 73.7403C60.4489 73.8965 60.1079 73.9746 59.7231 73.9746C59.3307 73.9746 58.9859 73.908 58.6887 73.7746C58.3953 73.6375 58.1477 73.4413 57.9458 73.186C57.7439 72.9307 57.5819 72.6221 57.46 72.2602C57.3419 71.8983 57.26 71.4906 57.2143 71.0372V70.5115C57.26 70.0543 57.3419 69.6447 57.46 69.2828C57.5819 68.9209 57.7439 68.6123 57.9458 68.357C58.1477 68.0979 58.3953 67.9017 58.6887 67.7684C58.9821 67.6312 59.323 67.5626 59.7117 67.5626C60.1003 67.5626 60.4451 67.6388 60.746 67.7912C61.047 67.9398 61.2985 68.1532 61.5004 68.4313C61.7061 68.7094 61.8623 69.0428 61.969 69.4314C62.0757 69.8162 62.129 70.2448 62.129 70.7172ZM61.0661 70.8372V70.7172C61.0661 70.4086 61.0375 70.1191 60.9803 69.8486C60.9232 69.5743 60.8318 69.3342 60.706 69.1285C60.5803 68.919 60.4146 68.7551 60.2088 68.637C60.0031 68.5151 59.7498 68.4542 59.4488 68.4542C59.1821 68.4542 58.9497 68.4999 58.7516 68.5913C58.5573 68.6827 58.3915 68.8066 58.2544 68.9628C58.1172 69.1152 58.0048 69.2904 57.9172 69.4885C57.8334 69.6828 57.7705 69.8848 57.7286 70.0943V71.4716C57.7896 71.7383 57.8886 71.9954 58.0258 72.2431C58.1668 72.4869 58.3534 72.6869 58.5858 72.8431C58.822 72.9993 59.1135 73.0774 59.4602 73.0774C59.7459 73.0774 59.9898 73.0203 60.1917 72.906C60.3974 72.7879 60.5632 72.626 60.6889 72.4202C60.8184 72.2145 60.9137 71.9764 60.9746 71.7059C61.0356 71.4354 61.0661 71.1458 61.0661 70.8372ZM63.4606 65.0824H64.5235V72.6602L64.4321 73.8604H63.4606V65.0824ZM68.701 70.7172V70.8372C68.701 71.2868 68.6477 71.704 68.541 72.0888C68.4343 72.4698 68.2781 72.8012 68.0724 73.0831C67.8667 73.3651 67.6152 73.5841 67.3181 73.7403C67.0209 73.8965 66.6799 73.9746 66.2951 73.9746C65.9027 73.9746 65.5579 73.908 65.2607 73.7746C64.9674 73.6375 64.7197 73.4413 64.5178 73.186C64.3159 72.9307 64.154 72.6221 64.032 72.2602C63.9139 71.8983 63.832 71.4906 63.7863 71.0372V70.5115C63.832 70.0543 63.9139 69.6447 64.032 69.2828C64.154 68.9209 64.3159 68.6123 64.5178 68.357C64.7197 68.0979 64.9674 67.9017 65.2607 67.7684C65.5541 67.6312 65.8951 67.5626 66.2837 67.5626C66.6723 67.5626 67.0171 67.6388 67.3181 67.7912C67.619 67.9398 67.8705 68.1532 68.0724 68.4313C68.2781 68.7094 68.4343 69.0428 68.541 69.4314C68.6477 69.8162 68.701 70.2448 68.701 70.7172ZM67.6381 70.8372V70.7172C67.6381 70.4086 67.6095 70.1191 67.5524 69.8486C67.4952 69.5743 67.4038 69.3342 67.2781 69.1285C67.1523 68.919 66.9866 68.7551 66.7809 68.637C66.5751 68.5151 66.3218 68.4542 66.0208 68.4542C65.7541 68.4542 65.5217 68.4999 65.3236 68.5913C65.1293 68.6827 64.9636 68.8066 64.8264 68.9628C64.6892 69.1152 64.5769 69.2904 64.4892 69.4885C64.4054 69.6828 64.3425 69.8848 64.3006 70.0943V71.4716C64.3616 71.7383 64.4607 71.9954 64.5978 72.2431C64.7388 72.4869 64.9255 72.6869 65.1579 72.8431C65.3941 72.9993 65.6855 73.0774 66.0322 73.0774C66.318 73.0774 66.5618 73.0203 66.7637 72.906C66.9695 72.7879 67.1352 72.626 67.2609 72.4202C67.3904 72.2145 67.4857 71.9764 67.5466 71.7059C67.6076 71.4354 67.6381 71.1458 67.6381 70.8372ZM71.187 65.0824V73.8604H70.124V65.0824H71.187ZM74.6216 73.2203L76.3417 67.6769H77.4733L74.993 74.8147C74.9359 74.9671 74.8597 75.1309 74.7644 75.3062C74.673 75.4853 74.5549 75.6548 74.4101 75.8148C74.2653 75.9748 74.0901 76.1044 73.8844 76.2034C73.6824 76.3063 73.4405 76.3577 73.1586 76.3577C73.0748 76.3577 72.9681 76.3463 72.8385 76.3234C72.709 76.3006 72.6176 76.2815 72.5642 76.2663L72.5585 75.4091C72.589 75.4129 72.6366 75.4167 72.7014 75.4205C72.77 75.4281 72.8176 75.4319 72.8443 75.4319C73.0843 75.4319 73.2881 75.3995 73.4557 75.3348C73.6234 75.2738 73.7643 75.169 73.8786 75.0205C73.9967 74.8757 74.0977 74.6757 74.1815 74.4204L74.6216 73.2203ZM73.3586 67.6769L74.9645 72.4774L75.2388 73.5918L74.4787 73.9804L72.2042 67.6769H73.3586ZM84.9311 72.2202C84.9311 72.0678 84.8968 71.9268 84.8282 71.7973C84.7634 71.664 84.6282 71.544 84.4224 71.4373C84.2205 71.3268 83.9157 71.2315 83.5081 71.1515C83.1652 71.0791 82.8547 70.9934 82.5766 70.8944C82.3023 70.7953 82.068 70.6753 81.8736 70.5343C81.6832 70.3934 81.5365 70.2276 81.4336 70.0372C81.3307 69.8467 81.2793 69.6238 81.2793 69.3685C81.2793 69.1247 81.3326 68.8942 81.4393 68.677C81.5498 68.4599 81.7041 68.2675 81.9022 68.0998C82.1041 67.9322 82.3461 67.8008 82.628 67.7055C82.9099 67.6103 83.2242 67.5626 83.5709 67.5626C84.0662 67.5626 84.4891 67.6503 84.8396 67.8255C85.1901 68.0008 85.4587 68.2351 85.6454 68.5284C85.8321 68.818 85.9254 69.1399 85.9254 69.4942H84.8682C84.8682 69.3228 84.8168 69.1571 84.7139 68.9971C84.6148 68.8332 84.4682 68.698 84.2739 68.5913C84.0834 68.4846 83.8491 68.4313 83.5709 68.4313C83.2776 68.4313 83.0395 68.477 82.8566 68.5684C82.6775 68.6561 82.5461 68.7685 82.4623 68.9056C82.3823 69.0428 82.3423 69.1875 82.3423 69.3399C82.3423 69.4542 82.3613 69.5571 82.3994 69.6485C82.4413 69.7362 82.5137 69.8181 82.6166 69.8943C82.7194 69.9667 82.8642 70.0352 83.0509 70.1C83.2376 70.1648 83.4757 70.2295 83.7652 70.2943C84.272 70.4086 84.6891 70.5458 85.0168 70.7058C85.3444 70.8658 85.5883 71.062 85.7483 71.2944C85.9083 71.5268 85.9883 71.8087 85.9883 72.1402C85.9883 72.4107 85.9312 72.6583 85.8169 72.8831C85.7064 73.1079 85.5445 73.3022 85.3311 73.466C85.1216 73.626 84.8701 73.7518 84.5767 73.8432C84.2872 73.9308 83.9615 73.9746 83.5995 73.9746C83.0547 73.9746 82.5937 73.8775 82.2165 73.6832C81.8394 73.4889 81.5536 73.2374 81.3593 72.9288C81.165 72.6202 81.0679 72.2945 81.0679 71.9516H82.1308C82.1461 72.2412 82.2299 72.4717 82.3823 72.6431C82.5347 72.8107 82.7213 72.9307 82.9423 73.0031C83.1633 73.0717 83.3824 73.106 83.5995 73.106C83.8891 73.106 84.131 73.0679 84.3253 72.9917C84.5234 72.9155 84.6739 72.8107 84.7768 72.6774C84.8796 72.544 84.9311 72.3916 84.9311 72.2202ZM87.097 70.8372V70.7058C87.097 70.26 87.1617 69.8467 87.2913 69.4657C87.4208 69.0809 87.6075 68.7475 87.8513 68.4656C88.0952 68.1798 88.3904 67.9589 88.7371 67.8027C89.0838 67.6426 89.4724 67.5626 89.9029 67.5626C90.3373 67.5626 90.7278 67.6426 91.0745 67.8027C91.425 67.9589 91.7222 68.1798 91.966 68.4656C92.2136 68.7475 92.4022 69.0809 92.5317 69.4657C92.6613 69.8467 92.7261 70.26 92.7261 70.7058V70.8372C92.7261 71.283 92.6613 71.6963 92.5317 72.0773C92.4022 72.4583 92.2136 72.7917 91.966 73.0774C91.7222 73.3594 91.4269 73.5803 91.0802 73.7403C90.7373 73.8965 90.3487 73.9746 89.9144 73.9746C89.48 73.9746 89.0895 73.8965 88.7428 73.7403C88.3961 73.5803 88.099 73.3594 87.8513 73.0774C87.6075 72.7917 87.4208 72.4583 87.2913 72.0773C87.1617 71.6963 87.097 71.283 87.097 70.8372ZM88.1542 70.7058V70.8372C88.1542 71.1458 88.1904 71.4373 88.2628 71.7116C88.3352 71.9821 88.4438 72.2221 88.5885 72.4317C88.7371 72.6412 88.9219 72.8069 89.1429 72.9288C89.3638 73.0469 89.621 73.106 89.9144 73.106C90.2039 73.106 90.4573 73.0469 90.6744 72.9288C90.8954 72.8069 91.0783 72.6412 91.2231 72.4317C91.3678 72.2221 91.4764 71.9821 91.5488 71.7116C91.625 71.4373 91.6631 71.1458 91.6631 70.8372V70.7058C91.6631 70.401 91.625 70.1133 91.5488 69.8428C91.4764 69.5685 91.3659 69.3266 91.2173 69.1171C91.0726 68.9037 90.8897 68.7361 90.6687 68.6142C90.4516 68.4922 90.1963 68.4313 89.9029 68.4313C89.6134 68.4313 89.3581 68.4922 89.1372 68.6142C88.92 68.7361 88.7371 68.9037 88.5885 69.1171C88.4438 69.3266 88.3352 69.5685 88.2628 69.8428C88.1904 70.1133 88.1542 70.401 88.1542 70.7058ZM96.5264 73.106C96.7778 73.106 97.0102 73.0546 97.2236 72.9517C97.437 72.8488 97.6122 72.7079 97.7494 72.5288C97.8865 72.3459 97.9646 72.1383 97.9837 71.9059H98.9895C98.9704 72.2716 98.8466 72.6126 98.618 72.9288C98.3932 73.2412 98.098 73.4946 97.7322 73.6889C97.3665 73.8794 96.9645 73.9746 96.5264 73.9746C96.0616 73.9746 95.6558 73.8927 95.3091 73.7289C94.9663 73.5651 94.6805 73.3403 94.4519 73.0546C94.2271 72.7688 94.0576 72.4412 93.9433 72.0716C93.8328 71.6983 93.7776 71.3039 93.7776 70.8887V70.6486C93.7776 70.2334 93.8328 69.8409 93.9433 69.4714C94.0576 69.098 94.2271 68.7685 94.4519 68.4827C94.6805 68.197 94.9663 67.9722 95.3091 67.8084C95.6558 67.6446 96.0616 67.5626 96.5264 67.5626C97.0102 67.5626 97.4331 67.6617 97.7951 67.8598C98.157 68.0541 98.4409 68.3208 98.6466 68.6599C98.8561 68.9952 98.9704 69.3761 98.9895 69.8028H97.9837C97.9646 69.5476 97.8922 69.3171 97.7665 69.1114C97.6446 68.9056 97.477 68.7418 97.2636 68.6199C97.0541 68.4942 96.8083 68.4313 96.5264 68.4313C96.2026 68.4313 95.9302 68.4961 95.7092 68.6256C95.492 68.7513 95.3187 68.9228 95.1891 69.1399C95.0634 69.3533 94.972 69.5914 94.9148 69.8543C94.8615 70.1133 94.8348 70.3781 94.8348 70.6486V70.8887C94.8348 71.1592 94.8615 71.4258 94.9148 71.6887C94.9682 71.9516 95.0577 72.1897 95.1834 72.4031C95.313 72.6164 95.4863 72.7879 95.7035 72.9174C95.9244 73.0431 96.1987 73.106 96.5264 73.106ZM101.327 67.6769V73.8604H100.264V67.6769H101.327ZM100.184 66.0368C100.184 65.8653 100.235 65.7206 100.338 65.6025C100.445 65.4844 100.601 65.4253 100.807 65.4253C101.009 65.4253 101.163 65.4844 101.27 65.6025C101.38 65.7206 101.435 65.8653 101.435 66.0368C101.435 66.2006 101.38 66.3416 101.27 66.4597C101.163 66.574 101.009 66.6311 100.807 66.6311C100.601 66.6311 100.445 66.574 100.338 66.4597C100.235 66.3416 100.184 66.2006 100.184 66.0368ZM106.67 72.8031V69.62C106.67 69.3761 106.621 69.1647 106.522 68.9856C106.426 68.8028 106.282 68.6618 106.087 68.5627C105.893 68.4637 105.653 68.4141 105.367 68.4141C105.101 68.4141 104.866 68.4599 104.664 68.5513C104.466 68.6427 104.31 68.7627 104.196 68.9113C104.085 69.0599 104.03 69.2199 104.03 69.3914H102.973C102.973 69.1704 103.03 68.9513 103.144 68.7342C103.258 68.517 103.422 68.3208 103.636 68.1456C103.853 67.9665 104.112 67.8255 104.413 67.7227C104.718 67.616 105.057 67.5626 105.43 67.5626C105.88 67.5626 106.276 67.6388 106.619 67.7912C106.965 67.9436 107.236 68.1741 107.43 68.4827C107.628 68.7875 107.727 69.1704 107.727 69.6314V72.5117C107.727 72.7174 107.745 72.9365 107.779 73.1689C107.817 73.4013 107.872 73.6013 107.945 73.7689V73.8604H106.842C106.788 73.7384 106.746 73.5765 106.716 73.3746C106.685 73.1689 106.67 72.9784 106.67 72.8031ZM106.853 70.1114L106.864 70.8544H105.796C105.495 70.8544 105.226 70.8791 104.99 70.9287C104.754 70.9744 104.556 71.0449 104.396 71.1401C104.236 71.2354 104.114 71.3554 104.03 71.5001C103.946 71.6411 103.904 71.8068 103.904 71.9973C103.904 72.1916 103.948 72.3688 104.036 72.5288C104.123 72.6888 104.255 72.8164 104.43 72.9117C104.609 73.0031 104.828 73.0488 105.087 73.0488C105.411 73.0488 105.697 72.9803 105.944 72.8431C106.192 72.706 106.388 72.5383 106.533 72.3402C106.682 72.1421 106.762 71.9497 106.773 71.763L107.225 72.2716C107.198 72.4317 107.125 72.6088 107.007 72.8031C106.889 72.9974 106.731 73.1841 106.533 73.3632C106.339 73.5384 106.106 73.6851 105.836 73.8032C105.569 73.9175 105.268 73.9746 104.933 73.9746C104.514 73.9746 104.146 73.8927 103.83 73.7289C103.518 73.5651 103.274 73.346 103.098 73.0717C102.927 72.7936 102.841 72.4831 102.841 72.1402C102.841 71.8087 102.906 71.5173 103.036 71.2658C103.165 71.0106 103.352 70.7991 103.596 70.6315C103.839 70.46 104.133 70.3305 104.476 70.2429C104.819 70.1553 105.201 70.1114 105.624 70.1114H106.853ZM110.539 65.0824V73.8604H109.476V65.0824H110.539ZM113.385 67.6769V73.8604H112.322V67.6769H113.385ZM112.242 66.0368C112.242 65.8653 112.294 65.7206 112.396 65.6025C112.503 65.4844 112.659 65.4253 112.865 65.4253C113.067 65.4253 113.221 65.4844 113.328 65.6025C113.438 65.7206 113.494 65.8653 113.494 66.0368C113.494 66.2006 113.438 66.3416 113.328 66.4597C113.221 66.574 113.067 66.6311 112.865 66.6311C112.659 66.6311 112.503 66.574 112.396 66.4597C112.294 66.3416 112.242 66.2006 112.242 66.0368ZM117.671 67.6769V68.4884H114.328V67.6769H117.671ZM115.46 66.1739H116.517V72.3288C116.517 72.5383 116.549 72.6964 116.614 72.8031C116.679 72.9098 116.763 72.9803 116.865 73.0146C116.968 73.0488 117.079 73.066 117.197 73.066C117.284 73.066 117.376 73.0584 117.471 73.0431C117.57 73.0241 117.644 73.0088 117.694 72.9974L117.7 73.8604C117.616 73.887 117.505 73.9118 117.368 73.9346C117.235 73.9613 117.073 73.9746 116.883 73.9746C116.623 73.9746 116.385 73.9232 116.168 73.8203C115.951 73.7175 115.778 73.546 115.648 73.306C115.522 73.0622 115.46 72.7345 115.46 72.3231V66.1739ZM121.477 73.9746C121.047 73.9746 120.656 73.9023 120.306 73.7575C119.959 73.6089 119.66 73.4013 119.408 73.1346C119.161 72.8679 118.97 72.5517 118.837 72.1859C118.704 71.8202 118.637 71.4201 118.637 70.9858V70.7458C118.637 70.2429 118.711 69.7952 118.86 69.4028C119.008 69.0066 119.21 68.6713 119.466 68.397C119.721 68.1227 120.01 67.9151 120.334 67.7741C120.658 67.6331 120.993 67.5626 121.34 67.5626C121.782 67.5626 122.163 67.6388 122.483 67.7912C122.807 67.9436 123.072 68.157 123.277 68.4313C123.483 68.7018 123.636 69.0218 123.735 69.3914C123.834 69.7571 123.883 70.1572 123.883 70.5915V71.0658H119.266V70.2029H122.826V70.1229C122.811 69.8486 122.754 69.5819 122.654 69.3228C122.559 69.0637 122.407 68.8504 122.197 68.6827C121.988 68.5151 121.702 68.4313 121.34 68.4313C121.1 68.4313 120.879 68.4827 120.677 68.5856C120.475 68.6846 120.302 68.8332 120.157 69.0313C120.012 69.2295 119.9 69.4714 119.82 69.7571C119.74 70.0429 119.7 70.3724 119.7 70.7458V70.9858C119.7 71.2792 119.74 71.5554 119.82 71.8145C119.904 72.0697 120.024 72.2945 120.18 72.4888C120.34 72.6831 120.532 72.8355 120.757 72.946C120.986 73.0565 121.245 73.1117 121.534 73.1117C121.908 73.1117 122.224 73.0355 122.483 72.8831C122.742 72.7307 122.969 72.5269 123.163 72.2716L123.803 72.7803C123.67 72.9822 123.5 73.1746 123.295 73.3574C123.089 73.5403 122.835 73.6889 122.534 73.8032C122.237 73.9175 121.885 73.9746 121.477 73.9746ZM34.4008 89.7631L35.9895 84.6769H36.6867L36.5496 85.6885L34.9323 90.8604H34.2522L34.4008 89.7631ZM33.3321 84.6769L34.6865 89.8203L34.7837 90.8604H34.0693L32.2749 84.6769H33.3321ZM38.2069 89.7803L39.4984 84.6769H40.5499L38.7555 90.8604H38.0468L38.2069 89.7803ZM36.841 84.6769L38.3954 89.6774L38.5726 90.8604H37.8983L36.2353 85.677L36.0981 84.6769H36.841ZM42.693 82.0824V90.8604H41.6357V82.0824H42.693ZM42.4415 87.5343L42.0015 87.5172C42.0053 87.0943 42.0682 86.7038 42.1901 86.3457C42.312 85.9837 42.4834 85.6694 42.7044 85.4027C42.9254 85.136 43.1883 84.9303 43.493 84.7855C43.8016 84.6369 44.1426 84.5626 44.516 84.5626C44.8208 84.5626 45.0951 84.6046 45.3389 84.6884C45.5828 84.7684 45.7904 84.8979 45.9618 85.077C46.1371 85.256 46.2704 85.4884 46.3619 85.7742C46.4533 86.0561 46.499 86.4009 46.499 86.8086V90.8604H45.4361V86.7971C45.4361 86.4733 45.3885 86.2142 45.2932 86.0199C45.198 85.8218 45.0589 85.6789 44.876 85.5913C44.6932 85.4999 44.4684 85.4542 44.2017 85.4542C43.9388 85.4542 43.6988 85.5094 43.4816 85.6199C43.2683 85.7304 43.0835 85.8828 42.9273 86.0771C42.7749 86.2714 42.6549 86.4942 42.5673 86.7457C42.4834 86.9933 42.4415 87.2562 42.4415 87.5343ZM47.802 87.8372V87.7058C47.802 87.26 47.8668 86.8467 47.9963 86.4657C48.1258 86.0809 48.3125 85.7475 48.5564 85.4656C48.8002 85.1798 49.0955 84.9589 49.4422 84.8027C49.7889 84.6426 50.1775 84.5626 50.608 84.5626C51.0423 84.5626 51.4328 84.6426 51.7795 84.8027C52.13 84.9589 52.4272 85.1798 52.671 85.4656C52.9187 85.7475 53.1072 86.0809 53.2368 86.4657C53.3663 86.8467 53.4311 87.26 53.4311 87.7058V87.8372C53.4311 88.283 53.3663 88.6963 53.2368 89.0773C53.1072 89.4583 52.9187 89.7917 52.671 90.0774C52.4272 90.3594 52.1319 90.5803 51.7852 90.7403C51.4423 90.8965 51.0537 90.9746 50.6194 90.9746C50.1851 90.9746 49.7946 90.8965 49.4479 90.7403C49.1012 90.5803 48.804 90.3594 48.5564 90.0774C48.3125 89.7917 48.1258 89.4583 47.9963 89.0773C47.8668 88.6963 47.802 88.283 47.802 87.8372ZM48.8592 87.7058V87.8372C48.8592 88.1458 48.8954 88.4373 48.9678 88.7116C49.0402 88.9821 49.1488 89.2221 49.2936 89.4317C49.4422 89.6412 49.6269 89.8069 49.8479 89.9288C50.0689 90.0469 50.326 90.106 50.6194 90.106C50.909 90.106 51.1623 90.0469 51.3795 89.9288C51.6004 89.8069 51.7833 89.6412 51.9281 89.4317C52.0729 89.2221 52.1815 88.9821 52.2538 88.7116C52.33 88.4373 52.3681 88.1458 52.3681 87.8372V87.7058C52.3681 87.401 52.33 87.1133 52.2538 86.8428C52.1815 86.5685 52.071 86.3266 51.9224 86.1171C51.7776 85.9037 51.5947 85.7361 51.3738 85.6142C51.1566 85.4922 50.9013 85.4313 50.608 85.4313C50.3184 85.4313 50.0632 85.4922 49.8422 85.6142C49.625 85.7361 49.4422 85.9037 49.2936 86.1171C49.1488 86.3266 49.0402 86.5685 48.9678 86.8428C48.8954 87.1133 48.8592 87.401 48.8592 87.7058ZM60.1345 90.106C60.386 90.106 60.6184 90.0546 60.8318 89.9517C61.0451 89.8488 61.2204 89.7079 61.3575 89.5288C61.4947 89.3459 61.5728 89.1383 61.5918 88.9059H62.5976C62.5786 89.2716 62.4548 89.6126 62.2262 89.9288C62.0014 90.2412 61.7061 90.4946 61.3404 90.6889C60.9746 90.8794 60.5727 90.9746 60.1345 90.9746C59.6697 90.9746 59.264 90.8927 58.9173 90.7289C58.5744 90.5651 58.2887 90.3403 58.0601 90.0546C57.8353 89.7688 57.6658 89.4412 57.5515 89.0716C57.441 88.6983 57.3857 88.3039 57.3857 87.8887V87.6486C57.3857 87.2334 57.441 86.8409 57.5515 86.4714C57.6658 86.098 57.8353 85.7685 58.0601 85.4827C58.2887 85.197 58.5744 84.9722 58.9173 84.8084C59.264 84.6446 59.6697 84.5626 60.1345 84.5626C60.6184 84.5626 61.0413 84.6617 61.4032 84.8598C61.7652 85.0541 62.049 85.3208 62.2547 85.6599C62.4643 85.9952 62.5786 86.3761 62.5976 86.8028H61.5918C61.5728 86.5476 61.5004 86.3171 61.3747 86.1114C61.2527 85.9056 61.0851 85.7418 60.8718 85.6199C60.6622 85.4942 60.4165 85.4313 60.1345 85.4313C59.8107 85.4313 59.5383 85.4961 59.3173 85.6256C59.1002 85.7513 58.9268 85.9228 58.7973 86.1399C58.6716 86.3533 58.5801 86.5914 58.523 86.8543C58.4696 87.1133 58.443 87.3781 58.443 87.6486V87.8887C58.443 88.1592 58.4696 88.4258 58.523 88.6887C58.5763 88.9516 58.6658 89.1897 58.7916 89.4031C58.9211 89.6164 59.0945 89.7879 59.3116 89.9174C59.5326 90.0431 59.8069 90.106 60.1345 90.106ZM67.4323 89.8031V86.62C67.4323 86.3761 67.3828 86.1647 67.2838 85.9856C67.1885 85.8028 67.0437 85.6618 66.8494 85.5627C66.6551 85.4637 66.4151 85.4141 66.1294 85.4141C65.8627 85.4141 65.6284 85.4599 65.4265 85.5513C65.2283 85.6427 65.0721 85.7627 64.9578 85.9113C64.8474 86.0599 64.7921 86.2199 64.7921 86.3914H63.7349C63.7349 86.1704 63.792 85.9513 63.9063 85.7342C64.0206 85.517 64.1844 85.3208 64.3978 85.1456C64.615 84.9665 64.874 84.8255 65.175 84.7227C65.4798 84.616 65.8189 84.5626 66.1922 84.5626C66.6418 84.5626 67.038 84.6388 67.3809 84.7912C67.7276 84.9436 67.9981 85.1741 68.1924 85.4827C68.3905 85.7875 68.4896 86.1704 68.4896 86.6314V89.5117C68.4896 89.7174 68.5067 89.9365 68.541 90.1689C68.5791 90.4013 68.6344 90.6013 68.7067 90.7689V90.8604H67.6038C67.5505 90.7384 67.5085 90.5765 67.4781 90.3746C67.4476 90.1689 67.4323 89.9784 67.4323 89.8031ZM67.6152 87.1114L67.6267 87.8544H66.558C66.257 87.8544 65.9884 87.8791 65.7522 87.9287C65.516 87.9744 65.3179 88.0449 65.1579 88.1401C64.9978 88.2354 64.8759 88.3554 64.7921 88.5001C64.7083 88.6411 64.6664 88.8068 64.6664 88.9973C64.6664 89.1916 64.7102 89.3688 64.7978 89.5288C64.8855 89.6888 65.0169 89.8164 65.1921 89.9117C65.3712 90.0031 65.5903 90.0488 65.8493 90.0488C66.1732 90.0488 66.4589 89.9803 66.7066 89.8431C66.9542 89.706 67.1504 89.5383 67.2952 89.3402C67.4438 89.1421 67.5238 88.9497 67.5352 88.763L67.9867 89.2716C67.96 89.4317 67.8876 89.6088 67.7695 89.8031C67.6514 89.9974 67.4933 90.1841 67.2952 90.3632C67.1009 90.5384 66.8685 90.6851 66.598 90.8032C66.3313 90.9175 66.0303 90.9746 65.695 90.9746C65.276 90.9746 64.9083 90.8927 64.5921 90.7289C64.2797 90.5651 64.0359 90.346 63.8606 90.0717C63.6892 89.7936 63.6034 89.4831 63.6034 89.1402C63.6034 88.8087 63.6682 88.5173 63.7977 88.2658C63.9273 88.0106 64.114 87.7991 64.3578 87.6315C64.6016 87.46 64.895 87.3305 65.2379 87.2429C65.5808 87.1553 65.9636 87.1114 66.3865 87.1114H67.6152ZM71.2098 85.9971V90.8604H70.1526V84.6769H71.1527L71.2098 85.9971ZM70.9584 87.5343L70.5183 87.5172C70.5221 87.0943 70.585 86.7038 70.7069 86.3457C70.8288 85.9837 71.0003 85.6694 71.2213 85.4027C71.4422 85.136 71.7051 84.9303 72.0099 84.7855C72.3185 84.6369 72.6595 84.5626 73.0329 84.5626C73.3376 84.5626 73.612 84.6046 73.8558 84.6884C74.0996 84.7684 74.3073 84.8979 74.4787 85.077C74.654 85.256 74.7873 85.4884 74.8787 85.7742C74.9702 86.0561 75.0159 86.4009 75.0159 86.8086V90.8604H73.9529V86.7971C73.9529 86.4733 73.9053 86.2142 73.8101 86.0199C73.7148 85.8218 73.5758 85.6789 73.3929 85.5913C73.21 85.4999 72.9852 85.4542 72.7185 85.4542C72.4557 85.4542 72.2156 85.5094 71.9985 85.6199C71.7851 85.7304 71.6003 85.8828 71.4441 86.0771C71.2917 86.2714 71.1717 86.4942 71.0841 86.7457C71.0003 86.9933 70.9584 87.2562 70.9584 87.5343ZM119.866 101.677V102.488H116.522V101.677H119.866ZM117.654 100.174H118.711V106.329C118.711 106.538 118.744 106.696 118.808 106.803C118.873 106.91 118.957 106.98 119.06 107.015C119.163 107.049 119.273 107.066 119.391 107.066C119.479 107.066 119.57 107.058 119.666 107.043C119.765 107.024 119.839 107.009 119.888 106.997L119.894 107.86C119.81 107.887 119.7 107.912 119.563 107.935C119.429 107.961 119.267 107.975 119.077 107.975C118.818 107.975 118.58 107.923 118.363 107.82C118.145 107.717 117.972 107.546 117.843 107.306C117.717 107.062 117.654 106.735 117.654 106.323V100.174ZM120.711 104.837V104.706C120.711 104.26 120.776 103.847 120.906 103.466C121.035 103.081 121.222 102.748 121.466 102.466C121.71 102.18 122.005 101.959 122.352 101.803C122.698 101.643 123.087 101.563 123.517 101.563C123.952 101.563 124.342 101.643 124.689 101.803C125.039 101.959 125.337 102.18 125.58 102.466C125.828 102.748 126.017 103.081 126.146 103.466C126.276 103.847 126.341 104.26 126.341 104.706V104.837C126.341 105.283 126.276 105.696 126.146 106.077C126.017 106.458 125.828 106.792 125.58 107.077C125.337 107.359 125.041 107.58 124.695 107.74C124.352 107.897 123.963 107.975 123.529 107.975C123.095 107.975 122.704 107.897 122.357 107.74C122.011 107.58 121.713 107.359 121.466 107.077C121.222 106.792 121.035 106.458 120.906 106.077C120.776 105.696 120.711 105.283 120.711 104.837ZM121.769 104.706V104.837C121.769 105.146 121.805 105.437 121.877 105.712C121.95 105.982 122.058 106.222 122.203 106.432C122.352 106.641 122.536 106.807 122.757 106.929C122.978 107.047 123.235 107.106 123.529 107.106C123.818 107.106 124.072 107.047 124.289 106.929C124.51 106.807 124.693 106.641 124.838 106.432C124.982 106.222 125.091 105.982 125.163 105.712C125.239 105.437 125.278 105.146 125.278 104.837V104.706C125.278 104.401 125.239 104.113 125.163 103.843C125.091 103.569 124.98 103.327 124.832 103.117C124.687 102.904 124.504 102.736 124.283 102.614C124.066 102.492 123.811 102.431 123.517 102.431C123.228 102.431 122.973 102.492 122.752 102.614C122.534 102.736 122.352 102.904 122.203 103.117C122.058 103.327 121.95 103.569 121.877 103.843C121.805 104.113 121.769 104.401 121.769 104.706ZM35.4238 118.677H36.4867V125.598C36.4867 125.975 36.4257 126.295 36.3038 126.558C36.1857 126.821 36.0067 127.019 35.7666 127.152C35.5304 127.289 35.2314 127.358 34.8694 127.358C34.7742 127.358 34.6637 127.348 34.538 127.329C34.4084 127.31 34.2998 127.287 34.2122 127.261L34.2179 126.409C34.2903 126.424 34.3722 126.436 34.4637 126.443C34.5551 126.455 34.6351 126.46 34.7037 126.46C34.8599 126.46 34.9913 126.432 35.098 126.375C35.2047 126.318 35.2847 126.226 35.338 126.1C35.3952 125.975 35.4238 125.807 35.4238 125.598V118.677ZM35.3152 117.037C35.3152 116.865 35.3685 116.721 35.4752 116.602C35.5819 116.484 35.7362 116.425 35.9381 116.425C36.1438 116.425 36.3 116.484 36.4067 116.602C36.5134 116.721 36.5667 116.865 36.5667 117.037C36.5667 117.201 36.5134 117.342 36.4067 117.46C36.3 117.574 36.1438 117.631 35.9381 117.631C35.7362 117.631 35.5819 117.574 35.4752 117.46C35.3685 117.342 35.3152 117.201 35.3152 117.037ZM37.9154 121.837V121.706C37.9154 121.26 37.9802 120.847 38.1097 120.466C38.2392 120.081 38.4259 119.748 38.6698 119.466C38.9136 119.18 39.2089 118.959 39.5556 118.803C39.9022 118.643 40.2909 118.563 40.7214 118.563C41.1557 118.563 41.5462 118.643 41.8929 118.803C42.2434 118.959 42.5406 119.18 42.7844 119.466C43.0321 119.748 43.2206 120.081 43.3502 120.466C43.4797 120.847 43.5445 121.26 43.5445 121.706V121.837C43.5445 122.283 43.4797 122.696 43.3502 123.077C43.2206 123.458 43.0321 123.792 42.7844 124.077C42.5406 124.359 42.2453 124.58 41.8986 124.74C41.5557 124.897 41.1671 124.975 40.7328 124.975C40.2985 124.975 39.908 124.897 39.5613 124.74C39.2146 124.58 38.9174 124.359 38.6698 124.077C38.4259 123.792 38.2392 123.458 38.1097 123.077C37.9802 122.696 37.9154 122.283 37.9154 121.837ZM38.9726 121.706V121.837C38.9726 122.146 39.0088 122.437 39.0812 122.712C39.1536 122.982 39.2622 123.222 39.407 123.432C39.5556 123.641 39.7403 123.807 39.9613 123.929C40.1823 124.047 40.4394 124.106 40.7328 124.106C41.0223 124.106 41.2757 124.047 41.4929 123.929C41.7138 123.807 41.8967 123.641 42.0415 123.432C42.1863 123.222 42.2948 122.982 42.3672 122.712C42.4434 122.437 42.4815 122.146 42.4815 121.837V121.706C42.4815 121.401 42.4434 121.113 42.3672 120.843C42.2948 120.569 42.1844 120.327 42.0358 120.117C41.891 119.904 41.7081 119.736 41.4872 119.614C41.27 119.492 41.0147 119.431 40.7214 119.431C40.4318 119.431 40.1766 119.492 39.9556 119.614C39.7384 119.736 39.5556 119.904 39.407 120.117C39.2622 120.327 39.1536 120.569 39.0812 120.843C39.0088 121.113 38.9726 121.401 38.9726 121.706ZM46.019 118.677V124.86H44.956V118.677H46.019ZM44.876 117.037C44.876 116.865 44.9275 116.721 45.0303 116.602C45.137 116.484 45.2932 116.425 45.4989 116.425C45.7009 116.425 45.8552 116.484 45.9618 116.602C46.0723 116.721 46.1276 116.865 46.1276 117.037C46.1276 117.201 46.0723 117.342 45.9618 117.46C45.8552 117.574 45.7009 117.631 45.4989 117.631C45.2932 117.631 45.137 117.574 45.0303 117.46C44.9275 117.342 44.876 117.201 44.876 117.037ZM48.7735 119.997V124.86H47.7163V118.677H48.7164L48.7735 119.997ZM48.5221 121.534L48.082 121.517C48.0858 121.094 48.1487 120.704 48.2706 120.346C48.3925 119.984 48.564 119.669 48.785 119.403C49.0059 119.136 49.2688 118.93 49.5736 118.786C49.8822 118.637 50.2232 118.563 50.5965 118.563C50.9013 118.563 51.1756 118.605 51.4195 118.688C51.6633 118.768 51.8709 118.898 52.0424 119.077C52.2176 119.256 52.351 119.488 52.4424 119.774C52.5339 120.056 52.5796 120.401 52.5796 120.809V124.86H51.5166V120.797C51.5166 120.473 51.469 120.214 51.3738 120.02C51.2785 119.822 51.1395 119.679 50.9566 119.591C50.7737 119.5 50.5489 119.454 50.2822 119.454C50.0194 119.454 49.7793 119.509 49.5622 119.62C49.3488 119.73 49.164 119.883 49.0078 120.077C48.8554 120.271 48.7354 120.494 48.6478 120.746C48.564 120.993 48.5221 121.256 48.5221 121.534ZM58.8259 124.22L60.546 118.677H61.6775L59.1973 125.815C59.1402 125.967 59.064 126.131 58.9687 126.306C58.8773 126.485 58.7592 126.655 58.6144 126.815C58.4696 126.975 58.2944 127.104 58.0886 127.203C57.8867 127.306 57.6448 127.358 57.3629 127.358C57.2791 127.358 57.1724 127.346 57.0428 127.323C56.9133 127.301 56.8219 127.282 56.7685 127.266L56.7628 126.409C56.7933 126.413 56.8409 126.417 56.9057 126.42C56.9743 126.428 57.0219 126.432 57.0486 126.432C57.2886 126.432 57.4924 126.4 57.66 126.335C57.8277 126.274 57.9686 126.169 58.0829 126.02C58.201 125.876 58.302 125.676 58.3858 125.42L58.8259 124.22ZM57.5629 118.677L59.1687 123.477L59.4431 124.592L58.683 124.98L56.4085 118.677H57.5629ZM62.2605 121.837V121.706C62.2605 121.26 62.3252 120.847 62.4548 120.466C62.5843 120.081 62.771 119.748 63.0148 119.466C63.2586 119.18 63.5539 118.959 63.9006 118.803C64.2473 118.643 64.6359 118.563 65.0664 118.563C65.5007 118.563 65.8913 118.643 66.238 118.803C66.5885 118.959 66.8856 119.18 67.1295 119.466C67.3771 119.748 67.5657 120.081 67.6952 120.466C67.8248 120.847 67.8895 121.26 67.8895 121.706V121.837C67.8895 122.283 67.8248 122.696 67.6952 123.077C67.5657 123.458 67.3771 123.792 67.1295 124.077C66.8856 124.359 66.5904 124.58 66.2437 124.74C65.9008 124.897 65.5122 124.975 65.0778 124.975C64.6435 124.975 64.253 124.897 63.9063 124.74C63.5596 124.58 63.2624 124.359 63.0148 124.077C62.771 123.792 62.5843 123.458 62.4548 123.077C62.3252 122.696 62.2605 122.283 62.2605 121.837ZM63.3177 121.706V121.837C63.3177 122.146 63.3539 122.437 63.4263 122.712C63.4987 122.982 63.6072 123.222 63.752 123.432C63.9006 123.641 64.0854 123.807 64.3064 123.929C64.5273 124.047 64.7845 124.106 65.0778 124.106C65.3674 124.106 65.6208 124.047 65.8379 123.929C66.0589 123.807 66.2418 123.641 66.3865 123.432C66.5313 123.222 66.6399 122.982 66.7123 122.712C66.7885 122.437 66.8266 122.146 66.8266 121.837V121.706C66.8266 121.401 66.7885 121.113 66.7123 120.843C66.6399 120.569 66.5294 120.327 66.3808 120.117C66.236 119.904 66.0532 119.736 65.8322 119.614C65.615 119.492 65.3598 119.431 65.0664 119.431C64.7769 119.431 64.5216 119.492 64.3006 119.614C64.0835 119.736 63.9006 119.904 63.752 120.117C63.6072 120.327 63.4987 120.569 63.4263 120.843C63.3539 121.113 63.3177 121.401 63.3177 121.706ZM72.9986 123.432V118.677H74.0615V124.86H73.05L72.9986 123.432ZM73.1986 122.129L73.6386 122.117C73.6386 122.529 73.5948 122.91 73.5072 123.26C73.4234 123.607 73.2862 123.908 73.0957 124.163C72.9052 124.418 72.6557 124.618 72.3471 124.763C72.0385 124.904 71.6632 124.975 71.2213 124.975C70.9203 124.975 70.6441 124.931 70.3926 124.843C70.145 124.756 69.9316 124.62 69.7526 124.437C69.5735 124.255 69.4344 124.016 69.3354 123.723C69.2401 123.43 69.1925 123.077 69.1925 122.666V118.677H70.2497V122.677C70.2497 122.955 70.2802 123.186 70.3412 123.369C70.4059 123.548 70.4917 123.691 70.5983 123.797C70.7088 123.9 70.8307 123.973 70.9641 124.015C71.1012 124.056 71.2422 124.077 71.387 124.077C71.8366 124.077 72.1928 123.992 72.4557 123.82C72.7185 123.645 72.9071 123.411 73.0214 123.117C73.1395 122.82 73.1986 122.491 73.1986 122.129ZM76.7303 119.648V124.86H75.6731V118.677H76.7018L76.7303 119.648ZM78.6619 118.643L78.6562 119.626C78.5686 119.607 78.4848 119.595 78.4048 119.591C78.3286 119.584 78.2409 119.58 78.1419 119.58C77.8981 119.58 77.6828 119.618 77.4961 119.694C77.3094 119.77 77.1513 119.877 77.0218 120.014C76.8922 120.151 76.7894 120.315 76.7132 120.506C76.6408 120.692 76.5932 120.898 76.5703 121.123L76.2731 121.294C76.2731 120.921 76.3093 120.57 76.3817 120.243C76.4579 119.915 76.5741 119.626 76.7303 119.374C76.8865 119.119 77.0846 118.921 77.3247 118.78C77.5685 118.635 77.858 118.563 78.1933 118.563C78.2695 118.563 78.3571 118.572 78.4562 118.591C78.5553 118.606 78.6238 118.624 78.6619 118.643ZM82.5709 118.677H83.6338V125.598C83.6338 125.975 83.5728 126.295 83.4509 126.558C83.3328 126.821 83.1538 127.019 82.9137 127.152C82.6775 127.289 82.3785 127.358 82.0165 127.358C81.9213 127.358 81.8108 127.348 81.6851 127.329C81.5555 127.31 81.4469 127.287 81.3593 127.261L81.365 126.409C81.4374 126.424 81.5193 126.436 81.6108 126.443C81.7022 126.455 81.7822 126.46 81.8508 126.46C82.007 126.46 82.1384 126.432 82.2451 126.375C82.3518 126.318 82.4318 126.226 82.4851 126.1C82.5423 125.975 82.5709 125.807 82.5709 125.598V118.677ZM82.4623 117.037C82.4623 116.865 82.5156 116.721 82.6223 116.602C82.729 116.484 82.8833 116.425 83.0852 116.425C83.2909 116.425 83.4471 116.484 83.5538 116.602C83.6605 116.721 83.7138 116.865 83.7138 117.037C83.7138 117.201 83.6605 117.342 83.5538 117.46C83.4471 117.574 83.2909 117.631 83.0852 117.631C82.8833 117.631 82.729 117.574 82.6223 117.46C82.5156 117.342 82.4623 117.201 82.4623 117.037ZM85.0625 121.837V121.706C85.0625 121.26 85.1273 120.847 85.2568 120.466C85.3863 120.081 85.573 119.748 85.8169 119.466C86.0607 119.18 86.356 118.959 86.7027 118.803C87.0494 118.643 87.438 118.563 87.8685 118.563C88.3028 118.563 88.6933 118.643 89.04 118.803C89.3905 118.959 89.6877 119.18 89.9315 119.466C90.1792 119.748 90.3677 120.081 90.4973 120.466C90.6268 120.847 90.6916 121.26 90.6916 121.706V121.837C90.6916 122.283 90.6268 122.696 90.4973 123.077C90.3677 123.458 90.1792 123.792 89.9315 124.077C89.6877 124.359 89.3924 124.58 89.0457 124.74C88.7028 124.897 88.3142 124.975 87.8799 124.975C87.4456 124.975 87.0551 124.897 86.7084 124.74C86.3617 124.58 86.0645 124.359 85.8169 124.077C85.573 123.792 85.3863 123.458 85.2568 123.077C85.1273 122.696 85.0625 122.283 85.0625 121.837ZM86.1197 121.706V121.837C86.1197 122.146 86.1559 122.437 86.2283 122.712C86.3007 122.982 86.4093 123.222 86.5541 123.432C86.7027 123.641 86.8874 123.807 87.1084 123.929C87.3294 124.047 87.5865 124.106 87.8799 124.106C88.1695 124.106 88.4228 124.047 88.64 123.929C88.8609 123.807 89.0438 123.641 89.1886 123.432C89.3334 123.222 89.4419 122.982 89.5143 122.712C89.5905 122.437 89.6286 122.146 89.6286 121.837V121.706C89.6286 121.401 89.5905 121.113 89.5143 120.843C89.4419 120.569 89.3315 120.327 89.1829 120.117C89.0381 119.904 88.8552 119.736 88.6343 119.614C88.4171 119.492 88.1618 119.431 87.8685 119.431C87.5789 119.431 87.3237 119.492 87.1027 119.614C86.8855 119.736 86.7027 119.904 86.5541 120.117C86.4093 120.327 86.3007 120.569 86.2283 120.843C86.1559 121.113 86.1197 121.401 86.1197 121.706ZM95.8006 123.432V118.677H96.8636V124.86H95.852L95.8006 123.432ZM96.0006 122.129L96.4407 122.117C96.4407 122.529 96.3969 122.91 96.3092 123.26C96.2254 123.607 96.0883 123.908 95.8978 124.163C95.7073 124.418 95.4577 124.618 95.1491 124.763C94.8405 124.904 94.4653 124.975 94.0233 124.975C93.7223 124.975 93.4461 124.931 93.1947 124.843C92.947 124.756 92.7337 124.62 92.5546 124.437C92.3755 124.255 92.2365 124.016 92.1374 123.723C92.0422 123.43 91.9946 123.077 91.9946 122.666V118.677H93.0518V122.677C93.0518 122.955 93.0823 123.186 93.1432 123.369C93.208 123.548 93.2937 123.691 93.4004 123.797C93.5109 123.9 93.6328 123.973 93.7661 124.015C93.9033 124.056 94.0443 124.077 94.189 124.077C94.6386 124.077 94.9948 123.992 95.2577 123.82C95.5206 123.645 95.7092 123.411 95.8235 123.117C95.9416 122.82 96.0006 122.491 96.0006 122.129ZM99.5324 119.648V124.86H98.4751V118.677H99.5038L99.5324 119.648ZM101.464 118.643L101.458 119.626C101.371 119.607 101.287 119.595 101.207 119.591C101.131 119.584 101.043 119.58 100.944 119.58C100.7 119.58 100.485 119.618 100.298 119.694C100.111 119.77 99.9534 119.877 99.8238 120.014C99.6943 120.151 99.5914 120.315 99.5152 120.506C99.4429 120.692 99.3952 120.898 99.3724 121.123L99.0752 121.294C99.0752 120.921 99.1114 120.57 99.1838 120.243C99.26 119.915 99.3762 119.626 99.5324 119.374C99.6886 119.119 99.8867 118.921 100.127 118.78C100.371 118.635 100.66 118.563 100.995 118.563C101.072 118.563 101.159 118.572 101.258 118.591C101.357 118.606 101.426 118.624 101.464 118.643ZM103.498 119.997V124.86H102.441V118.677H103.441L103.498 119.997ZM103.247 121.534L102.807 121.517C102.811 121.094 102.874 120.704 102.996 120.346C103.117 119.984 103.289 119.669 103.51 119.403C103.731 119.136 103.994 118.93 104.299 118.786C104.607 118.637 104.948 118.563 105.321 118.563C105.626 118.563 105.901 118.605 106.144 118.688C106.388 118.768 106.596 118.898 106.767 119.077C106.943 119.256 107.076 119.488 107.167 119.774C107.259 120.056 107.305 120.401 107.305 120.809V124.86H106.242V120.797C106.242 120.473 106.194 120.214 106.099 120.02C106.003 119.822 105.864 119.679 105.682 119.591C105.499 119.5 105.274 119.454 105.007 119.454C104.744 119.454 104.504 119.509 104.287 119.62C104.074 119.73 103.889 119.883 103.733 120.077C103.58 120.271 103.46 120.494 103.373 120.746C103.289 120.993 103.247 121.256 103.247 121.534ZM111.476 124.975C111.046 124.975 110.655 124.902 110.305 124.757C109.958 124.609 109.659 124.401 109.408 124.135C109.16 123.868 108.969 123.552 108.836 123.186C108.703 122.82 108.636 122.42 108.636 121.986V121.746C108.636 121.243 108.71 120.795 108.859 120.403C109.008 120.007 109.209 119.671 109.465 119.397C109.72 119.123 110.01 118.915 110.333 118.774C110.657 118.633 110.992 118.563 111.339 118.563C111.781 118.563 112.162 118.639 112.482 118.791C112.806 118.944 113.071 119.157 113.276 119.431C113.482 119.702 113.635 120.022 113.734 120.391C113.833 120.757 113.882 121.157 113.882 121.591V122.066H109.265V121.203H112.825V121.123C112.81 120.849 112.753 120.582 112.654 120.323C112.558 120.064 112.406 119.85 112.196 119.683C111.987 119.515 111.701 119.431 111.339 119.431C111.099 119.431 110.878 119.483 110.676 119.586C110.474 119.685 110.301 119.833 110.156 120.031C110.011 120.229 109.899 120.471 109.819 120.757C109.739 121.043 109.699 121.372 109.699 121.746V121.986C109.699 122.279 109.739 122.555 109.819 122.814C109.903 123.07 110.023 123.294 110.179 123.489C110.339 123.683 110.531 123.835 110.756 123.946C110.985 124.056 111.244 124.112 111.533 124.112C111.907 124.112 112.223 124.036 112.482 123.883C112.741 123.731 112.968 123.527 113.162 123.272L113.802 123.78C113.669 123.982 113.499 124.175 113.294 124.357C113.088 124.54 112.835 124.689 112.534 124.803C112.236 124.917 111.884 124.975 111.476 124.975ZM116.774 124.22L118.494 118.677H119.626L117.145 125.815C117.088 125.967 117.012 126.131 116.917 126.306C116.825 126.485 116.707 126.655 116.562 126.815C116.418 126.975 116.242 127.104 116.037 127.203C115.835 127.306 115.593 127.358 115.311 127.358C115.227 127.358 115.12 127.346 114.991 127.323C114.861 127.301 114.77 127.282 114.717 127.266L114.711 126.409C114.741 126.413 114.789 126.417 114.854 126.42C114.922 126.428 114.97 126.432 114.997 126.432C115.237 126.432 115.44 126.4 115.608 126.335C115.776 126.274 115.917 126.169 116.031 126.02C116.149 125.876 116.25 125.676 116.334 125.42L116.774 124.22ZM115.511 118.677L117.117 123.477L117.391 124.592L116.631 124.98L114.357 118.677H115.511ZM119.98 124.3C119.98 124.121 120.035 123.971 120.146 123.849C120.26 123.723 120.424 123.66 120.637 123.66C120.85 123.66 121.012 123.723 121.123 123.849C121.237 123.971 121.294 124.121 121.294 124.3C121.294 124.476 121.237 124.624 121.123 124.746C121.012 124.868 120.85 124.929 120.637 124.929C120.424 124.929 120.26 124.868 120.146 124.746C120.035 124.624 119.98 124.476 119.98 124.3Z" fill="#716F70"/>
<path d="M82.8966 89.1859C82.8966 89.0488 82.8623 88.9249 82.7937 88.8145C82.7252 88.7002 82.5937 88.5973 82.3994 88.5059C82.2089 88.4144 81.927 88.3306 81.5536 88.2544C81.226 88.182 80.925 88.0963 80.6507 87.9972C80.3802 87.8944 80.1478 87.7705 79.9535 87.6258C79.7592 87.481 79.6087 87.3096 79.502 87.1114C79.3953 86.9133 79.342 86.6847 79.342 86.4257C79.342 86.1742 79.3972 85.9361 79.5077 85.7113C79.6182 85.4865 79.7763 85.2884 79.982 85.117C80.1878 84.9455 80.4373 84.8103 80.7307 84.7112C81.0279 84.6122 81.3593 84.5626 81.7251 84.5626C82.2432 84.5626 82.6871 84.6503 83.0566 84.8255C83.43 84.997 83.7157 85.2313 83.9138 85.5284C84.1119 85.8218 84.211 86.1533 84.211 86.5228H82.8337C82.8337 86.359 82.7918 86.2066 82.708 86.0656C82.628 85.9209 82.5061 85.8047 82.3423 85.717C82.1784 85.6256 81.9727 85.5799 81.7251 85.5799C81.4889 85.5799 81.2926 85.618 81.1364 85.6942C80.984 85.7666 80.8697 85.8618 80.7936 85.9799C80.7212 86.098 80.685 86.2276 80.685 86.3685C80.685 86.4714 80.704 86.5647 80.7421 86.6485C80.784 86.7286 80.8526 86.8028 80.9479 86.8714C81.0431 86.9362 81.1726 86.9971 81.3365 87.0543C81.5041 87.1114 81.7136 87.1667 81.9651 87.22C82.4375 87.3191 82.8433 87.4467 83.1823 87.6029C83.5252 87.7553 83.7881 87.9534 83.971 88.1973C84.1539 88.4373 84.2453 88.7421 84.2453 89.1116C84.2453 89.3859 84.1862 89.6374 84.0681 89.866C83.9538 90.0908 83.7862 90.287 83.5652 90.4546C83.3443 90.6184 83.0795 90.7461 82.7709 90.8375C82.4661 90.9289 82.1232 90.9746 81.7422 90.9746C81.1822 90.9746 80.7078 90.8756 80.3192 90.6775C79.9306 90.4756 79.6354 90.2184 79.4334 89.906C79.2353 89.5898 79.1363 89.2621 79.1363 88.923H80.4678C80.483 89.1783 80.5535 89.3821 80.6793 89.5345C80.8088 89.6831 80.9688 89.7917 81.1593 89.8603C81.3536 89.925 81.5536 89.9574 81.7594 89.9574C82.007 89.9574 82.2146 89.925 82.3823 89.8603C82.5499 89.7917 82.6775 89.7002 82.7652 89.586C82.8528 89.4678 82.8966 89.3345 82.8966 89.1859ZM89.1714 89.4031V84.6769H90.5544V90.8604H89.2515L89.1714 89.4031ZM89.3658 88.1172L89.8286 88.1058C89.8286 88.5211 89.7829 88.904 89.6915 89.2545C89.6001 89.6012 89.4591 89.9041 89.2686 90.1631C89.0781 90.4184 88.8343 90.6184 88.5371 90.7632C88.2399 90.9042 87.8837 90.9746 87.4684 90.9746C87.1675 90.9746 86.8912 90.9308 86.6398 90.8432C86.3883 90.7556 86.1712 90.6203 85.9883 90.4375C85.8092 90.2546 85.6702 90.0165 85.5711 89.7231C85.4721 89.4297 85.4225 89.0792 85.4225 88.6716V84.6769H86.7998V88.683C86.7998 88.9078 86.8265 89.0964 86.8798 89.2488C86.9332 89.3974 87.0055 89.5174 87.097 89.6088C87.1884 89.7002 87.2951 89.765 87.417 89.8031C87.5389 89.8412 87.6685 89.8603 87.8056 89.8603C88.198 89.8603 88.5066 89.7841 88.7314 89.6317C88.96 89.4755 89.1219 89.2659 89.2172 89.003C89.3162 88.7402 89.3658 88.4449 89.3658 88.1172ZM93.3433 85.9342V90.8604H91.966V84.6769H93.2632L93.3433 85.9342ZM93.1204 87.5401L92.6518 87.5343C92.6518 87.1076 92.7051 86.7133 92.8118 86.3514C92.9185 85.9894 93.0747 85.6751 93.2804 85.4084C93.4861 85.1379 93.7414 84.9303 94.0462 84.7855C94.3548 84.6369 94.711 84.5626 95.1148 84.5626C95.3968 84.5626 95.6539 84.6046 95.8863 84.6884C96.1226 84.7684 96.3264 84.896 96.4978 85.0713C96.6731 85.2465 96.8064 85.4713 96.8979 85.7456C96.9931 86.0199 97.0407 86.3514 97.0407 86.74V90.8604H95.6635V86.86C95.6635 86.559 95.6177 86.3228 95.5263 86.1514C95.4387 85.9799 95.3111 85.858 95.1434 85.7856C94.9796 85.7094 94.7834 85.6713 94.5548 85.6713C94.2957 85.6713 94.0748 85.7208 93.8919 85.8199C93.7128 85.919 93.5661 86.0542 93.4518 86.2256C93.3375 86.3971 93.2537 86.5952 93.2004 86.82C93.147 87.0448 93.1204 87.2848 93.1204 87.5401ZM96.955 87.1743L96.3092 87.3172C96.3092 86.9438 96.3607 86.5914 96.4635 86.2599C96.5702 85.9247 96.7245 85.6313 96.9264 85.3799C97.1322 85.1246 97.3855 84.9246 97.6865 84.7798C97.9875 84.635 98.3323 84.5626 98.7209 84.5626C99.0371 84.5626 99.319 84.6065 99.5667 84.6941C99.8181 84.7779 100.031 84.9112 100.207 85.0941C100.382 85.277 100.515 85.5151 100.607 85.8085C100.698 86.098 100.744 86.4485 100.744 86.86V90.8604H99.3609V86.8543C99.3609 86.5419 99.3152 86.2999 99.2238 86.1285C99.1362 85.9571 99.0104 85.8389 98.8466 85.7742C98.6828 85.7056 98.4866 85.6713 98.258 85.6713C98.0446 85.6713 97.856 85.7113 97.6922 85.7913C97.5322 85.8675 97.397 85.9761 97.2865 86.1171C97.176 86.2542 97.0922 86.4123 97.035 86.5914C96.9817 86.7705 96.955 86.9648 96.955 87.1743ZM103.538 85.9342V90.8604H102.161V84.6769H103.458L103.538 85.9342ZM103.316 87.5401L102.847 87.5343C102.847 87.1076 102.9 86.7133 103.007 86.3514C103.114 85.9894 103.27 85.6751 103.476 85.4084C103.681 85.1379 103.937 84.9303 104.241 84.7855C104.55 84.6369 104.906 84.5626 105.31 84.5626C105.592 84.5626 105.849 84.6046 106.082 84.6884C106.318 84.7684 106.522 84.896 106.693 85.0713C106.868 85.2465 107.002 85.4713 107.093 85.7456C107.188 86.0199 107.236 86.3514 107.236 86.74V90.8604H105.859V86.86C105.859 86.559 105.813 86.3228 105.722 86.1514C105.634 85.9799 105.506 85.858 105.339 85.7856C105.175 85.7094 104.979 85.6713 104.75 85.6713C104.491 85.6713 104.27 85.7208 104.087 85.8199C103.908 85.919 103.761 86.0542 103.647 86.2256C103.533 86.3971 103.449 86.5952 103.396 86.82C103.342 87.0448 103.316 87.2848 103.316 87.5401ZM107.15 87.1743L106.504 87.3172C106.504 86.9438 106.556 86.5914 106.659 86.2599C106.765 85.9247 106.92 85.6313 107.122 85.3799C107.327 85.1246 107.581 84.9246 107.882 84.7798C108.183 84.635 108.527 84.5626 108.916 84.5626C109.232 84.5626 109.514 84.6065 109.762 84.6941C110.013 84.7779 110.227 84.9112 110.402 85.0941C110.577 85.277 110.711 85.5151 110.802 85.8085C110.893 86.098 110.939 86.4485 110.939 86.86V90.8604H109.556V86.8543C109.556 86.5419 109.51 86.2999 109.419 86.1285C109.331 85.9571 109.206 85.8389 109.042 85.7742C108.878 85.7056 108.682 85.6713 108.453 85.6713C108.24 85.6713 108.051 85.7113 107.887 85.7913C107.727 85.8675 107.592 85.9761 107.482 86.1171C107.371 86.2542 107.287 86.4123 107.23 86.5914C107.177 86.7705 107.15 86.9648 107.15 87.1743ZM112.094 87.8372V87.7058C112.094 87.26 112.158 86.8467 112.288 86.4657C112.417 86.0809 112.604 85.7475 112.848 85.4656C113.096 85.1798 113.396 84.9589 113.751 84.8027C114.109 84.6426 114.513 84.5626 114.962 84.5626C115.416 84.5626 115.82 84.6426 116.174 84.8027C116.532 84.9589 116.835 85.1798 117.083 85.4656C117.33 85.7475 117.519 86.0809 117.648 86.4657C117.778 86.8467 117.843 87.26 117.843 87.7058V87.8372C117.843 88.283 117.778 88.6963 117.648 89.0773C117.519 89.4583 117.33 89.7917 117.083 90.0774C116.835 90.3594 116.534 90.5803 116.18 90.7403C115.825 90.8965 115.423 90.9746 114.974 90.9746C114.52 90.9746 114.115 90.8965 113.757 90.7403C113.402 90.5803 113.101 90.3594 112.854 90.0774C112.606 89.7917 112.417 89.4583 112.288 89.0773C112.158 88.6963 112.094 88.283 112.094 87.8372ZM113.471 87.7058V87.8372C113.471 88.1153 113.499 88.3782 113.557 88.6259C113.614 88.8735 113.703 89.0907 113.825 89.2774C113.947 89.464 114.103 89.6107 114.294 89.7174C114.484 89.8241 114.711 89.8774 114.974 89.8774C115.229 89.8774 115.45 89.8241 115.637 89.7174C115.827 89.6107 115.983 89.464 116.105 89.2774C116.227 89.0907 116.317 88.8735 116.374 88.6259C116.435 88.3782 116.465 88.1153 116.465 87.8372V87.7058C116.465 87.4315 116.435 87.1724 116.374 86.9286C116.317 86.6809 116.225 86.4619 116.1 86.2714C115.978 86.0809 115.821 85.9323 115.631 85.8256C115.444 85.7151 115.221 85.6599 114.962 85.6599C114.703 85.6599 114.478 85.7151 114.288 85.8256C114.101 85.9323 113.947 86.0809 113.825 86.2714C113.703 86.4619 113.614 86.6809 113.557 86.9286C113.499 87.1724 113.471 87.4315 113.471 87.7058ZM120.363 85.9971V90.8604H118.986V84.6769H120.283L120.363 85.9971ZM120.117 87.5401L119.671 87.5343C119.675 87.0962 119.736 86.6943 119.854 86.3285C119.976 85.9628 120.144 85.6485 120.357 85.3856C120.574 85.1227 120.833 84.9208 121.134 84.7798C121.435 84.635 121.771 84.5626 122.14 84.5626C122.437 84.5626 122.706 84.6046 122.946 84.6884C123.19 84.7684 123.397 84.8998 123.569 85.0827C123.744 85.2656 123.877 85.5037 123.969 85.797C124.06 86.0866 124.106 86.4428 124.106 86.8657V90.8604H122.723V86.86C122.723 86.5628 122.679 86.3285 122.592 86.1571C122.508 85.9818 122.384 85.858 122.22 85.7856C122.06 85.7094 121.86 85.6713 121.62 85.6713C121.384 85.6713 121.172 85.7208 120.986 85.8199C120.799 85.919 120.641 86.0542 120.511 86.2256C120.386 86.3971 120.289 86.5952 120.22 86.82C120.151 87.0448 120.117 87.2848 120.117 87.5401ZM32.5435 107.86H31.1662V101.083C31.1662 100.622 31.2519 100.235 31.4234 99.9225C31.5986 99.6063 31.8482 99.3682 32.172 99.2081C32.4959 99.0443 32.8788 98.9624 33.3207 98.9624C33.4579 98.9624 33.5931 98.9719 33.7265 98.991C33.8598 99.0062 33.9893 99.031 34.1151 99.0653L34.0808 100.128C34.0046 100.109 33.9208 100.096 33.8293 100.088C33.7417 100.081 33.6464 100.077 33.5436 100.077C33.334 100.077 33.1531 100.117 33.0007 100.197C32.8521 100.273 32.7378 100.385 32.6578 100.534C32.5816 100.683 32.5435 100.865 32.5435 101.083V107.86ZM33.8179 101.677V102.683H30.2176V101.677H33.8179ZM36.201 102.854V107.86H34.8237V101.677H36.1381L36.201 102.854ZM38.0926 101.637L38.0811 102.917C37.9973 102.902 37.9059 102.89 37.8068 102.883C37.7116 102.875 37.6163 102.871 37.5211 102.871C37.2849 102.871 37.0772 102.906 36.8982 102.974C36.7191 103.039 36.5686 103.134 36.4467 103.26C36.3286 103.382 36.2372 103.53 36.1724 103.706C36.1076 103.881 36.0695 104.077 36.0581 104.294L35.7438 104.317C35.7438 103.929 35.7819 103.569 35.8581 103.237C35.9343 102.906 36.0486 102.614 36.201 102.363C36.3572 102.111 36.5515 101.915 36.7839 101.774C37.0201 101.633 37.2925 101.563 37.6011 101.563C37.6849 101.563 37.7744 101.57 37.8697 101.586C37.9687 101.601 38.043 101.618 38.0926 101.637ZM40.4299 101.677V107.86H39.0469V101.677H40.4299ZM38.9555 100.054C38.9555 99.8444 39.0241 99.671 39.1612 99.5339C39.3022 99.3929 39.4965 99.3224 39.7441 99.3224C39.988 99.3224 40.1804 99.3929 40.3213 99.5339C40.4623 99.671 40.5328 99.8444 40.5328 100.054C40.5328 100.26 40.4623 100.431 40.3213 100.568C40.1804 100.705 39.988 100.774 39.7441 100.774C39.4965 100.774 39.3022 100.705 39.1612 100.568C39.0241 100.431 38.9555 100.26 38.9555 100.054ZM44.6646 107.975C44.2074 107.975 43.794 107.9 43.4245 107.752C43.0587 107.599 42.7463 107.388 42.4872 107.117C42.232 106.847 42.0358 106.529 41.8986 106.163C41.7615 105.797 41.6929 105.403 41.6929 104.98V104.752C41.6929 104.268 41.7634 103.83 41.9043 103.437C42.0453 103.045 42.2415 102.709 42.493 102.431C42.7444 102.149 43.0416 101.934 43.3845 101.786C43.7274 101.637 44.0988 101.563 44.4989 101.563C44.9408 101.563 45.3275 101.637 45.659 101.786C45.9904 101.934 46.2647 102.144 46.4819 102.414C46.7029 102.681 46.8667 102.999 46.9734 103.369C47.0838 103.738 47.1391 104.146 47.1391 104.591V105.18H42.3615V104.191H45.779V104.083C45.7714 103.835 45.7218 103.603 45.6304 103.386C45.5428 103.169 45.4075 102.993 45.2246 102.86C45.0418 102.727 44.7979 102.66 44.4931 102.66C44.2645 102.66 44.0607 102.709 43.8817 102.808C43.7064 102.904 43.5597 103.043 43.4416 103.226C43.3235 103.409 43.2321 103.629 43.1673 103.889C43.1063 104.144 43.0759 104.431 43.0759 104.752V104.98C43.0759 105.251 43.1121 105.502 43.1845 105.734C43.2606 105.963 43.3711 106.163 43.5159 106.334C43.6607 106.506 43.8359 106.641 44.0417 106.74C44.2474 106.835 44.4817 106.883 44.7446 106.883C45.076 106.883 45.3713 106.816 45.6304 106.683C45.8895 106.55 46.1142 106.361 46.3047 106.117L47.0305 106.82C46.8972 107.015 46.7238 107.201 46.5105 107.38C46.2971 107.556 46.0361 107.698 45.7275 107.809C45.4227 107.919 45.0684 107.975 44.6646 107.975ZM49.5793 102.997V107.86H48.202V101.677H49.4993L49.5793 102.997ZM49.3336 104.54L48.8878 104.534C48.8916 104.096 48.9526 103.694 49.0707 103.329C49.1926 102.963 49.3602 102.648 49.5736 102.386C49.7908 102.123 50.0498 101.921 50.3508 101.78C50.6518 101.635 50.9871 101.563 51.3566 101.563C51.6538 101.563 51.9224 101.605 52.1624 101.688C52.4062 101.768 52.6139 101.9 52.7853 102.083C52.9606 102.266 53.0939 102.504 53.1854 102.797C53.2768 103.087 53.3225 103.443 53.3225 103.866V107.86H51.9395V103.86C51.9395 103.563 51.8957 103.329 51.8081 103.157C51.7243 102.982 51.6004 102.858 51.4366 102.786C51.2766 102.709 51.0766 102.671 50.8366 102.671C50.6004 102.671 50.3889 102.721 50.2022 102.82C50.0155 102.919 49.8574 103.054 49.7279 103.226C49.6022 103.397 49.505 103.595 49.4364 103.82C49.3679 104.045 49.3336 104.285 49.3336 104.54ZM58.5001 106.58V99.0824H59.8831V107.86H58.6316L58.5001 106.58ZM54.4769 104.837V104.717C54.4769 104.249 54.5321 103.822 54.6426 103.437C54.7531 103.048 54.9131 102.715 55.1227 102.437C55.3322 102.155 55.5875 101.94 55.8885 101.791C56.1894 101.639 56.5285 101.563 56.9057 101.563C57.2791 101.563 57.6067 101.635 57.8886 101.78C58.1706 101.925 58.4106 102.132 58.6087 102.403C58.8068 102.669 58.9649 102.989 59.083 103.363C59.2011 103.732 59.2849 104.144 59.3345 104.597V104.98C59.2849 105.422 59.2011 105.826 59.083 106.192C58.9649 106.557 58.8068 106.874 58.6087 107.14C58.4106 107.407 58.1687 107.613 57.8829 107.757C57.601 107.902 57.2714 107.975 56.8943 107.975C56.5209 107.975 56.1837 107.897 55.8827 107.74C55.5856 107.584 55.3322 107.365 55.1227 107.083C54.9131 106.801 54.7531 106.47 54.6426 106.089C54.5321 105.704 54.4769 105.287 54.4769 104.837ZM55.8542 104.717V104.837C55.8542 105.119 55.8789 105.382 55.9285 105.626C55.9818 105.87 56.0637 106.085 56.1742 106.272C56.2847 106.455 56.4275 106.599 56.6028 106.706C56.7819 106.809 56.9952 106.86 57.2429 106.86C57.5553 106.86 57.8124 106.792 58.0144 106.655C58.2163 106.517 58.3744 106.333 58.4887 106.1C58.6068 105.864 58.6868 105.601 58.7287 105.312V104.277C58.7058 104.052 58.6582 103.843 58.5858 103.649C58.5173 103.454 58.4239 103.285 58.3058 103.14C58.1877 102.991 58.041 102.877 57.8658 102.797C57.6943 102.713 57.4905 102.671 57.2543 102.671C57.0028 102.671 56.7895 102.725 56.6142 102.831C56.439 102.938 56.2942 103.085 56.1799 103.271C56.0694 103.458 55.9875 103.675 55.9342 103.923C55.8808 104.17 55.8542 104.435 55.8542 104.717ZM62.7976 99.0824V107.86H61.4147V99.0824H62.7976ZM66.1008 107.186L67.781 101.677H69.2554L66.7751 108.803C66.718 108.956 66.6437 109.121 66.5523 109.3C66.4608 109.48 66.3408 109.649 66.1922 109.809C66.0475 109.973 65.8665 110.104 65.6493 110.203C65.4322 110.306 65.1693 110.358 64.8607 110.358C64.7388 110.358 64.6207 110.346 64.5064 110.323C64.3959 110.304 64.2911 110.283 64.1921 110.261L64.1863 109.209C64.2244 109.213 64.2702 109.217 64.3235 109.22C64.3806 109.224 64.4264 109.226 64.4607 109.226C64.6892 109.226 64.8797 109.198 65.0321 109.14C65.1845 109.087 65.3083 109 65.4036 108.878C65.5027 108.756 65.5865 108.592 65.655 108.386L66.1008 107.186ZM65.1521 101.677L66.6208 106.306L66.8666 107.757L65.9122 108.003L63.6663 101.677H65.1521ZM76.4446 106.62V103.671C76.4446 103.45 76.4046 103.26 76.3246 103.1C76.2446 102.94 76.1227 102.816 75.9588 102.728C75.7988 102.641 75.5969 102.597 75.3531 102.597C75.1283 102.597 74.934 102.635 74.7702 102.711C74.6063 102.788 74.4787 102.89 74.3873 103.02C74.2958 103.149 74.2501 103.296 74.2501 103.46H72.8786C72.8786 103.216 72.9376 102.98 73.0557 102.751C73.1738 102.523 73.3453 102.319 73.57 102.14C73.7948 101.961 74.0634 101.82 74.3758 101.717C74.6882 101.614 75.0387 101.563 75.4274 101.563C75.8922 101.563 76.3036 101.641 76.6617 101.797C77.0237 101.953 77.3075 102.189 77.5133 102.506C77.7228 102.818 77.8276 103.21 77.8276 103.683V106.432C77.8276 106.714 77.8466 106.967 77.8847 107.192C77.9266 107.413 77.9857 107.605 78.0619 107.769V107.86H76.6503C76.5856 107.712 76.5341 107.523 76.496 107.295C76.4617 107.062 76.4446 106.837 76.4446 106.62ZM76.6446 104.1L76.656 104.952H75.6674C75.4121 104.952 75.1873 104.976 74.993 105.026C74.7987 105.072 74.6368 105.14 74.5073 105.232C74.3777 105.323 74.2806 105.433 74.2158 105.563C74.151 105.693 74.1187 105.839 74.1187 106.003C74.1187 106.167 74.1568 106.317 74.233 106.455C74.3092 106.588 74.4196 106.693 74.5644 106.769C74.713 106.845 74.8921 106.883 75.1016 106.883C75.3835 106.883 75.6293 106.826 75.8388 106.712C76.0522 106.594 76.2198 106.451 76.3417 106.283C76.4636 106.112 76.5284 105.95 76.536 105.797L76.9818 106.409C76.9361 106.565 76.858 106.733 76.7475 106.912C76.637 107.091 76.4922 107.262 76.3131 107.426C76.1379 107.586 75.9264 107.717 75.6788 107.82C75.435 107.923 75.153 107.975 74.833 107.975C74.4292 107.975 74.0691 107.895 73.7529 107.735C73.4367 107.571 73.1891 107.352 73.01 107.077C72.8309 106.799 72.7414 106.485 72.7414 106.134C72.7414 105.807 72.8024 105.517 72.9243 105.266C73.05 105.011 73.2329 104.797 73.4729 104.626C73.7167 104.454 74.0139 104.325 74.3644 104.237C74.7149 104.146 75.1149 104.1 75.5645 104.1H76.6446ZM80.6335 102.997V107.86H79.2563V101.677H80.5535L80.6335 102.997ZM80.3878 104.54L79.942 104.534C79.9459 104.096 80.0068 103.694 80.1249 103.329C80.2468 102.963 80.4145 102.648 80.6278 102.386C80.845 102.123 81.1041 101.921 81.405 101.78C81.706 101.635 82.0413 101.563 82.4108 101.563C82.708 101.563 82.9766 101.605 83.2166 101.688C83.4605 101.768 83.6681 101.9 83.8395 102.083C84.0148 102.266 84.1481 102.504 84.2396 102.797C84.331 103.087 84.3767 103.443 84.3767 103.866V107.86H82.9937V103.86C82.9937 103.563 82.9499 103.329 82.8623 103.157C82.7785 102.982 82.6547 102.858 82.4908 102.786C82.3308 102.709 82.1308 102.671 81.8908 102.671C81.6546 102.671 81.4431 102.721 81.2564 102.82C81.0698 102.919 80.9117 103.054 80.7821 103.226C80.6564 103.397 80.5592 103.595 80.4907 103.82C80.4221 104.045 80.3878 104.285 80.3878 104.54ZM87.257 101.677V107.86H85.874V101.677H87.257ZM85.7826 100.054C85.7826 99.8444 85.8511 99.671 85.9883 99.5339C86.1293 99.3929 86.3236 99.3224 86.5712 99.3224C86.815 99.3224 87.0074 99.3929 87.1484 99.5339C87.2894 99.671 87.3599 99.8444 87.3599 100.054C87.3599 100.26 87.2894 100.431 87.1484 100.568C87.0074 100.705 86.815 100.774 86.5712 100.774C86.3236 100.774 86.1293 100.705 85.9883 100.568C85.8511 100.431 85.7826 100.26 85.7826 100.054ZM90.143 102.934V107.86H88.7657V101.677H90.063L90.143 102.934ZM89.9201 104.54L89.4515 104.534C89.4515 104.108 89.5048 103.713 89.6115 103.351C89.7182 102.989 89.8744 102.675 90.0801 102.408C90.2858 102.138 90.5411 101.93 90.8459 101.786C91.1545 101.637 91.5107 101.563 91.9146 101.563C92.1965 101.563 92.4536 101.605 92.686 101.688C92.9223 101.768 93.1261 101.896 93.2975 102.071C93.4728 102.247 93.6061 102.471 93.6976 102.746C93.7928 103.02 93.8404 103.351 93.8404 103.74V107.86H92.4632V103.86C92.4632 103.559 92.4175 103.323 92.326 103.151C92.2384 102.98 92.1108 102.858 91.9431 102.786C91.7793 102.709 91.5831 102.671 91.3545 102.671C91.0954 102.671 90.8745 102.721 90.6916 102.82C90.5125 102.919 90.3658 103.054 90.2515 103.226C90.1372 103.397 90.0534 103.595 90.0001 103.82C89.9468 104.045 89.9201 104.285 89.9201 104.54ZM93.7547 104.174L93.1089 104.317C93.1089 103.944 93.1604 103.591 93.2632 103.26C93.3699 102.925 93.5242 102.631 93.7261 102.38C93.9319 102.125 94.1852 101.925 94.4862 101.78C94.7872 101.635 95.132 101.563 95.5206 101.563C95.8368 101.563 96.1187 101.606 96.3664 101.694C96.6178 101.778 96.8312 101.911 97.0064 102.094C97.1817 102.277 97.315 102.515 97.4065 102.808C97.4979 103.098 97.5436 103.449 97.5436 103.86V107.86H96.1606V103.854C96.1606 103.542 96.1149 103.3 96.0235 103.128C95.9359 102.957 95.8101 102.839 95.6463 102.774C95.4825 102.706 95.2863 102.671 95.0577 102.671C94.8443 102.671 94.6557 102.711 94.4919 102.791C94.3319 102.868 94.1967 102.976 94.0862 103.117C93.9757 103.254 93.8919 103.412 93.8347 103.591C93.7814 103.77 93.7547 103.965 93.7547 104.174ZM102.447 106.62V103.671C102.447 103.45 102.407 103.26 102.327 103.1C102.247 102.94 102.125 102.816 101.961 102.728C101.801 102.641 101.599 102.597 101.355 102.597C101.131 102.597 100.936 102.635 100.772 102.711C100.609 102.788 100.481 102.89 100.39 103.02C100.298 103.149 100.252 103.296 100.252 103.46H98.8809C98.8809 103.216 98.9399 102.98 99.0581 102.751C99.1762 102.523 99.3476 102.319 99.5724 102.14C99.7972 101.961 100.066 101.82 100.378 101.717C100.691 101.614 101.041 101.563 101.43 101.563C101.894 101.563 102.306 101.641 102.664 101.797C103.026 101.953 103.31 102.189 103.516 102.506C103.725 102.818 103.83 103.21 103.83 103.683V106.432C103.83 106.714 103.849 106.967 103.887 107.192C103.929 107.413 103.988 107.605 104.064 107.769V107.86H102.653C102.588 107.712 102.536 107.523 102.498 107.295C102.464 107.062 102.447 106.837 102.447 106.62ZM102.647 104.1L102.658 104.952H101.67C101.414 104.952 101.19 104.976 100.995 105.026C100.801 105.072 100.639 105.14 100.51 105.232C100.38 105.323 100.283 105.433 100.218 105.563C100.153 105.693 100.121 105.839 100.121 106.003C100.121 106.167 100.159 106.317 100.235 106.455C100.311 106.588 100.422 106.693 100.567 106.769C100.715 106.845 100.894 106.883 101.104 106.883C101.386 106.883 101.632 106.826 101.841 106.712C102.055 106.594 102.222 106.451 102.344 106.283C102.466 106.112 102.531 105.95 102.538 105.797L102.984 106.409C102.938 106.565 102.86 106.733 102.75 106.912C102.639 107.091 102.495 107.262 102.315 107.426C102.14 107.586 101.929 107.717 101.681 107.82C101.437 107.923 101.155 107.975 100.835 107.975C100.432 107.975 100.071 107.895 99.7553 107.735C99.439 107.571 99.1914 107.352 99.0123 107.077C98.8333 106.799 98.7437 106.485 98.7437 106.134C98.7437 105.807 98.8047 105.517 98.9266 105.266C99.0523 105.011 99.2352 104.797 99.4752 104.626C99.7191 104.454 100.016 104.325 100.367 104.237C100.717 104.146 101.117 104.1 101.567 104.1H102.647ZM106.744 99.0824V107.86H105.361V99.0824H106.744ZM111.722 106.186C111.722 106.049 111.688 105.925 111.619 105.814C111.551 105.7 111.419 105.597 111.225 105.506C111.034 105.414 110.752 105.331 110.379 105.254C110.051 105.182 109.75 105.096 109.476 104.997C109.206 104.894 108.973 104.771 108.779 104.626C108.585 104.481 108.434 104.31 108.327 104.111C108.221 103.913 108.167 103.685 108.167 103.426C108.167 103.174 108.223 102.936 108.333 102.711C108.444 102.487 108.602 102.288 108.808 102.117C109.013 101.946 109.263 101.81 109.556 101.711C109.853 101.612 110.185 101.563 110.551 101.563C111.069 101.563 111.513 101.65 111.882 101.826C112.255 101.997 112.541 102.231 112.739 102.528C112.937 102.822 113.036 103.153 113.036 103.523H111.659C111.659 103.359 111.617 103.207 111.533 103.066C111.453 102.921 111.332 102.805 111.168 102.717C111.004 102.626 110.798 102.58 110.551 102.58C110.314 102.58 110.118 102.618 109.962 102.694C109.809 102.767 109.695 102.862 109.619 102.98C109.547 103.098 109.51 103.228 109.51 103.369C109.51 103.471 109.529 103.565 109.568 103.649C109.609 103.729 109.678 103.803 109.773 103.871C109.869 103.936 109.998 103.997 110.162 104.054C110.33 104.111 110.539 104.167 110.791 104.22C111.263 104.319 111.669 104.447 112.008 104.603C112.351 104.755 112.614 104.953 112.796 105.197C112.979 105.437 113.071 105.742 113.071 106.112C113.071 106.386 113.012 106.637 112.894 106.866C112.779 107.091 112.612 107.287 112.391 107.455C112.17 107.618 111.905 107.746 111.596 107.837C111.292 107.929 110.949 107.975 110.568 107.975C110.008 107.975 109.533 107.876 109.145 107.677C108.756 107.476 108.461 107.218 108.259 106.906C108.061 106.59 107.962 106.262 107.962 105.923H109.293C109.309 106.178 109.379 106.382 109.505 106.535C109.634 106.683 109.794 106.792 109.985 106.86C110.179 106.925 110.379 106.957 110.585 106.957C110.832 106.957 111.04 106.925 111.208 106.86C111.375 106.792 111.503 106.7 111.591 106.586C111.678 106.468 111.722 106.334 111.722 106.186Z" fill="#EDA44A"/>
<g clip-path="url(#clip1_39_68)">
<path d="M37.0905 174.977C37.8849 173.325 37.5053 171.705 37.1398 170.141C36.822 168.779 36.5223 167.493 36.8893 166.089C37.9127 162.207 38.6076 159.942 36.266 157.601C33.9243 155.259 31.6563 155.952 27.7718 156.971C26.3653 157.339 25.0744 157.037 23.7108 156.719C22.146 156.354 20.53 155.975 18.8789 156.765C18.2713 157.038 17.7195 157.421 17.2517 157.895C15.2664 159.881 15.2322 163.078 16.9842 164.83C18.7362 166.582 21.9277 168.006 23.899 169.977C25.8702 171.949 27.2625 175.108 29.0364 176.882C30.8103 178.656 33.9799 178.594 35.9653 176.609C36.4379 176.139 36.8195 175.586 37.0905 174.977Z" fill="#FBE7CE"/>
<path d="M23.3975 147.071C22.9367 147.532 22.551 148.059 22.2624 148.622C21.9739 149.185 21.7881 149.772 21.7157 150.352C21.6433 150.931 21.6857 151.49 21.8405 151.998C21.9952 152.505 22.2593 152.951 22.6177 153.309C22.9761 153.668 23.4217 153.932 23.9292 154.086C24.4366 154.241 24.9959 154.284 25.5752 154.211C26.1544 154.139 26.7422 153.953 27.3051 153.664C27.8679 153.376 28.3948 152.99 28.8556 152.529C29.3164 152.069 29.702 151.542 29.9906 150.979C30.2792 150.416 30.4649 149.828 30.5373 149.249C30.6097 148.67 30.5674 148.11 30.4126 147.603C30.2578 147.096 29.9937 146.65 29.6353 146.292C29.2769 145.933 28.8313 145.669 28.3239 145.514C27.8164 145.36 27.2571 145.317 26.6779 145.39C26.0986 145.462 25.5108 145.648 24.948 145.936C24.3851 146.225 23.8582 146.611 23.3975 147.071Z" fill="#FBE7CE"/>
<path d="M33.534 147.851C32.6034 148.781 31.9985 149.961 31.8522 151.131C31.706 152.301 32.0305 153.365 32.7543 154.088C33.4781 154.812 34.5419 155.137 35.7117 154.99C36.8815 154.844 38.0615 154.239 38.9921 153.309C39.4529 152.848 39.8386 152.321 40.1271 151.758C40.4157 151.195 40.6015 150.608 40.6739 150.028C40.8201 148.858 40.4956 147.795 39.7718 147.071C39.0481 146.347 37.9842 146.023 36.8144 146.169C35.6446 146.315 34.4646 146.92 33.534 147.851Z" fill="#FBE7CE"/>
<path d="M40.5516 154.869C39.621 155.799 39.0161 156.979 38.8699 158.149C38.7236 159.319 39.0481 160.383 39.7719 161.106C40.4957 161.83 41.5595 162.155 42.7293 162.009C43.8992 161.862 45.0792 161.257 46.0098 160.327C46.9403 159.396 47.5453 158.216 47.6915 157.046C47.8377 155.877 47.5133 154.813 46.7895 154.089C46.0657 153.365 45.0019 153.041 43.832 153.187C42.6622 153.333 41.4822 153.938 40.5516 154.869Z" fill="#FBE7CE"/>
<path d="M41.3313 165.005C40.8705 165.466 40.4848 165.993 40.1963 166.555C39.9077 167.118 39.7219 167.706 39.6495 168.285C39.5771 168.865 39.6195 169.424 39.7743 169.931C39.9291 170.439 40.1932 170.884 40.5516 171.243C40.91 171.601 41.3556 171.865 41.863 172.02C42.3705 172.175 42.9298 172.217 43.509 172.145C44.0882 172.072 44.6761 171.887 45.2389 171.598C45.8018 171.309 46.3286 170.924 46.7894 170.463C47.2502 170.002 47.6359 169.475 47.9244 168.913C48.213 168.35 48.3988 167.762 48.4712 167.183C48.5436 166.603 48.5012 166.044 48.3464 165.537C48.1916 165.029 47.9275 164.584 47.5691 164.225C47.2108 163.867 46.7651 163.603 46.2577 163.448C45.7503 163.293 45.1909 163.251 44.6117 163.323C44.0325 163.396 43.4446 163.581 42.8818 163.87C42.3189 164.158 41.7921 164.544 41.3313 165.005Z" fill="#FBE7CE"/>
</g>
</g>
<defs>
<clipPath id="clip0_39_68">
<rect width="155" height="195" fill="white"/>
</clipPath>
<clipPath id="clip1_39_68">
<rect width="35.2866" height="35.2866" fill="white" transform="translate(33.1441 135.765) rotate(45)"/>
</clipPath>
</defs>
</svg>
